%TF.GenerationSoftware,KiCad,Pcbnew,7.0.10-7.0.10~ubuntu22.04.1*%
%TF.CreationDate,2024-01-12T22:59:21+01:00*%
%TF.ProjectId,plate,706c6174-652e-46b6-9963-61645f706362,rev?*%
%TF.SameCoordinates,Original*%
%TF.FileFunction,Copper,L1,Top*%
%TF.FilePolarity,Positive*%
%FSLAX46Y46*%
G04 Gerber Fmt 4.6, Leading zero omitted, Abs format (unit mm)*
G04 Created by KiCad (PCBNEW 7.0.10-7.0.10~ubuntu22.04.1) date 2024-01-12 22:59:21*
%MOMM*%
%LPD*%
G01*
G04 APERTURE LIST*
G04 APERTURE END LIST*
%TA.AperFunction,NonConductor*%
G36*
X218213070Y-38635538D02*
G01*
X218227874Y-38637325D01*
X218509194Y-38688619D01*
X218523689Y-38692176D01*
X218575200Y-38708155D01*
X218796798Y-38776900D01*
X218810754Y-38782169D01*
X218810876Y-38782224D01*
X219071707Y-38899098D01*
X219084935Y-38906010D01*
X219329941Y-39053446D01*
X219342236Y-39061892D01*
X219567766Y-39237714D01*
X219578951Y-39247572D01*
X219579018Y-39247638D01*
X219781709Y-39449210D01*
X219791641Y-39460354D01*
X219916829Y-39619113D01*
X219947324Y-39657787D01*
X219968701Y-39684896D01*
X219977214Y-39697141D01*
X220110248Y-39915467D01*
X220126006Y-39941328D01*
X220132992Y-39954520D01*
X220251366Y-40214823D01*
X220256716Y-40228759D01*
X220342948Y-40501387D01*
X220346585Y-40515865D01*
X220399963Y-40799703D01*
X220401121Y-40807080D01*
X220626430Y-42590763D01*
X220626504Y-42591361D01*
X220635001Y-42661360D01*
X220635001Y-42661361D01*
X220635001Y-42661363D01*
X220635002Y-42661364D01*
X220642622Y-42679071D01*
X220646395Y-42687840D01*
X220652050Y-42703960D01*
X220659696Y-42731754D01*
X220673256Y-42753671D01*
X220681707Y-42769897D01*
X220691890Y-42793562D01*
X220691891Y-42793563D01*
X220691892Y-42793564D01*
X220710286Y-42815761D01*
X220720253Y-42829634D01*
X220735420Y-42854148D01*
X220735423Y-42854151D01*
X220754599Y-42871352D01*
X220767281Y-42884540D01*
X220783723Y-42904382D01*
X220807619Y-42920493D01*
X220821097Y-42931001D01*
X220837073Y-42945331D01*
X220842558Y-42950251D01*
X220865814Y-42961357D01*
X220881696Y-42970438D01*
X220887236Y-42974173D01*
X220899926Y-42982729D01*
X220903055Y-42984838D01*
X220903054Y-42984838D01*
X220903056Y-42984839D01*
X220930524Y-42993565D01*
X220946410Y-42999847D01*
X220972429Y-43012274D01*
X220997875Y-43016378D01*
X221015658Y-43020613D01*
X221040222Y-43028418D01*
X221040221Y-43028418D01*
X221041661Y-43028449D01*
X221069042Y-43029052D01*
X221086050Y-43030604D01*
X221114514Y-43035196D01*
X221114514Y-43035195D01*
X221114515Y-43035196D01*
X221123697Y-43034035D01*
X221184779Y-43026320D01*
X237076820Y-41097471D01*
X237076821Y-41097471D01*
X237094930Y-41095273D01*
X237094932Y-41095274D01*
X237156631Y-41087785D01*
X237164075Y-41087109D01*
X237453831Y-41069577D01*
X237468775Y-41069577D01*
X237754792Y-41086836D01*
X237769625Y-41088634D01*
X238051488Y-41140208D01*
X238065991Y-41143778D01*
X238339599Y-41228917D01*
X238353565Y-41234207D01*
X238614914Y-41351664D01*
X238628156Y-41358603D01*
X238732615Y-41421657D01*
X238873462Y-41506676D01*
X238885778Y-41515164D01*
X239111463Y-41691690D01*
X239122664Y-41701597D01*
X239325457Y-41904019D01*
X239335387Y-41915205D01*
X239512324Y-42140564D01*
X239520835Y-42152865D01*
X239669354Y-42397896D01*
X239676321Y-42411132D01*
X239794248Y-42672248D01*
X239799571Y-42686226D01*
X239885207Y-42959663D01*
X239888809Y-42974181D01*
X239941649Y-43260002D01*
X239942787Y-43267398D01*
X239951625Y-43339215D01*
X239951626Y-43339223D01*
X240405206Y-47024548D01*
X240405192Y-47024628D01*
X240432323Y-47245280D01*
X240432325Y-47245290D01*
X240507326Y-47580068D01*
X240614696Y-47905894D01*
X240753409Y-48219670D01*
X240922136Y-48518379D01*
X240922146Y-48518395D01*
X241084858Y-48750160D01*
X241119261Y-48799164D01*
X241342892Y-49059328D01*
X241590884Y-49296379D01*
X241590901Y-49296394D01*
X241860869Y-49508052D01*
X241860872Y-49508054D01*
X242150258Y-49692316D01*
X242425671Y-49831892D01*
X242456275Y-49847402D01*
X242775956Y-49971815D01*
X242775966Y-49971818D01*
X242775984Y-49971825D01*
X243106328Y-50064395D01*
X243444140Y-50124223D01*
X243786184Y-50150737D01*
X244129180Y-50143682D01*
X244290921Y-50124406D01*
X244290934Y-50124408D01*
X244290934Y-50124405D01*
X257253258Y-48581268D01*
X257260016Y-48580464D01*
X257267457Y-48579804D01*
X257556915Y-48562936D01*
X257571843Y-48562966D01*
X257857503Y-48580802D01*
X257872309Y-48582627D01*
X258153749Y-48634689D01*
X258168238Y-48638285D01*
X258441361Y-48723815D01*
X258455323Y-48729130D01*
X258610480Y-48799172D01*
X258708289Y-48843326D01*
X258716178Y-48846887D01*
X258729393Y-48853840D01*
X258974192Y-49002116D01*
X258986473Y-49010606D01*
X259081460Y-49085116D01*
X259211668Y-49187254D01*
X259222846Y-49197167D01*
X259425147Y-49399602D01*
X259435049Y-49410784D01*
X259602387Y-49624405D01*
X259611540Y-49636089D01*
X259620028Y-49648384D01*
X259768137Y-49893276D01*
X259775085Y-49906503D01*
X259892670Y-50167438D01*
X259897976Y-50181405D01*
X259983320Y-50454577D01*
X259986908Y-50469080D01*
X260039436Y-50754103D01*
X260040569Y-50761490D01*
X260048072Y-50822698D01*
X260048072Y-50822699D01*
X266257681Y-101482377D01*
X266257681Y-101482382D01*
X266261584Y-101514235D01*
X266262270Y-101521683D01*
X266280137Y-101811403D01*
X266280156Y-101826360D01*
X266263233Y-102112384D01*
X266261450Y-102127235D01*
X266210215Y-102409122D01*
X266206658Y-102423649D01*
X266121854Y-102697328D01*
X266116574Y-102711321D01*
X265999436Y-102972800D01*
X265992509Y-102986056D01*
X265844743Y-103231527D01*
X265836270Y-103243853D01*
X265660024Y-103469745D01*
X265650129Y-103480961D01*
X265447969Y-103683991D01*
X265436796Y-103693934D01*
X265211657Y-103871151D01*
X265199368Y-103879676D01*
X264954538Y-104028492D01*
X264941311Y-104035476D01*
X264680333Y-104153737D01*
X264666363Y-104159077D01*
X264393060Y-104245052D01*
X264378548Y-104248672D01*
X264093417Y-104301761D01*
X264086019Y-104302908D01*
X248816664Y-106201478D01*
X248809570Y-106202361D01*
X248809565Y-106202361D01*
X248809564Y-106202362D01*
X248792760Y-106204451D01*
X248770159Y-106207261D01*
X248769834Y-106207312D01*
X248660546Y-106220879D01*
X248660531Y-106220882D01*
X248366763Y-106283317D01*
X248079442Y-106370677D01*
X248079419Y-106370685D01*
X247800621Y-106482338D01*
X247532394Y-106617468D01*
X247406899Y-106694857D01*
X247405954Y-106695434D01*
X247351813Y-106728156D01*
X247350512Y-106729216D01*
X247349691Y-106729878D01*
X247348588Y-106730760D01*
X247348490Y-106730864D01*
X247304988Y-106776947D01*
X247304360Y-106777607D01*
X247281315Y-106801595D01*
X247260536Y-106823225D01*
X247259602Y-106824519D01*
X247258970Y-106825385D01*
X247258096Y-106826571D01*
X247227923Y-106882492D01*
X247227406Y-106883442D01*
X247196977Y-106938677D01*
X247196368Y-106940277D01*
X247195969Y-106941310D01*
X247195486Y-106942544D01*
X247181500Y-107001484D01*
X247180623Y-107004953D01*
X246958315Y-107834457D01*
X246956929Y-107839242D01*
X246701482Y-108659162D01*
X246699906Y-108663887D01*
X246411717Y-109472937D01*
X246409951Y-109477595D01*
X246089517Y-110274377D01*
X246087566Y-110278959D01*
X245735392Y-111062229D01*
X245733259Y-111066731D01*
X245349893Y-111835261D01*
X245347580Y-111839672D01*
X244933683Y-112592139D01*
X244931195Y-112596455D01*
X244487398Y-113331712D01*
X244484739Y-113335924D01*
X244011765Y-114052774D01*
X244008939Y-114056875D01*
X243507576Y-114754126D01*
X243504587Y-114758111D01*
X242975597Y-115434697D01*
X242972451Y-115438559D01*
X242416745Y-116093321D01*
X242413447Y-116097053D01*
X241831874Y-116728987D01*
X241828428Y-116732584D01*
X241221936Y-117340662D01*
X241218348Y-117344117D01*
X240730471Y-117795469D01*
X240667893Y-117826546D01*
X240598447Y-117818857D01*
X240544183Y-117774844D01*
X240522329Y-117708480D01*
X240524917Y-117678932D01*
X240528080Y-117663894D01*
X240559996Y-117323781D01*
X240553110Y-116982243D01*
X240507510Y-116643693D01*
X240423786Y-116312504D01*
X240303020Y-115992956D01*
X240146771Y-115689176D01*
X239957059Y-115405090D01*
X239736334Y-115144368D01*
X239666215Y-115078445D01*
X239487444Y-114910373D01*
X239213625Y-114706148D01*
X239213610Y-114706137D01*
X238918382Y-114534302D01*
X238918380Y-114534301D01*
X238605553Y-114397076D01*
X238605546Y-114397073D01*
X238279170Y-114296234D01*
X238279156Y-114296231D01*
X237943446Y-114233080D01*
X237602713Y-114208433D01*
X237261418Y-114222611D01*
X237261413Y-114222611D01*
X236923915Y-114275429D01*
X236594588Y-114366206D01*
X236277692Y-114493768D01*
X235977314Y-114656469D01*
X235977306Y-114656473D01*
X235697348Y-114852199D01*
X235441398Y-115078442D01*
X235441397Y-115078443D01*
X235212769Y-115332275D01*
X235212766Y-115332278D01*
X235014433Y-115610395D01*
X235014429Y-115610402D01*
X234848941Y-115909225D01*
X234848933Y-115909242D01*
X234718417Y-116224932D01*
X234718415Y-116224937D01*
X234624568Y-116553394D01*
X234624565Y-116553404D01*
X234568600Y-116890373D01*
X234568599Y-116890384D01*
X234551233Y-117231558D01*
X234551234Y-117231559D01*
X234572692Y-117572407D01*
X234572697Y-117572486D01*
X234632710Y-117908780D01*
X234730475Y-118236013D01*
X234730498Y-118236091D01*
X234730505Y-118236112D01*
X234864791Y-118550180D01*
X234864797Y-118550193D01*
X235033874Y-118847024D01*
X235235542Y-119122751D01*
X235444191Y-119348877D01*
X235467201Y-119373815D01*
X235476015Y-119381419D01*
X235725847Y-119596962D01*
X236008149Y-119789320D01*
X236008157Y-119789324D01*
X236310458Y-119948400D01*
X236628858Y-120072144D01*
X236628861Y-120072145D01*
X236687460Y-120087542D01*
X236840291Y-120127700D01*
X236900125Y-120163774D01*
X236930959Y-120226472D01*
X236923001Y-120295887D01*
X236878777Y-120349980D01*
X236871931Y-120354340D01*
X236673537Y-120471753D01*
X236669860Y-120473846D01*
X235750041Y-120976654D01*
X235746294Y-120978620D01*
X234809859Y-121449756D01*
X234806048Y-121451592D01*
X233854121Y-121890490D01*
X233850249Y-121892196D01*
X232883894Y-122298367D01*
X232879967Y-122299940D01*
X231900261Y-122672930D01*
X231896281Y-122674367D01*
X230904498Y-123013691D01*
X230900473Y-123014992D01*
X229897653Y-123320297D01*
X229893585Y-123321460D01*
X228880954Y-123592369D01*
X228876849Y-123593393D01*
X227855539Y-123829605D01*
X227851401Y-123830488D01*
X226822629Y-124031720D01*
X226818464Y-124032461D01*
X225783455Y-124198476D01*
X225779266Y-124199075D01*
X224739155Y-124329688D01*
X224734949Y-124330143D01*
X223691031Y-124425195D01*
X223686812Y-124425507D01*
X222640211Y-124484892D01*
X222635983Y-124485059D01*
X221588031Y-124508703D01*
X221583800Y-124508727D01*
X220535593Y-124496606D01*
X220531364Y-124496485D01*
X219484176Y-124448612D01*
X219479954Y-124448346D01*
X218493174Y-124369428D01*
X218466549Y-124364326D01*
X218463164Y-124363283D01*
X218463155Y-124363281D01*
X218417302Y-124362671D01*
X218406961Y-124362101D01*
X218367359Y-124358252D01*
X218313298Y-124367251D01*
X218308950Y-124367896D01*
X200161734Y-126730815D01*
X200161708Y-126730818D01*
X199987745Y-126753433D01*
X199987742Y-126753433D01*
X199987739Y-126753434D01*
X199702328Y-126815119D01*
X199702319Y-126815121D01*
X199702312Y-126815123D01*
X199423056Y-126900355D01*
X199423038Y-126900361D01*
X199291409Y-126952907D01*
X199291382Y-126952918D01*
X181417886Y-134083045D01*
X181417642Y-134083152D01*
X181369054Y-134102534D01*
X181312697Y-134125017D01*
X181312695Y-134125017D01*
X181312695Y-134125018D01*
X181312683Y-134125023D01*
X181039671Y-134262624D01*
X181039665Y-134262627D01*
X180779662Y-134423521D01*
X180682278Y-134496244D01*
X180682270Y-134496250D01*
X180665782Y-134508563D01*
X180665782Y-134508564D01*
X180657173Y-134514993D01*
X180657172Y-134514994D01*
X180605703Y-134553428D01*
X180605702Y-134553430D01*
X166174859Y-145330315D01*
X166169444Y-145334137D01*
X165955481Y-145476775D01*
X165944080Y-145483525D01*
X165719072Y-145600977D01*
X165707015Y-145606472D01*
X165470755Y-145699245D01*
X165458180Y-145703422D01*
X165213379Y-145770454D01*
X165200431Y-145773266D01*
X164949865Y-145813795D01*
X164936691Y-145815209D01*
X164679970Y-145828946D01*
X164673344Y-145829123D01*
X136653085Y-145829123D01*
X136646459Y-145828946D01*
X136389682Y-145815206D01*
X136376508Y-145813792D01*
X136125942Y-145773262D01*
X136112994Y-145770450D01*
X135868186Y-145703416D01*
X135855611Y-145699239D01*
X135619356Y-145606467D01*
X135607300Y-145600973D01*
X135382283Y-145483519D01*
X135370881Y-145476769D01*
X135313613Y-145438592D01*
X135156962Y-145334162D01*
X135151569Y-145330355D01*
X120669216Y-134515011D01*
X120639378Y-134492727D01*
X120546724Y-134423530D01*
X120546714Y-134423523D01*
X120335693Y-134292932D01*
X120286718Y-134262624D01*
X120286715Y-134262622D01*
X120286711Y-134262620D01*
X120286700Y-134262614D01*
X120138106Y-134187720D01*
X123632022Y-134187720D01*
X123641179Y-134362548D01*
X123641180Y-134362550D01*
X123680556Y-134533127D01*
X123680559Y-134533136D01*
X123748959Y-134694279D01*
X123748961Y-134694282D01*
X123748962Y-134694284D01*
X123844312Y-134841108D01*
X123963710Y-134969144D01*
X124005017Y-135000270D01*
X124005019Y-135000272D01*
X124005020Y-135000272D01*
X134444463Y-142866955D01*
X134444466Y-142866956D01*
X134448173Y-142869356D01*
X134448151Y-142869389D01*
X134458837Y-142876304D01*
X134484260Y-142895464D01*
X134640232Y-142974946D01*
X134807635Y-143026137D01*
X134981385Y-143047482D01*
X135156201Y-143038332D01*
X135326773Y-142998966D01*
X135487918Y-142930578D01*
X135634739Y-142835248D01*
X135762777Y-142715872D01*
X135776340Y-142697876D01*
X135787965Y-142684549D01*
X135795479Y-142677083D01*
X143636948Y-132271100D01*
X143640605Y-132266248D01*
X143640604Y-132266247D01*
X143668369Y-132229410D01*
X143668498Y-132229205D01*
X143693273Y-132196332D01*
X143772758Y-132040350D01*
X143823948Y-131872934D01*
X143839169Y-131748988D01*
X157511429Y-131748988D01*
X157532753Y-131922746D01*
X157583927Y-132090161D01*
X157663395Y-132246145D01*
X157663396Y-132246146D01*
X157669893Y-132254769D01*
X157669894Y-132254772D01*
X157692336Y-132284557D01*
X157692374Y-132284610D01*
X157704475Y-132300669D01*
X157704477Y-132300671D01*
X157760376Y-132374858D01*
X157760411Y-132374897D01*
X165495069Y-142639136D01*
X165495095Y-142639176D01*
X165509560Y-142658370D01*
X165509584Y-142658434D01*
X165539675Y-142698364D01*
X165539675Y-142698365D01*
X165592355Y-142768269D01*
X165720393Y-142887657D01*
X165867217Y-142982998D01*
X166028366Y-143051396D01*
X166198944Y-143090773D01*
X166373767Y-143099932D01*
X166547526Y-143078594D01*
X166714939Y-143027409D01*
X166870922Y-142947932D01*
X166940828Y-142895254D01*
X166993452Y-142855599D01*
X166993453Y-142855597D01*
X167001811Y-142849299D01*
X167001812Y-142849297D01*
X177351681Y-135050114D01*
X177351688Y-135050106D01*
X177355021Y-135047201D01*
X177355071Y-135047258D01*
X177364268Y-135039236D01*
X177390121Y-135019756D01*
X177414809Y-134993282D01*
X177509512Y-134891724D01*
X177509511Y-134891724D01*
X177509516Y-134891720D01*
X177604863Y-134744897D01*
X177673266Y-134583748D01*
X177712647Y-134413169D01*
X177721808Y-134238342D01*
X177700471Y-134064581D01*
X177649285Y-133897165D01*
X177569805Y-133741181D01*
X177556249Y-133723193D01*
X177546637Y-133708340D01*
X177541553Y-133699098D01*
X169741332Y-123347853D01*
X169741277Y-123347769D01*
X169727375Y-123329323D01*
X169727334Y-123329215D01*
X169696415Y-123288190D01*
X169696416Y-123288190D01*
X169643734Y-123218289D01*
X169515693Y-123098907D01*
X169515687Y-123098902D01*
X169368869Y-123003572D01*
X169207722Y-122935178D01*
X169037151Y-122895806D01*
X169037138Y-122895804D01*
X168885485Y-122887862D01*
X168862323Y-122886649D01*
X168862322Y-122886649D01*
X168862321Y-122886649D01*
X168688575Y-122907985D01*
X168688569Y-122907986D01*
X168688567Y-122907987D01*
X168617972Y-122929570D01*
X168521154Y-122959171D01*
X168365170Y-123038649D01*
X168326468Y-123067813D01*
X168326462Y-123067816D01*
X168326463Y-123067817D01*
X168323854Y-123069782D01*
X168323854Y-123069783D01*
X168295269Y-123091323D01*
X168295268Y-123091324D01*
X168239206Y-123133567D01*
X168239176Y-123133591D01*
X157881595Y-130938587D01*
X157880250Y-130939677D01*
X157843164Y-130967619D01*
X157843162Y-130967620D01*
X157723761Y-131095644D01*
X157628406Y-131242456D01*
X157559993Y-131403594D01*
X157559991Y-131403601D01*
X157520602Y-131574162D01*
X157520602Y-131574167D01*
X157511429Y-131748988D01*
X143839169Y-131748988D01*
X143845287Y-131699173D01*
X143836129Y-131524346D01*
X143835307Y-131520787D01*
X143821300Y-131460111D01*
X143796750Y-131353765D01*
X143728347Y-131192615D01*
X143632999Y-131045791D01*
X143513604Y-130917756D01*
X143472292Y-130886626D01*
X143472290Y-130886624D01*
X134534148Y-124151252D01*
X145999500Y-124151252D01*
X146035963Y-124451551D01*
X146056229Y-124533773D01*
X146108358Y-124745272D01*
X146215628Y-125028117D01*
X146356206Y-125295964D01*
X146356212Y-125295973D01*
X146528047Y-125544921D01*
X146528052Y-125544927D01*
X146728646Y-125771351D01*
X146728648Y-125771353D01*
X146955072Y-125971947D01*
X146955078Y-125971952D01*
X147126400Y-126090206D01*
X147199059Y-126140359D01*
X147204026Y-126143787D01*
X147204035Y-126143793D01*
X147471882Y-126284371D01*
X147754727Y-126391641D01*
X147754731Y-126391642D01*
X147754734Y-126391643D01*
X148048449Y-126464037D01*
X148299661Y-126494539D01*
X148348746Y-126500500D01*
X148348748Y-126500500D01*
X153151254Y-126500500D01*
X153196630Y-126494990D01*
X153451551Y-126464037D01*
X153745266Y-126391643D01*
X153745269Y-126391641D01*
X153745272Y-126391641D01*
X153848007Y-126352678D01*
X154028113Y-126284373D01*
X154295967Y-126143792D01*
X154544924Y-125971950D01*
X154771352Y-125771352D01*
X154971950Y-125544924D01*
X155143792Y-125295967D01*
X155284373Y-125028113D01*
X155366831Y-124810691D01*
X155391641Y-124745272D01*
X155391641Y-124745269D01*
X155391643Y-124745266D01*
X155464037Y-124451551D01*
X155500500Y-124151252D01*
X155500500Y-124000000D01*
X155500500Y-123934108D01*
X155500500Y-123464201D01*
X155500500Y-123348748D01*
X155499541Y-123340852D01*
X155483482Y-123208596D01*
X155464037Y-123048449D01*
X155391643Y-122754734D01*
X155391642Y-122754731D01*
X155391641Y-122754727D01*
X155284371Y-122471882D01*
X155143793Y-122204035D01*
X155143787Y-122204026D01*
X154971952Y-121955078D01*
X154971947Y-121955072D01*
X154771353Y-121728648D01*
X154771351Y-121728646D01*
X154544927Y-121528052D01*
X154544921Y-121528047D01*
X154295973Y-121356212D01*
X154295964Y-121356206D01*
X154028117Y-121215628D01*
X153745272Y-121108358D01*
X153629820Y-121079902D01*
X153451551Y-121035963D01*
X153271371Y-121014085D01*
X153151254Y-120999500D01*
X153151252Y-120999500D01*
X153035799Y-120999500D01*
X148565892Y-120999500D01*
X148500000Y-120999500D01*
X148348748Y-120999500D01*
X148348746Y-120999500D01*
X148198598Y-121017731D01*
X148048449Y-121035963D01*
X147929602Y-121065255D01*
X147754727Y-121108358D01*
X147471882Y-121215628D01*
X147204035Y-121356206D01*
X147204026Y-121356212D01*
X146955078Y-121528047D01*
X146955072Y-121528052D01*
X146728648Y-121728646D01*
X146728646Y-121728648D01*
X146528052Y-121955072D01*
X146528047Y-121955078D01*
X146356212Y-122204026D01*
X146356206Y-122204035D01*
X146215628Y-122471882D01*
X146108358Y-122754727D01*
X146071464Y-122904414D01*
X146035963Y-123048449D01*
X146030757Y-123091322D01*
X146000459Y-123340852D01*
X145999500Y-123348748D01*
X145999500Y-123464201D01*
X145999500Y-123934108D01*
X145999500Y-124000000D01*
X145999500Y-124151252D01*
X134534148Y-124151252D01*
X133071552Y-123049107D01*
X133071550Y-123049104D01*
X133045347Y-123029357D01*
X133045332Y-123029349D01*
X133032847Y-123019941D01*
X133032845Y-123019940D01*
X133029546Y-123017454D01*
X133028995Y-123017068D01*
X132991547Y-122988845D01*
X132991537Y-122988839D01*
X132835559Y-122909355D01*
X132835552Y-122909352D01*
X132668148Y-122858164D01*
X132668140Y-122858162D01*
X132494383Y-122836821D01*
X132319560Y-122845977D01*
X132148972Y-122885355D01*
X132148971Y-122885355D01*
X131987828Y-122953754D01*
X131987828Y-122953755D01*
X131841002Y-123049102D01*
X131841001Y-123049102D01*
X131712964Y-123168499D01*
X131682748Y-123208596D01*
X131682745Y-123208599D01*
X131681836Y-123209807D01*
X131681831Y-123209813D01*
X128141010Y-127908642D01*
X123812755Y-133652431D01*
X123812478Y-133652825D01*
X123784049Y-133690548D01*
X123784040Y-133690563D01*
X123704556Y-133846540D01*
X123704553Y-133846547D01*
X123653364Y-134013953D01*
X123653362Y-134013962D01*
X123632022Y-134187720D01*
X120138106Y-134187720D01*
X120013679Y-134125007D01*
X120013674Y-134125004D01*
X119958854Y-134103136D01*
X119916665Y-134086307D01*
X119904939Y-134081629D01*
X112098873Y-130967619D01*
X102108620Y-126982289D01*
X102108600Y-126982279D01*
X102084908Y-126972828D01*
X102051196Y-126959381D01*
X101903307Y-126900353D01*
X101624036Y-126815126D01*
X101338629Y-126753445D01*
X101197499Y-126735098D01*
X101197492Y-126735095D01*
X101197483Y-126735095D01*
X101193863Y-126734624D01*
X101193861Y-126734623D01*
X101193858Y-126734624D01*
X101164604Y-126730815D01*
X101128516Y-126726116D01*
X101128514Y-126726116D01*
X93634681Y-125750355D01*
X104923357Y-125750355D01*
X104947718Y-125923700D01*
X104947720Y-125923710D01*
X105001816Y-126090208D01*
X105083996Y-126244773D01*
X105084001Y-126244781D01*
X105191775Y-126382731D01*
X105201673Y-126391643D01*
X105321872Y-126499874D01*
X105321874Y-126499875D01*
X105321875Y-126499876D01*
X105470330Y-126592644D01*
X105470334Y-126592646D01*
X105513793Y-126610205D01*
X105513818Y-126610216D01*
X105518287Y-126612022D01*
X105518294Y-126612025D01*
X105623639Y-126654589D01*
X105623661Y-126654596D01*
X106434705Y-126982279D01*
X117638081Y-131508737D01*
X117638088Y-131508738D01*
X117642293Y-131510098D01*
X117642264Y-131510187D01*
X117653635Y-131513859D01*
X117683923Y-131526095D01*
X117683926Y-131526095D01*
X117683927Y-131526096D01*
X117722702Y-131534334D01*
X117855164Y-131562481D01*
X118030122Y-131568580D01*
X118203481Y-131544206D01*
X118369975Y-131490100D01*
X118524544Y-131407906D01*
X118662493Y-131300121D01*
X118779630Y-131170020D01*
X118872397Y-131021556D01*
X118880829Y-131000681D01*
X118888609Y-130984793D01*
X118893919Y-130975665D01*
X123757848Y-118937016D01*
X123757916Y-118936930D01*
X123777242Y-118889095D01*
X123777244Y-118889096D01*
X123810036Y-118807934D01*
X123846435Y-118636687D01*
X123850792Y-118511886D01*
X177504447Y-118511886D01*
X177510565Y-118686850D01*
X177546974Y-118858091D01*
X177546975Y-118858095D01*
X177555069Y-118878124D01*
X177555069Y-118878128D01*
X177582605Y-118946269D01*
X177582608Y-118946276D01*
X182422588Y-130925648D01*
X182422603Y-130925692D01*
X182431483Y-130947667D01*
X182431483Y-130947676D01*
X182482440Y-131073786D01*
X182575213Y-131222245D01*
X182575217Y-131222250D01*
X182692353Y-131352337D01*
X182692355Y-131352339D01*
X182830306Y-131460115D01*
X182984876Y-131542300D01*
X183151368Y-131596397D01*
X183151372Y-131596397D01*
X183151374Y-131596398D01*
X183324717Y-131620761D01*
X183324717Y-131620760D01*
X183324725Y-131620762D01*
X183499679Y-131614655D01*
X183670915Y-131578262D01*
X183712588Y-131561424D01*
X183712627Y-131561411D01*
X183718889Y-131558880D01*
X183718894Y-131558880D01*
X183752073Y-131545475D01*
X183813168Y-131520794D01*
X183813171Y-131520791D01*
X183821123Y-131517579D01*
X183821151Y-131517564D01*
X195838669Y-126662173D01*
X195838680Y-126662166D01*
X195842656Y-126660221D01*
X195842678Y-126660266D01*
X195853960Y-126654741D01*
X195854319Y-126654596D01*
X195883622Y-126642758D01*
X196032082Y-126549996D01*
X196127556Y-126464037D01*
X196162177Y-126432867D01*
X196162179Y-126432865D01*
X196269961Y-126294922D01*
X196352153Y-126140359D01*
X196406257Y-125973872D01*
X196430630Y-125800520D01*
X196424531Y-125625568D01*
X196393165Y-125477958D01*
X196388146Y-125454338D01*
X196388145Y-125454337D01*
X196388145Y-125454334D01*
X196379708Y-125433447D01*
X196374272Y-125416624D01*
X196373499Y-125413482D01*
X196371741Y-125406335D01*
X191475034Y-113286560D01*
X191475033Y-113286559D01*
X191473461Y-113282667D01*
X191473250Y-113282195D01*
X191455655Y-113238635D01*
X191362892Y-113090160D01*
X191245754Y-112960050D01*
X191181557Y-112909890D01*
X191107806Y-112852264D01*
X191107801Y-112852261D01*
X191107800Y-112852260D01*
X190953224Y-112770064D01*
X190953223Y-112770063D01*
X190953222Y-112770063D01*
X190786724Y-112715962D01*
X190786718Y-112715960D01*
X190613366Y-112691597D01*
X190613359Y-112691596D01*
X190613355Y-112691596D01*
X190613350Y-112691596D01*
X190613348Y-112691596D01*
X190438394Y-112697707D01*
X190267141Y-112734113D01*
X190185989Y-112766904D01*
X190185985Y-112766906D01*
X178195495Y-117611377D01*
X178195484Y-117611382D01*
X178180035Y-117617623D01*
X178179911Y-117617635D01*
X178051430Y-117669545D01*
X177902964Y-117762319D01*
X177772866Y-117879466D01*
X177665083Y-118017431D01*
X177665081Y-118017433D01*
X177582897Y-118172013D01*
X177582896Y-118172016D01*
X177528803Y-118338520D01*
X177528802Y-118338526D01*
X177504447Y-118511886D01*
X123850792Y-118511886D01*
X123852543Y-118461721D01*
X123828174Y-118288353D01*
X123774069Y-118121851D01*
X123691871Y-117967274D01*
X123584080Y-117829320D01*
X123453970Y-117712180D01*
X123354986Y-117650336D01*
X123305493Y-117619414D01*
X123305489Y-117619412D01*
X123229001Y-117588514D01*
X123229001Y-117588513D01*
X123228994Y-117588512D01*
X114721481Y-114151254D01*
X145999500Y-114151254D01*
X146008165Y-114222612D01*
X146035963Y-114451551D01*
X146056370Y-114534346D01*
X146108358Y-114745272D01*
X146215628Y-115028117D01*
X146356206Y-115295964D01*
X146356212Y-115295973D01*
X146528047Y-115544921D01*
X146528052Y-115544927D01*
X146728646Y-115771351D01*
X146728648Y-115771353D01*
X146955072Y-115971947D01*
X146955078Y-115971952D01*
X147204026Y-116143787D01*
X147204035Y-116143793D01*
X147471882Y-116284371D01*
X147754727Y-116391641D01*
X147754731Y-116391642D01*
X147754734Y-116391643D01*
X148048449Y-116464037D01*
X148299661Y-116494539D01*
X148348746Y-116500500D01*
X148348748Y-116500500D01*
X153151254Y-116500500D01*
X153196630Y-116494990D01*
X153451551Y-116464037D01*
X153745266Y-116391643D01*
X153745269Y-116391641D01*
X153745272Y-116391641D01*
X153953824Y-116312547D01*
X154028113Y-116284373D01*
X154295967Y-116143792D01*
X154544924Y-115971950D01*
X154771352Y-115771352D01*
X154971950Y-115544924D01*
X155143792Y-115295967D01*
X155284373Y-115028113D01*
X155386772Y-114758111D01*
X155391641Y-114745272D01*
X155391641Y-114745269D01*
X155391643Y-114745266D01*
X155464037Y-114451551D01*
X155500500Y-114151252D01*
X155500500Y-114000000D01*
X155500500Y-113934108D01*
X155500500Y-113464201D01*
X155500500Y-113348748D01*
X155498431Y-113331712D01*
X155488924Y-113253410D01*
X155464037Y-113048449D01*
X155391643Y-112754734D01*
X155391642Y-112754731D01*
X155391641Y-112754727D01*
X155284371Y-112471882D01*
X155143793Y-112204035D01*
X155143787Y-112204026D01*
X154971952Y-111955078D01*
X154971947Y-111955072D01*
X154771353Y-111728648D01*
X154771351Y-111728646D01*
X154544927Y-111528052D01*
X154544921Y-111528047D01*
X154295973Y-111356212D01*
X154295964Y-111356206D01*
X154028117Y-111215628D01*
X153745272Y-111108358D01*
X153629820Y-111079902D01*
X153451551Y-111035963D01*
X153262706Y-111013033D01*
X153151254Y-110999500D01*
X153151252Y-110999500D01*
X153035799Y-110999500D01*
X148565892Y-110999500D01*
X148500000Y-110999500D01*
X148348748Y-110999500D01*
X148348746Y-110999500D01*
X148198598Y-111017731D01*
X148048449Y-111035963D01*
X147941883Y-111062229D01*
X147754727Y-111108358D01*
X147471882Y-111215628D01*
X147204035Y-111356206D01*
X147204026Y-111356212D01*
X146955078Y-111528047D01*
X146955072Y-111528052D01*
X146728648Y-111728646D01*
X146728646Y-111728648D01*
X146528052Y-111955072D01*
X146528047Y-111955078D01*
X146356212Y-112204026D01*
X146356206Y-112204035D01*
X146215628Y-112471882D01*
X146108358Y-112754727D01*
X146084319Y-112852260D01*
X146035963Y-113048449D01*
X146030898Y-113090162D01*
X145999500Y-113348745D01*
X145999500Y-114151254D01*
X114721481Y-114151254D01*
X111238596Y-112744077D01*
X111238536Y-112744048D01*
X111219312Y-112736283D01*
X111219231Y-112736219D01*
X111170964Y-112716720D01*
X111170965Y-112716720D01*
X111116144Y-112694573D01*
X111089802Y-112683932D01*
X110918569Y-112647542D01*
X110918562Y-112647541D01*
X110743602Y-112641437D01*
X110743601Y-112641437D01*
X110570237Y-112665808D01*
X110403750Y-112719908D01*
X110249168Y-112802107D01*
X110111223Y-112909887D01*
X109994081Y-113039993D01*
X109901313Y-113188462D01*
X109875076Y-113253408D01*
X109875075Y-113253410D01*
X105024257Y-125259603D01*
X105024254Y-125259611D01*
X105009566Y-125295966D01*
X104983660Y-125360085D01*
X104983531Y-125360440D01*
X104965868Y-125404156D01*
X104965868Y-125404158D01*
X104929470Y-125575386D01*
X104929468Y-125575402D01*
X104923357Y-125750355D01*
X93634681Y-125750355D01*
X83017428Y-124367898D01*
X83013080Y-124367253D01*
X82959011Y-124358253D01*
X82919408Y-124362102D01*
X82909068Y-124362672D01*
X82863208Y-124363282D01*
X82859754Y-124364347D01*
X82833132Y-124369448D01*
X81846417Y-124448360D01*
X81842195Y-124448626D01*
X80795007Y-124496498D01*
X80790778Y-124496619D01*
X79742570Y-124508739D01*
X79738339Y-124508715D01*
X78690388Y-124485070D01*
X78686160Y-124484903D01*
X77639558Y-124425517D01*
X77635339Y-124425205D01*
X76794132Y-124348610D01*
X76591417Y-124330152D01*
X76587219Y-124329698D01*
X76495803Y-124318218D01*
X75547108Y-124199083D01*
X75542919Y-124198484D01*
X74507902Y-124032467D01*
X74503737Y-124031726D01*
X73474969Y-123830494D01*
X73470831Y-123829611D01*
X72449521Y-123593398D01*
X72445416Y-123592374D01*
X71534770Y-123348748D01*
X71432771Y-123321460D01*
X71428727Y-123320304D01*
X71061805Y-123208596D01*
X70425907Y-123014999D01*
X70421881Y-123013698D01*
X69430079Y-122674366D01*
X69426100Y-122672929D01*
X68446405Y-122299942D01*
X68442478Y-122298369D01*
X68025130Y-122122952D01*
X84656846Y-122122952D01*
X84665994Y-122297787D01*
X84705366Y-122468379D01*
X84773762Y-122629534D01*
X84773764Y-122629537D01*
X84773765Y-122629539D01*
X84802425Y-122673674D01*
X84869113Y-122776373D01*
X84922555Y-122833684D01*
X84988510Y-122904413D01*
X85128331Y-123009775D01*
X85128333Y-123009776D01*
X85128336Y-123009778D01*
X85282848Y-123088501D01*
X85284324Y-123089253D01*
X85451750Y-123140433D01*
X85513854Y-123148054D01*
X85513861Y-123148057D01*
X85513862Y-123148055D01*
X98477237Y-124739758D01*
X98477248Y-124739757D01*
X98481654Y-124739982D01*
X98481649Y-124740066D01*
X98493724Y-124740678D01*
X98526002Y-124744640D01*
X98700824Y-124735469D01*
X98871398Y-124696082D01*
X99032541Y-124627674D01*
X99179358Y-124532324D01*
X99307388Y-124412929D01*
X99341321Y-124367898D01*
X99412737Y-124273125D01*
X99412739Y-124273120D01*
X99412742Y-124273117D01*
X99492218Y-124117135D01*
X99543401Y-123949722D01*
X99546145Y-123927363D01*
X99549548Y-123910009D01*
X99552315Y-123899815D01*
X101131918Y-111034974D01*
X101131940Y-111034863D01*
X101134610Y-111013101D01*
X101134639Y-111013033D01*
X101141006Y-110961134D01*
X101151663Y-110874267D01*
X200185218Y-110874267D01*
X200189075Y-110905701D01*
X200189075Y-110905702D01*
X200191057Y-110921858D01*
X200191064Y-110921933D01*
X200194908Y-110953242D01*
X200194909Y-110953253D01*
X200204839Y-111034197D01*
X200204861Y-111034312D01*
X201785056Y-123903969D01*
X201785094Y-123904209D01*
X201790850Y-123951119D01*
X201790851Y-123951126D01*
X201842024Y-124118549D01*
X201921498Y-124274544D01*
X201921500Y-124274547D01*
X202026857Y-124414371D01*
X202154895Y-124533774D01*
X202299482Y-124627671D01*
X202301726Y-124629128D01*
X202458469Y-124695659D01*
X202462882Y-124697532D01*
X202633470Y-124736910D01*
X202633468Y-124736910D01*
X202651776Y-124737868D01*
X202808304Y-124746064D01*
X202890125Y-124736012D01*
X202890130Y-124736013D01*
X202890130Y-124736012D01*
X202894561Y-124735468D01*
X215833789Y-123146731D01*
X215833799Y-123146728D01*
X215838132Y-123145879D01*
X215838151Y-123145978D01*
X215849757Y-123143702D01*
X215882313Y-123139702D01*
X216049725Y-123088503D01*
X216205702Y-123009012D01*
X216279021Y-122953754D01*
X216345503Y-122903649D01*
X216345503Y-122903648D01*
X216345508Y-122903645D01*
X216464893Y-122775602D01*
X216560232Y-122628774D01*
X216628627Y-122467623D01*
X216668001Y-122297043D01*
X216677157Y-122122217D01*
X216674412Y-122099876D01*
X216673514Y-122082202D01*
X216673531Y-122081369D01*
X216673732Y-122071653D01*
X215094121Y-109206759D01*
X215094117Y-109206673D01*
X215091241Y-109183265D01*
X215091248Y-109183219D01*
X215085074Y-109132975D01*
X215085076Y-109132975D01*
X215074402Y-109046100D01*
X215023209Y-108878698D01*
X215023208Y-108878696D01*
X215023204Y-108878686D01*
X214943732Y-108722736D01*
X214943723Y-108722722D01*
X214838370Y-108582925D01*
X214710339Y-108463539D01*
X214563525Y-108368197D01*
X214402389Y-108299798D01*
X214402386Y-108299797D01*
X214231819Y-108260413D01*
X214231820Y-108260413D01*
X214144410Y-108255828D01*
X214057003Y-108251243D01*
X214057002Y-108251243D01*
X214057001Y-108251243D01*
X214056999Y-108251243D01*
X214009400Y-108257084D01*
X214009353Y-108257088D01*
X213969391Y-108261995D01*
X213969385Y-108261996D01*
X213896807Y-108270902D01*
X213896735Y-108270916D01*
X201028104Y-109850985D01*
X201026112Y-109851301D01*
X200980159Y-109856941D01*
X200980154Y-109856942D01*
X200812755Y-109908109D01*
X200812752Y-109908110D01*
X200656765Y-109987576D01*
X200516950Y-110092919D01*
X200397552Y-110220939D01*
X200302202Y-110367741D01*
X200302201Y-110367744D01*
X200233789Y-110528878D01*
X200233788Y-110528880D01*
X200233786Y-110528885D01*
X200194394Y-110699440D01*
X200194394Y-110699444D01*
X200185218Y-110874263D01*
X200185218Y-110874267D01*
X101151663Y-110874267D01*
X101151664Y-110874257D01*
X101142488Y-110699442D01*
X101103097Y-110528876D01*
X101103095Y-110528873D01*
X101103095Y-110528870D01*
X101034690Y-110367739D01*
X100977031Y-110278959D01*
X100939343Y-110220929D01*
X100819954Y-110092903D01*
X100735429Y-110029208D01*
X100680147Y-109987549D01*
X100578797Y-109935906D01*
X100524176Y-109908074D01*
X100524173Y-109908073D01*
X100356767Y-109856884D01*
X100308153Y-109850911D01*
X100308135Y-109850908D01*
X100308135Y-109850909D01*
X100268212Y-109846007D01*
X100268212Y-109846006D01*
X100268205Y-109846006D01*
X100198577Y-109837452D01*
X100198514Y-109837448D01*
X87376663Y-108263124D01*
X87376663Y-108263123D01*
X87376656Y-108263123D01*
X87363036Y-108261450D01*
X87363013Y-108261446D01*
X87328012Y-108257150D01*
X87325739Y-108256952D01*
X87279918Y-108251323D01*
X87279913Y-108251323D01*
X87279912Y-108251323D01*
X87232467Y-108253806D01*
X87105100Y-108260472D01*
X86934521Y-108299841D01*
X86773385Y-108368225D01*
X86626560Y-108463558D01*
X86498525Y-108582932D01*
X86498524Y-108582933D01*
X86393167Y-108722720D01*
X86393160Y-108722730D01*
X86313675Y-108878691D01*
X86313671Y-108878700D01*
X86262478Y-109046090D01*
X86262475Y-109046103D01*
X86256601Y-109093901D01*
X86256578Y-109094052D01*
X86251803Y-109132953D01*
X86251801Y-109132969D01*
X86242838Y-109205896D01*
X86242832Y-109206007D01*
X84662625Y-122075764D01*
X84662574Y-122076345D01*
X84656846Y-122122952D01*
X68025130Y-122122952D01*
X67476122Y-121892197D01*
X67472250Y-121890491D01*
X66520323Y-121451591D01*
X66516512Y-121449755D01*
X65580077Y-120978619D01*
X65576330Y-120976653D01*
X64656511Y-120473844D01*
X64652834Y-120471751D01*
X64454382Y-120354304D01*
X64406714Y-120303221D01*
X64394232Y-120234475D01*
X64420897Y-120169894D01*
X64478245Y-120129981D01*
X64486011Y-120127666D01*
X64697505Y-120072089D01*
X65015903Y-119948336D01*
X65318202Y-119789251D01*
X65600494Y-119596889D01*
X65859134Y-119373735D01*
X66090780Y-119122673D01*
X66292438Y-118846945D01*
X66339758Y-118763866D01*
X66461497Y-118550129D01*
X66461500Y-118550123D01*
X66461500Y-118550122D01*
X66461505Y-118550114D01*
X66595795Y-118236014D01*
X66693574Y-117908705D01*
X66753579Y-117572414D01*
X66775033Y-117231486D01*
X66757661Y-116890326D01*
X66701686Y-116553340D01*
X66607831Y-116224884D01*
X66477310Y-115909200D01*
X66311808Y-115610367D01*
X66113464Y-115332245D01*
X66068321Y-115282128D01*
X65944234Y-115144367D01*
X65884840Y-115078428D01*
X65628890Y-114852194D01*
X65348920Y-114656467D01*
X65048547Y-114493776D01*
X65048545Y-114493775D01*
X64731654Y-114366221D01*
X64402327Y-114275450D01*
X64402329Y-114275450D01*
X64064837Y-114222640D01*
X64064824Y-114222639D01*
X63723536Y-114208467D01*
X63382809Y-114233119D01*
X63047107Y-114296273D01*
X63047096Y-114296276D01*
X62720719Y-114397120D01*
X62407904Y-114534346D01*
X62407892Y-114534353D01*
X62112677Y-114706186D01*
X62112654Y-114706201D01*
X61838845Y-114910425D01*
X61589965Y-115144415D01*
X61589961Y-115144419D01*
X61369240Y-115405144D01*
X61179541Y-115689217D01*
X61023298Y-115992996D01*
X61023291Y-115993012D01*
X60902535Y-116312545D01*
X60818818Y-116643719D01*
X60818816Y-116643727D01*
X60773220Y-116982284D01*
X60766337Y-117323815D01*
X60798255Y-117663905D01*
X60798258Y-117663928D01*
X60801397Y-117678850D01*
X60795932Y-117748506D01*
X60753675Y-117804149D01*
X60688044Y-117828113D01*
X60619875Y-117812790D01*
X60595844Y-117795393D01*
X60108020Y-117344090D01*
X60104433Y-117340635D01*
X59497953Y-116732572D01*
X59494507Y-116728975D01*
X59111262Y-116312545D01*
X58912932Y-116097041D01*
X58909659Y-116093339D01*
X58353915Y-115438534D01*
X58350769Y-115434672D01*
X57821804Y-114758118D01*
X57818815Y-114754133D01*
X57317439Y-114056867D01*
X57314613Y-114052766D01*
X56841638Y-113335918D01*
X56838979Y-113331706D01*
X56809379Y-113282667D01*
X56395177Y-112596441D01*
X56392711Y-112592163D01*
X55978789Y-111839655D01*
X55976478Y-111835246D01*
X55593108Y-111066710D01*
X55590990Y-111062242D01*
X55238807Y-110278957D01*
X55236856Y-110274374D01*
X55163876Y-110092905D01*
X54916418Y-109477583D01*
X54914656Y-109472935D01*
X54891274Y-109407293D01*
X54626451Y-108663845D01*
X54624902Y-108659200D01*
X54369443Y-107839244D01*
X54368058Y-107834463D01*
X54266463Y-107455382D01*
X54145697Y-107004770D01*
X54144852Y-107001425D01*
X54130908Y-106942664D01*
X54130906Y-106942660D01*
X54130874Y-106942525D01*
X54130307Y-106941074D01*
X54129902Y-106940024D01*
X54129380Y-106938653D01*
X54098838Y-106883219D01*
X54098317Y-106882262D01*
X54068263Y-106826561D01*
X54067345Y-106825314D01*
X54066698Y-106824428D01*
X54065819Y-106823212D01*
X54065724Y-106823113D01*
X54065723Y-106823111D01*
X54021949Y-106777547D01*
X54021246Y-106776808D01*
X53977874Y-106730864D01*
X53977866Y-106730855D01*
X53977864Y-106730853D01*
X53977768Y-106730752D01*
X53976570Y-106729794D01*
X53975714Y-106729102D01*
X53974550Y-106728154D01*
X53920330Y-106695384D01*
X53919386Y-106694808D01*
X53793959Y-106617465D01*
X53525751Y-106482349D01*
X53525750Y-106482348D01*
X53525745Y-106482346D01*
X53246947Y-106370690D01*
X53246944Y-106370689D01*
X53246939Y-106370687D01*
X52959625Y-106283321D01*
X52959618Y-106283319D01*
X52665857Y-106220872D01*
X52665859Y-106220872D01*
X52522928Y-106203121D01*
X52522928Y-106203119D01*
X52522907Y-106203118D01*
X52447664Y-106193760D01*
X52447611Y-106193755D01*
X52408419Y-106188882D01*
X52385923Y-106186085D01*
X37240598Y-104302935D01*
X37233199Y-104301788D01*
X36947831Y-104248652D01*
X36933319Y-104245032D01*
X36660018Y-104159055D01*
X36646048Y-104153715D01*
X36385077Y-104035455D01*
X36371851Y-104028471D01*
X36127024Y-103879655D01*
X36114734Y-103871129D01*
X35889602Y-103693915D01*
X35878429Y-103683972D01*
X35676271Y-103480942D01*
X35666377Y-103469727D01*
X35662066Y-103464201D01*
X35490131Y-103243831D01*
X35481666Y-103231517D01*
X35333898Y-102986041D01*
X35326972Y-102972786D01*
X35209836Y-102711311D01*
X35204556Y-102697318D01*
X35171681Y-102591225D01*
X35119751Y-102423635D01*
X35116198Y-102409122D01*
X35064961Y-102127218D01*
X35063181Y-102112394D01*
X35046257Y-101826356D01*
X35046276Y-101811405D01*
X35046276Y-101811403D01*
X35049088Y-101765812D01*
X36558309Y-101765812D01*
X36567465Y-101940636D01*
X36567466Y-101940641D01*
X36606841Y-102111216D01*
X36606842Y-102111219D01*
X36675235Y-102272359D01*
X36675239Y-102272368D01*
X36770574Y-102419180D01*
X36770578Y-102419184D01*
X36770580Y-102419187D01*
X36889969Y-102547224D01*
X36889972Y-102547226D01*
X37028757Y-102651814D01*
X37029778Y-102652583D01*
X37185758Y-102732064D01*
X37353170Y-102783252D01*
X37400760Y-102789096D01*
X37400783Y-102789100D01*
X37404526Y-102789559D01*
X37404528Y-102789560D01*
X37455974Y-102795876D01*
X37455973Y-102795877D01*
X37455978Y-102795876D01*
X37505450Y-102801953D01*
X37505450Y-102801952D01*
X37515286Y-102803161D01*
X37515308Y-102803161D01*
X50378692Y-104382587D01*
X50378704Y-104382586D01*
X50383113Y-104382811D01*
X50383110Y-104382860D01*
X50395696Y-104383498D01*
X50427422Y-104387396D01*
X50602239Y-104378240D01*
X50772810Y-104338867D01*
X50933954Y-104270474D01*
X51080773Y-104175138D01*
X51208808Y-104055757D01*
X51314168Y-103915957D01*
X51393653Y-103759985D01*
X51440243Y-103607637D01*
X113099539Y-103607637D01*
X113101416Y-103643402D01*
X113108714Y-103782452D01*
X113148104Y-103953019D01*
X113148105Y-103953022D01*
X113216507Y-104114148D01*
X113216514Y-104114161D01*
X113311851Y-104260958D01*
X113311860Y-104260970D01*
X113431238Y-104388986D01*
X113431246Y-104388993D01*
X113571045Y-104494342D01*
X113571061Y-104494352D01*
X113725587Y-104573091D01*
X113727024Y-104573823D01*
X113894428Y-104625011D01*
X113941516Y-104630795D01*
X113941582Y-104630806D01*
X113982940Y-104635884D01*
X113982948Y-104635885D01*
X114056942Y-104644975D01*
X114057001Y-104644976D01*
X126919965Y-106224351D01*
X126919976Y-106224350D01*
X126924384Y-106224575D01*
X126924381Y-106224626D01*
X126936930Y-106225263D01*
X126968667Y-106229163D01*
X127143494Y-106220015D01*
X127314075Y-106180646D01*
X127475228Y-106112253D01*
X127622055Y-106016913D01*
X127750096Y-105897525D01*
X127785842Y-105850091D01*
X127855451Y-105757725D01*
X127855453Y-105757721D01*
X127855458Y-105757715D01*
X127934941Y-105601733D01*
X127986128Y-105434318D01*
X127988872Y-105411966D01*
X127992273Y-105394610D01*
X127995043Y-105384408D01*
X128146455Y-104151254D01*
X145999500Y-104151254D01*
X146011329Y-104248672D01*
X146035963Y-104451551D01*
X146065920Y-104573091D01*
X146108358Y-104745272D01*
X146215628Y-105028117D01*
X146356206Y-105295964D01*
X146356212Y-105295973D01*
X146528047Y-105544921D01*
X146528052Y-105544927D01*
X146728646Y-105771351D01*
X146728648Y-105771353D01*
X146955072Y-105971947D01*
X146955078Y-105971952D01*
X147204026Y-106143787D01*
X147204035Y-106143793D01*
X147471882Y-106284371D01*
X147754727Y-106391641D01*
X147754731Y-106391642D01*
X147754734Y-106391643D01*
X148048449Y-106464037D01*
X148299661Y-106494539D01*
X148348746Y-106500500D01*
X148348748Y-106500500D01*
X153151254Y-106500500D01*
X153196630Y-106494990D01*
X153451551Y-106464037D01*
X153745266Y-106391643D01*
X153745269Y-106391641D01*
X153745272Y-106391641D01*
X153848007Y-106352678D01*
X154028113Y-106284373D01*
X154030118Y-106283321D01*
X154130464Y-106230655D01*
X154295967Y-106143792D01*
X154544924Y-105971950D01*
X154771352Y-105771352D01*
X154783425Y-105757725D01*
X154921617Y-105601738D01*
X154971950Y-105544924D01*
X155143792Y-105295967D01*
X155284373Y-105028113D01*
X155391643Y-104745266D01*
X155464037Y-104451551D01*
X155499823Y-104156828D01*
X155500500Y-104151254D01*
X155500500Y-103348745D01*
X155487761Y-103243837D01*
X155464037Y-103048449D01*
X155391643Y-102754734D01*
X155391642Y-102754731D01*
X155391641Y-102754727D01*
X155284371Y-102471882D01*
X155143793Y-102204035D01*
X155143787Y-102204026D01*
X154971952Y-101955078D01*
X154971947Y-101955072D01*
X154771353Y-101728648D01*
X154771351Y-101728646D01*
X154544927Y-101528052D01*
X154544921Y-101528047D01*
X154295973Y-101356212D01*
X154295964Y-101356206D01*
X154028117Y-101215628D01*
X153745272Y-101108358D01*
X153625973Y-101078954D01*
X153451551Y-101035963D01*
X153271371Y-101014085D01*
X153151254Y-100999500D01*
X153151252Y-100999500D01*
X153035799Y-100999500D01*
X148565892Y-100999500D01*
X148500000Y-100999500D01*
X148348748Y-100999500D01*
X148348746Y-100999500D01*
X148198598Y-101017731D01*
X148048449Y-101035963D01*
X147929602Y-101065255D01*
X147754727Y-101108358D01*
X147471882Y-101215628D01*
X147204035Y-101356206D01*
X147204026Y-101356212D01*
X146955078Y-101528047D01*
X146955072Y-101528052D01*
X146728648Y-101728646D01*
X146728646Y-101728648D01*
X146528052Y-101955072D01*
X146528047Y-101955078D01*
X146356212Y-102204026D01*
X146356206Y-102204035D01*
X146215628Y-102471882D01*
X146108358Y-102754727D01*
X146078200Y-102877085D01*
X146035963Y-103048449D01*
X146021377Y-103168568D01*
X145999500Y-103348745D01*
X145999500Y-104151254D01*
X128146455Y-104151254D01*
X129588070Y-92410244D01*
X129588069Y-92410237D01*
X129588591Y-92405993D01*
X129588632Y-92405516D01*
X129594356Y-92358941D01*
X171742480Y-92358941D01*
X171751767Y-92434515D01*
X171751767Y-92434519D01*
X171751768Y-92434519D01*
X171751769Y-92434526D01*
X171753156Y-92445821D01*
X171753582Y-92449289D01*
X173328601Y-105276800D01*
X173328607Y-105276888D01*
X173331167Y-105297726D01*
X173331147Y-105297845D01*
X173348097Y-105435800D01*
X173399292Y-105603205D01*
X173399294Y-105603209D01*
X173478036Y-105757725D01*
X173478777Y-105759178D01*
X173478784Y-105759190D01*
X173584137Y-105898984D01*
X173584140Y-105898987D01*
X173584141Y-105898988D01*
X173712177Y-106018373D01*
X173712179Y-106018374D01*
X173712183Y-106018378D01*
X173858997Y-106113714D01*
X174020135Y-106182111D01*
X174020140Y-106182112D01*
X174020142Y-106182113D01*
X174190715Y-106221492D01*
X174190714Y-106221492D01*
X174199008Y-106221926D01*
X174365535Y-106230656D01*
X174403063Y-106226047D01*
X174409286Y-106225284D01*
X174409296Y-106225284D01*
X174416889Y-106224351D01*
X174416892Y-106224352D01*
X174440182Y-106221492D01*
X174452413Y-106219990D01*
X174452413Y-106219991D01*
X174517814Y-106211962D01*
X174517816Y-106211960D01*
X174530715Y-106210377D01*
X174530728Y-106210373D01*
X187391057Y-104631325D01*
X187391065Y-104631322D01*
X187395391Y-104630475D01*
X187395408Y-104630566D01*
X187407163Y-104628261D01*
X187435075Y-104624833D01*
X187439551Y-104624284D01*
X187495356Y-104607220D01*
X187606968Y-104573092D01*
X187762952Y-104493607D01*
X187902764Y-104388242D01*
X188022156Y-104260200D01*
X188117499Y-104113371D01*
X188185897Y-103952216D01*
X188185897Y-103952213D01*
X188185899Y-103952210D01*
X188225269Y-103781641D01*
X188225269Y-103781640D01*
X188225271Y-103781632D01*
X188232195Y-103649412D01*
X188234426Y-103606808D01*
X188234425Y-103606806D01*
X188234426Y-103606803D01*
X188231680Y-103584459D01*
X188230782Y-103566780D01*
X188230799Y-103565967D01*
X188231000Y-103556247D01*
X186637973Y-90582083D01*
X186637971Y-90582076D01*
X186637475Y-90578035D01*
X186637354Y-90577278D01*
X186631650Y-90530784D01*
X186627475Y-90517122D01*
X186580477Y-90363356D01*
X186501007Y-90207363D01*
X186500996Y-90207349D01*
X186473566Y-90170945D01*
X186395654Y-90067541D01*
X186395631Y-90067520D01*
X186267623Y-89948140D01*
X186267621Y-89948138D01*
X186120798Y-89852785D01*
X186024751Y-89812013D01*
X185959645Y-89784376D01*
X185789063Y-89744994D01*
X185639107Y-89737137D01*
X185614234Y-89735834D01*
X185614233Y-89735834D01*
X185614231Y-89735834D01*
X185527353Y-89746503D01*
X185527352Y-89746504D01*
X185522482Y-89747102D01*
X185522481Y-89747102D01*
X172693422Y-91322310D01*
X172693409Y-91322313D01*
X172689654Y-91322774D01*
X172689652Y-91322774D01*
X172681892Y-91323726D01*
X172675840Y-91324470D01*
X172675637Y-91324436D01*
X172537360Y-91341419D01*
X172369939Y-91392610D01*
X172369926Y-91392615D01*
X172213954Y-91472095D01*
X172213941Y-91472103D01*
X172074130Y-91577469D01*
X171954738Y-91705514D01*
X171859395Y-91852349D01*
X171859395Y-91852350D01*
X171790997Y-92013515D01*
X171790997Y-92013516D01*
X171751629Y-92184098D01*
X171751629Y-92184099D01*
X171742480Y-92358941D01*
X129594356Y-92358941D01*
X129594356Y-92358939D01*
X129585208Y-92184104D01*
X129545835Y-92013515D01*
X129477436Y-91852356D01*
X129382088Y-91705524D01*
X129382085Y-91705521D01*
X129382084Y-91705519D01*
X129262691Y-91577483D01*
X129262672Y-91577469D01*
X129122869Y-91472122D01*
X129122863Y-91472118D01*
X128966879Y-91392645D01*
X128799451Y-91341464D01*
X128768392Y-91337652D01*
X128737335Y-91333841D01*
X128661014Y-91324470D01*
X115882855Y-89755509D01*
X115882784Y-89755495D01*
X115860313Y-89752738D01*
X115860061Y-89752629D01*
X115809473Y-89746421D01*
X115809474Y-89746421D01*
X115722589Y-89735759D01*
X115547755Y-89744933D01*
X115547750Y-89744933D01*
X115377175Y-89784325D01*
X115377171Y-89784326D01*
X115216017Y-89852747D01*
X115069198Y-89948109D01*
X115069193Y-89948113D01*
X114941166Y-90067520D01*
X114941159Y-90067527D01*
X114835818Y-90207345D01*
X114756346Y-90363352D01*
X114705177Y-90530775D01*
X114705176Y-90530777D01*
X114696195Y-90603985D01*
X114696194Y-90603997D01*
X113119177Y-103447764D01*
X113119155Y-103447884D01*
X113116448Y-103469947D01*
X113116426Y-103469997D01*
X113099641Y-103606808D01*
X113099539Y-103607637D01*
X51440243Y-103607637D01*
X51440498Y-103606803D01*
X51444847Y-103592583D01*
X51447594Y-103570219D01*
X51450999Y-103552854D01*
X51453769Y-103542648D01*
X51453769Y-103542646D01*
X51453770Y-103542644D01*
X52020276Y-98928821D01*
X94482208Y-98928821D01*
X94491364Y-99103637D01*
X94530740Y-99274220D01*
X94599137Y-99435366D01*
X94599139Y-99435371D01*
X94694473Y-99582182D01*
X94694477Y-99582186D01*
X94694479Y-99582189D01*
X94813868Y-99710226D01*
X94813871Y-99710228D01*
X94952648Y-99814810D01*
X94953677Y-99815585D01*
X95109656Y-99895066D01*
X95277068Y-99946253D01*
X95323197Y-99951918D01*
X95323236Y-99951924D01*
X95328423Y-99952560D01*
X95328427Y-99952562D01*
X95375328Y-99958320D01*
X95375327Y-99958321D01*
X95375332Y-99958320D01*
X95429348Y-99964955D01*
X95429348Y-99964954D01*
X95439183Y-99966163D01*
X95439206Y-99966163D01*
X108302591Y-101545589D01*
X108302602Y-101545588D01*
X108307010Y-101545813D01*
X108307007Y-101545860D01*
X108319603Y-101546499D01*
X108351320Y-101550395D01*
X108526137Y-101541239D01*
X108696708Y-101501867D01*
X108857851Y-101433474D01*
X109004670Y-101338139D01*
X109132705Y-101218759D01*
X109238066Y-101078959D01*
X109317551Y-100922989D01*
X109368745Y-100755585D01*
X109371492Y-100733223D01*
X109374896Y-100715863D01*
X109377669Y-100705646D01*
X110957233Y-87841121D01*
X110957240Y-87841090D01*
X110958307Y-87832395D01*
X110960085Y-87817906D01*
X110960120Y-87817825D01*
X110966359Y-87767000D01*
X110966360Y-87767001D01*
X110977025Y-87680124D01*
X190359860Y-87680124D01*
X190365700Y-87727698D01*
X190365702Y-87727723D01*
X190370523Y-87766995D01*
X190370523Y-87766997D01*
X190379300Y-87838503D01*
X190379309Y-87838556D01*
X191959652Y-100709412D01*
X191959855Y-100710687D01*
X191965534Y-100756957D01*
X191965537Y-100756970D01*
X192016710Y-100924377D01*
X192096175Y-101080353D01*
X192096180Y-101080361D01*
X192201530Y-101220178D01*
X192201533Y-101220181D01*
X192329546Y-101339567D01*
X192329551Y-101339571D01*
X192471430Y-101431718D01*
X192476364Y-101434922D01*
X192634051Y-101501866D01*
X192637504Y-101503332D01*
X192808069Y-101542720D01*
X192808070Y-101542720D01*
X192808074Y-101542721D01*
X192982893Y-101551892D01*
X193028129Y-101546339D01*
X193028172Y-101546337D01*
X193034265Y-101545588D01*
X193034267Y-101545589D01*
X193064129Y-101541922D01*
X193064129Y-101541928D01*
X193064154Y-101541918D01*
X193069771Y-101541230D01*
X193135173Y-101533204D01*
X193135175Y-101533202D01*
X193144073Y-101532111D01*
X193144139Y-101532097D01*
X206008432Y-99952562D01*
X206008433Y-99952561D01*
X206008438Y-99952561D01*
X206012780Y-99951710D01*
X206012792Y-99951771D01*
X206024944Y-99949388D01*
X206056886Y-99945468D01*
X206056888Y-99945467D01*
X206056890Y-99945467D01*
X206056894Y-99945466D01*
X206184288Y-99906520D01*
X206224301Y-99894288D01*
X206380285Y-99814815D01*
X206520099Y-99709462D01*
X206639494Y-99581432D01*
X206734843Y-99434614D01*
X206803249Y-99273469D01*
X206842633Y-99102894D01*
X206851799Y-98928071D01*
X206849054Y-98905720D01*
X206848156Y-98888059D01*
X206848375Y-98877484D01*
X205269029Y-86014754D01*
X205269029Y-86014726D01*
X205267740Y-86004235D01*
X205267741Y-86004232D01*
X205265987Y-85989959D01*
X205266017Y-85989782D01*
X205255395Y-85903302D01*
X205249087Y-85851943D01*
X205207978Y-85717503D01*
X205197896Y-85684531D01*
X205197895Y-85684529D01*
X205197894Y-85684525D01*
X205118406Y-85528540D01*
X205118401Y-85528534D01*
X205118398Y-85528528D01*
X205013042Y-85388729D01*
X205013039Y-85388726D01*
X204884999Y-85269338D01*
X204884996Y-85269336D01*
X204738165Y-85173993D01*
X204661658Y-85141522D01*
X204577004Y-85105594D01*
X204577000Y-85105593D01*
X204406432Y-85066224D01*
X204406418Y-85066222D01*
X204231592Y-85057070D01*
X204157680Y-85066149D01*
X204157680Y-85066150D01*
X204144710Y-85067743D01*
X204144338Y-85067788D01*
X204140919Y-85068207D01*
X204140909Y-85068209D01*
X197757948Y-85851938D01*
X191313161Y-86643258D01*
X191313100Y-86643262D01*
X191297053Y-86645233D01*
X191297024Y-86645228D01*
X191154732Y-86662707D01*
X190987323Y-86713898D01*
X190831355Y-86793374D01*
X190831342Y-86793382D01*
X190691543Y-86898734D01*
X190691541Y-86898735D01*
X190572160Y-87026761D01*
X190572156Y-87026765D01*
X190476809Y-87173588D01*
X190476809Y-87173589D01*
X190408410Y-87334723D01*
X190369028Y-87505291D01*
X190369027Y-87505296D01*
X190359860Y-87680118D01*
X190359860Y-87680124D01*
X110977025Y-87680124D01*
X110977025Y-87680120D01*
X110967858Y-87505294D01*
X110928471Y-87334716D01*
X110928469Y-87334713D01*
X110928469Y-87334710D01*
X110860065Y-87173572D01*
X110860062Y-87173566D01*
X110764714Y-87026752D01*
X110764708Y-87026745D01*
X110645313Y-86898716D01*
X110645312Y-86898715D01*
X110505495Y-86793361D01*
X110505493Y-86793360D01*
X110505492Y-86793359D01*
X110505488Y-86793357D01*
X110349509Y-86713887D01*
X110265799Y-86688296D01*
X110182090Y-86662706D01*
X110182088Y-86662705D01*
X110182087Y-86662705D01*
X110126993Y-86655942D01*
X110126989Y-86655940D01*
X110126989Y-86655941D01*
X97265479Y-85076746D01*
X97265448Y-85076741D01*
X97188349Y-85067276D01*
X97188331Y-85067273D01*
X97152335Y-85062854D01*
X97152118Y-85062835D01*
X97105233Y-85057079D01*
X97105230Y-85057079D01*
X97070443Y-85058902D01*
X96930417Y-85066243D01*
X96930413Y-85066243D01*
X96930410Y-85066244D01*
X96794013Y-85097735D01*
X96759832Y-85105627D01*
X96598695Y-85174026D01*
X96598686Y-85174031D01*
X96451880Y-85269368D01*
X96451868Y-85269377D01*
X96323843Y-85388761D01*
X96323843Y-85388762D01*
X96218489Y-85528566D01*
X96218485Y-85528573D01*
X96139008Y-85684548D01*
X96087822Y-85851954D01*
X96087821Y-85851960D01*
X96081881Y-85900317D01*
X96081876Y-85900351D01*
X96075363Y-85953395D01*
X96075362Y-85953400D01*
X96068121Y-86012348D01*
X96068119Y-86012387D01*
X94487994Y-98881475D01*
X94487926Y-98882258D01*
X94482208Y-98928821D01*
X52020276Y-98928821D01*
X52590358Y-94285868D01*
X56668636Y-94285868D01*
X56674475Y-94397467D01*
X56677783Y-94460685D01*
X56677783Y-94460692D01*
X56717146Y-94631256D01*
X56717147Y-94631259D01*
X56717148Y-94631261D01*
X56785536Y-94792408D01*
X56880867Y-94939231D01*
X56880870Y-94939235D01*
X56880871Y-94939236D01*
X57000245Y-95067269D01*
X57000251Y-95067275D01*
X57139083Y-95171910D01*
X57140044Y-95172634D01*
X57140048Y-95172636D01*
X57296013Y-95252120D01*
X57296018Y-95252122D01*
X57345806Y-95267347D01*
X57463420Y-95303316D01*
X57509334Y-95308956D01*
X57509434Y-95308973D01*
X57514798Y-95309631D01*
X57514803Y-95309633D01*
X57561314Y-95315343D01*
X57561314Y-95315346D01*
X57561326Y-95315344D01*
X57615696Y-95322026D01*
X57615698Y-95322025D01*
X57624499Y-95323107D01*
X57624583Y-95323112D01*
X70488967Y-96902660D01*
X70488978Y-96902659D01*
X70493386Y-96902884D01*
X70493383Y-96902932D01*
X70505989Y-96903573D01*
X70507422Y-96903749D01*
X70537672Y-96907466D01*
X70712496Y-96898318D01*
X70883075Y-96858949D01*
X71044227Y-96790557D01*
X71191053Y-96695219D01*
X71319092Y-96575833D01*
X71424455Y-96436026D01*
X71463536Y-96359332D01*
X71503934Y-96280056D01*
X71503935Y-96280051D01*
X71503938Y-96280047D01*
X71555128Y-96112635D01*
X71557873Y-96090276D01*
X71561276Y-96072917D01*
X71564045Y-96062717D01*
X72076046Y-91892799D01*
X76154260Y-91892799D01*
X76163429Y-92067617D01*
X76202813Y-92238181D01*
X76271215Y-92399322D01*
X76366551Y-92546126D01*
X76366556Y-92546133D01*
X76366561Y-92546138D01*
X76485933Y-92674154D01*
X76485938Y-92674159D01*
X76485941Y-92674162D01*
X76625743Y-92779517D01*
X76781714Y-92858997D01*
X76949116Y-92910188D01*
X76996122Y-92915962D01*
X76996233Y-92915981D01*
X77039171Y-92921252D01*
X77039170Y-92921255D01*
X77039183Y-92921253D01*
X77101391Y-92928897D01*
X77101391Y-92928896D01*
X77110491Y-92930015D01*
X77110570Y-92930019D01*
X89974660Y-94509531D01*
X89974671Y-94509530D01*
X89979077Y-94509755D01*
X89979071Y-94509862D01*
X89990809Y-94510457D01*
X90023442Y-94514461D01*
X90198269Y-94505283D01*
X90368847Y-94465887D01*
X90529992Y-94397469D01*
X90676809Y-94302109D01*
X90804838Y-94182704D01*
X90910187Y-94042882D01*
X90989657Y-93886890D01*
X91040833Y-93719469D01*
X91043576Y-93697114D01*
X91046980Y-93679749D01*
X91049738Y-93669588D01*
X92150965Y-84700804D01*
X115420962Y-84700804D01*
X115430134Y-84875634D01*
X115430134Y-84875639D01*
X115469337Y-85045396D01*
X115469527Y-85046217D01*
X115537942Y-85207367D01*
X115633302Y-85354188D01*
X115665548Y-85388763D01*
X115752708Y-85482219D01*
X115752712Y-85482223D01*
X115892526Y-85587567D01*
X115892531Y-85587569D01*
X115892533Y-85587571D01*
X116048528Y-85667041D01*
X116215953Y-85718215D01*
X116286924Y-85726924D01*
X116286929Y-85726926D01*
X116286930Y-85726925D01*
X129241433Y-87317538D01*
X129241444Y-87317537D01*
X129245851Y-87317762D01*
X129245846Y-87317853D01*
X129257818Y-87318460D01*
X129290192Y-87322434D01*
X129465019Y-87313264D01*
X129635597Y-87273876D01*
X129796745Y-87205465D01*
X129943565Y-87110111D01*
X130071596Y-86990711D01*
X130176950Y-86850893D01*
X130256423Y-86694905D01*
X130307603Y-86527486D01*
X130310346Y-86505127D01*
X130313753Y-86487756D01*
X130316511Y-86477595D01*
X131909538Y-73503431D01*
X131909537Y-73503422D01*
X131909978Y-73499837D01*
X131910126Y-73498115D01*
X131915778Y-73452115D01*
X169421015Y-73452115D01*
X169431686Y-73538973D01*
X169431687Y-73538982D01*
X171007075Y-86369496D01*
X171007081Y-86369578D01*
X171009756Y-86391355D01*
X171009720Y-86391567D01*
X171015930Y-86442108D01*
X171026604Y-86528989D01*
X171026605Y-86528992D01*
X171077798Y-86696398D01*
X171077802Y-86696406D01*
X171157288Y-86852381D01*
X171157296Y-86852394D01*
X171262653Y-86992190D01*
X171262657Y-86992193D01*
X171262658Y-86992195D01*
X171390703Y-87111583D01*
X171535286Y-87205465D01*
X171537530Y-87206922D01*
X171537537Y-87206926D01*
X171698687Y-87275319D01*
X171865585Y-87313841D01*
X171869272Y-87314692D01*
X172044101Y-87323845D01*
X172125540Y-87313840D01*
X172125545Y-87313841D01*
X172125545Y-87313840D01*
X173267798Y-87173589D01*
X185069591Y-85724512D01*
X185069592Y-85724511D01*
X185069597Y-85724511D01*
X185073939Y-85723660D01*
X185073960Y-85723771D01*
X185085403Y-85721525D01*
X185118125Y-85717505D01*
X185285539Y-85666303D01*
X185441519Y-85586808D01*
X185581326Y-85481435D01*
X185700711Y-85353387D01*
X185796049Y-85206554D01*
X185864441Y-85045396D01*
X185872809Y-85009140D01*
X185878498Y-84984483D01*
X185903810Y-84874811D01*
X185904870Y-84854572D01*
X185912961Y-84699986D01*
X185912961Y-84699985D01*
X185911383Y-84687147D01*
X185910215Y-84677640D01*
X185909316Y-84659958D01*
X185909534Y-84649434D01*
X184316507Y-71675270D01*
X184316506Y-71675267D01*
X184316053Y-71671576D01*
X184315805Y-71670021D01*
X184310155Y-71623968D01*
X184310155Y-71623965D01*
X184258985Y-71456557D01*
X184258984Y-71456556D01*
X184258983Y-71456551D01*
X184179517Y-71300565D01*
X184179490Y-71300529D01*
X184074174Y-71160750D01*
X184074172Y-71160748D01*
X183946145Y-71041346D01*
X183946144Y-71041345D01*
X183799335Y-70945995D01*
X183638193Y-70877584D01*
X183467624Y-70838195D01*
X183467626Y-70838195D01*
X183362728Y-70832692D01*
X183292800Y-70829024D01*
X183292798Y-70829024D01*
X183292796Y-70829024D01*
X183292791Y-70829024D01*
X183245233Y-70834862D01*
X183245155Y-70834869D01*
X183209969Y-70839188D01*
X183202687Y-70840083D01*
X183202685Y-70840083D01*
X183134420Y-70848461D01*
X183134351Y-70848473D01*
X170355458Y-72417524D01*
X170355423Y-72417518D01*
X170215937Y-72434638D01*
X170215935Y-72434638D01*
X170048509Y-72485819D01*
X169892515Y-72565298D01*
X169892506Y-72565304D01*
X169752697Y-72670655D01*
X169633293Y-72798703D01*
X169633265Y-72798746D01*
X169545039Y-72934609D01*
X169537941Y-72945539D01*
X169469546Y-73106681D01*
X169469543Y-73106692D01*
X169430167Y-73277279D01*
X169430166Y-73277281D01*
X169421015Y-73452115D01*
X131915778Y-73452115D01*
X131915779Y-73452107D01*
X131906628Y-73277288D01*
X131867258Y-73106714D01*
X131816013Y-72985967D01*
X131798868Y-72945567D01*
X131798867Y-72945566D01*
X131703538Y-72798753D01*
X131703531Y-72798744D01*
X131584155Y-72670712D01*
X131584154Y-72670711D01*
X131584152Y-72670709D01*
X131444352Y-72565347D01*
X131444349Y-72565345D01*
X131444343Y-72565342D01*
X131288382Y-72485863D01*
X131288374Y-72485859D01*
X131155775Y-72445310D01*
X131120974Y-72434668D01*
X131073782Y-72428869D01*
X131073726Y-72428860D01*
X131033940Y-72423975D01*
X131027637Y-72423201D01*
X131019067Y-72422148D01*
X130961370Y-72415059D01*
X130961293Y-72415054D01*
X124023999Y-71563262D01*
X118133753Y-70840031D01*
X118130998Y-70839693D01*
X118130997Y-70839693D01*
X118130986Y-70839691D01*
X118130985Y-70839691D01*
X118101126Y-70836025D01*
X118095430Y-70835326D01*
X118095429Y-70835326D01*
X118091169Y-70834803D01*
X118090975Y-70834786D01*
X118073544Y-70832644D01*
X118044114Y-70829029D01*
X118044113Y-70829029D01*
X117869284Y-70838181D01*
X117869276Y-70838182D01*
X117698694Y-70877557D01*
X117698683Y-70877560D01*
X117537538Y-70945957D01*
X117520678Y-70956906D01*
X117390707Y-71041307D01*
X117390705Y-71041308D01*
X117390703Y-71041310D01*
X117262663Y-71160709D01*
X117157312Y-71300521D01*
X117157307Y-71300529D01*
X117077829Y-71456520D01*
X117026651Y-71623940D01*
X117018603Y-71689522D01*
X117018602Y-71689529D01*
X115440552Y-84541705D01*
X115440541Y-84541768D01*
X115437995Y-84562515D01*
X115437909Y-84562711D01*
X115420962Y-84700804D01*
X92150965Y-84700804D01*
X92631802Y-80784702D01*
X92631806Y-80784694D01*
X92638403Y-80730985D01*
X92638404Y-80730986D01*
X92649077Y-80644102D01*
X92639923Y-80469267D01*
X92600545Y-80298679D01*
X92600544Y-80298676D01*
X92600544Y-80298675D01*
X92532146Y-80137536D01*
X92532140Y-80137521D01*
X92457118Y-80021996D01*
X96803718Y-80021996D01*
X96812870Y-80196803D01*
X96812870Y-80196807D01*
X96812871Y-80196812D01*
X96836381Y-80298675D01*
X96852239Y-80367384D01*
X96920626Y-80528524D01*
X97015485Y-80674618D01*
X97015959Y-80675347D01*
X97135336Y-80803383D01*
X97275133Y-80908745D01*
X97275137Y-80908747D01*
X97275140Y-80908749D01*
X97429659Y-80987497D01*
X97431101Y-80988232D01*
X97598502Y-81039429D01*
X97645341Y-81045184D01*
X97645444Y-81045201D01*
X97649886Y-81045746D01*
X97649892Y-81045748D01*
X97693798Y-81051139D01*
X97693798Y-81051142D01*
X97693809Y-81051140D01*
X97750776Y-81058141D01*
X97750777Y-81058140D01*
X97760024Y-81059277D01*
X97760120Y-81059281D01*
X110624056Y-82638775D01*
X110624069Y-82638774D01*
X110628478Y-82638999D01*
X110628473Y-82639085D01*
X110640518Y-82639695D01*
X110672839Y-82643662D01*
X110847657Y-82634486D01*
X111018226Y-82595095D01*
X111179364Y-82526686D01*
X111326176Y-82431337D01*
X111454203Y-82311944D01*
X111559555Y-82172136D01*
X111639031Y-82016159D01*
X111690217Y-81848751D01*
X111692962Y-81826389D01*
X111696363Y-81809039D01*
X111699134Y-81798832D01*
X113278699Y-68934297D01*
X113278709Y-68934251D01*
X113279773Y-68925579D01*
X113279775Y-68925576D01*
X113281579Y-68910869D01*
X113281679Y-68910638D01*
X113287872Y-68860183D01*
X113298536Y-68773298D01*
X113298536Y-68773297D01*
X188038394Y-68773297D01*
X188044233Y-68820882D01*
X188044238Y-68820936D01*
X188048611Y-68856550D01*
X188049054Y-68860157D01*
X188049054Y-68860170D01*
X188049056Y-68860170D01*
X188058053Y-68933489D01*
X188058067Y-68933560D01*
X189638231Y-81802964D01*
X189638318Y-81803513D01*
X189644041Y-81850140D01*
X189644042Y-81850145D01*
X189695220Y-82017574D01*
X189774690Y-82173560D01*
X189878964Y-82311945D01*
X189880045Y-82313379D01*
X190008078Y-82432779D01*
X190154900Y-82528130D01*
X190235475Y-82562333D01*
X190316047Y-82596535D01*
X190316048Y-82596535D01*
X190316050Y-82596536D01*
X190486631Y-82635919D01*
X190661459Y-82645080D01*
X190725273Y-82637243D01*
X203686966Y-81045748D01*
X203686981Y-81045743D01*
X203691308Y-81044896D01*
X203691324Y-81044979D01*
X203703181Y-81042653D01*
X203735461Y-81038689D01*
X203902873Y-80987498D01*
X204058852Y-80908015D01*
X204058854Y-80908013D01*
X204058861Y-80908009D01*
X204198657Y-80802658D01*
X204198656Y-80802658D01*
X204198661Y-80802655D01*
X204318050Y-80674618D01*
X204337864Y-80644106D01*
X208687786Y-80644106D01*
X208691624Y-80675343D01*
X208695361Y-80705765D01*
X208695362Y-80705774D01*
X210273994Y-93562706D01*
X210273998Y-93562760D01*
X210276504Y-93583167D01*
X210276490Y-93583249D01*
X210293407Y-93720969D01*
X210344597Y-93888376D01*
X210344599Y-93888380D01*
X210424083Y-94044358D01*
X210424088Y-94044365D01*
X210424089Y-94044366D01*
X210529441Y-94184163D01*
X210529443Y-94184166D01*
X210593904Y-94244273D01*
X210657479Y-94303554D01*
X210657486Y-94303559D01*
X210657488Y-94303560D01*
X210683600Y-94320517D01*
X210804300Y-94398897D01*
X210965447Y-94467297D01*
X211136022Y-94506677D01*
X211310845Y-94515839D01*
X211348478Y-94511218D01*
X211348488Y-94511218D01*
X211362195Y-94509534D01*
X211362196Y-94509535D01*
X211373540Y-94508141D01*
X211386376Y-94506566D01*
X211386376Y-94506567D01*
X211386382Y-94506565D01*
X211397723Y-94505173D01*
X211463124Y-94497144D01*
X211463125Y-94497142D01*
X211479244Y-94495164D01*
X211479259Y-94495160D01*
X224336361Y-92916508D01*
X224336363Y-92916507D01*
X224340699Y-92915657D01*
X224340719Y-92915759D01*
X224352321Y-92913483D01*
X224375529Y-92910633D01*
X224384858Y-92909488D01*
X224384858Y-92909487D01*
X224384865Y-92909487D01*
X224552285Y-92858292D01*
X224708271Y-92778802D01*
X224848083Y-92673433D01*
X224967474Y-92545386D01*
X225062816Y-92398552D01*
X225131211Y-92237392D01*
X225170581Y-92066804D01*
X225179730Y-91891971D01*
X225176985Y-91869638D01*
X225176086Y-91851955D01*
X225176304Y-91841430D01*
X224095277Y-83037171D01*
X228173488Y-83037171D01*
X228177345Y-83068605D01*
X228179327Y-83084759D01*
X228179335Y-83084844D01*
X228179790Y-83088549D01*
X228179790Y-83088554D01*
X228184148Y-83124043D01*
X228184147Y-83124043D01*
X228184149Y-83124056D01*
X228193141Y-83197346D01*
X228193159Y-83197441D01*
X228641747Y-86850893D01*
X229772817Y-96062719D01*
X229772818Y-96062723D01*
X229773292Y-96066582D01*
X229773459Y-96067633D01*
X229779150Y-96114016D01*
X229779150Y-96114018D01*
X229779151Y-96114020D01*
X229830322Y-96281442D01*
X229909071Y-96436019D01*
X229909791Y-96437433D01*
X229909793Y-96437436D01*
X230015141Y-96577254D01*
X230143172Y-96696657D01*
X230197441Y-96731902D01*
X230289992Y-96792010D01*
X230289994Y-96792011D01*
X230289996Y-96792012D01*
X230451132Y-96860415D01*
X230451135Y-96860415D01*
X230451140Y-96860418D01*
X230621720Y-96899803D01*
X230796547Y-96908966D01*
X230839033Y-96903748D01*
X230839044Y-96903748D01*
X230847891Y-96902661D01*
X230847894Y-96902662D01*
X230883428Y-96898299D01*
X230948829Y-96890269D01*
X230948829Y-96890268D01*
X230995449Y-96884545D01*
X230995455Y-96884542D01*
X243822059Y-95309635D01*
X243822061Y-95309634D01*
X243822064Y-95309634D01*
X243826406Y-95308783D01*
X243826423Y-95308869D01*
X243838228Y-95306554D01*
X243870551Y-95302585D01*
X243870554Y-95302584D01*
X243870556Y-95302584D01*
X243948191Y-95278844D01*
X244037966Y-95251394D01*
X244193949Y-95171910D01*
X244333760Y-95066547D01*
X244453151Y-94938508D01*
X244548494Y-94791682D01*
X244616893Y-94630530D01*
X244656270Y-94459949D01*
X244665427Y-94285122D01*
X244662680Y-94262765D01*
X244661784Y-94245099D01*
X244662002Y-94234562D01*
X244662001Y-94234561D01*
X244662002Y-94234557D01*
X244205558Y-90517122D01*
X248283758Y-90517122D01*
X248289598Y-90564695D01*
X248289602Y-90564743D01*
X248294421Y-90603993D01*
X248294421Y-90603995D01*
X248303196Y-90675491D01*
X248303207Y-90675557D01*
X249883545Y-103546371D01*
X249883759Y-103547715D01*
X249889434Y-103593953D01*
X249889437Y-103593967D01*
X249940609Y-103761371D01*
X250020075Y-103917351D01*
X250020082Y-103917362D01*
X250125424Y-104057170D01*
X250125425Y-104057171D01*
X250253451Y-104176569D01*
X250302387Y-104208352D01*
X250400262Y-104271920D01*
X250557953Y-104338866D01*
X250561401Y-104340330D01*
X250731966Y-104379718D01*
X250731967Y-104379718D01*
X250731971Y-104379719D01*
X250906790Y-104388891D01*
X250952351Y-104383298D01*
X250952387Y-104383296D01*
X250958158Y-104382587D01*
X250958165Y-104382588D01*
X250987583Y-104378975D01*
X250993579Y-104378240D01*
X250993616Y-104378547D01*
X250993673Y-104378524D01*
X250993638Y-104378232D01*
X250993667Y-104378229D01*
X251059069Y-104370203D01*
X251059070Y-104370202D01*
X251068720Y-104369018D01*
X251068782Y-104369005D01*
X263932330Y-102789561D01*
X263932343Y-102789557D01*
X263936675Y-102788709D01*
X263936687Y-102788771D01*
X263948837Y-102786388D01*
X263980783Y-102782467D01*
X264148198Y-102731287D01*
X264304182Y-102651814D01*
X264443996Y-102546462D01*
X264563392Y-102418431D01*
X264658741Y-102271613D01*
X264727147Y-102110468D01*
X264766531Y-101939892D01*
X264775697Y-101765069D01*
X264772952Y-101742718D01*
X264772054Y-101725057D01*
X264772273Y-101714483D01*
X263192847Y-88851102D01*
X263192846Y-88851056D01*
X263189916Y-88827205D01*
X263189947Y-88827015D01*
X263183659Y-88775823D01*
X263172987Y-88688940D01*
X263121802Y-88521548D01*
X263121796Y-88521528D01*
X263121795Y-88521526D01*
X263121794Y-88521522D01*
X263042306Y-88365537D01*
X263042303Y-88365533D01*
X263042302Y-88365531D01*
X262936941Y-88225725D01*
X262936939Y-88225724D01*
X262808894Y-88106332D01*
X262662064Y-88010992D01*
X262662061Y-88010990D01*
X262500905Y-87942594D01*
X262330319Y-87903222D01*
X262330314Y-87903221D01*
X262330310Y-87903221D01*
X262155488Y-87894069D01*
X262077498Y-87903650D01*
X262077494Y-87903650D01*
X262068610Y-87904741D01*
X262068604Y-87904742D01*
X262060542Y-87905731D01*
X262060542Y-87905732D01*
X259203839Y-88256491D01*
X249239069Y-89480011D01*
X249239011Y-89480014D01*
X249216906Y-89482729D01*
X249216872Y-89482723D01*
X249078628Y-89499705D01*
X248911224Y-89550895D01*
X248911224Y-89550896D01*
X248911221Y-89550897D01*
X248870763Y-89571513D01*
X248755245Y-89630377D01*
X248615441Y-89735733D01*
X248615439Y-89735734D01*
X248496058Y-89863760D01*
X248496048Y-89863772D01*
X248400710Y-90010581D01*
X248400709Y-90010583D01*
X248332309Y-90171720D01*
X248332306Y-90171728D01*
X248292926Y-90342289D01*
X248292925Y-90342294D01*
X248283758Y-90517116D01*
X248283758Y-90517122D01*
X244205558Y-90517122D01*
X243082391Y-81369662D01*
X243082387Y-81369583D01*
X243081367Y-81361285D01*
X243081368Y-81361281D01*
X243079741Y-81348046D01*
X243079766Y-81347895D01*
X243073374Y-81295876D01*
X243073376Y-81295876D01*
X243062702Y-81208998D01*
X243016916Y-81059282D01*
X243011506Y-81041590D01*
X242932020Y-80885616D01*
X242932016Y-80885609D01*
X242870045Y-80803382D01*
X242826654Y-80745807D01*
X242715918Y-80642553D01*
X242698614Y-80626419D01*
X242551790Y-80531079D01*
X242390644Y-80462683D01*
X242220068Y-80423306D01*
X242220064Y-80423305D01*
X242220065Y-80423305D01*
X242055477Y-80414681D01*
X242045245Y-80414145D01*
X242045244Y-80414145D01*
X241997681Y-80419983D01*
X241997658Y-80419988D01*
X241933721Y-80427837D01*
X241933720Y-80427838D01*
X241892966Y-80432842D01*
X241892963Y-80432842D01*
X241886821Y-80433597D01*
X241886813Y-80433597D01*
X229901984Y-81905150D01*
X229019733Y-82013477D01*
X229019732Y-82013477D01*
X229016028Y-82013932D01*
X229014824Y-82014123D01*
X228968395Y-82019824D01*
X228800986Y-82071005D01*
X228645010Y-82150475D01*
X228505206Y-82255818D01*
X228505203Y-82255820D01*
X228385815Y-82383839D01*
X228385814Y-82383840D01*
X228290462Y-82530652D01*
X228222055Y-82691785D01*
X228222052Y-82691793D01*
X228183438Y-82858995D01*
X228182663Y-82862352D01*
X228173665Y-83033806D01*
X228173488Y-83037169D01*
X228173488Y-83037171D01*
X224095277Y-83037171D01*
X223949529Y-81850149D01*
X223582775Y-78863176D01*
X223582689Y-78862641D01*
X223576959Y-78815947D01*
X223525782Y-78648527D01*
X223525781Y-78648526D01*
X223525781Y-78648524D01*
X223446310Y-78492536D01*
X223340957Y-78352719D01*
X223340955Y-78352717D01*
X223212923Y-78233319D01*
X223212921Y-78233318D01*
X223212889Y-78233297D01*
X223066101Y-78137968D01*
X223066098Y-78137966D01*
X223066097Y-78137966D01*
X222904952Y-78069562D01*
X222734369Y-78030179D01*
X222559544Y-78021018D01*
X222559543Y-78021018D01*
X222542428Y-78023119D01*
X222508197Y-78027323D01*
X222490430Y-78029504D01*
X222472662Y-78031686D01*
X222472661Y-78031686D01*
X222438996Y-78035818D01*
X222438996Y-78035819D01*
X209634964Y-79607957D01*
X209634958Y-79607957D01*
X209620871Y-79609686D01*
X209620753Y-79609666D01*
X209482673Y-79626622D01*
X209482671Y-79626622D01*
X209315255Y-79677810D01*
X209315254Y-79677810D01*
X209159269Y-79757293D01*
X209159267Y-79757294D01*
X209159266Y-79757295D01*
X209019465Y-79862649D01*
X209019446Y-79862663D01*
X209019444Y-79862665D01*
X208900059Y-79990698D01*
X208804709Y-80137536D01*
X208736314Y-80298683D01*
X208736311Y-80298691D01*
X208696940Y-80469266D01*
X208696938Y-80469277D01*
X208689368Y-80613889D01*
X208687786Y-80644106D01*
X204337864Y-80644106D01*
X204413394Y-80527796D01*
X204481794Y-80366648D01*
X204521173Y-80196071D01*
X204530334Y-80021247D01*
X204527588Y-79998887D01*
X204526691Y-79981221D01*
X204526709Y-79980380D01*
X204526909Y-79970670D01*
X202947534Y-67107706D01*
X202947533Y-67107649D01*
X202944519Y-67083114D01*
X202944533Y-67083025D01*
X202938265Y-67032005D01*
X202938266Y-67032005D01*
X202927593Y-66945127D01*
X202876401Y-66777717D01*
X202796918Y-66621739D01*
X202724224Y-66525278D01*
X202691563Y-66481938D01*
X202691561Y-66481936D01*
X202691558Y-66481932D01*
X202563522Y-66362544D01*
X202563515Y-66362539D01*
X202563512Y-66362537D01*
X202416703Y-66267201D01*
X202416701Y-66267200D01*
X202255555Y-66198801D01*
X202084978Y-66159420D01*
X201919825Y-66150765D01*
X201910158Y-66150259D01*
X201910157Y-66150259D01*
X201910152Y-66150259D01*
X201866754Y-66155587D01*
X201862578Y-66156100D01*
X201862552Y-66156102D01*
X201824492Y-66160775D01*
X201819111Y-66161436D01*
X201755602Y-66169233D01*
X201755550Y-66169240D01*
X188880755Y-67750066D01*
X188879771Y-67750223D01*
X188833689Y-67755881D01*
X188833306Y-67755928D01*
X188666083Y-67807050D01*
X188665893Y-67807108D01*
X188509912Y-67886579D01*
X188370106Y-67991925D01*
X188370104Y-67991927D01*
X188250713Y-68119948D01*
X188250711Y-68119950D01*
X188155358Y-68266769D01*
X188086954Y-68427900D01*
X188086952Y-68427907D01*
X188047565Y-68598466D01*
X188047565Y-68598467D01*
X188038394Y-68773294D01*
X188038394Y-68773297D01*
X113298536Y-68773297D01*
X113289364Y-68598465D01*
X113249970Y-68427880D01*
X113181553Y-68266728D01*
X113086190Y-68119905D01*
X112966830Y-67991927D01*
X112966781Y-67991874D01*
X112903348Y-67944082D01*
X112826951Y-67886522D01*
X112670947Y-67807050D01*
X112503532Y-67755884D01*
X112503518Y-67755881D01*
X112423848Y-67746106D01*
X112423844Y-67746104D01*
X112423838Y-67746105D01*
X99586941Y-66169932D01*
X99586826Y-66169910D01*
X99567631Y-66167555D01*
X99563563Y-66167056D01*
X99563497Y-66167028D01*
X99426665Y-66150240D01*
X99426663Y-66150240D01*
X99315009Y-66156100D01*
X99251846Y-66159415D01*
X99081282Y-66198805D01*
X99081274Y-66198807D01*
X98920149Y-66267209D01*
X98920136Y-66267216D01*
X98773336Y-66362555D01*
X98773329Y-66362561D01*
X98645305Y-66481949D01*
X98645304Y-66481949D01*
X98539952Y-66621756D01*
X98539949Y-66621759D01*
X98460478Y-66777722D01*
X98460476Y-66777727D01*
X98409287Y-66945141D01*
X98403446Y-66992694D01*
X98403433Y-66992778D01*
X98398444Y-67033419D01*
X98398443Y-67033428D01*
X98389810Y-67103701D01*
X98389806Y-67103757D01*
X96809540Y-79973999D01*
X96809360Y-79976069D01*
X96803718Y-80021996D01*
X92457118Y-80021996D01*
X92436788Y-79990691D01*
X92317385Y-79862651D01*
X92317384Y-79862650D01*
X92317383Y-79862649D01*
X92177562Y-79757293D01*
X92021566Y-79677818D01*
X91854146Y-79626643D01*
X91854142Y-79626642D01*
X91854138Y-79626641D01*
X91771835Y-79616541D01*
X91767046Y-79615953D01*
X78938107Y-78040757D01*
X78938014Y-78040739D01*
X78915278Y-78037950D01*
X78915070Y-78037860D01*
X78777278Y-78020951D01*
X78777277Y-78020951D01*
X78689863Y-78025538D01*
X78602448Y-78030126D01*
X78431874Y-78069519D01*
X78431861Y-78069523D01*
X78270725Y-78137934D01*
X78123900Y-78233297D01*
X78123898Y-78233299D01*
X77995874Y-78352700D01*
X77995873Y-78352701D01*
X77890524Y-78492521D01*
X77890517Y-78492533D01*
X77811054Y-78648513D01*
X77811053Y-78648515D01*
X77811052Y-78648518D01*
X77786915Y-78727484D01*
X77759878Y-78815936D01*
X77759877Y-78815938D01*
X77759877Y-78815941D01*
X77754148Y-78862621D01*
X77751866Y-78881219D01*
X77751865Y-78881226D01*
X76173766Y-91733805D01*
X76173753Y-91733881D01*
X76165016Y-91805079D01*
X76165015Y-91805088D01*
X76160069Y-91845361D01*
X76160039Y-91845707D01*
X76154260Y-91892798D01*
X76154260Y-91892799D01*
X72076046Y-91892799D01*
X73143609Y-83198188D01*
X73143628Y-83198096D01*
X73144688Y-83189447D01*
X73144690Y-83189445D01*
X73146481Y-83174845D01*
X73146590Y-83174593D01*
X73152791Y-83124052D01*
X73152792Y-83124053D01*
X73163453Y-83037169D01*
X73154276Y-82862338D01*
X73114880Y-82691757D01*
X73046461Y-82530609D01*
X73046458Y-82530604D01*
X72951100Y-82383792D01*
X72951097Y-82383789D01*
X72831691Y-82255761D01*
X72691861Y-82150409D01*
X72535870Y-82070943D01*
X72535871Y-82070943D01*
X72368446Y-82019770D01*
X72368443Y-82019769D01*
X72368442Y-82019769D01*
X72288617Y-82009973D01*
X72288614Y-82009972D01*
X72288610Y-82009973D01*
X59451000Y-80433712D01*
X59450919Y-80433697D01*
X59401952Y-80427688D01*
X59378464Y-80424806D01*
X59378462Y-80424805D01*
X59378459Y-80424806D01*
X59342980Y-80420450D01*
X59342964Y-80420448D01*
X59342963Y-80420448D01*
X59339298Y-80419998D01*
X59339125Y-80419982D01*
X59291585Y-80414149D01*
X59291582Y-80414149D01*
X59186694Y-80419652D01*
X59116767Y-80423322D01*
X58946201Y-80462707D01*
X58785073Y-80531107D01*
X58785068Y-80531110D01*
X58638252Y-80626454D01*
X58510231Y-80745833D01*
X58404876Y-80885635D01*
X58325395Y-81041605D01*
X58274205Y-81208999D01*
X58274202Y-81209010D01*
X58268397Y-81256259D01*
X58268381Y-81256358D01*
X58262511Y-81304162D01*
X58262511Y-81304168D01*
X58254640Y-81368231D01*
X58254635Y-81368307D01*
X56674458Y-94237826D01*
X56674266Y-94240038D01*
X56668636Y-94285862D01*
X56668636Y-94285866D01*
X56668636Y-94285868D01*
X52590358Y-94285868D01*
X53032945Y-90681285D01*
X53032953Y-90681249D01*
X53034407Y-90669397D01*
X53034409Y-90669395D01*
X53036226Y-90654587D01*
X53036264Y-90654498D01*
X53042463Y-90603997D01*
X53053127Y-90517116D01*
X53043959Y-90342290D01*
X53004572Y-90171713D01*
X53004570Y-90171710D01*
X53004570Y-90171707D01*
X52936166Y-90010569D01*
X52936163Y-90010563D01*
X52840815Y-89863749D01*
X52840809Y-89863741D01*
X52721413Y-89735713D01*
X52721411Y-89735711D01*
X52581598Y-89630361D01*
X52425607Y-89550884D01*
X52360550Y-89530996D01*
X52258192Y-89499705D01*
X52206857Y-89493402D01*
X52206854Y-89493402D01*
X39339762Y-87913521D01*
X39339744Y-87913518D01*
X39333612Y-87912765D01*
X39308189Y-87909643D01*
X39264450Y-87904274D01*
X39264411Y-87904269D01*
X39228576Y-87899869D01*
X39228316Y-87899846D01*
X39181337Y-87894079D01*
X39181333Y-87894079D01*
X39181332Y-87894079D01*
X39143454Y-87896064D01*
X39006513Y-87903243D01*
X38835936Y-87942625D01*
X38674796Y-88011026D01*
X38674794Y-88011027D01*
X38527977Y-88106370D01*
X38399942Y-88225763D01*
X38294592Y-88365562D01*
X38294587Y-88365570D01*
X38215109Y-88521548D01*
X38163922Y-88688953D01*
X38163922Y-88688954D01*
X38158081Y-88736507D01*
X38158072Y-88736567D01*
X38151596Y-88789311D01*
X38151595Y-88789314D01*
X38144289Y-88848800D01*
X38144287Y-88848839D01*
X36564098Y-101718447D01*
X36564028Y-101719250D01*
X36558309Y-101765812D01*
X35049088Y-101765812D01*
X35064193Y-101520873D01*
X35064871Y-101513506D01*
X35068686Y-101482377D01*
X37351448Y-82858994D01*
X38879819Y-82858994D01*
X38888970Y-83033806D01*
X38888970Y-83033808D01*
X38888971Y-83033811D01*
X38928340Y-83204382D01*
X38996729Y-83365527D01*
X39092060Y-83512347D01*
X39211439Y-83640384D01*
X39351236Y-83745746D01*
X39351240Y-83745748D01*
X39351243Y-83745750D01*
X39505761Y-83824497D01*
X39507205Y-83825233D01*
X39674607Y-83876429D01*
X39689399Y-83878246D01*
X39721142Y-83882147D01*
X39721255Y-83882165D01*
X39725994Y-83882746D01*
X39725995Y-83882747D01*
X39739473Y-83884401D01*
X39764319Y-83887452D01*
X39764318Y-83887455D01*
X39764331Y-83887453D01*
X39826882Y-83895140D01*
X39826883Y-83895139D01*
X39836391Y-83896308D01*
X39836486Y-83896312D01*
X52700159Y-85475774D01*
X52700170Y-85475773D01*
X52704578Y-85475998D01*
X52704573Y-85476086D01*
X52716577Y-85476694D01*
X52748945Y-85480666D01*
X52842574Y-85475750D01*
X52923756Y-85471489D01*
X52923759Y-85471488D01*
X52923762Y-85471488D01*
X53094331Y-85432096D01*
X53255469Y-85363686D01*
X53402281Y-85268336D01*
X53530308Y-85148944D01*
X53562950Y-85105626D01*
X53635655Y-85009141D01*
X53635656Y-85009140D01*
X53635659Y-85009135D01*
X53715135Y-84853157D01*
X53766320Y-84685749D01*
X53769065Y-84663388D01*
X53772471Y-84646021D01*
X53775237Y-84635831D01*
X54911817Y-75379124D01*
X58989950Y-75379124D01*
X58991765Y-75413705D01*
X58999126Y-75553953D01*
X59038519Y-75724528D01*
X59038522Y-75724536D01*
X59106939Y-75885685D01*
X59201778Y-76031701D01*
X59202299Y-76032502D01*
X59321706Y-76160532D01*
X59413216Y-76229480D01*
X59460487Y-76265096D01*
X59461531Y-76265882D01*
X59617526Y-76345352D01*
X59784950Y-76396526D01*
X59870695Y-76407048D01*
X59870700Y-76407050D01*
X59870701Y-76407049D01*
X72810431Y-77995848D01*
X72810443Y-77995847D01*
X72814851Y-77996072D01*
X72814846Y-77996158D01*
X72826909Y-77996770D01*
X72835227Y-77997791D01*
X72859190Y-78000733D01*
X73034014Y-77991564D01*
X73204591Y-77952177D01*
X73365737Y-77883768D01*
X73512556Y-77788417D01*
X73512560Y-77788413D01*
X73512563Y-77788411D01*
X73558840Y-77745253D01*
X73640587Y-77669020D01*
X73745941Y-77529205D01*
X73825416Y-77373220D01*
X73876598Y-77205804D01*
X73879341Y-77183453D01*
X73882743Y-77166096D01*
X73885509Y-77155905D01*
X74397513Y-72985971D01*
X78475680Y-72985971D01*
X78480918Y-73085873D01*
X78484847Y-73160803D01*
X78524233Y-73331382D01*
X78524233Y-73331384D01*
X78592641Y-73492530D01*
X78687477Y-73638555D01*
X78687997Y-73639355D01*
X78807399Y-73767388D01*
X78947220Y-73872742D01*
X79103211Y-73952216D01*
X79270633Y-74003394D01*
X79344587Y-74012470D01*
X79344586Y-74012471D01*
X79344590Y-74012470D01*
X92296124Y-75602719D01*
X92296135Y-75602718D01*
X92300543Y-75602943D01*
X92300538Y-75603038D01*
X92312457Y-75603642D01*
X92344873Y-75607622D01*
X92519705Y-75598455D01*
X92690288Y-75559067D01*
X92851440Y-75490655D01*
X92998263Y-75395299D01*
X93126297Y-75275894D01*
X93231651Y-75136071D01*
X93311123Y-74980076D01*
X93362299Y-74812652D01*
X93365041Y-74790306D01*
X93368449Y-74772919D01*
X93371202Y-74762776D01*
X94472432Y-65793981D01*
X117742471Y-65793981D01*
X117751639Y-65968810D01*
X117791023Y-66139381D01*
X117803572Y-66168943D01*
X117859430Y-66300528D01*
X117954779Y-66447346D01*
X117954781Y-66447348D01*
X117954785Y-66447354D01*
X118027453Y-66525277D01*
X118074174Y-66575378D01*
X118074177Y-66575380D01*
X118213980Y-66680728D01*
X118213983Y-66680730D01*
X118213986Y-66680732D01*
X118369969Y-66760208D01*
X118537382Y-66811392D01*
X118580766Y-66816718D01*
X118580784Y-66816722D01*
X118588731Y-66817697D01*
X118588732Y-66817698D01*
X118625589Y-66822223D01*
X118659436Y-66826379D01*
X118659435Y-66826380D01*
X118659440Y-66826379D01*
X118689662Y-66830091D01*
X118689662Y-66830090D01*
X118718037Y-66833575D01*
X118718060Y-66833576D01*
X131562896Y-68410725D01*
X131562907Y-68410724D01*
X131567315Y-68410949D01*
X131567310Y-68411027D01*
X131579470Y-68411644D01*
X131611622Y-68415593D01*
X131786453Y-68406435D01*
X131957037Y-68367055D01*
X132118191Y-68298651D01*
X132265018Y-68203300D01*
X132393055Y-68083900D01*
X132498413Y-67944081D01*
X132577889Y-67788089D01*
X132629068Y-67620666D01*
X132631812Y-67598307D01*
X132635214Y-67580952D01*
X132637974Y-67570782D01*
X134231001Y-54596618D01*
X134231000Y-54596614D01*
X134231525Y-54592346D01*
X134231563Y-54591893D01*
X134237288Y-54545287D01*
X167099551Y-54545287D01*
X167108837Y-54620894D01*
X167108837Y-54620899D01*
X167108838Y-54620899D01*
X168640761Y-67097413D01*
X168685559Y-67462259D01*
X168685561Y-67462297D01*
X168686491Y-67469866D01*
X168691914Y-67514024D01*
X168698884Y-67570781D01*
X168699369Y-67574732D01*
X168699472Y-67575383D01*
X168705214Y-67622135D01*
X168705216Y-67622144D01*
X168756398Y-67789541D01*
X168756400Y-67789547D01*
X168835869Y-67945510D01*
X168835878Y-67945526D01*
X168941220Y-68085320D01*
X168941230Y-68085332D01*
X169058030Y-68194253D01*
X169069249Y-68204715D01*
X169069254Y-68204718D01*
X169164798Y-68266769D01*
X169216061Y-68300061D01*
X169377197Y-68368467D01*
X169547764Y-68407856D01*
X169722579Y-68417029D01*
X169768369Y-68411409D01*
X169768448Y-68411403D01*
X169773960Y-68410725D01*
X169773961Y-68410726D01*
X169807798Y-68406570D01*
X169807803Y-68406616D01*
X169807972Y-68406549D01*
X169809455Y-68406368D01*
X169874857Y-68398343D01*
X169874857Y-68398342D01*
X169883316Y-68397305D01*
X169883407Y-68397287D01*
X182748126Y-66817699D01*
X182748139Y-66817695D01*
X182752471Y-66816847D01*
X182752478Y-66816887D01*
X182764941Y-66814443D01*
X182796561Y-66810563D01*
X182963970Y-66759390D01*
X183119950Y-66679925D01*
X183259761Y-66574582D01*
X183379157Y-66446562D01*
X183474510Y-66299755D01*
X183542922Y-66138621D01*
X183582314Y-65968055D01*
X183591491Y-65793241D01*
X183588745Y-65770864D01*
X183587850Y-65753209D01*
X183588069Y-65742625D01*
X183588069Y-65742621D01*
X182005856Y-52856537D01*
X182005869Y-52856455D01*
X181999430Y-52804001D01*
X181999431Y-52804001D01*
X181988765Y-52717116D01*
X181937582Y-52549691D01*
X181858100Y-52393698D01*
X181858098Y-52393695D01*
X181858096Y-52393692D01*
X181768536Y-52274844D01*
X181752737Y-52253878D01*
X181624694Y-52134480D01*
X181477861Y-52039132D01*
X181316702Y-51970732D01*
X181316699Y-51970731D01*
X181316696Y-51970730D01*
X181316696Y-51970729D01*
X181146119Y-51931359D01*
X181146110Y-51931357D01*
X180971278Y-51922207D01*
X180971277Y-51922207D01*
X180889746Y-51932224D01*
X180889730Y-51932226D01*
X180884401Y-51932879D01*
X180884393Y-51932881D01*
X180878068Y-51933658D01*
X168053896Y-53508267D01*
X168053814Y-53508273D01*
X168032168Y-53510932D01*
X168031976Y-53510900D01*
X167981286Y-53517128D01*
X167894406Y-53527802D01*
X167894403Y-53527802D01*
X167894401Y-53527803D01*
X167726995Y-53578997D01*
X167726990Y-53579000D01*
X167571017Y-53658485D01*
X167571004Y-53658493D01*
X167431208Y-53763850D01*
X167431204Y-53763853D01*
X167311823Y-53891890D01*
X167311815Y-53891900D01*
X167216476Y-54038724D01*
X167148082Y-54199875D01*
X167108708Y-54370451D01*
X167108706Y-54370464D01*
X167099551Y-54545287D01*
X134237288Y-54545287D01*
X134228132Y-54370460D01*
X134188755Y-54199880D01*
X134120356Y-54038729D01*
X134025011Y-53891904D01*
X134025008Y-53891900D01*
X133905618Y-53763867D01*
X133765807Y-53658510D01*
X133609824Y-53579031D01*
X133609823Y-53579030D01*
X133609820Y-53579029D01*
X133578605Y-53569485D01*
X133442406Y-53527845D01*
X133442396Y-53527843D01*
X133393387Y-53521825D01*
X133393373Y-53521823D01*
X133393373Y-53521824D01*
X120528361Y-51942199D01*
X120528355Y-51942198D01*
X120504665Y-51939289D01*
X120504602Y-51939262D01*
X120365546Y-51922189D01*
X120365544Y-51922189D01*
X120348132Y-51923101D01*
X120190716Y-51931351D01*
X120020138Y-51970734D01*
X119955673Y-51998099D01*
X119858983Y-52039144D01*
X119858980Y-52039145D01*
X119858977Y-52039147D01*
X119712163Y-52134493D01*
X119584126Y-52253894D01*
X119584123Y-52253897D01*
X119478772Y-52393709D01*
X119399295Y-52549705D01*
X119348115Y-52717127D01*
X119340604Y-52778321D01*
X119340604Y-52778326D01*
X117762159Y-65633730D01*
X117762151Y-65633768D01*
X117759495Y-65655405D01*
X117759475Y-65655450D01*
X117742471Y-65793976D01*
X117742471Y-65793981D01*
X94472432Y-65793981D01*
X94964229Y-61788612D01*
X94964228Y-61788606D01*
X94964717Y-61784631D01*
X94964803Y-61783628D01*
X94970497Y-61737272D01*
X94961340Y-61562452D01*
X94921964Y-61391879D01*
X94853568Y-61230733D01*
X94778520Y-61115160D01*
X99125140Y-61115160D01*
X99134288Y-61289992D01*
X99173660Y-61460582D01*
X99242054Y-61621733D01*
X99242056Y-61621736D01*
X99242057Y-61621738D01*
X99337402Y-61768568D01*
X99456796Y-61896609D01*
X99596612Y-62001970D01*
X99752601Y-62081450D01*
X99920023Y-62132633D01*
X99920026Y-62132633D01*
X99920033Y-62132635D01*
X99967556Y-62138468D01*
X99967577Y-62138471D01*
X99967578Y-62138471D01*
X101690890Y-62350067D01*
X112945522Y-63731962D01*
X112945533Y-63731961D01*
X112949941Y-63732186D01*
X112949937Y-63732261D01*
X112962147Y-63732880D01*
X112994275Y-63736825D01*
X113169096Y-63727659D01*
X113339671Y-63688276D01*
X113500815Y-63619872D01*
X113647634Y-63524525D01*
X113775666Y-63405134D01*
X113881021Y-63265323D01*
X113960499Y-63109343D01*
X114011685Y-62941931D01*
X114014430Y-62919569D01*
X114017837Y-62902200D01*
X114020598Y-62892027D01*
X114020599Y-62892021D01*
X114020600Y-62892019D01*
X115600145Y-50027647D01*
X115600164Y-50027555D01*
X115601244Y-50018746D01*
X115601246Y-50018743D01*
X115603079Y-50003797D01*
X115603117Y-50003709D01*
X115609296Y-49953343D01*
X115609298Y-49953344D01*
X115619958Y-49866466D01*
X115610783Y-49691648D01*
X115571392Y-49521078D01*
X115571391Y-49521075D01*
X115571390Y-49521072D01*
X115502987Y-49359946D01*
X115502981Y-49359935D01*
X115407638Y-49213133D01*
X115407630Y-49213122D01*
X115288240Y-49085098D01*
X115248488Y-49055144D01*
X115148431Y-48979747D01*
X115148427Y-48979745D01*
X115148426Y-48979744D01*
X115075076Y-48942370D01*
X114992453Y-48900271D01*
X114992450Y-48900270D01*
X114825038Y-48849084D01*
X114825040Y-48849084D01*
X114778146Y-48843326D01*
X114778119Y-48843322D01*
X114773686Y-48842777D01*
X114773684Y-48842777D01*
X114716925Y-48835807D01*
X114716924Y-48835806D01*
X114716923Y-48835806D01*
X114665198Y-48829454D01*
X114665160Y-48829452D01*
X114019411Y-48750164D01*
X101799519Y-47249750D01*
X101799516Y-47249750D01*
X101795982Y-47249316D01*
X101794247Y-47249165D01*
X101748186Y-47243508D01*
X101748185Y-47243508D01*
X101735783Y-47244157D01*
X101573375Y-47252662D01*
X101573359Y-47252664D01*
X101402804Y-47292031D01*
X101402804Y-47292032D01*
X101241654Y-47360426D01*
X101094841Y-47455755D01*
X101094839Y-47455756D01*
X101094837Y-47455758D01*
X101008621Y-47536145D01*
X100966803Y-47575136D01*
X100861444Y-47714931D01*
X100861440Y-47714938D01*
X100781957Y-47870901D01*
X100781956Y-47870903D01*
X100730760Y-48038305D01*
X100730759Y-48038309D01*
X100724917Y-48085853D01*
X100724897Y-48085984D01*
X100720085Y-48125179D01*
X100720083Y-48125191D01*
X100711056Y-48198649D01*
X100711050Y-48198756D01*
X99136535Y-61022156D01*
X99136534Y-61022162D01*
X99135782Y-61028275D01*
X99135783Y-61028276D01*
X99130931Y-61067794D01*
X99130857Y-61068637D01*
X99125140Y-61115160D01*
X94778520Y-61115160D01*
X94758229Y-61083913D01*
X94638843Y-60955878D01*
X94569608Y-60903701D01*
X94499044Y-60850522D01*
X94499040Y-60850520D01*
X94499039Y-60850519D01*
X94419611Y-60810044D01*
X94343064Y-60771037D01*
X94343056Y-60771034D01*
X94175654Y-60719846D01*
X94128762Y-60714087D01*
X94128683Y-60714074D01*
X94124286Y-60713534D01*
X94074762Y-60707453D01*
X94074761Y-60707452D01*
X94074754Y-60707452D01*
X94017089Y-60700368D01*
X94017033Y-60700364D01*
X81145946Y-59119994D01*
X81145545Y-59119959D01*
X81098795Y-59114217D01*
X80923969Y-59123371D01*
X80923964Y-59123372D01*
X80753384Y-59162748D01*
X80592227Y-59231151D01*
X80592224Y-59231153D01*
X80445414Y-59326488D01*
X80445402Y-59326497D01*
X80317374Y-59445882D01*
X80317367Y-59445889D01*
X80212012Y-59585699D01*
X80212006Y-59585708D01*
X80132530Y-59741689D01*
X80081348Y-59909105D01*
X80081347Y-59909110D01*
X80075511Y-59956649D01*
X80075044Y-59960449D01*
X80075044Y-59960450D01*
X78494999Y-72828874D01*
X78494997Y-72828886D01*
X78492650Y-72848002D01*
X78492604Y-72848107D01*
X78475680Y-72985965D01*
X78475680Y-72985967D01*
X78475680Y-72985971D01*
X74397513Y-72985971D01*
X75478536Y-64181741D01*
X75478535Y-64181738D01*
X75478956Y-64178317D01*
X75479129Y-64176306D01*
X75484768Y-64130425D01*
X75475619Y-63955606D01*
X75436252Y-63785031D01*
X75415793Y-63736824D01*
X75367862Y-63623882D01*
X75304301Y-63525991D01*
X75272531Y-63477061D01*
X75206823Y-63406588D01*
X75153150Y-63349021D01*
X75153145Y-63349017D01*
X75013358Y-63243664D01*
X75013345Y-63243656D01*
X74857379Y-63164174D01*
X74857371Y-63164170D01*
X74689971Y-63112978D01*
X74642967Y-63107203D01*
X74642869Y-63107188D01*
X74596471Y-63101490D01*
X74596470Y-63101489D01*
X74596467Y-63101489D01*
X74587552Y-63100394D01*
X74530367Y-63093369D01*
X74530290Y-63093364D01*
X64623125Y-61876917D01*
X61713419Y-61519650D01*
X61656298Y-61512633D01*
X61613111Y-61507328D01*
X61613110Y-61507328D01*
X61438275Y-61516480D01*
X61267687Y-61555858D01*
X61112487Y-61621733D01*
X61106526Y-61624263D01*
X60959699Y-61719611D01*
X60831658Y-61839015D01*
X60831657Y-61839015D01*
X60726301Y-61978836D01*
X60726295Y-61978845D01*
X60646824Y-62134832D01*
X60595647Y-62302258D01*
X60585745Y-62382944D01*
X60585744Y-62382951D01*
X59009694Y-75218850D01*
X59009674Y-75218955D01*
X59006970Y-75240993D01*
X59006873Y-75241215D01*
X58990052Y-75378289D01*
X58989950Y-75379124D01*
X54911817Y-75379124D01*
X55354697Y-71772153D01*
X55354707Y-71772107D01*
X55355876Y-71762576D01*
X55355878Y-71762574D01*
X55357606Y-71748491D01*
X55357703Y-71748266D01*
X55363972Y-71697180D01*
X55363974Y-71697181D01*
X55374637Y-71610296D01*
X55365465Y-71435463D01*
X55326071Y-71264879D01*
X55257654Y-71103728D01*
X55162292Y-70956906D01*
X55042883Y-70828874D01*
X55042882Y-70828873D01*
X55042881Y-70828872D01*
X54903053Y-70723521D01*
X54747061Y-70644055D01*
X54697426Y-70628885D01*
X54579629Y-70592882D01*
X54579626Y-70592881D01*
X54579624Y-70592881D01*
X54506700Y-70583934D01*
X54506696Y-70583932D01*
X54506690Y-70583933D01*
X41662817Y-69006903D01*
X41662706Y-69006882D01*
X41640721Y-69004185D01*
X41640670Y-69004163D01*
X41502771Y-68987243D01*
X41502769Y-68987243D01*
X41391192Y-68993099D01*
X41327952Y-68996418D01*
X41157391Y-69035805D01*
X40996241Y-69104217D01*
X40849441Y-69199556D01*
X40849434Y-69199561D01*
X40721411Y-69318948D01*
X40721409Y-69318950D01*
X40616055Y-69458756D01*
X40536578Y-69614732D01*
X40485390Y-69782135D01*
X40479597Y-69829303D01*
X40479585Y-69829380D01*
X40479079Y-69833505D01*
X40473727Y-69877088D01*
X40473727Y-69877089D01*
X40465913Y-69940698D01*
X40465909Y-69940755D01*
X38885637Y-82811046D01*
X38885463Y-82813052D01*
X38879819Y-82858994D01*
X37351448Y-82858994D01*
X39668954Y-63952159D01*
X41201241Y-63952159D01*
X41210389Y-64126990D01*
X41249761Y-64297582D01*
X41249762Y-64297584D01*
X41318154Y-64458731D01*
X41318156Y-64458735D01*
X41318158Y-64458738D01*
X41373013Y-64543214D01*
X41413007Y-64604805D01*
X41413503Y-64605568D01*
X41532189Y-64732849D01*
X41532900Y-64733611D01*
X41671697Y-64838204D01*
X41672715Y-64838971D01*
X41828704Y-64918450D01*
X41996126Y-64969633D01*
X42056911Y-64977093D01*
X42056912Y-64977094D01*
X42056913Y-64977094D01*
X55021624Y-66568961D01*
X55021641Y-66568960D01*
X55026054Y-66569186D01*
X55026050Y-66569262D01*
X55038219Y-66569879D01*
X55070378Y-66573827D01*
X55245200Y-66564661D01*
X55415774Y-66525277D01*
X55576919Y-66456872D01*
X55723737Y-66361525D01*
X55723741Y-66361521D01*
X55723744Y-66361519D01*
X55789977Y-66299755D01*
X55851769Y-66242133D01*
X55957124Y-66102322D01*
X56036602Y-65946341D01*
X56087787Y-65778929D01*
X56090532Y-65756566D01*
X56093939Y-65739199D01*
X56096700Y-65729026D01*
X56096701Y-65729020D01*
X56096702Y-65729018D01*
X57233283Y-56472302D01*
X61311461Y-56472302D01*
X61313300Y-56507361D01*
X61320632Y-56647126D01*
X61359833Y-56816892D01*
X61360020Y-56817699D01*
X61428093Y-56978053D01*
X61428431Y-56978848D01*
X61523775Y-57125656D01*
X61523778Y-57125659D01*
X61523779Y-57125661D01*
X61643176Y-57253691D01*
X61782989Y-57359045D01*
X61938973Y-57438520D01*
X62106384Y-57489701D01*
X62106387Y-57489702D01*
X62149768Y-57495027D01*
X62149776Y-57495029D01*
X62157730Y-57496005D01*
X62157734Y-57496007D01*
X75131898Y-59089034D01*
X75131909Y-59089033D01*
X75136317Y-59089258D01*
X75136313Y-59089333D01*
X75148518Y-59089952D01*
X75180627Y-59093896D01*
X75355456Y-59084738D01*
X75526038Y-59045358D01*
X75687190Y-58976955D01*
X75834015Y-58881606D01*
X75962052Y-58762209D01*
X76067409Y-58622391D01*
X76146886Y-58466403D01*
X76198068Y-58298983D01*
X76200811Y-58276624D01*
X76204215Y-58259262D01*
X76206976Y-58249091D01*
X76718981Y-54079147D01*
X80797192Y-54079147D01*
X80806352Y-54253968D01*
X80845731Y-54424542D01*
X80845733Y-54424546D01*
X80914131Y-54585688D01*
X81009473Y-54732506D01*
X81009478Y-54732513D01*
X81128864Y-54860543D01*
X81128865Y-54860544D01*
X81268668Y-54965897D01*
X81268672Y-54965899D01*
X81268674Y-54965901D01*
X81424654Y-55045381D01*
X81592065Y-55096568D01*
X81636505Y-55102025D01*
X81637979Y-55102206D01*
X81638022Y-55102213D01*
X81643420Y-55102875D01*
X81643424Y-55102877D01*
X81685780Y-55108077D01*
X81685780Y-55108078D01*
X81685784Y-55108077D01*
X81744344Y-55115270D01*
X81744345Y-55115269D01*
X81753181Y-55116355D01*
X81753200Y-55116355D01*
X94617588Y-56695904D01*
X94617601Y-56695903D01*
X94622009Y-56696128D01*
X94622004Y-56696212D01*
X94634104Y-56696825D01*
X94666305Y-56700782D01*
X94841141Y-56691626D01*
X95011730Y-56652246D01*
X95172888Y-56583840D01*
X95319718Y-56488485D01*
X95447758Y-56369081D01*
X95553115Y-56229255D01*
X95632590Y-56073257D01*
X95683765Y-55905828D01*
X95686506Y-55883489D01*
X95689912Y-55866111D01*
X95692665Y-55855966D01*
X95712246Y-55696496D01*
X97274812Y-42970408D01*
X97274827Y-42970374D01*
X97281340Y-42917329D01*
X97281341Y-42917330D01*
X97292009Y-42830449D01*
X97282846Y-42655621D01*
X97243464Y-42485041D01*
X97175058Y-42323891D01*
X97079708Y-42177068D01*
X96960310Y-42049034D01*
X96820493Y-41943678D01*
X96814881Y-41940818D01*
X96664507Y-41864202D01*
X96580796Y-41838611D01*
X96497087Y-41813021D01*
X96497085Y-41813020D01*
X96497084Y-41813020D01*
X96428730Y-41804629D01*
X96428729Y-41804628D01*
X96428729Y-41804629D01*
X83578669Y-40226839D01*
X83578619Y-40226830D01*
X83557286Y-40224212D01*
X83557257Y-40224199D01*
X83420229Y-40207377D01*
X83420226Y-40207377D01*
X83317175Y-40212780D01*
X83245401Y-40216543D01*
X83245398Y-40216544D01*
X83074829Y-40255926D01*
X83074827Y-40255926D01*
X83074826Y-40255927D01*
X82940246Y-40313056D01*
X82913673Y-40324336D01*
X82766868Y-40419675D01*
X82766860Y-40419681D01*
X82638834Y-40539069D01*
X82638824Y-40539079D01*
X82533476Y-40678883D01*
X82533473Y-40678888D01*
X82453998Y-40834869D01*
X82402813Y-41002286D01*
X82396974Y-41049843D01*
X82396972Y-41049854D01*
X82392146Y-41089158D01*
X82385719Y-41141504D01*
X82385184Y-41145857D01*
X82384116Y-41154561D01*
X82384116Y-41154563D01*
X80802977Y-54031900D01*
X80802939Y-54032336D01*
X80797192Y-54079147D01*
X76718981Y-54079147D01*
X77800003Y-45274927D01*
X77800002Y-45274917D01*
X77800507Y-45270811D01*
X77800573Y-45270032D01*
X77806278Y-45223603D01*
X77797125Y-45048777D01*
X77757751Y-44878196D01*
X77757749Y-44878192D01*
X77757749Y-44878190D01*
X77689356Y-44717049D01*
X77689355Y-44717047D01*
X77689354Y-44717045D01*
X77594011Y-44570219D01*
X77564969Y-44539074D01*
X77474620Y-44442180D01*
X77334815Y-44336826D01*
X77334811Y-44336823D01*
X77334808Y-44336821D01*
X77334805Y-44336819D01*
X77334803Y-44336818D01*
X77178828Y-44257342D01*
X77178819Y-44257339D01*
X77011413Y-44206156D01*
X77011410Y-44206155D01*
X77011409Y-44206155D01*
X77011407Y-44206154D01*
X77011399Y-44206153D01*
X76962395Y-44200135D01*
X76962376Y-44200132D01*
X76962376Y-44200133D01*
X76867200Y-44188447D01*
X76867198Y-44188447D01*
X76859128Y-44187456D01*
X76859127Y-44187456D01*
X76859125Y-44187455D01*
X64086829Y-42619215D01*
X64086826Y-42619213D01*
X64086825Y-42619214D01*
X64072504Y-42617455D01*
X64072429Y-42617422D01*
X64009279Y-42609668D01*
X63992572Y-42607616D01*
X63934549Y-42600492D01*
X63934548Y-42600492D01*
X63925386Y-42600972D01*
X63759719Y-42609654D01*
X63589138Y-42649037D01*
X63427982Y-42717448D01*
X63281158Y-42812800D01*
X63281156Y-42812802D01*
X63153122Y-42932203D01*
X63153120Y-42932205D01*
X63047769Y-43072020D01*
X62968294Y-43228015D01*
X62968293Y-43228017D01*
X62968293Y-43228018D01*
X62917119Y-43395433D01*
X62917116Y-43395442D01*
X62910315Y-43450859D01*
X62910314Y-43450866D01*
X61331018Y-56313199D01*
X61331006Y-56313268D01*
X61328378Y-56334680D01*
X61328341Y-56334764D01*
X61311461Y-56472300D01*
X61311461Y-56472302D01*
X57233283Y-56472302D01*
X57676330Y-52863973D01*
X57676350Y-52863871D01*
X57679182Y-52840795D01*
X57679221Y-52840704D01*
X57685400Y-52790342D01*
X57696059Y-52703464D01*
X57686883Y-52528647D01*
X57647493Y-52358077D01*
X57647491Y-52358072D01*
X57579088Y-52196947D01*
X57579086Y-52196943D01*
X57579085Y-52196941D01*
X57579084Y-52196939D01*
X57483735Y-52050126D01*
X57364342Y-51922099D01*
X57224533Y-51816747D01*
X57224527Y-51816744D01*
X57224524Y-51816742D01*
X57068559Y-51737272D01*
X57068553Y-51737270D01*
X56901150Y-51686086D01*
X56853594Y-51680245D01*
X56853535Y-51680236D01*
X56798586Y-51673489D01*
X56798586Y-51673488D01*
X56798582Y-51673488D01*
X56741738Y-51666506D01*
X56741686Y-51666502D01*
X43872162Y-50086324D01*
X43870333Y-50086165D01*
X43824289Y-50080510D01*
X43824288Y-50080510D01*
X43811888Y-50081159D01*
X43649479Y-50089663D01*
X43649463Y-50089665D01*
X43478908Y-50129033D01*
X43478901Y-50129035D01*
X43317761Y-50197424D01*
X43317757Y-50197426D01*
X43170943Y-50292755D01*
X43042901Y-50412141D01*
X42937552Y-50551922D01*
X42937543Y-50551936D01*
X42858057Y-50707904D01*
X42858057Y-50707906D01*
X42806862Y-50875301D01*
X42800958Y-50923346D01*
X42800941Y-50923458D01*
X42800544Y-50926692D01*
X42796187Y-50962177D01*
X42788151Y-51027577D01*
X42788151Y-51027579D01*
X42787182Y-51035469D01*
X42787177Y-51035553D01*
X41351768Y-62726030D01*
X41213110Y-63855306D01*
X41211885Y-63865277D01*
X41207518Y-63900852D01*
X41207028Y-63904842D01*
X41206959Y-63905632D01*
X41201241Y-63952159D01*
X39668954Y-63952159D01*
X41285786Y-50761605D01*
X41286912Y-50754259D01*
X41339472Y-50469080D01*
X41343058Y-50454585D01*
X41428408Y-50181399D01*
X41433704Y-50167459D01*
X41551299Y-49906503D01*
X41558241Y-49893290D01*
X41609579Y-49808405D01*
X41706356Y-49648389D01*
X41714831Y-49636112D01*
X41891338Y-49410788D01*
X41901238Y-49399610D01*
X42087603Y-49213122D01*
X42103539Y-49197175D01*
X42114708Y-49187269D01*
X42339905Y-49010620D01*
X42352184Y-49002131D01*
X42597002Y-48853841D01*
X42610196Y-48846900D01*
X42871068Y-48729133D01*
X42884999Y-48723829D01*
X43158147Y-48638290D01*
X43172621Y-48634699D01*
X43454069Y-48582634D01*
X43468870Y-48580809D01*
X43754533Y-48562970D01*
X43769462Y-48562940D01*
X44058886Y-48579803D01*
X44066326Y-48580461D01*
X56950789Y-50114325D01*
X56950805Y-50114329D01*
X56961440Y-50115594D01*
X56961441Y-50115595D01*
X56976342Y-50117368D01*
X56976477Y-50117426D01*
X57026866Y-50123430D01*
X57026866Y-50123431D01*
X57197187Y-50143726D01*
X57197195Y-50143727D01*
X57540191Y-50150774D01*
X57882233Y-50124253D01*
X58220044Y-50064418D01*
X58550386Y-49971843D01*
X58870094Y-49847414D01*
X59176106Y-49692324D01*
X59465489Y-49508059D01*
X59735470Y-49296384D01*
X59983462Y-49059328D01*
X60207090Y-48799162D01*
X60404211Y-48518378D01*
X60572935Y-48219667D01*
X60582227Y-48198649D01*
X60711643Y-47905900D01*
X60711645Y-47905895D01*
X60711647Y-47905891D01*
X60819016Y-47580057D01*
X60894015Y-47245287D01*
X60914949Y-47075038D01*
X60914950Y-47075038D01*
X60914950Y-47075029D01*
X61383627Y-43267007D01*
X61384764Y-43259619D01*
X61390606Y-43228018D01*
X61437535Y-42974164D01*
X61441132Y-42959663D01*
X61526773Y-42686206D01*
X61532083Y-42672261D01*
X61650030Y-42411096D01*
X61656988Y-42397880D01*
X61805520Y-42152826D01*
X61814012Y-42140553D01*
X61990971Y-41915165D01*
X62000890Y-41903990D01*
X62203687Y-41701563D01*
X62214888Y-41691657D01*
X62440575Y-41515127D01*
X62452883Y-41506643D01*
X62698209Y-41358557D01*
X62711436Y-41351625D01*
X62972798Y-41234159D01*
X62986764Y-41228870D01*
X63260372Y-41143728D01*
X63274879Y-41140157D01*
X63556752Y-41088579D01*
X63571575Y-41086782D01*
X63857602Y-41069520D01*
X63872546Y-41069520D01*
X64161322Y-41086990D01*
X64168756Y-41087665D01*
X64193006Y-41090608D01*
X64193007Y-41090609D01*
X64193008Y-41090609D01*
X80141586Y-43026318D01*
X80141849Y-43026351D01*
X80185871Y-43031912D01*
X80211852Y-43035195D01*
X80211852Y-43035194D01*
X80211854Y-43035195D01*
X80240313Y-43030603D01*
X80257318Y-43029052D01*
X80286146Y-43028418D01*
X80310711Y-43020612D01*
X80328491Y-43016378D01*
X80353939Y-43012274D01*
X80379950Y-42999850D01*
X80395840Y-42993566D01*
X80423312Y-42984839D01*
X80444675Y-42970434D01*
X80460552Y-42961357D01*
X80483811Y-42950250D01*
X80505269Y-42931000D01*
X80518741Y-42920497D01*
X80542646Y-42904382D01*
X80559091Y-42884534D01*
X80571765Y-42871354D01*
X80590948Y-42854149D01*
X80606118Y-42829627D01*
X80616079Y-42815765D01*
X80634477Y-42793564D01*
X80644660Y-42769897D01*
X80653114Y-42753668D01*
X80666670Y-42731758D01*
X80666671Y-42731757D01*
X80674316Y-42703960D01*
X80679966Y-42687853D01*
X80691367Y-42661364D01*
X80699908Y-42590993D01*
X80925127Y-40807997D01*
X80926286Y-40800618D01*
X80944169Y-40705544D01*
X80979840Y-40515896D01*
X80983473Y-40501435D01*
X81069723Y-40228784D01*
X81075072Y-40214856D01*
X81075949Y-40212929D01*
X81193444Y-39954570D01*
X81200420Y-39941396D01*
X81349233Y-39697183D01*
X81357734Y-39684957D01*
X81534803Y-39460406D01*
X81544715Y-39449284D01*
X81747486Y-39247632D01*
X81758671Y-39237774D01*
X81984197Y-39061953D01*
X81996483Y-39053512D01*
X82241498Y-38906065D01*
X82254705Y-38899164D01*
X82515672Y-38782220D01*
X82529615Y-38776955D01*
X82802746Y-38692216D01*
X82817204Y-38688668D01*
X83098545Y-38637360D01*
X83113332Y-38635574D01*
X83398789Y-38618444D01*
X83413682Y-38618447D01*
X83702771Y-38635961D01*
X83702870Y-38635967D01*
X83710307Y-38636643D01*
X83717465Y-38637511D01*
X83719864Y-38637802D01*
X96641786Y-40206161D01*
X96652523Y-40207947D01*
X96690100Y-40215909D01*
X96746271Y-40212927D01*
X96750044Y-40212786D01*
X96807439Y-40211522D01*
X96812340Y-40211415D01*
X96813638Y-40211199D01*
X96818324Y-40210023D01*
X96821694Y-40208925D01*
X96821699Y-40208925D01*
X96882584Y-40189097D01*
X96882870Y-40189005D01*
X96884299Y-40188551D01*
X96885933Y-40188045D01*
X97589681Y-39976350D01*
X97595075Y-39974861D01*
X98306578Y-39795478D01*
X98312014Y-39794236D01*
X99030937Y-39647200D01*
X99036388Y-39646214D01*
X99761200Y-39531837D01*
X99766726Y-39531093D01*
X100495968Y-39449606D01*
X100501508Y-39449114D01*
X101233713Y-39400682D01*
X101239280Y-39400440D01*
X101972888Y-39385166D01*
X101978459Y-39385175D01*
X102712043Y-39403088D01*
X102717585Y-39403349D01*
X103449596Y-39454411D01*
X103455106Y-39454920D01*
X104184093Y-39539031D01*
X104189608Y-39539795D01*
X104914000Y-39656775D01*
X104919472Y-39657786D01*
X105637844Y-39807401D01*
X105643255Y-39808656D01*
X106354132Y-39990600D01*
X106359505Y-39992106D01*
X107061437Y-40206009D01*
X107066697Y-40207744D01*
X107264250Y-40277854D01*
X107320845Y-40318826D01*
X107346304Y-40383892D01*
X107332544Y-40452393D01*
X107290300Y-40498715D01*
X107225294Y-40540919D01*
X107225280Y-40540929D01*
X106961782Y-40758321D01*
X106724657Y-41004211D01*
X106516960Y-41275428D01*
X106341389Y-41568453D01*
X106200205Y-41879506D01*
X106200204Y-41879508D01*
X106149363Y-42036946D01*
X106095227Y-42204587D01*
X106095226Y-42204591D01*
X106095226Y-42204592D01*
X106027817Y-42539472D01*
X105998847Y-42879839D01*
X105998847Y-42879843D01*
X105998847Y-42879845D01*
X106008689Y-43221306D01*
X106057215Y-43559444D01*
X106143800Y-43889891D01*
X106158635Y-43928141D01*
X106267323Y-44208375D01*
X106420716Y-44500363D01*
X106426194Y-44510791D01*
X106618354Y-44793221D01*
X106618357Y-44793225D01*
X106841319Y-45052018D01*
X106841325Y-45052024D01*
X106872487Y-45080817D01*
X107092219Y-45283847D01*
X107367803Y-45485704D01*
X107405837Y-45507403D01*
X107664509Y-45654981D01*
X107664515Y-45654984D01*
X107705819Y-45672678D01*
X107978516Y-45789499D01*
X108305755Y-45887513D01*
X108642004Y-45947758D01*
X108982917Y-45969457D01*
X109324090Y-45952330D01*
X109661115Y-45896597D01*
X109692993Y-45887513D01*
X109918968Y-45823117D01*
X109989639Y-45802978D01*
X110305417Y-45672684D01*
X110604370Y-45507397D01*
X110882634Y-45309253D01*
X111136616Y-45080811D01*
X111363034Y-44825023D01*
X111558962Y-44545194D01*
X111721870Y-44244938D01*
X111849653Y-43928135D01*
X111940660Y-43598878D01*
X111993715Y-43261421D01*
X112008133Y-42920123D01*
X111983727Y-42579393D01*
X111920813Y-42243634D01*
X111820204Y-41917183D01*
X111774599Y-41813020D01*
X111683203Y-41604266D01*
X111683193Y-41604248D01*
X111683192Y-41604247D01*
X111547279Y-41370355D01*
X111530617Y-41302502D01*
X111553284Y-41236411D01*
X111608084Y-41193067D01*
X111677619Y-41186231D01*
X111706227Y-41195362D01*
X112195691Y-41420067D01*
X112202515Y-41423458D01*
X112696908Y-41688420D01*
X112703505Y-41692221D01*
X113180663Y-41987122D01*
X113186994Y-41991310D01*
X113645087Y-42315019D01*
X113651163Y-42319600D01*
X114076594Y-42661360D01*
X114088446Y-42670881D01*
X114094244Y-42675840D01*
X114223597Y-42793563D01*
X114509075Y-43053376D01*
X114514562Y-43058688D01*
X114559871Y-43105336D01*
X114895482Y-43450866D01*
X114905357Y-43461032D01*
X114910500Y-43466664D01*
X115029145Y-43604912D01*
X115275789Y-43892306D01*
X115280582Y-43898252D01*
X115618977Y-44345573D01*
X115623394Y-44351802D01*
X115933607Y-44819098D01*
X115937633Y-44825588D01*
X116218486Y-45311085D01*
X116222105Y-45317809D01*
X116434896Y-45744234D01*
X116464209Y-45802978D01*
X116472552Y-45819696D01*
X116475750Y-45826631D01*
X116694823Y-46342974D01*
X116697587Y-46350093D01*
X116884463Y-46878950D01*
X116886785Y-46886226D01*
X117040745Y-47425566D01*
X117042614Y-47432970D01*
X117163084Y-47980769D01*
X117164494Y-47988274D01*
X117251017Y-48542462D01*
X117251962Y-48550041D01*
X117300183Y-49065520D01*
X117300081Y-49089657D01*
X117255741Y-49524183D01*
X117255542Y-49526005D01*
X117247711Y-49592926D01*
X117247712Y-49592927D01*
X117253086Y-49624405D01*
X117254750Y-49640175D01*
X117256063Y-49672089D01*
X117256063Y-49672090D01*
X117263330Y-49693536D01*
X117268119Y-49712456D01*
X117271932Y-49734789D01*
X117271934Y-49734793D01*
X117285966Y-49763498D01*
X117292004Y-49778157D01*
X117302252Y-49808400D01*
X117315269Y-49826933D01*
X117325195Y-49843740D01*
X117335141Y-49864085D01*
X117335147Y-49864094D01*
X117356687Y-49887669D01*
X117366614Y-49900037D01*
X117379127Y-49917854D01*
X117384974Y-49926178D01*
X117384975Y-49926179D01*
X117402685Y-49940293D01*
X117416949Y-49953625D01*
X117432225Y-49970345D01*
X117459533Y-49986896D01*
X117472540Y-49995965D01*
X117482373Y-50003801D01*
X117497524Y-50015876D01*
X117497525Y-50015877D01*
X117518493Y-50024429D01*
X117535930Y-50033200D01*
X117555303Y-50044942D01*
X117586177Y-50053132D01*
X117586181Y-50053133D01*
X117601211Y-50058169D01*
X117630786Y-50070232D01*
X117697788Y-50077069D01*
X117699545Y-50077260D01*
X136356819Y-52260560D01*
X136356821Y-52260559D01*
X136362455Y-52261219D01*
X136362496Y-52261221D01*
X136388744Y-52264295D01*
X136524297Y-52274849D01*
X136660158Y-52280127D01*
X136660170Y-52280127D01*
X136728337Y-52280127D01*
X136728511Y-52280125D01*
X164614089Y-52280123D01*
X164644036Y-52280123D01*
X164644049Y-52280122D01*
X164666201Y-52280122D01*
X164666212Y-52280122D01*
X164802056Y-52274846D01*
X164937593Y-52264300D01*
X164937653Y-52264293D01*
X164963575Y-52261260D01*
X164963595Y-52261258D01*
X164969540Y-52260562D01*
X164969549Y-52260563D01*
X183626894Y-50077255D01*
X183628444Y-50077085D01*
X183695582Y-50070235D01*
X183725156Y-50058171D01*
X183740182Y-50053136D01*
X183771066Y-50044945D01*
X183790441Y-50033200D01*
X183807873Y-50024432D01*
X183828845Y-50015879D01*
X183853828Y-49995967D01*
X183866835Y-49986899D01*
X183891674Y-49971844D01*
X183894146Y-49970346D01*
X183909420Y-49953626D01*
X183923677Y-49940299D01*
X183941396Y-49926180D01*
X183959761Y-49900030D01*
X183969676Y-49887676D01*
X183989050Y-49866473D01*
X185716931Y-49866473D01*
X185722770Y-49914059D01*
X185722778Y-49914149D01*
X185727591Y-49953350D01*
X185727592Y-49953356D01*
X185736482Y-50025810D01*
X185736497Y-50025891D01*
X187305820Y-62807002D01*
X187305818Y-62807014D01*
X187305820Y-62807014D01*
X187311886Y-62856448D01*
X187311886Y-62856449D01*
X187322548Y-62943336D01*
X187322548Y-62943338D01*
X187322549Y-62943340D01*
X187373727Y-63110769D01*
X187400936Y-63164174D01*
X187453202Y-63266763D01*
X187453203Y-63266764D01*
X187453202Y-63266764D01*
X187558560Y-63406585D01*
X187558562Y-63406587D01*
X187558563Y-63406588D01*
X187686606Y-63525990D01*
X187833439Y-63621342D01*
X187887159Y-63644142D01*
X187994598Y-63689744D01*
X187994605Y-63689746D01*
X188119705Y-63718620D01*
X188165191Y-63729119D01*
X188340029Y-63738269D01*
X188426914Y-63727594D01*
X188430241Y-63727184D01*
X188430312Y-63727196D01*
X188430310Y-63727176D01*
X189271556Y-63623884D01*
X201365502Y-62138935D01*
X201365517Y-62138930D01*
X201369844Y-62138083D01*
X201369857Y-62138150D01*
X201381966Y-62135774D01*
X201413935Y-62131852D01*
X201581360Y-62080677D01*
X201737353Y-62001204D01*
X201877175Y-61895849D01*
X201996576Y-61767813D01*
X202016407Y-61737277D01*
X206366325Y-61737277D01*
X206370168Y-61768568D01*
X206376363Y-61819022D01*
X207606939Y-71841255D01*
X207946254Y-74604755D01*
X207952332Y-74654252D01*
X207952334Y-74654294D01*
X207955091Y-74676739D01*
X207955061Y-74676920D01*
X207971916Y-74814148D01*
X207971917Y-74814157D01*
X208023107Y-74981567D01*
X208023111Y-74981578D01*
X208102591Y-75137549D01*
X208102599Y-75137562D01*
X208169872Y-75226827D01*
X208206850Y-75275894D01*
X208207963Y-75277370D01*
X208336004Y-75396759D01*
X208336006Y-75396760D01*
X208336008Y-75396762D01*
X208482840Y-75492105D01*
X208643999Y-75560501D01*
X208644000Y-75560501D01*
X208644002Y-75560502D01*
X208757782Y-75586763D01*
X208814586Y-75599874D01*
X208989418Y-75609025D01*
X209076301Y-75598351D01*
X209077454Y-75598208D01*
X209077618Y-75598235D01*
X209077613Y-75598189D01*
X209437878Y-75553954D01*
X222014899Y-74009691D01*
X222014904Y-74009689D01*
X222019239Y-74008840D01*
X222019245Y-74008873D01*
X222031798Y-74006413D01*
X222063309Y-74002548D01*
X222106922Y-73989218D01*
X222230718Y-73951383D01*
X222230720Y-73951381D01*
X222230723Y-73951381D01*
X222386709Y-73871919D01*
X222526527Y-73766578D01*
X222645928Y-73638558D01*
X222741284Y-73491749D01*
X222809697Y-73330611D01*
X222849090Y-73160042D01*
X222858265Y-72985223D01*
X222855521Y-72962868D01*
X222854623Y-72945200D01*
X222854842Y-72934613D01*
X221773825Y-64130435D01*
X225852018Y-64130435D01*
X225862693Y-64217316D01*
X225862694Y-64217325D01*
X227438138Y-77048295D01*
X227438145Y-77048394D01*
X227440739Y-77069504D01*
X227440697Y-77069753D01*
X227457414Y-77205801D01*
X227457599Y-77207306D01*
X227508339Y-77373216D01*
X227508800Y-77374723D01*
X227588286Y-77530692D01*
X227588291Y-77530701D01*
X227588295Y-77530706D01*
X227588298Y-77530711D01*
X227693655Y-77670504D01*
X227693659Y-77670509D01*
X227821705Y-77789895D01*
X227821711Y-77789900D01*
X227886733Y-77832118D01*
X227968537Y-77885235D01*
X228129693Y-77953629D01*
X228300277Y-77993001D01*
X228475106Y-78002153D01*
X228561982Y-77991481D01*
X228561987Y-77991482D01*
X228561987Y-77991481D01*
X228882092Y-77952177D01*
X241500594Y-76402820D01*
X241500599Y-76402818D01*
X241504934Y-76401969D01*
X241504947Y-76402039D01*
X241517010Y-76399675D01*
X241549017Y-76395748D01*
X241549018Y-76395747D01*
X241549024Y-76395747D01*
X241716452Y-76344572D01*
X241872449Y-76265098D01*
X242012274Y-76159740D01*
X242131676Y-76031701D01*
X242227029Y-75884871D01*
X242295433Y-75723712D01*
X242334810Y-75553123D01*
X242343963Y-75378293D01*
X242343963Y-75378289D01*
X242341219Y-75355958D01*
X242340319Y-75338272D01*
X242340336Y-75337468D01*
X242340537Y-75327742D01*
X241884092Y-71610293D01*
X245962294Y-71610293D01*
X245968135Y-71657891D01*
X245968139Y-71657938D01*
X245972110Y-71690276D01*
X245972111Y-71690282D01*
X245972956Y-71697167D01*
X245972956Y-71697168D01*
X245981953Y-71770487D01*
X245981967Y-71770558D01*
X247562123Y-84639896D01*
X247562210Y-84640442D01*
X247567942Y-84687141D01*
X247567943Y-84687147D01*
X247585387Y-84744213D01*
X247619120Y-84854572D01*
X247698586Y-85010550D01*
X247698591Y-85010558D01*
X247803945Y-85150378D01*
X247931978Y-85269777D01*
X248060712Y-85353382D01*
X248078803Y-85365131D01*
X248239947Y-85433534D01*
X248239948Y-85433534D01*
X248239950Y-85433535D01*
X248410531Y-85472918D01*
X248585359Y-85482079D01*
X248659961Y-85472918D01*
X261610866Y-83882747D01*
X261610874Y-83882744D01*
X261615218Y-83881894D01*
X261615234Y-83881977D01*
X261627075Y-83879654D01*
X261659361Y-83875689D01*
X261826773Y-83824498D01*
X261982753Y-83745015D01*
X262122561Y-83639654D01*
X262241951Y-83511617D01*
X262337294Y-83364794D01*
X262405694Y-83203646D01*
X262445073Y-83033069D01*
X262454234Y-82858245D01*
X262451488Y-82835885D01*
X262450591Y-82818220D01*
X262450609Y-82817379D01*
X262450739Y-82811046D01*
X262450809Y-82807674D01*
X262450808Y-82807664D01*
X262436580Y-82691785D01*
X260871434Y-69944704D01*
X260871432Y-69944638D01*
X260868609Y-69921660D01*
X260868623Y-69921573D01*
X260851494Y-69782125D01*
X260800303Y-69614718D01*
X260800302Y-69614717D01*
X260800302Y-69614715D01*
X260720818Y-69458737D01*
X260632682Y-69341786D01*
X260615459Y-69318932D01*
X260615458Y-69318931D01*
X260487422Y-69199543D01*
X260487415Y-69199538D01*
X260487412Y-69199536D01*
X260340603Y-69104200D01*
X260340601Y-69104199D01*
X260179455Y-69035800D01*
X260008878Y-68996419D01*
X259843725Y-68987764D01*
X259834058Y-68987258D01*
X259834057Y-68987258D01*
X259834052Y-68987258D01*
X259790654Y-68992586D01*
X259786478Y-68993099D01*
X259786452Y-68993101D01*
X259748392Y-68997774D01*
X259743011Y-68998435D01*
X259679502Y-69006232D01*
X259679450Y-69006239D01*
X246804669Y-70587064D01*
X246803674Y-70587222D01*
X246774504Y-70590803D01*
X246757206Y-70592927D01*
X246589966Y-70644054D01*
X246589793Y-70644107D01*
X246433813Y-70723579D01*
X246294006Y-70828924D01*
X246294004Y-70828926D01*
X246174610Y-70956952D01*
X246079259Y-71103768D01*
X246010856Y-71264896D01*
X246010854Y-71264902D01*
X245971465Y-71435466D01*
X245962294Y-71610292D01*
X245962294Y-71610293D01*
X241884092Y-71610293D01*
X240747510Y-62353578D01*
X240747508Y-62353571D01*
X240747078Y-62350067D01*
X240746789Y-62348248D01*
X240741151Y-62302288D01*
X240741150Y-62302285D01*
X240741150Y-62302283D01*
X240689981Y-62134867D01*
X240689979Y-62134864D01*
X240689979Y-62134862D01*
X240610518Y-61978881D01*
X240575402Y-61932274D01*
X240505174Y-61839062D01*
X240428779Y-61767813D01*
X240377150Y-61719661D01*
X240230341Y-61624307D01*
X240176624Y-61601502D01*
X240069198Y-61555894D01*
X240069195Y-61555893D01*
X240069192Y-61555892D01*
X239943085Y-61526771D01*
X239898625Y-61516504D01*
X239723805Y-61507332D01*
X239723803Y-61507332D01*
X239723801Y-61507332D01*
X239723799Y-61507332D01*
X239676200Y-61513173D01*
X239676158Y-61513177D01*
X239630752Y-61518752D01*
X239630748Y-61518752D01*
X239630747Y-61518753D01*
X239619763Y-61520101D01*
X239565410Y-61526771D01*
X239565354Y-61526781D01*
X226785638Y-63095934D01*
X226785575Y-63095923D01*
X226646940Y-63112939D01*
X226646938Y-63112939D01*
X226479507Y-63164122D01*
X226323515Y-63243601D01*
X226323506Y-63243607D01*
X226183695Y-63348960D01*
X226183691Y-63348964D01*
X226064292Y-63477006D01*
X225968944Y-63623838D01*
X225968942Y-63623840D01*
X225968942Y-63623842D01*
X225920989Y-63736825D01*
X225900541Y-63785003D01*
X225861167Y-63955597D01*
X225854249Y-64087809D01*
X225852019Y-64130425D01*
X225852018Y-64130435D01*
X221773825Y-64130435D01*
X221261815Y-59960449D01*
X221261814Y-59960446D01*
X221261348Y-59956649D01*
X221261136Y-59955324D01*
X221255467Y-59909126D01*
X221204291Y-59741716D01*
X221124822Y-59585735D01*
X221019476Y-59445922D01*
X220891452Y-59326527D01*
X220891450Y-59326525D01*
X220815242Y-59277030D01*
X220744641Y-59231176D01*
X220676230Y-59202132D01*
X220583502Y-59162765D01*
X220412935Y-59123377D01*
X220358225Y-59120506D01*
X220238117Y-59114203D01*
X220238116Y-59114203D01*
X220238114Y-59114203D01*
X220238112Y-59114203D01*
X220190529Y-59120042D01*
X220190451Y-59120049D01*
X220151245Y-59124863D01*
X220151241Y-59124863D01*
X220151239Y-59124864D01*
X220085838Y-59132890D01*
X220085835Y-59132890D01*
X220079731Y-59133640D01*
X220079662Y-59133652D01*
X207208394Y-60714046D01*
X207208012Y-60714106D01*
X207161259Y-60719844D01*
X206993834Y-60771021D01*
X206837845Y-60850492D01*
X206837839Y-60850495D01*
X206698022Y-60955847D01*
X206698020Y-60955849D01*
X206578623Y-61083882D01*
X206483271Y-61230706D01*
X206483269Y-61230708D01*
X206483269Y-61230710D01*
X206483259Y-61230734D01*
X206414863Y-61391864D01*
X206375482Y-61562447D01*
X206368556Y-61694680D01*
X206366325Y-61737277D01*
X202016407Y-61737277D01*
X202091928Y-61620987D01*
X202160333Y-61459833D01*
X202199713Y-61289248D01*
X202208871Y-61114417D01*
X202206126Y-61092071D01*
X202205227Y-61074393D01*
X202205346Y-61068637D01*
X202205445Y-61063857D01*
X200625896Y-48199473D01*
X200625893Y-48199397D01*
X200616776Y-48125185D01*
X200616776Y-48125180D01*
X200611829Y-48084899D01*
X200611799Y-48084716D01*
X200606099Y-48038314D01*
X200606097Y-48038309D01*
X200554908Y-47870912D01*
X200487054Y-47737754D01*
X200475429Y-47714941D01*
X200370081Y-47575146D01*
X200370080Y-47575145D01*
X200370076Y-47575141D01*
X200242050Y-47455756D01*
X200195560Y-47425564D01*
X200095240Y-47360413D01*
X199934107Y-47292010D01*
X199934105Y-47292009D01*
X199934104Y-47292009D01*
X199909371Y-47286297D01*
X199763542Y-47252622D01*
X199690920Y-47248811D01*
X199588727Y-47243448D01*
X199588726Y-47243448D01*
X199588724Y-47243448D01*
X199588722Y-47243448D01*
X199541151Y-47249285D01*
X199541043Y-47249295D01*
X199513613Y-47252663D01*
X199501852Y-47254107D01*
X199501849Y-47254107D01*
X199501842Y-47254108D01*
X199429064Y-47263037D01*
X199428958Y-47263057D01*
X186559880Y-48843181D01*
X186557692Y-48843529D01*
X186511886Y-48849149D01*
X186344475Y-48900314D01*
X186188484Y-48979779D01*
X186048673Y-49085116D01*
X186048669Y-49085119D01*
X186048669Y-49085120D01*
X186044324Y-49089779D01*
X185929270Y-49213138D01*
X185833914Y-49359944D01*
X185765502Y-49521079D01*
X185765500Y-49521084D01*
X185726107Y-49691653D01*
X185722337Y-49763488D01*
X185716931Y-49866473D01*
X183989050Y-49866473D01*
X183991224Y-49864094D01*
X184001169Y-49843750D01*
X184011093Y-49826944D01*
X184024116Y-49808405D01*
X184027505Y-49798401D01*
X184034365Y-49778159D01*
X184040407Y-49763488D01*
X184054435Y-49734796D01*
X184058245Y-49712471D01*
X184063035Y-49693547D01*
X184070305Y-49672096D01*
X184071618Y-49640175D01*
X184073279Y-49624419D01*
X184078657Y-49592927D01*
X184070820Y-49525965D01*
X184070640Y-49524320D01*
X184026297Y-49089777D01*
X184026196Y-49065642D01*
X184026208Y-49065520D01*
X184074428Y-48550030D01*
X184075373Y-48542458D01*
X184079133Y-48518378D01*
X184161892Y-47988271D01*
X184163302Y-47980770D01*
X184221760Y-47714942D01*
X184283772Y-47432953D01*
X184285632Y-47425587D01*
X184439605Y-46886195D01*
X184441908Y-46878975D01*
X184628800Y-46350065D01*
X184631550Y-46342986D01*
X184850633Y-45826612D01*
X184853817Y-45819707D01*
X185104277Y-45317790D01*
X185107871Y-45311111D01*
X185388748Y-44825571D01*
X185392743Y-44819129D01*
X185702989Y-44351780D01*
X185707403Y-44345558D01*
X185714009Y-44336826D01*
X186045800Y-43898233D01*
X186050579Y-43892306D01*
X186415870Y-43466659D01*
X186421007Y-43461033D01*
X186811818Y-43058670D01*
X186817288Y-43053376D01*
X187232138Y-42675822D01*
X187237922Y-42670877D01*
X187311310Y-42611922D01*
X187675199Y-42319599D01*
X187681264Y-42315026D01*
X188139388Y-41991295D01*
X188145689Y-41987127D01*
X188622875Y-41692209D01*
X188629444Y-41688423D01*
X189123865Y-41423447D01*
X189130663Y-41420070D01*
X189620142Y-41195358D01*
X189689281Y-41185278D01*
X189752894Y-41214177D01*
X189790785Y-41272881D01*
X189790923Y-41342750D01*
X189779090Y-41370352D01*
X189643174Y-41604247D01*
X189643164Y-41604265D01*
X189506168Y-41917170D01*
X189506166Y-41917176D01*
X189405556Y-42243627D01*
X189342640Y-42579396D01*
X189318235Y-42920114D01*
X189318235Y-42920116D01*
X189318235Y-42920120D01*
X189318235Y-42920123D01*
X189324089Y-43058688D01*
X189332653Y-43261425D01*
X189379507Y-43559444D01*
X189385708Y-43598880D01*
X189405274Y-43669667D01*
X189476716Y-43928141D01*
X189604496Y-44244937D01*
X189604496Y-44244938D01*
X189711514Y-44442181D01*
X189767406Y-44545195D01*
X189963335Y-44825025D01*
X190189753Y-45080813D01*
X190189756Y-45080816D01*
X190189759Y-45080819D01*
X190382129Y-45253844D01*
X190443735Y-45309255D01*
X190722000Y-45507399D01*
X191020953Y-45672686D01*
X191336731Y-45802981D01*
X191665255Y-45896599D01*
X192002281Y-45952332D01*
X192300662Y-45967310D01*
X192343451Y-45969459D01*
X192343452Y-45969458D01*
X192343454Y-45969459D01*
X192684367Y-45947760D01*
X193020616Y-45887514D01*
X193347856Y-45789500D01*
X193661859Y-45654984D01*
X193958569Y-45485705D01*
X194234153Y-45283848D01*
X194485050Y-45052022D01*
X194708018Y-44793222D01*
X194900178Y-44510791D01*
X195059047Y-44208378D01*
X195182572Y-43889891D01*
X195269157Y-43559443D01*
X195317683Y-43221305D01*
X195327525Y-42879844D01*
X195323321Y-42830451D01*
X204044863Y-42830451D01*
X204050704Y-42878031D01*
X204050706Y-42878038D01*
X204051167Y-42881793D01*
X204051167Y-42881796D01*
X204053940Y-42904381D01*
X204055529Y-42917325D01*
X204064849Y-42993243D01*
X204064853Y-42993264D01*
X205644676Y-55859890D01*
X205644807Y-55860713D01*
X205650527Y-55907300D01*
X205701704Y-56074702D01*
X205701705Y-56074705D01*
X205701707Y-56074708D01*
X205780448Y-56229255D01*
X205781182Y-56230694D01*
X205886527Y-56370497D01*
X205886529Y-56370500D01*
X206014546Y-56489885D01*
X206014554Y-56489891D01*
X206014556Y-56489893D01*
X206161370Y-56585242D01*
X206322510Y-56653650D01*
X206493081Y-56693037D01*
X206667900Y-56702207D01*
X206699333Y-56698348D01*
X206699338Y-56698349D01*
X206713451Y-56696617D01*
X206713470Y-56696615D01*
X206719265Y-56695903D01*
X206719271Y-56695904D01*
X206738791Y-56693507D01*
X206738796Y-56693507D01*
X206811009Y-56684643D01*
X206820179Y-56683518D01*
X206820179Y-56683517D01*
X206828847Y-56682454D01*
X206828910Y-56682441D01*
X219693436Y-55102877D01*
X219693448Y-55102873D01*
X219697779Y-55102025D01*
X219697790Y-55102081D01*
X219710040Y-55099678D01*
X219741889Y-55095769D01*
X219909300Y-55044591D01*
X220065281Y-54965119D01*
X220205093Y-54859770D01*
X220324487Y-54731744D01*
X220419837Y-54584930D01*
X220488244Y-54423790D01*
X220527632Y-54253219D01*
X220536802Y-54078400D01*
X220534057Y-54056048D01*
X220533160Y-54038378D01*
X220533178Y-54037497D01*
X220533379Y-54027799D01*
X219452359Y-45223601D01*
X223530553Y-45223601D01*
X223540556Y-45305039D01*
X223540556Y-45305045D01*
X223540557Y-45305045D01*
X225116716Y-58141837D01*
X225116720Y-58141897D01*
X225123550Y-58197497D01*
X225123550Y-58197501D01*
X225130398Y-58253268D01*
X225130468Y-58253708D01*
X225136210Y-58300456D01*
X225136212Y-58300468D01*
X225187392Y-58467848D01*
X225187395Y-58467855D01*
X225187397Y-58467860D01*
X225266138Y-58622389D01*
X225266876Y-58623837D01*
X225372225Y-58763640D01*
X225500246Y-58883022D01*
X225500248Y-58883023D01*
X225500252Y-58883027D01*
X225647064Y-58978372D01*
X225808200Y-59046777D01*
X225978767Y-59086164D01*
X226153582Y-59095337D01*
X226197913Y-59089895D01*
X226199640Y-59089684D01*
X226199713Y-59089678D01*
X226204958Y-59089033D01*
X226204963Y-59089034D01*
X226236523Y-59085158D01*
X226240458Y-59084675D01*
X226240458Y-59084676D01*
X226305860Y-59076651D01*
X226305860Y-59076650D01*
X226315678Y-59075446D01*
X226315759Y-59075428D01*
X239179128Y-57496007D01*
X239179130Y-57496006D01*
X239183466Y-57495156D01*
X239183483Y-57495247D01*
X239195244Y-57492940D01*
X239227598Y-57488969D01*
X239395023Y-57437782D01*
X239395026Y-57437780D01*
X239395030Y-57437779D01*
X239471728Y-57398698D01*
X239551016Y-57358299D01*
X239690835Y-57252933D01*
X239810232Y-57124888D01*
X239905579Y-56978054D01*
X239973977Y-56816892D01*
X240013349Y-56646302D01*
X240022498Y-56471466D01*
X240019752Y-56449123D01*
X240018854Y-56431438D01*
X240019071Y-56420938D01*
X240019070Y-56420937D01*
X240019071Y-56420929D01*
X239562624Y-52703471D01*
X243640831Y-52703471D01*
X243646670Y-52751055D01*
X243646678Y-52751149D01*
X243651491Y-52790348D01*
X243651492Y-52790355D01*
X243660382Y-52862808D01*
X243660397Y-52862889D01*
X245229861Y-65645148D01*
X245229862Y-65645161D01*
X245246447Y-65780330D01*
X245246447Y-65780331D01*
X245246448Y-65780334D01*
X245297626Y-65947764D01*
X245377103Y-66103761D01*
X245482463Y-66243586D01*
X245610506Y-66362989D01*
X245757339Y-66458340D01*
X245837919Y-66492541D01*
X245918499Y-66526743D01*
X245918505Y-66526745D01*
X246043605Y-66555619D01*
X246089091Y-66566118D01*
X246263929Y-66575268D01*
X246350814Y-66564593D01*
X246354141Y-66564183D01*
X246354212Y-66564195D01*
X246354210Y-66564175D01*
X247312043Y-66446568D01*
X259289402Y-64975934D01*
X259289404Y-64975933D01*
X259293740Y-64975083D01*
X259293753Y-64975149D01*
X259305873Y-64972774D01*
X259316336Y-64971489D01*
X259337835Y-64968852D01*
X259505260Y-64917677D01*
X259661254Y-64838204D01*
X259801075Y-64732848D01*
X259920477Y-64604812D01*
X260015829Y-64457986D01*
X260084234Y-64296832D01*
X260123614Y-64126247D01*
X260132771Y-63951415D01*
X260130026Y-63929069D01*
X260129127Y-63911391D01*
X260129246Y-63905632D01*
X260129345Y-63900856D01*
X258549796Y-51036471D01*
X258549792Y-51036385D01*
X258541886Y-50972046D01*
X258541884Y-50972031D01*
X258536318Y-50926692D01*
X258536316Y-50926686D01*
X258535785Y-50922358D01*
X258535757Y-50922180D01*
X258529999Y-50875312D01*
X258529996Y-50875303D01*
X258478808Y-50707910D01*
X258438335Y-50628487D01*
X258399329Y-50551939D01*
X258293981Y-50412144D01*
X258293980Y-50412143D01*
X258293976Y-50412139D01*
X258165950Y-50292754D01*
X258165945Y-50292751D01*
X258165941Y-50292747D01*
X258019146Y-50197416D01*
X258019133Y-50197409D01*
X257858007Y-50129009D01*
X257858005Y-50129008D01*
X257858004Y-50129008D01*
X257807849Y-50117426D01*
X257687442Y-50089621D01*
X257617514Y-50085951D01*
X257512627Y-50080447D01*
X257512626Y-50080447D01*
X257512624Y-50080447D01*
X257512622Y-50080447D01*
X257465051Y-50086284D01*
X257464943Y-50086294D01*
X257437847Y-50089621D01*
X257425752Y-50091106D01*
X257425749Y-50091106D01*
X257425742Y-50091107D01*
X257352964Y-50100036D01*
X257352858Y-50100056D01*
X244483825Y-51680175D01*
X244481614Y-51680526D01*
X244435787Y-51686149D01*
X244268375Y-51737314D01*
X244112384Y-51816779D01*
X243972574Y-51922115D01*
X243972570Y-51922118D01*
X243972570Y-51922119D01*
X243927227Y-51970736D01*
X243853171Y-52050138D01*
X243853168Y-52050142D01*
X243757815Y-52196943D01*
X243757812Y-52196949D01*
X243689400Y-52358082D01*
X243689400Y-52358083D01*
X243650009Y-52528645D01*
X243650007Y-52528652D01*
X243640831Y-52703471D01*
X239562624Y-52703471D01*
X238436936Y-43535480D01*
X238436944Y-43535433D01*
X238419762Y-43395438D01*
X238419761Y-43395436D01*
X238419761Y-43395433D01*
X238368579Y-43228007D01*
X238289100Y-43072013D01*
X238275056Y-43053376D01*
X238183743Y-42932196D01*
X238182468Y-42931007D01*
X238055696Y-42812792D01*
X237908864Y-42717443D01*
X237908858Y-42717440D01*
X237908856Y-42717439D01*
X237747707Y-42649042D01*
X237747700Y-42649040D01*
X237577121Y-42609668D01*
X237577110Y-42609666D01*
X237402280Y-42600515D01*
X237322275Y-42610344D01*
X237322274Y-42610343D01*
X237316916Y-42611002D01*
X237315394Y-42611189D01*
X237315386Y-42611190D01*
X237309419Y-42611922D01*
X237309420Y-42611923D01*
X224484899Y-44186575D01*
X224484832Y-44186579D01*
X224463684Y-44189177D01*
X224463466Y-44189141D01*
X224412288Y-44195428D01*
X224325407Y-44206102D01*
X224325404Y-44206102D01*
X224325403Y-44206103D01*
X224325402Y-44206103D01*
X224157995Y-44257298D01*
X224157989Y-44257301D01*
X224002019Y-44336785D01*
X224002012Y-44336789D01*
X223862201Y-44442159D01*
X223851136Y-44454025D01*
X223742814Y-44570203D01*
X223742812Y-44570205D01*
X223742810Y-44570208D01*
X223742808Y-44570210D01*
X223647476Y-44717029D01*
X223647474Y-44717031D01*
X223579078Y-44878187D01*
X223539707Y-45048763D01*
X223539705Y-45048779D01*
X223530553Y-45223601D01*
X219452359Y-45223601D01*
X218954973Y-41172718D01*
X218954973Y-41172709D01*
X218952561Y-41153070D01*
X218951118Y-41141314D01*
X218951137Y-41141197D01*
X218944746Y-41089158D01*
X218944747Y-41089158D01*
X218934078Y-41002275D01*
X218882890Y-40834855D01*
X218882889Y-40834854D01*
X218882889Y-40834852D01*
X218836666Y-40744140D01*
X218803406Y-40678868D01*
X218698042Y-40539053D01*
X218698037Y-40539048D01*
X218698035Y-40539046D01*
X218597907Y-40445681D01*
X218570000Y-40419659D01*
X218569998Y-40419658D01*
X218569993Y-40419653D01*
X218423173Y-40324315D01*
X218423165Y-40324310D01*
X218262016Y-40255914D01*
X218262009Y-40255912D01*
X218091436Y-40216541D01*
X218091425Y-40216539D01*
X217937045Y-40208456D01*
X217916598Y-40207386D01*
X217916597Y-40207386D01*
X217916596Y-40207386D01*
X217830267Y-40217989D01*
X217830263Y-40217990D01*
X204998360Y-41793549D01*
X204998296Y-41793554D01*
X204978756Y-41795954D01*
X204978680Y-41795941D01*
X204839736Y-41813008D01*
X204839734Y-41813009D01*
X204672325Y-41864199D01*
X204672323Y-41864200D01*
X204516351Y-41943679D01*
X204516339Y-41943686D01*
X204376541Y-42049040D01*
X204257148Y-42177079D01*
X204257146Y-42177082D01*
X204161803Y-42323901D01*
X204093406Y-42485043D01*
X204093405Y-42485045D01*
X204054024Y-42655624D01*
X204044863Y-42830446D01*
X204044863Y-42830451D01*
X195323321Y-42830451D01*
X195298554Y-42539471D01*
X195231145Y-42204586D01*
X195126168Y-41879512D01*
X195126167Y-41879511D01*
X195126166Y-41879506D01*
X195126165Y-41879504D01*
X194984981Y-41568451D01*
X194809410Y-41275426D01*
X194790903Y-41251259D01*
X194601714Y-41004210D01*
X194523186Y-40922780D01*
X194364589Y-40758321D01*
X194364585Y-40758318D01*
X194101086Y-40540925D01*
X194101085Y-40540924D01*
X194062487Y-40515865D01*
X194036042Y-40498696D01*
X193990533Y-40445681D01*
X193980910Y-40376477D01*
X194010230Y-40313056D01*
X194062092Y-40277834D01*
X194259645Y-40207727D01*
X194264953Y-40205977D01*
X194966874Y-39992084D01*
X194972201Y-39990592D01*
X195683122Y-39808642D01*
X195688494Y-39807396D01*
X196406903Y-39657780D01*
X196412344Y-39656774D01*
X197136763Y-39539795D01*
X197142254Y-39539035D01*
X197871259Y-39454926D01*
X197876761Y-39454417D01*
X198608780Y-39403359D01*
X198614314Y-39403098D01*
X199347902Y-39385188D01*
X199353472Y-39385179D01*
X200087081Y-39400456D01*
X200092651Y-39400698D01*
X200824850Y-39449131D01*
X200830398Y-39449625D01*
X201559630Y-39531111D01*
X201565168Y-39531857D01*
X202289966Y-39646232D01*
X202295433Y-39647222D01*
X203014338Y-39794255D01*
X203019763Y-39795492D01*
X203623747Y-39947767D01*
X203731288Y-39974880D01*
X203736693Y-39976374D01*
X204441512Y-40188391D01*
X204444166Y-40189222D01*
X204504670Y-40208925D01*
X204504674Y-40208925D01*
X204508033Y-40210019D01*
X204512711Y-40211192D01*
X204514029Y-40211412D01*
X204516702Y-40211470D01*
X204576224Y-40212781D01*
X204580002Y-40212922D01*
X204636269Y-40215909D01*
X204673867Y-40207942D01*
X204684610Y-40206155D01*
X217544588Y-38645315D01*
X217544609Y-38645315D01*
X217554403Y-38644125D01*
X217554404Y-38644126D01*
X217616111Y-38636635D01*
X217623488Y-38635964D01*
X217912710Y-38618426D01*
X217927619Y-38618422D01*
X218213070Y-38635538D01*
G37*
%TD.AperFunction*%
M02*
