%TF.GenerationSoftware,KiCad,Pcbnew,7.0.10-7.0.10~ubuntu22.04.1*%
%TF.CreationDate,2024-01-12T22:59:23+01:00*%
%TF.ProjectId,plate,706c6174-652e-46b6-9963-61645f706362,rev?*%
%TF.SameCoordinates,Original*%
%TF.FileFunction,Soldermask,Bot*%
%TF.FilePolarity,Negative*%
%FSLAX46Y46*%
G04 Gerber Fmt 4.6, Leading zero omitted, Abs format (unit mm)*
G04 Created by KiCad (PCBNEW 7.0.10-7.0.10~ubuntu22.04.1) date 2024-01-12 22:59:23*
%MOMM*%
%LPD*%
G01*
G04 APERTURE LIST*
%ADD10C,1.100000*%
G04 APERTURE END LIST*
D10*
%TO.C,MX19*%
X240255103Y-62450106D02*
X241839405Y-75353206D01*
X241404066Y-75910413D02*
X228500966Y-77494715D01*
X226794796Y-63599069D02*
X239697896Y-62014767D01*
X227943759Y-77059376D02*
X226359457Y-64156276D01*
X241401187Y-75909641D02*
G75*
G03*
X241836525Y-75352435I-60932J496270D01*
G01*
X240255103Y-62450106D02*
G75*
G03*
X239697896Y-62014767I-496271J-60932D01*
G01*
X227943760Y-77059376D02*
G75*
G03*
X228500966Y-77494714I496272J60934D01*
G01*
X226794796Y-63599070D02*
G75*
G03*
X226359458Y-64156276I60934J-496272D01*
G01*
%TO.C,MX17*%
X202441475Y-67093034D02*
X204025777Y-79996134D01*
X203590438Y-80553341D02*
X190687338Y-82137643D01*
X188981168Y-68241997D02*
X201884268Y-66657695D01*
X190130131Y-81702304D02*
X188545829Y-68799204D01*
X203587559Y-80552569D02*
G75*
G03*
X204022897Y-79995363I-60932J496270D01*
G01*
X202441475Y-67093034D02*
G75*
G03*
X201884268Y-66657695I-496271J-60932D01*
G01*
X190130132Y-81702304D02*
G75*
G03*
X190687338Y-82137642I496272J60934D01*
G01*
X188981168Y-68241998D02*
G75*
G03*
X188545830Y-68799204I60934J-496272D01*
G01*
%TO.C,MX11*%
X54867132Y-71636203D02*
X53282830Y-84539303D01*
X52725623Y-84974642D02*
X39822523Y-83390340D01*
X41528693Y-69494694D02*
X54431793Y-71078996D01*
X39387184Y-82833133D02*
X40971486Y-69930033D01*
X52723015Y-84973196D02*
G75*
G03*
X53280222Y-84537859I60937J496270D01*
G01*
X54867131Y-71636203D02*
G75*
G03*
X54431793Y-71078997I-496270J60936D01*
G01*
X39387185Y-82833133D02*
G75*
G03*
X39822523Y-83390339I496272J-60934D01*
G01*
X41528693Y-69494695D02*
G75*
G03*
X40971487Y-69930033I-60934J-496272D01*
G01*
%TO.C,MX4*%
X115112495Y-49892391D02*
X113528193Y-62795491D01*
X112970986Y-63230830D02*
X100067886Y-61646528D01*
X101774056Y-47750882D02*
X114677156Y-49335184D01*
X99632547Y-61089321D02*
X101216849Y-48186221D01*
X112968378Y-63229384D02*
G75*
G03*
X113525585Y-62794047I60937J496270D01*
G01*
X115112494Y-49892391D02*
G75*
G03*
X114677156Y-49335185I-496270J60936D01*
G01*
X99632548Y-61089321D02*
G75*
G03*
X100067886Y-61646527I496272J-60934D01*
G01*
X101774056Y-47750883D02*
G75*
G03*
X101216850Y-48186221I-60934J-496272D01*
G01*
%TO.C,MX27*%
X204762941Y-85999848D02*
X206347243Y-98902948D01*
X205911904Y-99460155D02*
X193008804Y-101044457D01*
X191302634Y-87148811D02*
X204205734Y-85564509D01*
X192451597Y-100609118D02*
X190867295Y-87706018D01*
X205909025Y-99459383D02*
G75*
G03*
X206344363Y-98902177I-60932J496270D01*
G01*
X204762941Y-85999848D02*
G75*
G03*
X204205734Y-85564509I-496271J-60932D01*
G01*
X192451598Y-100609118D02*
G75*
G03*
X193008804Y-101044456I496272J60934D01*
G01*
X191302634Y-87148812D02*
G75*
G03*
X190867296Y-87706018I60934J-496272D01*
G01*
%TO.C,MX13*%
X94463097Y-61763148D02*
X92878795Y-74666248D01*
X92321588Y-75101587D02*
X79418488Y-73517285D01*
X81124658Y-59621639D02*
X94027758Y-61205941D01*
X78983149Y-72960078D02*
X80567451Y-60056978D01*
X92318980Y-75100141D02*
G75*
G03*
X92876187Y-74664804I60937J496270D01*
G01*
X94463096Y-61763148D02*
G75*
G03*
X94027758Y-61205942I-496270J60936D01*
G01*
X78983150Y-72960078D02*
G75*
G03*
X79418488Y-73517284I496272J-60934D01*
G01*
X81124658Y-59621640D02*
G75*
G03*
X80567452Y-60056978I-60934J-496272D01*
G01*
%TO.C,MX24*%
X110469564Y-87706018D02*
X108885262Y-100609118D01*
X108328055Y-101044457D02*
X95424955Y-99460155D01*
X97131125Y-85564509D02*
X110034225Y-87148811D01*
X94989616Y-98902948D02*
X96573918Y-85999848D01*
X108325447Y-101043011D02*
G75*
G03*
X108882654Y-100607674I60937J496270D01*
G01*
X110469563Y-87706018D02*
G75*
G03*
X110034225Y-87148812I-496270J60936D01*
G01*
X94989617Y-98902948D02*
G75*
G03*
X95424955Y-99460154I496272J-60934D01*
G01*
X97131125Y-85564510D02*
G75*
G03*
X96573919Y-85999848I-60934J-496272D01*
G01*
%TO.C,MX34*%
X169296697Y-123589454D02*
X177120292Y-133971716D01*
X177021882Y-134671941D02*
X166639620Y-142495536D01*
X158214210Y-131314639D02*
X168596472Y-123491044D01*
X165939395Y-142397126D02*
X158115800Y-132014864D01*
X177019003Y-134672713D02*
G75*
G03*
X177117413Y-133972488I-300905J399317D01*
G01*
X169296697Y-123589454D02*
G75*
G03*
X168596472Y-123491044I-399317J-300905D01*
G01*
X165939396Y-142397125D02*
G75*
G03*
X166639619Y-142495535I399317J300907D01*
G01*
X158214211Y-131314640D02*
G75*
G03*
X158115801Y-132014863I300907J-399317D01*
G01*
%TO.C,MX32*%
X123313160Y-118701592D02*
X118443274Y-130754982D01*
X117792379Y-131031271D02*
X105738989Y-126161385D01*
X110983481Y-113180811D02*
X123036871Y-118050697D01*
X105462700Y-125510490D02*
X110332586Y-113457100D01*
X117790235Y-131029199D02*
G75*
G03*
X118441129Y-130752912I187304J463588D01*
G01*
X123313159Y-118701592D02*
G75*
G03*
X123036871Y-118050698I-463588J187304D01*
G01*
X105462701Y-125510490D02*
G75*
G03*
X105738989Y-126161384I463591J-187303D01*
G01*
X110983481Y-113180812D02*
G75*
G03*
X110332587Y-113457100I-187303J-463591D01*
G01*
%TO.C,MX35*%
X191024389Y-113507243D02*
X195894275Y-125560633D01*
X195617986Y-126211528D02*
X183564596Y-131081414D01*
X178320104Y-118100840D02*
X190373494Y-113230954D01*
X182913701Y-130805125D02*
X178043815Y-118751735D01*
X195615005Y-126211528D02*
G75*
G03*
X195891293Y-125560634I-187300J463590D01*
G01*
X191024388Y-113507243D02*
G75*
G03*
X190373494Y-113230955I-463590J-187300D01*
G01*
X182913702Y-130805125D02*
G75*
G03*
X183564596Y-131081413I463591J187303D01*
G01*
X178320104Y-118100841D02*
G75*
G03*
X178043816Y-118751735I187303J-463591D01*
G01*
%TO.C,MX29*%
X242576568Y-81356921D02*
X244160870Y-94260021D01*
X243725531Y-94817228D02*
X230822431Y-96401530D01*
X229116261Y-82505884D02*
X242019361Y-80921582D01*
X230265224Y-95966191D02*
X228680922Y-83063091D01*
X243722652Y-94816456D02*
G75*
G03*
X244157990Y-94259250I-60932J496270D01*
G01*
X242576568Y-81356921D02*
G75*
G03*
X242019361Y-80921582I-496271J-60932D01*
G01*
X230265225Y-95966191D02*
G75*
G03*
X230822431Y-96401529I496272J60934D01*
G01*
X229116261Y-82505885D02*
G75*
G03*
X228680923Y-83063091I60934J-496272D01*
G01*
%TO.C,MX20*%
X260365375Y-69930033D02*
X261949677Y-82833133D01*
X261514338Y-83390340D02*
X248611238Y-84974642D01*
X246905068Y-71078996D02*
X259808168Y-69494694D01*
X248054031Y-84539303D02*
X246469729Y-71636203D01*
X261511459Y-83389568D02*
G75*
G03*
X261946797Y-82832362I-60932J496270D01*
G01*
X260365375Y-69930033D02*
G75*
G03*
X259808168Y-69494694I-496271J-60932D01*
G01*
X248054032Y-84539303D02*
G75*
G03*
X248611238Y-84974641I496272J60934D01*
G01*
X246905068Y-71078997D02*
G75*
G03*
X246469730Y-71636203I60934J-496272D01*
G01*
%TO.C,MX5*%
X133729869Y-54571154D02*
X132145567Y-67474254D01*
X131588360Y-67909593D02*
X118685260Y-66325291D01*
X120391430Y-52429645D02*
X133294530Y-54013947D01*
X118249921Y-65768084D02*
X119834223Y-52864984D01*
X131585752Y-67908147D02*
G75*
G03*
X132142959Y-67472810I60937J496270D01*
G01*
X133729868Y-54571154D02*
G75*
G03*
X133294530Y-54013948I-496270J60936D01*
G01*
X118249922Y-65768084D02*
G75*
G03*
X118685260Y-66325290I496272J-60934D01*
G01*
X120391430Y-52429646D02*
G75*
G03*
X119834224Y-52864984I-60934J-496272D01*
G01*
%TO.C,MX14*%
X112791029Y-68799204D02*
X111206727Y-81702304D01*
X110649520Y-82137643D02*
X97746420Y-80553341D01*
X99452590Y-66657695D02*
X112355690Y-68241997D01*
X97311081Y-79996134D02*
X98895383Y-67093034D01*
X110646912Y-82136197D02*
G75*
G03*
X111204119Y-81700860I60937J496270D01*
G01*
X112791028Y-68799204D02*
G75*
G03*
X112355690Y-68241998I-496270J60936D01*
G01*
X97311082Y-79996134D02*
G75*
G03*
X97746420Y-80553340I496272J-60934D01*
G01*
X99452590Y-66657696D02*
G75*
G03*
X98895384Y-67093034I-60934J-496272D01*
G01*
%TO.C,MX28*%
X223090870Y-78963794D02*
X224675172Y-91866894D01*
X224239833Y-92424101D02*
X211336733Y-94008403D01*
X209630563Y-80112757D02*
X222533663Y-78528455D01*
X210779526Y-93573064D02*
X209195224Y-80669964D01*
X224236954Y-92423329D02*
G75*
G03*
X224672292Y-91866123I-60932J496270D01*
G01*
X223090870Y-78963794D02*
G75*
G03*
X222533663Y-78528455I-496271J-60932D01*
G01*
X210779527Y-93573064D02*
G75*
G03*
X211336733Y-94008402I496272J60934D01*
G01*
X209630563Y-80112758D02*
G75*
G03*
X209195225Y-80669964I60934J-496272D01*
G01*
%TO.C,MX23*%
X92141633Y-80669960D02*
X90557331Y-93573060D01*
X90000124Y-94008399D02*
X77097024Y-92424097D01*
X78803194Y-78528451D02*
X91706294Y-80112753D01*
X76661685Y-91866890D02*
X78245987Y-78963790D01*
X89997516Y-94006953D02*
G75*
G03*
X90554723Y-93571616I60937J496270D01*
G01*
X92141632Y-80669960D02*
G75*
G03*
X91706294Y-80112754I-496270J60936D01*
G01*
X76661686Y-91866890D02*
G75*
G03*
X77097024Y-92424096I496272J-60934D01*
G01*
X78803194Y-78528452D02*
G75*
G03*
X78245988Y-78963790I-60934J-496272D01*
G01*
%TO.C,MX7*%
X200120011Y-48186221D02*
X201704313Y-61089321D01*
X201268974Y-61646528D02*
X188365874Y-63230830D01*
X186659704Y-49335184D02*
X199562804Y-47750882D01*
X187808667Y-62795491D02*
X186224365Y-49892391D01*
X201266095Y-61645756D02*
G75*
G03*
X201701433Y-61088550I-60932J496270D01*
G01*
X200120011Y-48186221D02*
G75*
G03*
X199562804Y-47750882I-496271J-60932D01*
G01*
X187808668Y-62795491D02*
G75*
G03*
X188365874Y-63230829I496272J60934D01*
G01*
X186659704Y-49335185D02*
G75*
G03*
X186224366Y-49892391I60934J-496272D01*
G01*
%TO.C,MX15*%
X131408406Y-73477967D02*
X129824104Y-86381067D01*
X129266897Y-86816406D02*
X116363797Y-85232104D01*
X118069967Y-71336458D02*
X130973067Y-72920760D01*
X115928458Y-84674897D02*
X117512760Y-71771797D01*
X129264289Y-86814960D02*
G75*
G03*
X129821496Y-86379623I60937J496270D01*
G01*
X131408405Y-73477967D02*
G75*
G03*
X130973067Y-72920761I-496270J60936D01*
G01*
X115928459Y-84674897D02*
G75*
G03*
X116363797Y-85232103I496272J-60934D01*
G01*
X118069967Y-71336459D02*
G75*
G03*
X117512761Y-71771797I-60934J-496272D01*
G01*
%TO.C,MX26*%
X186145566Y-90678611D02*
X187729868Y-103581711D01*
X187294529Y-104138918D02*
X174391429Y-105723220D01*
X172685259Y-91827574D02*
X185588359Y-90243272D01*
X173834222Y-105287881D02*
X172249920Y-92384781D01*
X187291650Y-104138146D02*
G75*
G03*
X187726988Y-103580940I-60932J496270D01*
G01*
X186145566Y-90678611D02*
G75*
G03*
X185588359Y-90243272I-496271J-60932D01*
G01*
X173834223Y-105287881D02*
G75*
G03*
X174391429Y-105723219I496272J60934D01*
G01*
X172685259Y-91827575D02*
G75*
G03*
X172249921Y-92384781I60934J-496272D01*
G01*
%TO.C,MX2*%
X77298871Y-45249463D02*
X75714569Y-58152563D01*
X75157362Y-58587902D02*
X62254262Y-57003600D01*
X63960432Y-43107954D02*
X76863532Y-44692256D01*
X61818923Y-56446393D02*
X63403225Y-43543293D01*
X75154754Y-58586456D02*
G75*
G03*
X75711961Y-58151119I60937J496270D01*
G01*
X77298870Y-45249463D02*
G75*
G03*
X76863532Y-44692257I-496270J60936D01*
G01*
X61818924Y-56446393D02*
G75*
G03*
X62254262Y-57003599I496272J-60934D01*
G01*
X63960432Y-43107955D02*
G75*
G03*
X63403226Y-43543293I-60934J-496272D01*
G01*
%TO.C,MX6*%
X181502635Y-52864985D02*
X183086937Y-65768085D01*
X182651598Y-66325292D02*
X169748498Y-67909594D01*
X168042328Y-54013948D02*
X180945428Y-52429646D01*
X169191291Y-67474255D02*
X167606989Y-54571155D01*
X182648719Y-66324520D02*
G75*
G03*
X183084057Y-65767314I-60932J496270D01*
G01*
X181502635Y-52864985D02*
G75*
G03*
X180945428Y-52429646I-496271J-60932D01*
G01*
X169191292Y-67474255D02*
G75*
G03*
X169748498Y-67909593I496272J60934D01*
G01*
X168042328Y-54013949D02*
G75*
G03*
X167606990Y-54571155I60934J-496272D01*
G01*
%TO.C,MX1*%
X57188597Y-52729390D02*
X55604295Y-65632490D01*
X55047088Y-66067829D02*
X42143988Y-64483527D01*
X43850158Y-50587881D02*
X56753258Y-52172183D01*
X41708649Y-63926320D02*
X43292951Y-51023220D01*
X55044480Y-66066383D02*
G75*
G03*
X55601687Y-65631046I60937J496270D01*
G01*
X57188596Y-52729390D02*
G75*
G03*
X56753258Y-52172184I-496270J60936D01*
G01*
X41708650Y-63926320D02*
G75*
G03*
X42143988Y-64483526I496272J-60934D01*
G01*
X43850158Y-50587882D02*
G75*
G03*
X43292952Y-51023220I-60934J-496272D01*
G01*
%TO.C,MX18*%
X220769408Y-60056977D02*
X222353710Y-72960077D01*
X221918371Y-73517284D02*
X209015271Y-75101586D01*
X207309101Y-61205940D02*
X220212201Y-59621638D01*
X208458064Y-74666247D02*
X206873762Y-61763147D01*
X221915492Y-73516512D02*
G75*
G03*
X222350830Y-72959306I-60932J496270D01*
G01*
X220769408Y-60056977D02*
G75*
G03*
X220212201Y-59621638I-496271J-60932D01*
G01*
X208458065Y-74666247D02*
G75*
G03*
X209015271Y-75101585I496272J60934D01*
G01*
X207309101Y-61205941D02*
G75*
G03*
X206873763Y-61763147I60934J-496272D01*
G01*
%TO.C,MX21*%
X52545665Y-90543016D02*
X50961363Y-103446116D01*
X50404156Y-103881455D02*
X37501056Y-102297153D01*
X39207226Y-88401507D02*
X52110326Y-89985809D01*
X37065717Y-101739946D02*
X38650019Y-88836846D01*
X50401548Y-103880009D02*
G75*
G03*
X50958755Y-103444672I60937J496270D01*
G01*
X52545664Y-90543016D02*
G75*
G03*
X52110326Y-89985810I-496270J60936D01*
G01*
X37065718Y-101739946D02*
G75*
G03*
X37501056Y-102297152I496272J-60934D01*
G01*
X39207226Y-88401508D02*
G75*
G03*
X38650020Y-88836846I-60934J-496272D01*
G01*
%TO.C,MX8*%
X218447945Y-41150163D02*
X220032247Y-54053263D01*
X219596908Y-54610470D02*
X206693808Y-56194772D01*
X204987638Y-42299126D02*
X217890738Y-40714824D01*
X206136601Y-55759433D02*
X204552299Y-42856333D01*
X219594029Y-54609698D02*
G75*
G03*
X220029367Y-54052492I-60932J496270D01*
G01*
X218447945Y-41150163D02*
G75*
G03*
X217890738Y-40714824I-496271J-60932D01*
G01*
X206136602Y-55759433D02*
G75*
G03*
X206693808Y-56194771I496272J60934D01*
G01*
X204987638Y-42299127D02*
G75*
G03*
X204552300Y-42856333I60934J-496272D01*
G01*
%TO.C,MX16*%
X183824100Y-71771798D02*
X185408402Y-84674898D01*
X184973063Y-85232105D02*
X172069963Y-86816407D01*
X170363793Y-72920761D02*
X183266893Y-71336459D01*
X171512756Y-86381068D02*
X169928454Y-73477968D01*
X184970184Y-85231333D02*
G75*
G03*
X185405522Y-84674127I-60932J496270D01*
G01*
X183824100Y-71771798D02*
G75*
G03*
X183266893Y-71336459I-496271J-60932D01*
G01*
X171512757Y-86381068D02*
G75*
G03*
X172069963Y-86816406I496272J60934D01*
G01*
X170363793Y-72920762D02*
G75*
G03*
X169928455Y-73477968I60934J-496272D01*
G01*
%TO.C,MX31*%
X100644210Y-110900187D02*
X99059908Y-123803287D01*
X98502701Y-124238626D02*
X85599601Y-122654324D01*
X87305771Y-108758678D02*
X100208871Y-110342980D01*
X85164262Y-122097117D02*
X86748564Y-109194017D01*
X98500093Y-124237180D02*
G75*
G03*
X99057300Y-123801843I60937J496270D01*
G01*
X100644209Y-110900187D02*
G75*
G03*
X100208871Y-110342981I-496270J60936D01*
G01*
X85164263Y-122097117D02*
G75*
G03*
X85599601Y-122654323I496272J-60934D01*
G01*
X87305771Y-108758679D02*
G75*
G03*
X86748565Y-109194017I-60934J-496272D01*
G01*
%TO.C,MX30*%
X262686839Y-88836847D02*
X264271141Y-101739947D01*
X263835802Y-102297154D02*
X250932702Y-103881456D01*
X249226532Y-89985810D02*
X262129632Y-88401508D01*
X250375495Y-103446117D02*
X248791193Y-90543017D01*
X263832923Y-102296382D02*
G75*
G03*
X264268261Y-101739176I-60932J496270D01*
G01*
X262686839Y-88836847D02*
G75*
G03*
X262129632Y-88401508I-496271J-60932D01*
G01*
X250375496Y-103446117D02*
G75*
G03*
X250932702Y-103881455I496272J60934D01*
G01*
X249226532Y-89985811D02*
G75*
G03*
X248791194Y-90543017I60934J-496272D01*
G01*
%TO.C,MX10*%
X258043911Y-51023220D02*
X259628213Y-63926320D01*
X259192874Y-64483527D02*
X246289774Y-66067829D01*
X244583604Y-52172183D02*
X257486704Y-50587881D01*
X245732567Y-65632490D02*
X244148265Y-52729390D01*
X259189995Y-64482755D02*
G75*
G03*
X259625333Y-63925549I-60932J496270D01*
G01*
X258043911Y-51023220D02*
G75*
G03*
X257486704Y-50587881I-496271J-60932D01*
G01*
X245732568Y-65632490D02*
G75*
G03*
X246289774Y-66067828I496272J60934D01*
G01*
X244583604Y-52172184D02*
G75*
G03*
X244148266Y-52729390I60934J-496272D01*
G01*
%TO.C,MX9*%
X237933637Y-43543293D02*
X239517939Y-56446393D01*
X239082600Y-57003600D02*
X226179500Y-58587902D01*
X224473330Y-44692256D02*
X237376430Y-43107954D01*
X225622293Y-58152563D02*
X224037991Y-45249463D01*
X239079721Y-57002828D02*
G75*
G03*
X239515059Y-56445622I-60932J496270D01*
G01*
X237933637Y-43543293D02*
G75*
G03*
X237376430Y-43107954I-496271J-60932D01*
G01*
X225622294Y-58152563D02*
G75*
G03*
X226179500Y-58587901I496272J60934D01*
G01*
X224473330Y-44692257D02*
G75*
G03*
X224037992Y-45249463I60934J-496272D01*
G01*
%TO.C,MX33*%
X143240901Y-131965022D02*
X135417306Y-142347284D01*
X134717081Y-142445694D02*
X124334819Y-134622099D01*
X132760229Y-123441202D02*
X143142491Y-131264797D01*
X124236409Y-133921874D02*
X132060004Y-123539612D01*
X134715546Y-142443139D02*
G75*
G03*
X135415770Y-142344729I300907J399314D01*
G01*
X143240900Y-131965021D02*
G75*
G03*
X143142490Y-131264798I-399314J300907D01*
G01*
X124236409Y-133921874D02*
G75*
G03*
X124334819Y-134622099I399318J-300907D01*
G01*
X132760229Y-123441202D02*
G75*
G03*
X132060004Y-123539612I-300907J-399318D01*
G01*
%TO.C,MX36*%
X214588298Y-109194017D02*
X216172600Y-122097117D01*
X215737261Y-122654324D02*
X202834161Y-124238626D01*
X201127991Y-110342980D02*
X214031091Y-108758678D01*
X202276954Y-123803287D02*
X200692652Y-110900187D01*
X215734382Y-122653552D02*
G75*
G03*
X216169720Y-122096346I-60932J496270D01*
G01*
X214588298Y-109194017D02*
G75*
G03*
X214031091Y-108758678I-496271J-60932D01*
G01*
X202276955Y-123803287D02*
G75*
G03*
X202834161Y-124238625I496272J60934D01*
G01*
X201127991Y-110342981D02*
G75*
G03*
X200692653Y-110900187I60934J-496272D01*
G01*
%TO.C,MX12*%
X74977404Y-64156277D02*
X73393102Y-77059377D01*
X72835895Y-77494716D02*
X59932795Y-75910414D01*
X61638965Y-62014768D02*
X74542065Y-63599070D01*
X59497456Y-75353207D02*
X61081758Y-62450107D01*
X72833287Y-77493270D02*
G75*
G03*
X73390494Y-77057933I60937J496270D01*
G01*
X74977403Y-64156277D02*
G75*
G03*
X74542065Y-63599071I-496270J60936D01*
G01*
X59497457Y-75353207D02*
G75*
G03*
X59932795Y-75910413I496272J-60934D01*
G01*
X61638965Y-62014769D02*
G75*
G03*
X61081759Y-62450107I-60934J-496272D01*
G01*
%TO.C,MX25*%
X129086938Y-92384780D02*
X127502636Y-105287880D01*
X126945429Y-105723219D02*
X114042329Y-104138917D01*
X115748499Y-90243271D02*
X128651599Y-91827573D01*
X113606990Y-103581710D02*
X115191292Y-90678610D01*
X126942821Y-105721773D02*
G75*
G03*
X127500028Y-105286436I60937J496270D01*
G01*
X129086937Y-92384780D02*
G75*
G03*
X128651599Y-91827574I-496270J60936D01*
G01*
X113606991Y-103581710D02*
G75*
G03*
X114042329Y-104138916I496272J-60934D01*
G01*
X115748499Y-90243272D02*
G75*
G03*
X115191293Y-90678610I-60934J-496272D01*
G01*
%TO.C,MX22*%
X72655940Y-83063089D02*
X71071638Y-95966189D01*
X70514431Y-96401528D02*
X57611331Y-94817226D01*
X59317501Y-80921580D02*
X72220601Y-82505882D01*
X57175992Y-94260019D02*
X58760294Y-81356919D01*
X70511823Y-96400082D02*
G75*
G03*
X71069030Y-95964745I60937J496270D01*
G01*
X72655939Y-83063089D02*
G75*
G03*
X72220601Y-82505883I-496270J60936D01*
G01*
X57175993Y-94260019D02*
G75*
G03*
X57611331Y-94817225I496272J-60934D01*
G01*
X59317501Y-80921581D02*
G75*
G03*
X58760295Y-81356919I-60934J-496272D01*
G01*
%TO.C,MX3*%
X96784561Y-42856333D02*
X95200259Y-55759433D01*
X94643052Y-56194772D02*
X81739952Y-54610470D01*
X83446122Y-40714824D02*
X96349222Y-42299126D01*
X81304613Y-54053263D02*
X82888915Y-41150163D01*
X94640444Y-56193326D02*
G75*
G03*
X95197651Y-55757989I60937J496270D01*
G01*
X96784560Y-42856333D02*
G75*
G03*
X96349222Y-42299127I-496270J60936D01*
G01*
X81304614Y-54053263D02*
G75*
G03*
X81739952Y-54610469I496272J-60934D01*
G01*
X83446122Y-40714825D02*
G75*
G03*
X82888916Y-41150163I-60934J-496272D01*
G01*
%TD*%
M02*
