  0
SECTION
  2
HEADER
  9
$ANGBASE
  50
0.0
  9
$ANGDIR
  70
1
  9
$MEASUREMENT
  70
0
  0
ENDSEC
  0
SECTION
  2
TABLES
  0
TABLE
  2
LTYPE
  70
4
  0
LTYPE
  5
40F
  2
CONTINUOUS
  70
0
  3
Solid line
  72
65
  73
0
  40
0.0
  0
LTYPE
  5
410
  2
DASHDOT
 70
0
  3
Dash Dot ____ _ ____ _
 72
65
 73
4
 40
2.0
 49
1.25
 49
-0.25
 49
0.25
 49
-0.25
  0
LTYPE
  5
411
  2
DASHED
 70
0
  3
Dashed __ __ __ __ __
 72
65
 73
2
 40
0.75
 49
0.5
 49
-0.25
  0
LTYPE
  5
43B
  2
DOTTED
 70
0
  3
Dotted .  .  .  .
 72
65
 73
2
 40
0.2
 49
0.0
 49
-0.2
  0
ENDTAB
  0
TABLE
  2
STYLE
  70
4
  0
STYLE
  2
KICAD
  70
0
  40
0
  41
1
  42
1
  50
0
  71
0
  3
isocp.shx
  0
STYLE
  2
KICADB
  70
0
  40
0
  41
1
  42
1
  50
0
  71
0
  3
isocp.shx
  0
STYLE
  2
KICADI
  70
0
  40
0
  41
1
  42
1
  50
15
  71
0
  3
isocp.shx
  0
STYLE
  2
KICADBI
  70
0
  40
0
  41
1
  42
1
  50
15
  71
0
  3
isocp.shx
  0
ENDTAB
  0
TABLE
  2
LAYER
  70
1
  0
LAYER
  2
BLACK
  70
0
  62
7
  6
CONTINUOUS
  0
ENDTAB
  0
ENDSEC
  0
SECTION
  2
ENTITIES
0
LINE
8
BLACK
6
CONTINUOUS
10
8.7056372047244093
20
-1.6743946062992126
11
9.3346472440944872
21
-1.598050433070866
0
ARC
8
BLACK
10
6.0236220472440944
20
-4.4881889763779528
40
0.078740157480315
50
-90.00000000
51
-0.00000000
0
ARC
8
BLACK
10
7.1949460236220473
20
-5.4062827952755903
40
0.1181044705817119
50
111.74757640
51
126.75231237
0
LINE
8
BLACK
6
CONTINUOUS
10
6.5540029133858262
20
-5.7375322834645672
11
7.1242774015748029
21
-5.3116540157480312
0
LINE
8
BLACK
6
CONTINUOUS
10
6.0236220472440944
20
-4.1732283464566926
11
5.8464566929133861
21
-4.1732283464566926
0
ARC
8
BLACK
10
10.3850789763779527
20
-4.0087398031496067
40
0.1181139444328118
50
-82.91051859
51
6.98641932
0
LINE
8
BLACK
6
CONTINUOUS
10
5.7677165354330704
20
-4.4881889763779528
11
5.7677165354330704
21
-4.4685039370078741
0
LINE
8
BLACK
6
CONTINUOUS
10
8.0549997244094484
20
-1.5634888582677164
11
8.5653349212598417
21
-1.5015485433070865
0
ARC
8
BLACK
10
4.2217597244094485
20
-1.5842011023622047
40
0.0295252795825269
50
-56.99606542
51
19.66857822
0
LINE
8
BLACK
6
CONTINUOUS
10
6.1023622047244093
20
-4.0748031496062991
11
6.1023622047244093
21
-4.0944881889763778
0
ARC
8
BLACK
10
4.2555545669291339
20
-1.9562473622047243
40
0.3831480844859445
50
3.57971730
51
74.16378461
0
ARC
8
BLACK
10
7.478500078740157
20
-1.6039238188976377
40
0.029526732900311
50
-43.19387383
51
33.46632304
0
LINE
8
BLACK
6
CONTINUOUS
10
4.0099785826771654
20
-5.0165100000000002
11
4.712056653543307
21
-5.296584251968504
0
ARC
8
BLACK
10
2.5143648031496064
20
-1.7153002362204723
40
0.1181102841877962
50
83.07973588
51
172.98346308
0
ARC
8
BLACK
10
5.8464566929133861
20
-4.4881889763779528
40
0.078740157480315
50
-180.00000000
51
-90.00000000
0
LINE
8
BLACK
6
CONTINUOUS
10
9.61576157480315
20
-1.9537949999999999
11
10.1261637401574802
21
-1.893032716535433
0
ARC
8
BLACK
10
2.2614420078740158
20
-1.8365109448818897
40
0.1181119326182377
50
-96.78816341
51
-7.01734383
0
ARC
8
BLACK
10
7.6076861811023617
20
-1.9562456692913386
40
0.3831458987503107
50
105.83598403
51
176.42051406
0
ARC
8
BLACK
10
4.2914589370078735
20
-1.6915011417322834
40
0.098425034681472
50
-236.99250061
51
43.19251110
0
LINE
8
BLACK
6
CONTINUOUS
10
5.7677165354330704
20
-4.8818897637795278
11
5.7677165354330704
21
-4.8622047244094491
0
LINE
8
BLACK
6
CONTINUOUS
10
5.8464566929133861
20
-3.9960629921259843
11
6.0236220472440944
21
-3.9960629921259843
0
ARC
8
BLACK
10
9.4740392913385829
20
-4.6550785433070869
40
0.0295266302045673
50
-198.39399180
51
-121.73341807
0
ARC
8
BLACK
10
9.6017998818897627
20
-1.8365123228346456
40
0.1181107621501279
50
-172.98329756
51
-83.21128039
0
LINE
8
BLACK
6
CONTINUOUS
10
10.2573587007874014
20
-1.9959450787401574
11
10.5023159448818895
21
-3.9943731496062993
0
LINE
8
BLACK
6
CONTINUOUS
10
7.8817772047244095
20
-5.0090917716535435
11
8.5978164566929127
21
-4.9158574803149602
0
ARC
8
BLACK
10
2.5288847244094486
20
-4.7413475984251967
40
0.0295271053961244
50
98.20673693
51
174.86575390
0
LINE
8
BLACK
6
CONTINUOUS
10
6.0236220472440944
20
-4.9606299212598426
11
5.8464566929133861
21
-4.9606299212598426
0
ARC
8
BLACK
10
8.5795657086614163
20
-1.6187982677165353
40
0.1181102015202943
50
7.19926845
51
96.92024950
0
LINE
8
BLACK
6
CONTINUOUS
10
5.8464566929133861
20
-4.3897637795275593
11
6.0236220472440944
21
-4.3897637795275593
0
LINE
8
BLACK
6
CONTINUOUS
10
2.5285956692913385
20
-1.598050433070866
11
3.1576056299212598
21
-1.6743946062992126
0
LINE
8
BLACK
6
CONTINUOUS
10
6.1023622047244093
20
-4.8622047244094491
11
6.1023622047244093
21
-4.8818897637795278
0
ARC
8
BLACK
10
5.8464566929133861
20
-4.8818897637795278
40
0.078740157480315
50
-180.00000000
51
-90.00000000
0
ARC
8
BLACK
10
10.1401258267716532
20
-2.0103148031496061
40
0.1181102712970351
50
6.98814269
51
96.78894164
0
LINE
8
BLACK
6
CONTINUOUS
10
8.6967448031496062
20
-1.603996653543307
11
8.7056372047244093
21
-1.6743946062992126
0
ARC
8
BLACK
10
6.0236220472440944
20
-4.0748031496062991
40
0.078740157480315
50
-0.00000000
51
90.00000000
0
ARC
8
BLACK
10
5.8464566929133861
20
-4.0944881889763778
40
0.078740157480315
50
-180.00000000
51
-90.00000000
0
ARC
8
BLACK
10
5.8464566929133861
20
-4.8622047244094491
40
0.078740157480315
50
90.00000000
51
180.00000000
0
LINE
8
BLACK
6
CONTINUOUS
10
6.4939737401574797
20
-2.0377674803149608
11
7.2272907480314963
21
-1.951953779527559
0
LINE
8
BLACK
6
CONTINUOUS
10
5.3829968503937007
20
-2.0385679921259841
11
6.480245984251968
21
-2.038567834645669
0
ARC
8
BLACK
10
5.3829909842519683
20
-1.9205786614173228
40
0.1179893180135786
50
-96.67848751
51
-89.99715712
0
ARC
8
BLACK
10
2.9536676377952755
20
-4.0100105511811019
40
0.8662970380746851
50
-166.14799161
51
-129.32034775
0
ARC
8
BLACK
10
2.3892046062992125
20
-4.6550789763779523
40
0.0295257697527136
50
-58.26790206
51
18.39531193
0
ARC
8
BLACK
10
8.9095754724409453
20
-4.0100106692913382
40
0.8662967357478606
50
-50.67965891
51
-13.85200173
0
ARC
8
BLACK
10
3.2836822834645667
20
-1.6188050787401573
40
0.1181163043553531
50
83.08262061
51
172.79779485
0
ARC
8
BLACK
10
6.0236220472440944
20
-4.8818897637795278
40
0.078740157480315
50
-90.00000000
51
-0.00000000
0
ARC
8
BLACK
10
7.6414842125984253
20
-1.5842007480314961
40
0.029526186617
50
-199.66718657
51
-123.00532622
0
LINE
8
BLACK
6
CONTINUOUS
10
1.3609268503937006
20
-3.9943731496062993
11
1.6058842125984252
21
-1.9959451181102361
0
LINE
8
BLACK
6
CONTINUOUS
10
1.4635862992125983
20
-4.1259506299212596
11
2.0651600787401576
21
-4.2007494881889764
0
ARC
8
BLACK
10
9.3488784645669281
20
-1.7152996062992125
40
0.1181096934689538
50
7.01627900
51
96.92047671
0
ARC
8
BLACK
10
6.0236220472440944
20
-4.0944881889763778
40
0.078740157480315
50
-90.00000000
51
-0.00000000
0
ARC
8
BLACK
10
4.0136357086614174
20
-2.1942047637795277
40
0.6633162928936978
50
69.16503116
51
108.03783409
0
ARC
8
BLACK
10
9.3343587401574801
20
-4.7413469685039367
40
0.0295264541655158
50
5.13324702
51
81.79426215
0
ARC
8
BLACK
10
2.0505827165354331
20
-4.3179685039370082
40
0.1181219754813341
50
58.34994915
51
82.91109652
0
ARC
8
BLACK
10
6.0236220472440944
20
-4.4685039370078741
40
0.078740157480315
50
-0.00000000
51
90.00000000
0
LINE
8
BLACK
6
CONTINUOUS
10
9.7980826377952752
20
-4.2007496062992127
11
10.3996565354330706
21
-4.1259507480314959
0
ARC
8
BLACK
10
4.6683108661417325
20
-5.4062557874015749
40
0.1180743251147737
50
53.24528152
51
68.25393630
0
ARC
8
BLACK
10
7.8496074015748034
20
-2.194216496062992
40
0.6633273649931174
50
71.96250339
51
110.83463136
0
ARC
8
BLACK
10
5.3799135826771654
20
-5.6428937401574801
40
0.1181150909424961
50
-126.75146604
51
-90.00082290
0
ARC
8
BLACK
10
9.3526229133858259
20
-4.614704173228346
40
0.0984265950421423
50
-18.39326398
51
261.79328243
0
LINE
8
BLACK
6
CONTINUOUS
10
4.635952125984252
20
-1.9519536614173227
11
5.3692690944881889
21
-2.0377673622047245
0
ARC
8
BLACK
10
1.723118031496063
20
-2.0103161417322832
40
0.1181114044265819
50
83.21160381
51
173.01129058
0
LINE
8
BLACK
6
CONTINUOUS
10
7.1511861811023625
20
-5.296584409448819
11
7.8532643700787403
21
-5.0165100787401578
0
ARC
8
BLACK
10
6.0236220472440944
20
-4.8622047244094491
40
0.078740157480315
50
-0.00000000
51
90.00000000
0
LINE
8
BLACK
6
CONTINUOUS
10
5.8464566929133861
20
-4.7834645669291334
11
6.0236220472440944
21
-4.7834645669291334
0
LINE
8
BLACK
6
CONTINUOUS
10
1.7370791732283464
20
-1.8930327952755905
11
2.2474813385826771
21
-1.9537949212598424
0
ARC
8
BLACK
10
4.3847439370078742
20
-1.6039237007874014
40
0.0295276868628789
50
-213.46485958
51
-136.80758962
0
ARC
8
BLACK
10
7.8970225196850388
20
-5.1261931889763774
40
0.1180896417609335
50
97.41757089
51
111.74957042
0
ARC
8
BLACK
10
7.5717838976377951
20
-1.6915011417322834
40
0.0984250383096076
50
-223.19251286
51
56.99250238
0
LINE
8
BLACK
6
CONTINUOUS
10
3.297907992125984
20
-1.5015485826771653
11
3.8082431496062989
21
-1.5634889763779527
0
ARC
8
BLACK
10
3.9662120866141732
20
-5.1262281889763779
40
0.1181253228242516
50
68.25299807
51
82.58064016
0
ARC
8
BLACK
10
6.4833309055118109
20
-5.6428975590551183
40
0.118111215561502
50
-89.99997412
51
-53.24810100
0
ARC
8
BLACK
10
2.5106192125984252
20
-4.6147053937007874
40
0.0984255098795427
50
-81.79275412
51
198.39273567
0
ARC
8
BLACK
10
9.812651220472441
20
-4.3179442913385824
40
0.1180967466392441
50
97.08615495
51
121.65254990
0
LINE
8
BLACK
6
CONTINUOUS
10
7.2272907480314963
20
-1.951953779527559
11
7.2252877559055113
21
-1.93232468503937
0
LINE
8
BLACK
6
CONTINUOUS
10
5.379911889763779
20
-5.7610088582677168
11
6.4833309842519684
21
-5.7610087795275593
0
LINE
8
BLACK
6
CONTINUOUS
10
6.1023622047244093
20
-4.4685039370078741
11
6.1023622047244093
21
-4.4881889763779528
0
LINE
8
BLACK
6
CONTINUOUS
10
4.6379551181102361
20
-1.93232468503937
11
4.635952125984252
21
-1.9519536614173227
0
LINE
8
BLACK
6
CONTINUOUS
10
9.4661037007874018
20
-1.7008723622047244
11
9.4845737007874007
21
-1.8509405905511811
0
ARC
8
BLACK
10
5.8464566929133861
20
-4.4685039370078741
40
0.078740157480315
50
90.00000000
51
180.00000000
0
LINE
8
BLACK
6
CONTINUOUS
10
3.1576056299212598
20
-1.6743946062992126
11
3.1664979527559054
21
-1.6039966929133858
0
ARC
8
BLACK
10
5.8464566929133861
20
-4.0748031496062991
40
0.078740157480315
50
90.00000000
51
180.00000000
0
ARC
8
BLACK
10
6.4802482283464569
20
-1.9204763385826771
40
0.1180914686155633
50
-90.00109232
51
-83.32555572
0
LINE
8
BLACK
6
CONTINUOUS
10
3.2654264566929134
20
-4.9158575196850389
11
3.9814657086614171
21
-5.0090918897637797
0
LINE
8
BLACK
6
CONTINUOUS
10
2.378669212598425
20
-1.8509406692913386
11
2.3971390551181102
21
-1.7008724015748031
0
LINE
8
BLACK
6
CONTINUOUS
10
4.7389654330708657
20
-5.3116541338582675
11
5.30924
21
-5.7375321259842522
0
LINE
8
BLACK
6
CONTINUOUS
10
5.7677165354330704
20
-4.0944881889763778
11
5.7677165354330704
21
-4.0748031496062991
0
LINE
8
BLACK
6
CONTINUOUS
10
6.0236220472440944
20
-4.5669291338582676
11
5.8464566929133861
21
-4.5669291338582676
0
ARC
8
BLACK
10
3.1460666535433068
20
-3.6874920472440942
40
1.2341508997577588
50
-121.59525007
51
-84.45001563
0
ARC
8
BLACK
10
8.7171762992125981
20
-3.6874923228346455
40
1.234150611113694
50
-95.54998887
51
-58.40474543
0
ARC
8
BLACK
10
1.4781645275590551
20
-4.0087390944881891
40
0.1181146083582051
50
-186.98603863
51
-97.08979090
0
LINE
8
BLACK
6
CONTINUOUS
10
9.458862322834646
20
-2.4586655905511812
11
9.5212364173228341
21
-2.9666616535433068
0
LINE
8
BLACK
6
CONTINUOUS
10
9.5040970866141734
20
-2.988598937007874
11
8.9961010236220478
21
-3.050973031496063
0
LINE
8
BLACK
6
CONTINUOUS
10
8.9289289763779518
20
-2.5039003543307086
11
9.4369250393700792
21
-2.4415262598425196
0
LINE
8
BLACK
6
CONTINUOUS
10
8.974163740157481
20
-3.0338337007874014
11
8.9117896456692911
21
-2.5258376377952754
0
ARC
8
BLACK
10
9.5015846850393704
20
-2.9690302362204726
40
0.0196850575207873
50
-82.99989077
51
6.99986779
0
ARC
8
BLACK
10
9.4393239763779526
20
-2.4610646062992125
40
0.019685072261113
50
7.00003840
51
96.99981092
0
ARC
8
BLACK
10
8.9937020472440938
20
-3.0314347244094488
40
0.0196850331844478
50
-173.00007534
51
-83.00007534
0
ARC
8
BLACK
10
8.9313279527559057
20
-2.5234386614173228
40
0.0196850331844478
50
-263.00007534
51
-173.00007534
0
LINE
8
BLACK
6
CONTINUOUS
10
7.9701368110236217
20
-2.6414580314960627
11
8.0325109055118116
21
-3.1494540944881888
0
LINE
8
BLACK
6
CONTINUOUS
10
8.0153715748031491
20
-3.1713913779527561
11
7.5073755118110235
21
-3.2337654724409446
0
LINE
8
BLACK
6
CONTINUOUS
10
7.4402034645669293
20
-2.6866927952755906
11
7.9481995275590549
21
-2.6243187007874016
0
LINE
8
BLACK
6
CONTINUOUS
10
7.4854382283464567
20
-3.2166261417322835
11
7.4230641338582677
21
-2.7086300787401574
0
ARC
8
BLACK
10
8.0128591732283461
20
-3.1518226771653541
40
0.0196850575207873
50
-82.99989077
51
6.99986779
0
ARC
8
BLACK
10
7.9505984645669292
20
-2.6438570472440945
40
0.0196850722611127
50
7.00003840
51
96.99981092
0
ARC
8
BLACK
10
7.5049765354330704
20
-3.2142271653543308
40
0.0196850331844478
50
-173.00007534
51
-83.00007534
0
ARC
8
BLACK
10
7.4426024409448814
20
-2.7062311023622048
40
0.0196850331844478
50
-263.00007534
51
-173.00007534
0
LINE
8
BLACK
6
CONTINUOUS
10
2.1601233070866139
20
-2.8203229527559053
11
2.097749212598425
21
-3.3283190157480314
0
LINE
8
BLACK
6
CONTINUOUS
10
2.0758119291338581
20
-3.3454583464566929
11
1.5678158661417323
21
-3.283084251968504
0
LINE
8
BLACK
6
CONTINUOUS
10
1.6349879133858267
20
-2.7360115748031495
11
2.1429839763779528
21
-2.7983856692913385
0
LINE
8
BLACK
6
CONTINUOUS
10
1.5506765354330709
20
-3.2611469685039371
11
1.6130506299212599
21
-2.7531509055118111
0
ARC
8
BLACK
10
2.0781082283464567
20
-3.3258630708661419
40
0.0196850770590966
50
-96.99992466
51
-7.00015214
0
ARC
8
BLACK
10
2.1405849212598427
20
-2.8179239763779527
40
0.019685072261113
50
-6.99981092
51
82.99996160
0
ARC
8
BLACK
10
1.5702148425196849
20
-3.2635459448818898
40
0.0196850331844478
50
-186.99992466
51
-96.99992466
0
ARC
8
BLACK
10
1.6325889370078739
20
-2.7555498818897637
40
0.0196850331844478
50
83.00007534
51
173.00007534
0
LINE
8
BLACK
6
CONTINUOUS
10
4.531987992125984
20
-1.9642673622047244
11
4.469613897637795
21
-2.4722634251968505
0
LINE
8
BLACK
6
CONTINUOUS
10
4.4476766141732282
20
-2.4894027559055116
11
3.9396805511811022
21
-2.4270286614173227
0
LINE
8
BLACK
6
CONTINUOUS
10
4.0068525984251968
20
-1.8799559842519684
11
4.5148486614173224
21
-1.9423300787401574
0
LINE
8
BLACK
6
CONTINUOUS
10
3.922541220472441
20
-2.4050913779527558
11
3.98491531496063
21
-1.8970953149606298
0
ARC
8
BLACK
10
4.4499729133858263
20
-2.4698074803149606
40
0.0196850770590968
50
-96.99992466
51
-7.00015214
0
ARC
8
BLACK
10
4.5124496062992128
20
-1.9618683858267716
40
0.019685072261113
50
-6.99981092
51
82.99996160
0
ARC
8
BLACK
10
3.9420795275590552
20
-2.4074903543307085
40
0.0196850331844478
50
-186.99992466
51
-96.99992466
0
ARC
8
BLACK
10
4.0044536220472438
20
-1.8994942913385826
40
0.0196850331844478
50
83.00007534
51
173.00007534
0
LINE
8
BLACK
6
CONTINUOUS
10
8.0615331102362209
20
-3.3858207874015749
11
8.123907204724409
21
-3.8938168503937005
0
LINE
8
BLACK
6
CONTINUOUS
10
8.1067678740157483
20
-3.9157541338582678
11
7.5987718110236218
21
-3.9781282283464567
0
LINE
8
BLACK
6
CONTINUOUS
10
7.5315997637795276
20
-3.4310555511811023
11
8.0395958267716541
21
-3.3686814566929133
0
LINE
8
BLACK
6
CONTINUOUS
10
7.576834527559055
20
-3.9609888976377952
11
7.514460433070866
21
-3.4529928346456691
0
ARC
8
BLACK
10
8.1042554724409452
20
-3.8961854330708658
40
0.0196850575207873
50
-82.99989077
51
6.99986779
0
ARC
8
BLACK
10
8.0419947637795275
20
-3.3882198031496062
40
0.0196850722611127
50
7.00003840
51
96.99981092
0
ARC
8
BLACK
10
7.5963728346456687
20
-3.9585899212598425
40
0.0196850331844478
50
-173.00007534
51
-83.00007534
0
ARC
8
BLACK
10
7.5339987401574797
20
-3.4505938582677165
40
0.0196850331844478
50
-263.00007534
51
-173.00007534
0
LINE
8
BLACK
6
CONTINUOUS
10
3.7190195669291337
20
-2.4316200000000001
11
3.6566454724409447
21
-2.9396160629921257
0
LINE
8
BLACK
6
CONTINUOUS
10
3.6347081889763779
20
-2.9567553937007873
11
3.1267121259842519
21
-2.8943812992125983
0
LINE
8
BLACK
6
CONTINUOUS
10
3.1938841732283465
20
-2.3473086220472439
11
3.7018802362204726
21
-2.4096827165354329
0
LINE
8
BLACK
6
CONTINUOUS
10
3.1095727952755903
20
-2.8724440157480315
11
3.1719468897637793
21
-2.3644479527559055
0
ARC
8
BLACK
10
3.6370044881889765
20
-2.9371601181102363
40
0.0196850770590968
50
-96.99992466
51
-7.00015214
0
ARC
8
BLACK
10
3.699481181102362
20
-2.4292210236220471
40
0.019685072261113
50
-6.99981092
51
82.99996160
0
ARC
8
BLACK
10
3.1291111023622045
20
-2.8748429921259842
40
0.0196850331844478
50
-186.99992466
51
-96.99992466
0
ARC
8
BLACK
10
3.1914851968503934
20
-2.3668469291338581
40
0.0196850331844478
50
83.00007534
51
173.00007534
0
LINE
8
BLACK
6
CONTINUOUS
10
4.3491954330708662
20
-3.4529928346456691
11
4.2868213385826772
21
-3.9609888976377952
0
LINE
8
BLACK
6
CONTINUOUS
10
4.2648840551181104
20
-3.9781282283464567
11
3.7568879921259843
21
-3.9157541338582678
0
LINE
8
BLACK
6
CONTINUOUS
10
3.8240600393700785
20
-3.3686814566929133
11
4.3320561023622046
21
-3.4310555511811023
0
LINE
8
BLACK
6
CONTINUOUS
10
3.7397486614173228
20
-3.8938168503937005
11
3.8021227559055117
21
-3.3858207874015749
0
ARC
8
BLACK
10
4.2671803543307085
20
-3.9585329527559052
40
0.0196850770590968
50
-96.99992466
51
-7.00015214
0
ARC
8
BLACK
10
4.3296570472440941
20
-3.4505938582677165
40
0.019685072261113
50
-6.99981092
51
82.99996160
0
ARC
8
BLACK
10
3.759286968503937
20
-3.8962158267716536
40
0.0196850331844478
50
-186.99992466
51
-96.99992466
0
ARC
8
BLACK
10
3.8216610629921259
20
-3.3882197637795275
40
0.0196850331844478
50
83.00007534
51
173.00007534
0
LINE
8
BLACK
6
CONTINUOUS
10
6.6652242913385829
20
-4.8657265354330708
11
6.9732398425196847
21
-5.2744770078740153
0
LINE
8
BLACK
6
CONTINUOUS
10
6.9693654330708661
20
-5.3020449212598422
11
6.5606149606299207
21
-5.6100604724409449
0
LINE
8
BLACK
6
CONTINUOUS
10
6.2289059055118106
20
-5.169867677165354
11
6.637656377952756
21
-4.8618521259842522
0
LINE
8
BLACK
6
CONTINUOUS
10
6.5330470472440947
20
-5.6061860629921263
11
6.225031496062992
21
-5.1974355905511809
0
ARC
8
BLACK
10
6.9574052362204721
20
-5.2863541338582678
40
0.0196850743664032
50
-52.99985747
51
36.99989053
0
ARC
8
BLACK
10
6.6495031102362203
20
-4.8775733464566926
40
0.0196850743664027
50
37.00014253
51
126.99989053
0
ARC
8
BLACK
10
6.5487681889763776
20
-5.5943392519685036
40
0.0196850467984365
50
-142.99993771
51
-53.00002923
0
ARC
8
BLACK
10
6.2407526771653545
20
-5.1855888188976378
40
0.0196850467984365
50
-232.99993771
51
-143.00002923
0
LINE
8
BLACK
6
CONTINUOUS
10
4.8548488188976373
20
-4.6732910236220473
11
4.6631210236220468
21
-5.1478339370078743
0
LINE
8
BLACK
6
CONTINUOUS
10
4.637495236220472
20
-5.1587114566929131
11
4.1629523228346459
21
-4.9669836614173226
0
LINE
8
BLACK
6
CONTINUOUS
10
4.3694283858267715
20
-4.455937440944882
11
4.8439712992125985
21
-4.6476652362204725
0
LINE
8
BLACK
6
CONTINUOUS
10
4.1520748031496062
20
-4.9413578740157478
11
4.3438025984251967
21
-4.4668149606299208
0
ARC
8
BLACK
10
4.6447848818897635
20
-5.1403782283464565
40
0.0196850889001892
50
-111.99981618
51
-22.00011453
0
ARC
8
BLACK
10
4.8365971259842517
20
-4.6659168897637793
40
0.0196850632743498
50
-21.99989077
51
67.99996006
0
ARC
8
BLACK
10
4.170326456692913
20
-4.9487320078740158
40
0.0196850376485432
50
-201.99996535
51
-111.99996535
0
ARC
8
BLACK
10
4.3620542519685035
20
-4.4741890944881888
40
0.0196850376485432
50
68.00003465
51
158.00003465
0
LINE
8
BLACK
6
CONTINUOUS
10
7.5206452362204725
20
-4.468789094488189
11
7.712373031496063
21
-4.9433320078740159
0
LINE
8
BLACK
6
CONTINUOUS
10
7.7014955118110233
20
-4.9689577952755908
11
7.2269525984251963
21
-5.1606855905511813
0
LINE
8
BLACK
6
CONTINUOUS
10
7.0204765354330707
20
-4.6496393700787397
11
7.4950194488188977
21
-4.4579115748031493
0
LINE
8
BLACK
6
CONTINUOUS
10
7.2013268110236215
20
-5.1498080708661416
11
7.009599015748031
21
-4.6752651574803146
0
ARC
8
BLACK
10
7.6940039370078734
20
-4.9507061417322831
40
0.019685074151887
50
-67.99992840
51
21.99985911
0
ARC
8
BLACK
10
7.5023935433070861
20
-4.476163228346457
40
0.0196850632743498
50
22.00003994
51
111.99989077
0
ARC
8
BLACK
10
7.2195784645669292
20
-5.1424339370078735
40
0.0196850376485432
50
-158.00003465
51
-68.00003465
0
ARC
8
BLACK
10
7.0278506692913387
20
-4.6678910236220474
40
0.0196850376485432
50
-248.00003465
51
-158.00003465
0
LINE
8
BLACK
6
CONTINUOUS
10
9.5502585826771647
20
-3.2030283858267716
11
9.6126326771653545
21
-3.7110244488188977
0
LINE
8
BLACK
6
CONTINUOUS
10
9.5954933464566921
20
-3.7329617322834645
11
9.0874972834645664
21
-3.7953358267716535
0
LINE
8
BLACK
6
CONTINUOUS
10
9.0203252362204722
20
-3.248263149606299
11
9.5283212992125979
21
-3.18588905511811
0
LINE
8
BLACK
6
CONTINUOUS
10
9.0655599999999996
20
-3.7781964960629919
11
9.0031859055118115
21
-3.2702004330708663
0
ARC
8
BLACK
10
9.592980944881889
20
-3.713393031496063
40
0.0196850575207873
50
-82.99989077
51
6.99986779
0
ARC
8
BLACK
10
9.530720236220473
20
-3.205427401574803
40
0.0196850722611127
50
7.00003840
51
96.99981092
0
ARC
8
BLACK
10
9.0850983070866143
20
-3.7757975196850393
40
0.0196850331844478
50
-173.00007534
51
-83.00007534
0
ARC
8
BLACK
10
9.0227242125984244
20
-3.2678014566929132
40
0.0196850331844478
50
-263.00007534
51
-173.00007534
0
LINE
8
BLACK
6
CONTINUOUS
10
10.2506053149606302
20
-2.7531509055118111
11
10.3129794094488183
21
-3.2611469685039371
0
LINE
8
BLACK
6
CONTINUOUS
10
10.2958400787401576
20
-3.283084251968504
11
9.787844015748032
21
-3.3454583464566929
0
LINE
8
BLACK
6
CONTINUOUS
10
9.720671968503936
20
-2.7983856692913385
11
10.2286680314960634
21
-2.7360115748031495
0
LINE
8
BLACK
6
CONTINUOUS
10
9.7659067322834652
20
-3.3283190157480314
11
9.7035326377952753
21
-2.8203229527559053
0
ARC
8
BLACK
10
10.2933276771653546
20
-3.2635155511811025
40
0.0196850575207873
50
-82.99989077
51
6.99986779
0
ARC
8
BLACK
10
10.2310669685039368
20
-2.7555499212598424
40
0.0196850722611127
50
7.00003840
51
96.99981092
0
ARC
8
BLACK
10
9.785445039370078
20
-3.3259200393700787
40
0.0196850331844478
50
-173.00007534
51
-83.00007534
0
ARC
8
BLACK
10
9.7230709448818899
20
-2.8179239763779527
40
0.0196850331844478
50
-263.00007534
51
-173.00007534
0
LINE
8
BLACK
6
CONTINUOUS
10
5.2649554724409446
20
-2.1484706299212597
11
5.2025813779527557
21
-2.6564666929133858
0
LINE
8
BLACK
6
CONTINUOUS
10
5.1806440944881889
20
-2.6736060236220474
11
4.6726480314960632
21
-2.6112319291338584
0
LINE
8
BLACK
6
CONTINUOUS
10
4.7398200787401574
20
-2.0641592519685039
11
5.2478161417322831
21
-2.1265333464566929
0
LINE
8
BLACK
6
CONTINUOUS
10
4.6555087007874016
20
-2.5892946456692911
11
4.7178827952755906
21
-2.0812985826771655
0
ARC
8
BLACK
10
5.182940393700787
20
-2.6540107480314958
40
0.0196850770590968
50
-96.99992466
51
-7.00015214
0
ARC
8
BLACK
10
5.2454170866141734
20
-2.1460716535433071
40
0.019685072261113
50
-6.99981092
51
82.99996160
0
ARC
8
BLACK
10
4.6750470078740154
20
-2.5916936220472442
40
0.0196850331844478
50
-186.99992466
51
-96.99992466
0
ARC
8
BLACK
10
4.7374211023622044
20
-2.0836975590551181
40
0.0196850331844478
50
83.00007534
51
173.00007534
0
LINE
8
BLACK
6
CONTINUOUS
10
4.4405916929133857
20
-2.7086300787401574
11
4.3782175984251968
21
-3.2166261417322835
0
LINE
8
BLACK
6
CONTINUOUS
10
4.35628031496063
20
-3.2337654724409446
11
3.8482842519685039
21
-3.1713913779527561
0
LINE
8
BLACK
6
CONTINUOUS
10
3.9154562992125985
20
-2.6243187007874016
11
4.4234523622047242
21
-2.6866927952755906
0
LINE
8
BLACK
6
CONTINUOUS
10
3.8311449212598423
20
-3.1494540944881888
11
3.8935190157480313
21
-2.6414580314960627
0
ARC
8
BLACK
10
4.3585766141732281
20
-3.2141701968503935
40
0.0196850770590968
50
-96.99992466
51
-7.00015214
0
ARC
8
BLACK
10
4.4210533070866145
20
-2.7062311023622048
40
0.019685072261113
50
-6.99981092
51
82.99996160
0
ARC
8
BLACK
10
3.8506832283464565
20
-3.1518530708661419
40
0.0196850331844478
50
-186.99992466
51
-96.99992466
0
ARC
8
BLACK
10
3.9130573228346455
20
-2.6438570078740158
40
0.0196850331844478
50
83.00007534
51
173.00007534
0
LINE
8
BLACK
6
CONTINUOUS
10
8.7831051181102353
20
-3.1088107874015747
11
8.8454792125984252
21
-3.6168068503937008
0
LINE
8
BLACK
6
CONTINUOUS
10
8.8283398818897627
20
-3.6387441338582676
11
8.3203438188976371
21
-3.7011182283464565
0
LINE
8
BLACK
6
CONTINUOUS
10
8.2531717716535429
20
-3.1540455511811021
11
8.7611678346456685
21
-3.0916714566929131
0
LINE
8
BLACK
6
CONTINUOUS
10
8.2984065354330703
20
-3.6839788976377954
11
8.2360324409448822
21
-3.1759828346456693
0
ARC
8
BLACK
10
8.8258274803149597
20
-3.6191754330708661
40
0.0196850575207873
50
-82.99989077
51
6.99986779
0
ARC
8
BLACK
10
8.7635667716535437
20
-3.111209803149606
40
0.0196850722611127
50
7.00003840
51
96.99981092
0
ARC
8
BLACK
10
8.3179448425196849
20
-3.6815799212598423
40
0.0196850331844478
50
-173.00007534
51
-83.00007534
0
ARC
8
BLACK
10
8.255570748031495
20
-3.1735838582677163
40
0.0196850331844478
50
-263.00007534
51
-173.00007534
0
LINE
8
BLACK
6
CONTINUOUS
10
3.6276233464566929
20
-3.1759826771653543
11
3.565249251968504
21
-3.6839787401574804
0
LINE
8
BLACK
6
CONTINUOUS
10
3.5433119685039371
20
-3.7011180708661415
11
3.0353159055118111
21
-3.6387439763779525
0
LINE
8
BLACK
6
CONTINUOUS
10
3.1024879527559053
20
-3.0916712992125985
11
3.6104840157480314
21
-3.1540453937007875
0
LINE
8
BLACK
6
CONTINUOUS
10
3.0181765748031495
20
-3.6168066929133857
11
3.0805506692913385
21
-3.1088106299212597
0
ARC
8
BLACK
10
3.5456082677165353
20
-3.6815227952755905
40
0.0196850770590968
50
-96.99992466
51
-7.00015214
0
ARC
8
BLACK
10
3.6080849606299212
20
-3.1735837007874017
40
0.019685072261113
50
-6.99981092
51
82.99996160
0
ARC
8
BLACK
10
3.0377148818897637
20
-3.6192056692913384
40
0.0196850331844478
50
-186.99992466
51
-96.99992466
0
ARC
8
BLACK
10
3.1000889763779527
20
-3.1112096062992127
40
0.0196850331844478
50
83.00007534
51
173.00007534
0
LINE
8
BLACK
6
CONTINUOUS
10
7.8787405905511809
20
-1.8970953149606298
11
7.9411146850393699
21
-2.4050913779527558
0
LINE
8
BLACK
6
CONTINUOUS
10
7.9239753543307083
20
-2.4270286614173227
11
7.4159792913385827
21
-2.4894027559055116
0
LINE
8
BLACK
6
CONTINUOUS
10
7.3488072440944876
20
-1.9423300787401574
11
7.8568033070866141
21
-1.8799559842519684
0
LINE
8
BLACK
6
CONTINUOUS
10
7.3940420078740159
20
-2.4722634251968505
11
7.3316679133858269
21
-1.9642673622047244
0
ARC
8
BLACK
10
7.9214629527559053
20
-2.4074599606299212
40
0.0196850575207873
50
-82.99989077
51
6.99986779
0
ARC
8
BLACK
10
7.8592022440944884
20
-1.8994943307086614
40
0.019685072261113
50
7.00003840
51
96.99981092
0
ARC
8
BLACK
10
7.4135803149606296
20
-2.4698644488188974
40
0.0196850331844478
50
-173.00007534
51
-83.00007534
0
ARC
8
BLACK
10
7.3512062204724407
20
-1.9618683858267716
40
0.0196850331844478
50
-263.00007534
51
-173.00007534
0
LINE
8
BLACK
6
CONTINUOUS
10
5.1735592913385826
20
-2.8928333464566927
11
5.1111851968503936
21
-3.4008294094488187
0
LINE
8
BLACK
6
CONTINUOUS
10
5.0892479133858268
20
-3.4179687401574803
11
4.5812518503937003
21
-3.3555946456692913
0
LINE
8
BLACK
6
CONTINUOUS
10
4.6484238976377954
20
-2.8085219685039369
11
5.156419960629921
21
-2.8708960629921259
0
LINE
8
BLACK
6
CONTINUOUS
10
4.5641125196850396
20
-3.3336573622047245
11
4.6264866141732286
21
-2.8256612992125985
0
ARC
8
BLACK
10
5.0915442125984249
20
-3.3983734645669292
40
0.0196850770590968
50
-96.99992466
51
-7.00015214
0
ARC
8
BLACK
10
5.1540209055118105
20
-2.89043437007874
40
0.019685072261113
50
-6.99981092
51
82.99996160
0
ARC
8
BLACK
10
4.5836508267716534
20
-3.3360563385826771
40
0.0196850331844478
50
-186.99992466
51
-96.99992466
0
ARC
8
BLACK
10
4.6460249212598423
20
-2.8280602755905511
40
0.0196850331844478
50
83.00007534
51
173.00007534
0
LINE
8
BLACK
6
CONTINUOUS
10
7.3285655905511806
20
-3.5700240551181102
11
7.3909396850393696
21
-4.0780201181102358
0
LINE
8
BLACK
6
CONTINUOUS
10
7.3738003543307089
20
-4.0999574015748035
11
6.8658042913385824
21
-4.1623314960629925
0
LINE
8
BLACK
6
CONTINUOUS
10
6.7986322440944882
20
-3.6152588188976376
11
7.3066283070866138
21
-3.5528847244094486
0
LINE
8
BLACK
6
CONTINUOUS
10
6.8438670078740156
20
-4.1451921653543309
11
6.7814929133858266
21
-3.6371961023622048
0
ARC
8
BLACK
10
7.371287952755905
20
-4.0803887007874016
40
0.0196850575207873
50
-82.99989077
51
6.99986779
0
ARC
8
BLACK
10
7.3090272440944881
20
-3.5724230708661415
40
0.0196850722611127
50
7.00003840
51
96.99981092
0
ARC
8
BLACK
10
6.8634053149606293
20
-4.1427931889763778
40
0.0196850331844478
50
-173.00007534
51
-83.00007534
0
ARC
8
BLACK
10
6.8010312204724404
20
-3.6347971259842518
40
0.0196850331844478
50
-263.00007534
51
-173.00007534
0
LINE
8
BLACK
6
CONTINUOUS
10
3.0432626377952756
20
-1.7814749212598424
11
2.9808885433070866
21
-2.2894709842519685
0
LINE
8
BLACK
6
CONTINUOUS
10
2.9589512598425198
20
-2.3066103149606301
11
2.4509551968503938
21
-2.2442362204724411
0
LINE
8
BLACK
6
CONTINUOUS
10
2.518127244094488
20
-1.6971635433070866
11
3.026123307086614
21
-1.7595376377952756
0
LINE
8
BLACK
6
CONTINUOUS
10
2.4338158661417322
20
-2.2222989370078738
11
2.4961899606299212
21
-1.714302874015748
0
ARC
8
BLACK
10
2.9612475590551179
20
-2.2870150393700786
40
0.0196850770590968
50
-96.99992466
51
-7.00015214
0
ARC
8
BLACK
10
3.0237242519685039
20
-1.7790759448818898
40
0.019685072261113
50
-6.99981092
51
82.99996160
0
ARC
8
BLACK
10
2.4533541732283464
20
-2.2246979133858269
40
0.0196850331844478
50
-186.99992466
51
-96.99992466
0
ARC
8
BLACK
10
2.5157282677165353
20
-1.7167018503937008
40
0.0196850331844478
50
83.00007534
51
173.00007534
0
LINE
8
BLACK
6
CONTINUOUS
10
7.1457730314960628
20
-2.0812986220472443
11
7.2081471259842518
21
-2.5892946850393699
0
LINE
8
BLACK
6
CONTINUOUS
10
7.1910077952755902
20
-2.6112319685039371
11
6.6830117322834646
21
-2.6736060629921261
0
LINE
8
BLACK
6
CONTINUOUS
10
6.6158396850393704
20
-2.1265333858267716
11
7.123835748031496
21
-2.0641592913385827
0
LINE
8
BLACK
6
CONTINUOUS
10
6.6610744488188978
20
-2.6564667322834645
11
6.5987003543307088
21
-2.1484706692913385
0
ARC
8
BLACK
10
7.1884953937007872
20
-2.5916632677165352
40
0.0196850575207873
50
-82.99989077
51
6.99986779
0
ARC
8
BLACK
10
7.1262346850393703
20
-2.0836976377952756
40
0.019685072261113
50
7.00003840
51
96.99981092
0
ARC
8
BLACK
10
6.6806127559055115
20
-2.6540677559055119
40
0.0196850331844478
50
-173.00007534
51
-83.00007534
0
ARC
8
BLACK
10
6.6182386614173225
20
-2.1460716929133858
40
0.0196850331844478
50
-263.00007534
51
-173.00007534
0
LINE
8
BLACK
6
CONTINUOUS
10
2.2515195669291339
20
-2.0759602362204723
11
2.1891454724409449
21
-2.5839562992125984
0
LINE
8
BLACK
6
CONTINUOUS
10
2.1672081889763781
20
-2.60109562992126
11
1.6592121259842518
21
-2.538721535433071
0
LINE
8
BLACK
6
CONTINUOUS
10
1.7263841732283465
20
-1.9916488582677165
11
2.2343802362204723
21
-2.0540229527559055
0
LINE
8
BLACK
6
CONTINUOUS
10
1.6420727952755905
20
-2.5167842519685037
11
1.7044468897637794
21
-2.0087881889763781
0
ARC
8
BLACK
10
2.1695044881889762
20
-2.5815003543307085
40
0.0196850770590965
50
-96.99992466
51
-7.00015214
0
ARC
8
BLACK
10
2.2319811811023622
20
-2.0735612598425197
40
0.019685072261113
50
-6.99981092
51
82.99996160
0
ARC
8
BLACK
10
1.6616111023622047
20
-2.5191832283464568
40
0.0196850331844478
50
-186.99992466
51
-96.99992466
0
ARC
8
BLACK
10
1.7239851968503936
20
-2.0111871653543307
40
0.0196850331844478
50
83.00007534
51
173.00007534
0
LINE
8
BLACK
6
CONTINUOUS
10
8.6917089763779529
20
-2.3644479133858267
11
8.754083070866141
21
-2.8724439763779528
0
LINE
8
BLACK
6
CONTINUOUS
10
8.7369437401574803
20
-2.8943812598425196
11
8.2289476771653547
21
-2.9567553543307086
0
LINE
8
BLACK
6
CONTINUOUS
10
8.1617756299212605
20
-2.4096826771653541
11
8.6697716929133861
21
-2.3473085826771651
0
LINE
8
BLACK
6
CONTINUOUS
10
8.2070103937007879
20
-2.939616023622047
11
8.144636299212598
21
-2.4316199606299214
0
ARC
8
BLACK
10
8.7344313385826773
20
-2.8748125590551181
40
0.0196850575207873
50
-82.99989077
51
6.99986779
0
ARC
8
BLACK
10
8.6721706299212595
20
-2.3668469291338581
40
0.019685072261113
50
7.00003840
51
96.99981092
0
ARC
8
BLACK
10
8.2265487007874007
20
-2.9372170472440944
40
0.0196850331844478
50
-173.00007534
51
-83.00007534
0
ARC
8
BLACK
10
8.1641746062992127
20
-2.4292209842519683
40
0.0196850331844478
50
-263.00007534
51
-173.00007534
0
LINE
8
BLACK
6
CONTINUOUS
10
2.0687269685039369
20
-3.5646856692913387
11
2.0063528740157479
21
-4.0726817322834643
0
LINE
8
BLACK
6
CONTINUOUS
10
1.9844155905511811
20
-4.0898210629921259
11
1.476419527559055
21
-4.0274469685039369
0
LINE
8
BLACK
6
CONTINUOUS
10
1.5435915748031497
20
-3.4803742913385824
11
2.0515876377952758
21
-3.5427483858267714
0
LINE
8
BLACK
6
CONTINUOUS
10
1.4592801968503937
20
-4.0055096850393701
11
1.5216542913385827
21
-3.497513622047244
0
ARC
8
BLACK
10
1.9867118897637794
20
-4.0702257874015748
40
0.0196850770590966
50
-96.99992466
51
-7.00015214
0
ARC
8
BLACK
10
2.0491885826771652
20
-3.5622866929133856
40
0.019685072261113
50
-6.99981092
51
82.99996160
0
ARC
8
BLACK
10
1.4788185039370079
20
-4.0079086614173232
40
0.0196850331844478
50
-186.99992466
51
-96.99992466
0
ARC
8
BLACK
10
1.5411925984251968
20
-3.4999125984251966
40
0.0196850331844478
50
83.00007534
51
173.00007534
0
LINE
8
BLACK
6
CONTINUOUS
10
8.60031279527559
20
-1.620085157480315
11
8.6626868897637799
21
-2.1280812204724411
0
LINE
8
BLACK
6
CONTINUOUS
10
8.6455475590551174
20
-2.1500185039370079
11
8.1375514960629918
21
-2.2123925984251969
0
LINE
8
BLACK
6
CONTINUOUS
10
8.0703794488188976
20
-1.6653199212598424
11
8.5783755118110232
21
-1.6029458267716534
0
LINE
8
BLACK
6
CONTINUOUS
10
8.115614212598425
20
-2.1952532677165353
11
8.0532401181102369
21
-1.6872572047244094
0
ARC
8
BLACK
10
8.6430351574803144
20
-2.1304498031496064
40
0.0196850575207873
50
-82.99989077
51
6.99986779
0
ARC
8
BLACK
10
8.5807744488188966
20
-1.6224841732283464
40
0.019685072261113
50
7.00003840
51
96.99981092
0
ARC
8
BLACK
10
8.1351525196850396
20
-2.1928542913385827
40
0.0196850331844478
50
-173.00007534
51
-83.00007534
0
ARC
8
BLACK
10
8.0727784251968497
20
-1.6848582283464566
40
0.0196850331844478
50
-263.00007534
51
-173.00007534
0
LINE
8
BLACK
6
CONTINUOUS
10
7.2371692913385823
20
-2.8256613385826772
11
7.2995433858267713
21
-3.3336574015748033
0
LINE
8
BLACK
6
CONTINUOUS
10
7.2824040551181097
20
-3.3555946850393701
11
6.7744079921259841
21
-3.4179687795275591
0
LINE
8
BLACK
6
CONTINUOUS
10
6.7072359448818899
20
-2.8708961023622046
11
7.2152320078740155
21
-2.8085220078740156
0
LINE
8
BLACK
6
CONTINUOUS
10
6.7524707086614173
20
-3.4008294488188975
11
6.6900966141732283
21
-2.8928333858267714
0
ARC
8
BLACK
10
7.2798916535433067
20
-3.3360259842519686
40
0.0196850575207873
50
-82.99989077
51
6.99986779
0
ARC
8
BLACK
10
7.2176309448818898
20
-2.8280603543307086
40
0.0196850722611127
50
7.00003840
51
96.99981092
0
ARC
8
BLACK
10
6.772009015748031
20
-3.3984304724409449
40
0.0196850331844478
50
-173.00007534
51
-83.00007534
0
ARC
8
BLACK
10
6.7096349212598421
20
-2.8904344094488188
40
0.0196850331844478
50
-263.00007534
51
-173.00007534
0
LINE
8
BLACK
6
CONTINUOUS
10
3.962370472440945
20
-4.3661490944881889
11
3.899996377952756
21
-4.8741451574803145
0
LINE
8
BLACK
6
CONTINUOUS
10
3.8780590944881888
20
-4.8912844881889761
11
3.3700630314960631
21
-4.8289103937007871
0
LINE
8
BLACK
6
CONTINUOUS
10
3.4372350787401573
20
-4.2818377165354331
11
3.9452311417322834
21
-4.3442118110236221
0
LINE
8
BLACK
6
CONTINUOUS
10
3.3529237007874015
20
-4.8069731102362203
11
3.4152977952755905
21
-4.2989770472440947
0
ARC
8
BLACK
10
3.8803553937007873
20
-4.871689212598425
40
0.0196850770590968
50
-96.99992466
51
-7.00015214
0
ARC
8
BLACK
10
3.9428320866141733
20
-4.3637501181102358
40
0.019685072261113
50
-6.99981092
51
82.99996160
0
ARC
8
BLACK
10
3.3724620078740157
20
-4.8093720866141734
40
0.0196850331844478
50
-186.99992466
51
-96.99992466
0
ARC
8
BLACK
10
3.4348361023622047
20
-4.3013760236220469
40
0.0196850331844478
50
83.00007534
51
173.00007534
0
LINE
8
BLACK
6
CONTINUOUS
10
10.3420015354330701
20
-3.4975136614173228
11
10.40437562992126
21
-4.0055097244094489
0
LINE
8
BLACK
6
CONTINUOUS
10
10.3872362992125975
20
-4.0274470078740157
11
9.8792402362204719
21
-4.0898211023622046
0
LINE
8
BLACK
6
CONTINUOUS
10
9.8120681889763777
20
-3.5427484251968502
11
10.3200642519685033
21
-3.4803743307086612
0
LINE
8
BLACK
6
CONTINUOUS
10
9.8573029527559051
20
-4.0726817716535431
11
9.794928858267717
21
-3.5646857086614174
0
ARC
8
BLACK
10
10.3847238976377945
20
-4.0078783070866137
40
0.0196850575207873
50
-82.99989077
51
6.99986779
0
ARC
8
BLACK
10
10.3224631889763785
20
-3.4999126771653541
40
0.0196850722611127
50
7.00003840
51
96.99981092
0
ARC
8
BLACK
10
9.8768412598425197
20
-4.0702827952755909
40
0.0196850331844478
50
-173.00007534
51
-83.00007534
0
ARC
8
BLACK
10
9.8144671653543298
20
-3.5622867322834644
40
0.0196850331844478
50
-263.00007534
51
-173.00007534
0
LINE
8
BLACK
6
CONTINUOUS
10
10.1592090944881885
20
-2.0087881889763781
11
10.2215831889763784
21
-2.5167842519685037
0
LINE
8
BLACK
6
CONTINUOUS
10
10.2044438582677159
20
-2.538721535433071
11
9.6964477952755903
21
-2.60109562992126
0
LINE
8
BLACK
6
CONTINUOUS
10
9.6292757480314961
20
-2.0540229527559055
11
10.1372718110236217
21
-1.9916488582677165
0
LINE
8
BLACK
6
CONTINUOUS
10
9.6745105118110235
20
-2.5839562992125984
11
9.6121364173228336
21
-2.0759602362204723
0
ARC
8
BLACK
10
10.2019314566929129
20
-2.5191528346456691
40
0.0196850575207873
50
-82.99989077
51
6.99986779
0
ARC
8
BLACK
10
10.1396707480314952
20
-2.0111872047244095
40
0.019685072261113
50
7.00003840
51
96.99981092
0
ARC
8
BLACK
10
9.6940488188976381
20
-2.5815573228346458
40
0.0196850331844478
50
-173.00007534
51
-83.00007534
0
ARC
8
BLACK
10
9.6316747244094483
20
-2.0735612598425197
40
0.0196850331844478
50
-263.00007534
51
-173.00007534
0
LINE
8
BLACK
6
CONTINUOUS
10
9.3674660236220468
20
-1.714302874015748
11
9.4298401181102367
21
-2.2222989370078738
0
LINE
8
BLACK
6
CONTINUOUS
10
9.4127007874015742
20
-2.2442362204724411
11
8.9047047244094486
21
-2.3066103149606301
0
LINE
8
BLACK
6
CONTINUOUS
10
8.8375326771653544
20
-1.7595376377952756
11
9.34552874015748
21
-1.6971635433070866
0
LINE
8
BLACK
6
CONTINUOUS
10
8.8827674409448818
20
-2.2894709842519685
11
8.8203933464566919
21
-1.7814749212598424
0
ARC
8
BLACK
10
9.4101883858267712
20
-2.2246675196850392
40
0.0196850575207873
50
-82.99989077
51
6.99986779
0
ARC
8
BLACK
10
9.3479276771653534
20
-1.7167018897637796
40
0.019685072261113
50
7.00003840
51
96.99981092
0
ARC
8
BLACK
10
8.9023057480314964
20
-2.2870720078740159
40
0.0196850331844478
50
-173.00007534
51
-83.00007534
0
ARC
8
BLACK
10
8.8399316535433066
20
-1.7790759448818898
40
0.0196850331844478
50
-263.00007534
51
-173.00007534
0
LINE
8
BLACK
6
CONTINUOUS
10
5.6394055511811025
20
-5.1954733070866137
11
5.3313899999999999
21
-5.6042237795275591
0
LINE
8
BLACK
6
CONTINUOUS
10
5.303822086614173
20
-5.6080981889763777
11
4.8950716141732284
21
-5.3000826377952759
0
LINE
8
BLACK
6
CONTINUOUS
10
5.2267806692913386
20
-4.859889842519685
11
5.6355311417322831
21
-5.1679053937007877
0
LINE
8
BLACK
6
CONTINUOUS
10
4.891197204724409
20
-5.272514724409449
11
5.1992127559055117
21
-4.8637642519685036
0
ARC
8
BLACK
10
5.315608307086614
20
-5.5922763779527553
40
0.0196850900876094
50
-126.99977581
51
-37.00009677
0
ARC
8
BLACK
10
5.6236842913385825
20
-5.1836265354330706
40
0.019685074366403
50
-36.99989053
51
52.99985747
0
ARC
8
BLACK
10
4.9069183858267715
20
-5.2843614566929134
40
0.0196850467984362
50
-216.99997077
51
-127.00006229
0
ARC
8
BLACK
10
5.2149338976377955
20
-4.8756110236220476
40
0.0196850467984362
50
53.00002923
51
142.99993771
0
LINE
8
BLACK
6
CONTINUOUS
10
8.4483581889763784
20
-4.2989770472440947
11
8.5107322834645664
21
-4.8069731102362203
0
LINE
8
BLACK
6
CONTINUOUS
10
8.4935929527559058
20
-4.8289103937007871
11
7.9855968897637792
21
-4.8912844881889761
0
LINE
8
BLACK
6
CONTINUOUS
10
7.918424842519685
20
-4.3442118110236221
11
8.4264209055118116
21
-4.2818377165354331
0
LINE
8
BLACK
6
CONTINUOUS
10
7.9636596062992124
20
-4.8741451574803145
11
7.9012855118110235
21
-4.3661490944881889
0
ARC
8
BLACK
10
8.4910805511811027
20
-4.8093416929133861
40
0.0196850575207873
50
-82.99989077
51
6.99986779
0
ARC
8
BLACK
10
8.428819842519685
20
-4.3013760629921256
40
0.0196850722611127
50
7.00003840
51
96.99981092
0
ARC
8
BLACK
10
7.9831979133858262
20
-4.8717461811023623
40
0.0196850331844478
50
-173.00007534
51
-83.00007534
0
ARC
8
BLACK
10
7.9208238188976372
20
-4.3637501181102358
40
0.0196850331844478
50
-263.00007534
51
-173.00007534
0
LINE
8
BLACK
6
CONTINUOUS
10
2.9518662992125986
20
-2.5258376771653541
11
2.8894922047244096
21
-3.0338337401574802
0
LINE
8
BLACK
6
CONTINUOUS
10
2.8675549212598423
20
-3.0509730708661418
11
2.3595588582677163
21
-2.9885989763779528
0
LINE
8
BLACK
6
CONTINUOUS
10
2.4267309055118109
20
-2.4415262992125983
11
2.934726968503937
21
-2.5039003937007873
0
LINE
8
BLACK
6
CONTINUOUS
10
2.3424195275590551
20
-2.9666616929133856
11
2.4047936220472441
21
-2.4586656299212599
0
ARC
8
BLACK
10
2.8698512204724409
20
-3.0313777952755907
40
0.0196850770590968
50
-96.99992466
51
-7.00015214
0
ARC
8
BLACK
10
2.9323279133858269
20
-2.5234387007874015
40
0.019685072261113
50
-6.99981092
51
82.99996160
0
ARC
8
BLACK
10
2.3619578346456693
20
-2.9690606692913386
40
0.0196850331844478
50
-186.99992466
51
-96.99992466
0
ARC
8
BLACK
10
2.4243319291338583
20
-2.4610646062992125
40
0.0196850331844478
50
83.00007534
51
173.00007534
0
LINE
8
BLACK
6
CONTINUOUS
10
5.0821629133858268
20
-3.6371960629921261
11
5.0197888188976378
21
-4.1451921259842521
0
LINE
8
BLACK
6
CONTINUOUS
10
4.997851535433071
20
-4.1623314566929137
11
4.4898554724409445
21
-4.0999573622047247
0
LINE
8
BLACK
6
CONTINUOUS
10
4.5570275196850396
20
-3.5528846850393698
11
5.0650235826771652
21
-3.6152587795275588
0
LINE
8
BLACK
6
CONTINUOUS
10
4.4727161417322829
20
-4.078020078740157
11
4.5350902362204719
21
-3.5700240157480314
0
ARC
8
BLACK
10
5.0001478346456691
20
-4.1427361811023617
40
0.0196850770590968
50
-96.99992466
51
-7.00015214
0
ARC
8
BLACK
10
5.0626245275590547
20
-3.634797086614173
40
0.019685072261113
50
-6.99981092
51
82.99996160
0
ARC
8
BLACK
10
4.4922544488188976
20
-4.0804190551181101
40
0.0196850331844478
50
-186.99992466
51
-96.99992466
0
ARC
8
BLACK
10
4.5546285433070866
20
-3.572422992125984
40
0.0196850331844478
50
83.00007534
51
173.00007534
0
LINE
8
BLACK
6
CONTINUOUS
10
2.8604700787401574
20
-3.2702003543307088
11
2.7980959842519684
21
-3.7781964173228344
0
LINE
8
BLACK
6
CONTINUOUS
10
2.7761587007874016
20
-3.795335748031496
11
2.2681626377952755
21
-3.732961653543307
0
LINE
8
BLACK
6
CONTINUOUS
10
2.3353346850393701
20
-3.1858889763779525
11
2.8433307480314962
21
-3.2482630708661415
0
LINE
8
BLACK
6
CONTINUOUS
10
2.2510233070866139
20
-3.7110243700787402
11
2.3133974015748029
21
-3.2030283070866141
0
ARC
8
BLACK
10
2.7784550000000001
20
-3.7757404724409449
40
0.0196850770590968
50
-96.99992466
51
-7.00015214
0
ARC
8
BLACK
10
2.8409316929133857
20
-3.2678013779527557
40
0.019685072261113
50
-6.99981092
51
82.99996160
0
ARC
8
BLACK
10
2.2705616141732281
20
-3.7134233464566928
40
0.0196850331844478
50
-186.99992466
51
-96.99992466
0
ARC
8
BLACK
10
2.3329357086614171
20
-3.2054272834645667
40
0.0196850331844478
50
83.00007534
51
173.00007534
0
LINE
8
BLACK
6
CONTINUOUS
10
3.8104157874015745
20
-1.6872572047244094
11
3.748041692913386
21
-2.1952532677165353
0
LINE
8
BLACK
6
CONTINUOUS
10
3.7261044094488187
20
-2.2123925984251969
11
3.2181083464566926
21
-2.1500185039370079
0
LINE
8
BLACK
6
CONTINUOUS
10
3.2852803937007873
20
-1.6029458267716534
11
3.7932764566929134
21
-1.6653199212598424
0
LINE
8
BLACK
6
CONTINUOUS
10
3.2009690157480315
20
-2.1280812204724411
11
3.2633431102362205
21
-1.620085157480315
0
ARC
8
BLACK
10
3.7284007086614173
20
-2.1927973228346458
40
0.0196850770590968
50
-96.99992466
51
-7.00015214
0
ARC
8
BLACK
10
3.7908774015748032
20
-1.6848582283464566
40
0.019685072261113
50
-6.99981092
51
82.99996160
0
ARC
8
BLACK
10
3.2205073228346457
20
-2.1304801968503937
40
0.0196850331844478
50
-186.99992466
51
-96.99992466
0
ARC
8
BLACK
10
3.2828814173228347
20
-1.6224841338582676
40
0.0196850331844478
50
83.00007534
51
173.00007534
0
LINE
8
BLACK
6
CONTINUOUS
10
1.4607511811023621
20
-5.8856087795275593
11
1.4607511811023621
21
-5.8068686220472436
0
LINE
8
BLACK
6
CONTINUOUS
10
1.4607511811023621
20
-5.8068686220472436
11
1.4794988188976377
21
-5.8068686220472436
0
LINE
8
BLACK
6
CONTINUOUS
10
1.4794988188976377
20
-5.8068686220472436
11
1.4907474409448818
21
-5.8106181496062987
0
LINE
8
BLACK
6
CONTINUOUS
10
1.4907474409448818
20
-5.8106181496062987
11
1.498246496062992
21
-5.818117204724409
0
LINE
8
BLACK
6
CONTINUOUS
10
1.498246496062992
20
-5.818117204724409
11
1.5019960236220473
21
-5.8256162598425192
0
LINE
8
BLACK
6
CONTINUOUS
10
1.5019960236220473
20
-5.8256162598425192
11
1.5057455511811024
21
-5.8406143700787396
0
LINE
8
BLACK
6
CONTINUOUS
10
1.5057455511811024
20
-5.8406143700787396
11
1.5057455511811024
21
-5.8518629921259837
0
LINE
8
BLACK
6
CONTINUOUS
10
1.5057455511811024
20
-5.8518629921259837
11
1.5019960236220473
21
-5.8668611023622042
0
LINE
8
BLACK
6
CONTINUOUS
10
1.5019960236220473
20
-5.8668611023622042
11
1.498246496062992
21
-5.8743601574803153
0
LINE
8
BLACK
6
CONTINUOUS
10
1.498246496062992
20
-5.8743601574803153
11
1.4907474409448818
21
-5.8818592519685042
0
LINE
8
BLACK
6
CONTINUOUS
10
1.4907474409448818
20
-5.8818592519685042
11
1.4794988188976377
21
-5.8856087795275593
0
LINE
8
BLACK
6
CONTINUOUS
10
1.4794988188976377
20
-5.8856087795275593
11
1.4607511811023621
21
-5.8856087795275593
0
LINE
8
BLACK
6
CONTINUOUS
10
1.5394913385826772
20
-5.8856087795275593
11
1.5394913385826772
21
-5.8331153149606294
0
LINE
8
BLACK
6
CONTINUOUS
10
1.5394913385826772
20
-5.8481134645669286
11
1.5432408661417323
21
-5.8406143700787396
0
LINE
8
BLACK
6
CONTINUOUS
10
1.5432408661417323
20
-5.8406143700787396
11
1.5469903937007874
21
-5.8368648425196845
0
LINE
8
BLACK
6
CONTINUOUS
10
1.5469903937007874
20
-5.8368648425196845
11
1.5544894488188976
21
-5.8331153149606294
0
LINE
8
BLACK
6
CONTINUOUS
10
1.5544894488188976
20
-5.8331153149606294
11
1.5619885433070866
21
-5.8331153149606294
0
LINE
8
BLACK
6
CONTINUOUS
10
1.5882352362204724
20
-5.8856087795275593
11
1.5882352362204724
21
-5.8331153149606294
0
LINE
8
BLACK
6
CONTINUOUS
10
1.5882352362204724
20
-5.8068686220472436
11
1.5844857086614172
21
-5.8106181496062987
0
LINE
8
BLACK
6
CONTINUOUS
10
1.5844857086614172
20
-5.8106181496062987
11
1.5882352362204724
21
-5.8143676771653539
0
LINE
8
BLACK
6
CONTINUOUS
10
1.5882352362204724
20
-5.8143676771653539
11
1.5919847637795275
21
-5.8106181496062987
0
LINE
8
BLACK
6
CONTINUOUS
10
1.5919847637795275
20
-5.8106181496062987
11
1.5882352362204724
21
-5.8068686220472436
0
LINE
8
BLACK
6
CONTINUOUS
10
1.5882352362204724
20
-5.8068686220472436
11
1.5882352362204724
21
-5.8143676771653539
0
LINE
8
BLACK
6
CONTINUOUS
10
1.6369791338582678
20
-5.8856087795275593
11
1.6294800787401575
21
-5.8818592519685042
0
LINE
8
BLACK
6
CONTINUOUS
10
1.6294800787401575
20
-5.8818592519685042
11
1.6257305511811024
21
-5.8743601574803153
0
LINE
8
BLACK
6
CONTINUOUS
10
1.6257305511811024
20
-5.8743601574803153
11
1.6257305511811024
21
-5.8068686220472436
0
LINE
8
BLACK
6
CONTINUOUS
10
1.6782239763779527
20
-5.8856087795275593
11
1.6707249212598425
21
-5.8818592519685042
0
LINE
8
BLACK
6
CONTINUOUS
10
1.6707249212598425
20
-5.8818592519685042
11
1.6669753937007874
21
-5.8743601574803153
0
LINE
8
BLACK
6
CONTINUOUS
10
1.6669753937007874
20
-5.8743601574803153
11
1.6669753937007874
21
-5.8068686220472436
0
LINE
8
BLACK
6
CONTINUOUS
10
1.7682127559055119
20
-5.8856087795275593
11
1.7682127559055119
21
-5.8068686220472436
0
LINE
8
BLACK
6
CONTINUOUS
10
1.7682127559055119
20
-5.8068686220472436
11
1.7944594881889764
21
-5.863111574803149
0
LINE
8
BLACK
6
CONTINUOUS
10
1.7944594881889764
20
-5.863111574803149
11
1.8207061811023622
21
-5.8068686220472436
0
LINE
8
BLACK
6
CONTINUOUS
10
1.8207061811023622
20
-5.8068686220472436
11
1.8207061811023622
21
-5.8856087795275593
0
LINE
8
BLACK
6
CONTINUOUS
10
1.891947283464567
20
-5.8856087795275593
11
1.891947283464567
21
-5.8443639370078735
0
LINE
8
BLACK
6
CONTINUOUS
10
1.891947283464567
20
-5.8443639370078735
11
1.8881977559055119
21
-5.8368648425196845
0
LINE
8
BLACK
6
CONTINUOUS
10
1.8881977559055119
20
-5.8368648425196845
11
1.8806987007874014
21
-5.8331153149606294
0
LINE
8
BLACK
6
CONTINUOUS
10
1.8806987007874014
20
-5.8331153149606294
11
1.8657005511811022
21
-5.8331153149606294
0
LINE
8
BLACK
6
CONTINUOUS
10
1.8657005511811022
20
-5.8331153149606294
11
1.858201496062992
21
-5.8368648425196845
0
LINE
8
BLACK
6
CONTINUOUS
10
1.891947283464567
20
-5.8818592519685042
11
1.8844482283464568
21
-5.8856087795275593
0
LINE
8
BLACK
6
CONTINUOUS
10
1.8844482283464568
20
-5.8856087795275593
11
1.8657005511811022
21
-5.8856087795275593
0
LINE
8
BLACK
6
CONTINUOUS
10
1.8657005511811022
20
-5.8856087795275593
11
1.858201496062992
21
-5.8818592519685042
0
LINE
8
BLACK
6
CONTINUOUS
10
1.858201496062992
20
-5.8818592519685042
11
1.8544519685039369
21
-5.8743601574803153
0
LINE
8
BLACK
6
CONTINUOUS
10
1.8544519685039369
20
-5.8743601574803153
11
1.8544519685039369
21
-5.8668611023622042
0
LINE
8
BLACK
6
CONTINUOUS
10
1.8544519685039369
20
-5.8668611023622042
11
1.858201496062992
21
-5.8593620472440939
0
LINE
8
BLACK
6
CONTINUOUS
10
1.858201496062992
20
-5.8593620472440939
11
1.8657005511811022
21
-5.8556125196850388
0
LINE
8
BLACK
6
CONTINUOUS
10
1.8657005511811022
20
-5.8556125196850388
11
1.8844482283464568
21
-5.8556125196850388
0
LINE
8
BLACK
6
CONTINUOUS
10
1.8844482283464568
20
-5.8556125196850388
11
1.891947283464567
21
-5.8518629921259837
0
LINE
8
BLACK
6
CONTINUOUS
10
1.9294425984251968
20
-5.8331153149606294
11
1.9294425984251968
21
-5.9118554724409451
0
LINE
8
BLACK
6
CONTINUOUS
10
1.9294425984251968
20
-5.8368648425196845
11
1.9369416535433071
21
-5.8331153149606294
0
LINE
8
BLACK
6
CONTINUOUS
10
1.9369416535433071
20
-5.8331153149606294
11
1.9519398031496062
21
-5.8331153149606294
0
LINE
8
BLACK
6
CONTINUOUS
10
1.9519398031496062
20
-5.8331153149606294
11
1.9594388582677165
21
-5.8368648425196845
0
LINE
8
BLACK
6
CONTINUOUS
10
1.9594388582677165
20
-5.8368648425196845
11
1.9631883858267716
21
-5.8406143700787396
0
LINE
8
BLACK
6
CONTINUOUS
10
1.9631883858267716
20
-5.8406143700787396
11
1.9669379133858267
21
-5.8481134645669286
0
LINE
8
BLACK
6
CONTINUOUS
10
1.9669379133858267
20
-5.8481134645669286
11
1.9669379133858267
21
-5.8706106299212601
0
LINE
8
BLACK
6
CONTINUOUS
10
1.9669379133858267
20
-5.8706106299212601
11
1.9631883858267716
21
-5.8781096850393704
0
LINE
8
BLACK
6
CONTINUOUS
10
1.9631883858267716
20
-5.8781096850393704
11
1.9594388582677165
21
-5.8818592519685042
0
LINE
8
BLACK
6
CONTINUOUS
10
1.9594388582677165
20
-5.8818592519685042
11
1.9519398031496062
21
-5.8856087795275593
0
LINE
8
BLACK
6
CONTINUOUS
10
1.9519398031496062
20
-5.8856087795275593
11
1.9369416535433071
21
-5.8856087795275593
0
LINE
8
BLACK
6
CONTINUOUS
10
1.9369416535433071
20
-5.8856087795275593
11
1.9294425984251968
21
-5.8818592519685042
0
LINE
8
BLACK
6
CONTINUOUS
10
2.0006837007874014
20
-5.8781096850393704
11
2.0044332283464565
21
-5.8818592519685042
0
LINE
8
BLACK
6
CONTINUOUS
10
2.0044332283464565
20
-5.8818592519685042
11
2.0006837007874014
21
-5.8856087795275593
0
LINE
8
BLACK
6
CONTINUOUS
10
2.0006837007874014
20
-5.8856087795275593
11
1.9969341732283463
21
-5.8818592519685042
0
LINE
8
BLACK
6
CONTINUOUS
10
1.9969341732283463
20
-5.8818592519685042
11
2.0006837007874014
21
-5.8781096850393704
0
LINE
8
BLACK
6
CONTINUOUS
10
2.0006837007874014
20
-5.8781096850393704
11
2.0006837007874014
21
-5.8856087795275593
0
LINE
8
BLACK
6
CONTINUOUS
10
2.0006837007874014
20
-5.8368648425196845
11
2.0044332283464565
21
-5.8406143700787396
0
LINE
8
BLACK
6
CONTINUOUS
10
2.0044332283464565
20
-5.8406143700787396
11
2.0006837007874014
21
-5.8443639370078735
0
LINE
8
BLACK
6
CONTINUOUS
10
2.0006837007874014
20
-5.8443639370078735
11
1.9969341732283463
21
-5.8406143700787396
0
LINE
8
BLACK
6
CONTINUOUS
10
1.9969341732283463
20
-5.8406143700787396
11
2.0006837007874014
21
-5.8368648425196845
0
LINE
8
BLACK
6
CONTINUOUS
10
2.0006837007874014
20
-5.8368648425196845
11
2.0006837007874014
21
-5.8443639370078735
  0
ENDSEC
  0
EOF
