%TF.GenerationSoftware,KiCad,Pcbnew,7.0.10-7.0.10~ubuntu22.04.1*%
%TF.CreationDate,2024-01-12T22:57:13+01:00*%
%TF.ProjectId,fatboy,66617462-6f79-42e6-9b69-6361645f7063,rev?*%
%TF.SameCoordinates,Original*%
%TF.FileFunction,Soldermask,Top*%
%TF.FilePolarity,Negative*%
%FSLAX46Y46*%
G04 Gerber Fmt 4.6, Leading zero omitted, Abs format (unit mm)*
G04 Created by KiCad (PCBNEW 7.0.10-7.0.10~ubuntu22.04.1) date 2024-01-12 22:57:13*
%MOMM*%
%LPD*%
G01*
G04 APERTURE LIST*
G04 Aperture macros list*
%AMRoundRect*
0 Rectangle with rounded corners*
0 $1 Rounding radius*
0 $2 $3 $4 $5 $6 $7 $8 $9 X,Y pos of 4 corners*
0 Add a 4 corners polygon primitive as box body*
4,1,4,$2,$3,$4,$5,$6,$7,$8,$9,$2,$3,0*
0 Add four circle primitives for the rounded corners*
1,1,$1+$1,$2,$3*
1,1,$1+$1,$4,$5*
1,1,$1+$1,$6,$7*
1,1,$1+$1,$8,$9*
0 Add four rect primitives between the rounded corners*
20,1,$1+$1,$2,$3,$4,$5,0*
20,1,$1+$1,$4,$5,$6,$7,0*
20,1,$1+$1,$6,$7,$8,$9,0*
20,1,$1+$1,$8,$9,$2,$3,0*%
G04 Aperture macros list end*
%ADD10C,1.750000*%
%ADD11C,3.987800*%
%ADD12C,3.300000*%
%ADD13C,1.800000*%
%ADD14C,2.100000*%
%ADD15RoundRect,0.450000X0.450000X0.450000X-0.450000X0.450000X-0.450000X-0.450000X0.450000X-0.450000X0*%
G04 APERTURE END LIST*
D10*
%TO.C,MX18*%
X264743649Y-115128754D03*
D11*
X259701515Y-115747850D03*
D10*
X254659381Y-116366946D03*
D12*
X255610366Y-113691105D03*
X261603486Y-110396167D03*
%TD*%
D10*
%TO.C,MX8*%
X262422186Y-96221940D03*
D11*
X257380052Y-96841036D03*
D10*
X252337918Y-97460132D03*
D12*
X253288903Y-94784291D03*
X259282023Y-91489353D03*
%TD*%
D10*
%TO.C,MX5*%
X176119808Y-109174953D03*
D11*
X171077674Y-108555857D03*
D10*
X166035540Y-107936761D03*
D12*
X167605621Y-105570468D03*
X174217837Y-103823271D03*
%TD*%
D10*
%TO.C,MX24*%
X152859503Y-142309817D03*
D11*
X147817369Y-141690721D03*
D10*
X142775235Y-141071625D03*
D12*
X144345316Y-138705332D03*
X150957532Y-136958135D03*
%TD*%
D10*
%TO.C,MX21*%
X94935604Y-145146815D03*
D11*
X89893470Y-144527719D03*
D10*
X84851336Y-143908623D03*
D12*
X86421417Y-141542330D03*
X93033633Y-139795133D03*
%TD*%
D10*
%TO.C,MX27*%
X248737182Y-141071625D03*
D11*
X243695048Y-141690721D03*
D10*
X238652914Y-142309817D03*
D12*
X239603899Y-139633976D03*
X245597019Y-136339038D03*
%TD*%
D10*
%TO.C,MX34*%
X216762893Y-178322308D03*
D11*
X212705825Y-181379528D03*
D10*
X208648757Y-184436748D03*
D12*
X208134414Y-181643909D03*
X211677139Y-175793849D03*
%TD*%
D10*
%TO.C,MX15*%
X173798345Y-128081766D03*
D11*
X168756211Y-127462670D03*
D10*
X163714077Y-126843574D03*
D12*
X165284158Y-124477281D03*
X171896374Y-122730084D03*
%TD*%
D10*
%TO.C,MX12*%
X117367343Y-118760076D03*
D11*
X112325209Y-118140980D03*
D10*
X107283075Y-117521884D03*
D12*
X108853156Y-115155591D03*
X115465372Y-113408394D03*
%TD*%
D10*
%TO.C,MX17*%
X246415716Y-122164811D03*
D11*
X241373582Y-122783907D03*
D10*
X236331448Y-123403003D03*
D12*
X237282433Y-120727162D03*
X243275553Y-117432224D03*
%TD*%
D10*
%TO.C,MX25*%
X171476877Y-146988579D03*
D11*
X166434743Y-146369483D03*
D10*
X161392609Y-145750387D03*
D12*
X162962690Y-143384094D03*
X169574906Y-141636897D03*
%TD*%
D10*
%TO.C,MX9*%
X281907878Y-98615070D03*
D11*
X276865744Y-99234166D03*
D10*
X271823610Y-99853262D03*
D12*
X272774595Y-97177421D03*
X278767715Y-93882483D03*
%TD*%
D10*
%TO.C,MX30*%
X306661080Y-143908624D03*
D11*
X301618946Y-144527720D03*
D10*
X296576812Y-145146816D03*
D12*
X297527797Y-142470975D03*
X303520917Y-139176037D03*
%TD*%
D10*
%TO.C,MX14*%
X155180968Y-123403003D03*
D11*
X150138834Y-122783907D03*
D10*
X145096700Y-122164811D03*
D12*
X146666781Y-119798518D03*
X153278997Y-118051321D03*
%TD*%
D10*
%TO.C,MX29*%
X286550809Y-136428698D03*
D11*
X281508675Y-137047794D03*
D10*
X276466541Y-137666890D03*
D12*
X277417526Y-134991049D03*
X283410646Y-131696111D03*
%TD*%
D10*
%TO.C,MX20*%
X304339616Y-125001810D03*
D11*
X299297482Y-125620906D03*
D10*
X294255348Y-126240002D03*
D12*
X295206333Y-123564161D03*
X301199453Y-120269223D03*
%TD*%
D10*
%TO.C,MX11*%
X97257071Y-126240002D03*
D11*
X92214937Y-125620906D03*
D10*
X87172803Y-125001810D03*
D12*
X88742884Y-122635517D03*
X95355100Y-120888320D03*
%TD*%
D10*
%TO.C,MX19*%
X284229344Y-117521883D03*
D11*
X279187210Y-118140979D03*
D10*
X274145076Y-118760075D03*
D12*
X275096061Y-116084234D03*
X281089181Y-112789296D03*
%TD*%
D10*
%TO.C,MX2*%
X119688810Y-99853262D03*
D11*
X114646676Y-99234166D03*
D10*
X109604542Y-98615070D03*
D12*
X111174623Y-96248777D03*
X117786839Y-94501580D03*
%TD*%
D10*
%TO.C,MX31*%
X143034149Y-165503986D03*
D11*
X137992015Y-164884890D03*
D10*
X132949881Y-164265794D03*
D12*
X134519962Y-161899501D03*
X141132178Y-160152304D03*
%TD*%
D10*
%TO.C,MX32*%
X164185803Y-172395280D03*
D11*
X159475709Y-170492279D03*
D10*
X154765615Y-168589278D03*
D12*
X156894639Y-166709981D03*
X163733757Y-166733686D03*
%TD*%
D10*
%TO.C,MX35*%
X236766918Y-168639421D03*
D11*
X232056824Y-170542422D03*
D10*
X227346730Y-172445423D03*
D12*
X227572753Y-169614626D03*
X232508869Y-164880827D03*
%TD*%
D10*
%TO.C,MX26*%
X230119807Y-145750388D03*
D11*
X225077673Y-146369484D03*
D10*
X220035539Y-146988580D03*
D12*
X220986524Y-144312739D03*
X226979644Y-141017801D03*
%TD*%
D10*
%TO.C,MX16*%
X227798341Y-126843575D03*
D11*
X222756207Y-127462671D03*
D10*
X217714073Y-128081767D03*
D12*
X218665058Y-125405926D03*
X224658178Y-122110988D03*
%TD*%
D10*
%TO.C,MX3*%
X139174500Y-97460132D03*
D11*
X134132366Y-96841036D03*
D10*
X129090232Y-96221940D03*
D12*
X130660313Y-93855647D03*
X137272529Y-92108450D03*
%TD*%
D10*
%TO.C,MX23*%
X134531572Y-135273759D03*
D11*
X129489438Y-134654663D03*
D10*
X124447304Y-134035567D03*
D12*
X126017385Y-131669274D03*
X132629601Y-129922077D03*
%TD*%
D10*
%TO.C,MX28*%
X267065111Y-134035571D03*
D11*
X262022977Y-134654667D03*
D10*
X256980843Y-135273763D03*
D12*
X257931828Y-132597922D03*
X263924948Y-129302984D03*
%TD*%
D10*
%TO.C,MX36*%
X258562539Y-164265794D03*
D11*
X253520405Y-164884890D03*
D10*
X248478271Y-165503986D03*
D12*
X249429256Y-162828145D03*
X255422376Y-159533207D03*
%TD*%
D10*
%TO.C,MX6*%
X225476876Y-107936762D03*
D11*
X220434742Y-108555858D03*
D10*
X215392608Y-109174954D03*
D12*
X216343593Y-106499113D03*
X222336713Y-103204175D03*
%TD*%
D13*
%TO.C,SW1*%
X198241162Y-192615864D03*
X193241162Y-192615864D03*
D14*
X192241162Y-190115864D03*
X199241162Y-190115864D03*
%TD*%
D10*
%TO.C,MX10*%
X302018152Y-106094997D03*
D11*
X296976018Y-106714093D03*
D10*
X291933884Y-107333189D03*
D12*
X292884869Y-104657348D03*
X298877989Y-101362410D03*
%TD*%
D10*
%TO.C,MX33*%
X182883502Y-184386906D03*
D11*
X178826434Y-181329686D03*
D10*
X174769366Y-178272466D03*
D12*
X177312243Y-177008237D03*
X183912189Y-178801228D03*
%TD*%
D10*
%TO.C,MX4*%
X157502434Y-104496190D03*
D11*
X152460300Y-103877094D03*
D10*
X147418166Y-103257998D03*
D12*
X148988247Y-100891705D03*
X155600463Y-99144508D03*
%TD*%
D10*
%TO.C,MX1*%
X99578536Y-107333189D03*
D11*
X94536402Y-106714093D03*
D10*
X89494268Y-106094997D03*
D12*
X91064349Y-103728704D03*
X97676565Y-101981507D03*
%TD*%
D13*
%TO.C,U1*%
X203376209Y-104492671D03*
X203376209Y-107032671D03*
D15*
X203376209Y-109572671D03*
X203376209Y-112112671D03*
D13*
X203376209Y-114652671D03*
X203376209Y-117192671D03*
X203376209Y-119732671D03*
X203376209Y-122272671D03*
X203376209Y-124812671D03*
X203376209Y-127352671D03*
X203376209Y-129892671D03*
X203376209Y-132432671D03*
X188136209Y-104492671D03*
D15*
X188136209Y-107032671D03*
D13*
X188136209Y-109572671D03*
X188136209Y-112112671D03*
X188136209Y-114652671D03*
X188136209Y-117192671D03*
X188136209Y-119732671D03*
X188136209Y-122272671D03*
X188136209Y-124812671D03*
X188136209Y-127352671D03*
X188136209Y-129892671D03*
X188136209Y-132432671D03*
X200836209Y-132432671D03*
X198296209Y-132432671D03*
X195756209Y-132432671D03*
X193216209Y-132432671D03*
X190676209Y-132432671D03*
X188136209Y-101952671D03*
X203376209Y-101952671D03*
X197026209Y-109572671D03*
X194486209Y-109572671D03*
X200836209Y-129892671D03*
%TD*%
D10*
%TO.C,MX13*%
X136853036Y-116366947D03*
D11*
X131810902Y-115747851D03*
D10*
X126768768Y-115128755D03*
D12*
X128338849Y-112762462D03*
X134951065Y-111015265D03*
%TD*%
D10*
%TO.C,MX7*%
X244094252Y-103257998D03*
D11*
X239052118Y-103877094D03*
D10*
X234009984Y-104496190D03*
D12*
X234960969Y-101820349D03*
X240954089Y-98525411D03*
%TD*%
D10*
%TO.C,MX22*%
X115045879Y-137666888D03*
D11*
X110003745Y-137047792D03*
D10*
X104961611Y-136428696D03*
D12*
X106531692Y-134062403D03*
X113143908Y-132315206D03*
%TD*%
M02*
