  0
SECTION
  2
HEADER
  9
$ANGBASE
  50
0.0
  9
$ANGDIR
  70
1
  9
$MEASUREMENT
  70
0
  0
ENDSEC
  0
SECTION
  2
TABLES
  0
TABLE
  2
LTYPE
  70
4
  0
LTYPE
  5
40F
  2
CONTINUOUS
  70
0
  3
Solid line
  72
65
  73
0
  40
0.0
  0
LTYPE
  5
410
  2
DASHDOT
 70
0
  3
Dash Dot ____ _ ____ _
 72
65
 73
4
 40
2.0
 49
1.25
 49
-0.25
 49
0.25
 49
-0.25
  0
LTYPE
  5
411
  2
DASHED
 70
0
  3
Dashed __ __ __ __ __
 72
65
 73
2
 40
0.75
 49
0.5
 49
-0.25
  0
LTYPE
  5
43B
  2
DOTTED
 70
0
  3
Dotted .  .  .  .
 72
65
 73
2
 40
0.2
 49
0.0
 49
-0.2
  0
ENDTAB
  0
TABLE
  2
STYLE
  70
4
  0
STYLE
  2
KICAD
  70
0
  40
0
  41
1
  42
1
  50
0
  71
0
  3
isocp.shx
  0
STYLE
  2
KICADB
  70
0
  40
0
  41
1
  42
1
  50
0
  71
0
  3
isocp.shx
  0
STYLE
  2
KICADI
  70
0
  40
0
  41
1
  42
1
  50
15
  71
0
  3
isocp.shx
  0
STYLE
  2
KICADBI
  70
0
  40
0
  41
1
  42
1
  50
15
  71
0
  3
isocp.shx
  0
ENDTAB
  0
TABLE
  2
LAYER
  70
1
  0
LAYER
  2
BLACK
  70
0
  62
7
  6
CONTINUOUS
  0
ENDTAB
  0
ENDSEC
  0
SECTION
  2
ENTITIES
0
ARC
8
BLACK
10
10.3546761811023611
20
-3.523766929133858
40
0.1181090048817003
50
7.19869077
51
96.92082718
0
ARC
8
BLACK
10
10.3576725590551177
20
-6.703697047244094
40
0.1181194053490641
50
-82.58042643
51
-58.34970760
0
LINE
8
BLACK
6
CONTINUOUS
10
5.0730174015748029
20
-3.4065185826771653
11
5.5833525590551183
21
-3.4684589763779528
0
ARC
8
BLACK
10
12.1601881889763774
20
-5.9137096456692912
40
0.1181141344231171
50
-82.91042660
51
6.98632733
0
ARC
8
BLACK
10
5.0587917716535431
20
-3.5237751968503934
40
0.1181164140416249
50
83.08267356
51
172.79774191
0
LINE
8
BLACK
6
CONTINUOUS
10
9.0692186220472433
20
-3.7511378740157482
11
9.7366521259842518
21
-3.6699159055118109
0
LINE
8
BLACK
6
CONTINUOUS
10
5.6768096062992122
20
-3.6699159055118109
11
6.3442430314960632
21
-3.7511378740157482
0
LINE
8
BLACK
6
CONTINUOUS
10
10.4807466141732277
20
-3.5793646062992126
11
11.1097566535433074
21
-3.5030204330708661
0
ARC
8
BLACK
10
3.4982283858267715
20
-3.9152873228346454
40
0.1181124680324388
50
83.21211795
51
173.01077643
0
LINE
8
BLACK
6
CONTINUOUS
10
11.5731920472440937
20
-6.1057196062992123
11
12.174765944881889
21
-6.0309207480314964
0
LINE
8
BLACK
6
CONTINUOUS
10
9.7366521259842518
20
-3.6699159055118109
11
9.7273203149606289
21
-3.6017218897637795
0
LINE
8
BLACK
6
CONTINUOUS
10
7.1550212992125983
20
-7.6659788582677164
11
8.2584403937007878
21
-7.6659787795275589
0
LINE
8
BLACK
6
CONTINUOUS
10
8.9262955905511809
20
-7.2015544094488186
11
9.6283737795275588
21
-6.9214800787401574
0
ARC
8
BLACK
10
4.2894722834645664
20
-3.6202677952755904
40
0.1181080941509646
50
83.07867524
51
172.98452373
0
LINE
8
BLACK
6
CONTINUOUS
10
4.1537786220472439
20
-3.7559106692913384
11
4.1722484645669287
21
-3.6058424015748032
0
LINE
8
BLACK
6
CONTINUOUS
10
9.0024001574803147
20
-3.856923779527559
11
9.0003971653543307
21
-3.8372946850393701
0
ARC
8
BLACK
10
6.4434168110236216
20
-7.3112319685039369
40
0.1180813489030212
50
53.24573047
51
68.25348736
0
LINE
8
BLACK
6
CONTINUOUS
10
10.4196537795275592
20
-6.804248188976378
11
11.525787401574803
21
-6.122384921259842
0
ARC
8
BLACK
10
9.0787324409448811
20
-3.8293029133858267
40
0.0787419057092879
50
-263.06038916
51
-174.17484039
0
LINE
8
BLACK
6
CONTINUOUS
10
4.9327150393700787
20
-3.5793646062992126
11
4.9416073622047243
21
-3.5089666929133858
0
LINE
8
BLACK
6
CONTINUOUS
10
9.8301091338582669
20
-3.4684588582677165
11
10.340444330708662
21
-3.4065185433070866
0
ARC
8
BLACK
10
11.5877631496062996
20
-6.2229214566929132
40
0.1181041696426784
50
97.08693901
51
121.65176584
0
LINE
8
BLACK
6
CONTINUOUS
10
7.1581062598425191
20
-3.9435379921259841
11
8.2553553937007873
21
-3.9435378346456691
0
LINE
8
BLACK
6
CONTINUOUS
10
3.8876742519685039
20
-6.1223849606299208
11
4.9938078740157481
21
-6.8042483070866142
0
ARC
8
BLACK
10
11.1239870078740157
20
-3.6202707086614172
40
0.1181106936553704
50
7.01676338
51
96.91999233
0
ARC
8
BLACK
10
11.9152362598425192
20
-3.9152835039370077
40
0.1181090760604
50
6.98756488
51
96.78951945
0
ARC
8
BLACK
10
8.2553575590551187
20
-3.8254449212598423
40
0.1180929115698494
50
-90.00105150
51
-83.32559655
0
LINE
8
BLACK
6
CONTINUOUS
10
5.0405358661417319
20
-6.8208275196850394
11
5.756575118110236
21
-6.9140618897637793
0
LINE
8
BLACK
6
CONTINUOUS
10
3.2386957086614174
20
-6.0309206299212601
11
3.8402694881889765
21
-6.105719488188976
0
ARC
8
BLACK
10
8.2584423228346449
20
-7.5478735433070865
40
0.1181052241355788
50
-90.00093967
51
-53.24713545
0
ARC
8
BLACK
10
6.3347309448818896
20
-3.8293014960629921
40
0.0787403001360755
50
-5.82630195
51
83.06156347
0
ARC
8
BLACK
10
7.1550223228346459
20
-7.5478657086614174
40
0.1181131399356436
50
-126.75178042
51
-90.00050852
0
LINE
8
BLACK
6
CONTINUOUS
10
3.5121885826771653
20
-3.7980027952755906
11
4.0225907480314964
21
-3.8587649212598425
0
LINE
8
BLACK
6
CONTINUOUS
10
6.514074842519685
20
-7.216624133858268
11
7.0843494094488184
21
-7.6425021259842518
0
LINE
8
BLACK
6
CONTINUOUS
10
11.2412131102362203
20
-3.6058423622047244
11
11.2596831102362209
21
-3.7559105905511809
0
LINE
8
BLACK
6
CONTINUOUS
10
11.3908709842519684
20
-3.858765
11
11.9012731496062987
21
-3.7980027165354331
0
LINE
8
BLACK
6
CONTINUOUS
10
5.6861413779527554
20
-3.6017218897637795
11
5.6768096062992122
21
-3.6699159055118109
0
ARC
8
BLACK
10
4.0365510236220468
20
-3.741480433070866
40
0.118112405366261
50
-96.78793500
51
-7.01757224
0
ARC
8
BLACK
10
5.0557846062992127
20
-6.70370905511811
40
0.1181069650615793
50
-121.65148359
51
-97.41815003
0
LINE
8
BLACK
6
CONTINUOUS
10
6.4130645275590545
20
-3.8372946850393701
11
6.4110615354330704
21
-3.8569236614173228
0
LINE
8
BLACK
6
CONTINUOUS
10
8.3291123228346446
20
-7.6425022834645668
11
8.8993868110236214
21
-7.2166240157480317
0
ARC
8
BLACK
10
5.741321929133858
20
-7.0311966141732283
40
0.118123679718573
50
68.25289790
51
82.58074033
0
ARC
8
BLACK
10
11.3769083858267717
20
-3.7414834251968503
40
0.1181097625716608
50
-172.98378054
51
-83.21079741
0
LINE
8
BLACK
6
CONTINUOUS
10
4.3037050787401574
20
-3.5030204330708661
11
4.9327150393700787
21
-3.5793646062992126
0
ARC
8
BLACK
10
7.1581029921259844
20
-3.8255039370078738
40
0.1180340172389
50
-96.67722097
51
-89.99842366
0
LINE
8
BLACK
6
CONTINUOUS
10
9.6568866141732279
20
-6.9140617716535431
11
10.3729258661417312
21
-6.8208274803149607
0
LINE
8
BLACK
6
CONTINUOUS
10
8.2690831496062991
20
-3.9427374803149604
11
9.0024001574803147
21
-3.856923779527559
0
ARC
8
BLACK
10
3.2532727559055119
20
-5.9137100393700788
40
0.1181135241814276
50
-186.98656360
51
-97.08926593
0
LINE
8
BLACK
6
CONTINUOUS
10
6.4110615354330704
20
-3.8569236614173228
11
7.1443785039370074
21
-3.9427373622047241
0
LINE
8
BLACK
6
CONTINUOUS
10
12.0324681102362199
20
-3.9009150787401574
11
12.2774253543307079
21
-5.8993431496062989
0
LINE
8
BLACK
6
CONTINUOUS
10
5.7850879921259839
20
-6.9214799999999999
11
6.4871660629921255
21
-7.2015542519685036
0
ARC
8
BLACK
10
5.5691175590551181
20
-3.5857118897637794
40
0.1181138730444541
50
-7.79024634
51
83.07794009
0
LINE
8
BLACK
6
CONTINUOUS
10
10.4718542125984246
20
-3.5089666535433071
11
10.4807466141732277
21
-3.5793646062992126
0
ARC
8
BLACK
10
8.9700652362204725
20
-7.3112703543307083
40
0.1181244195627722
50
111.74885070
51
126.75103808
0
LINE
8
BLACK
6
CONTINUOUS
10
3.1360362598425198
20
-5.8993431496062989
11
3.3809936220472441
21
-3.9009151181102362
0
ARC
8
BLACK
10
9.6721357086614166
20
-7.0311776771653545
40
0.1181045169407278
50
97.41847817
51
111.74866313
0
ARC
8
BLACK
10
3.8256968110236218
20
-6.2229251574803151
40
0.1181081650868578
50
58.34849078
51
82.91255490
0
ARC
8
BLACK
10
9.8443390944881894
20
-3.5857079527559055
40
0.1181094662002765
50
-263.08011834
51
-172.20752629
0
LINE
8
BLACK
6
CONTINUOUS
10
7.7738664566929137
20
-6.7476227559055113
11
7.7738664566929137
21
-6.8029646456692916
0
LINE
8
BLACK
6
CONTINUOUS
10
7.7382149999999994
20
-6.834348818897638
11
7.6756597244094484
21
-6.834348818897638
0
LINE
8
BLACK
6
CONTINUOUS
10
7.6756597244094484
20
-6.7162386220472436
11
7.7382150393700782
21
-6.7162386220472436
0
LINE
8
BLACK
6
CONTINUOUS
10
7.6400082677165351
20
-6.8029646456692916
11
7.6400082677165351
21
-6.7476227559055113
0
ARC
8
BLACK
10
7.7935510629921261
20
-6.8029646850393704
40
0.0196846447697649
50
-180.00021771
51
-154.29352610
0
ARC
8
BLACK
10
7.7580779133858266
20
-6.8200416535433073
40
0.019685025426707
50
-120.29940065
51
25.70642273
0
ARC
8
BLACK
10
7.7935510629921261
20
-6.7476226771653538
40
0.0196846447697061
50
-205.70647390
51
-179.99989688
0
ARC
8
BLACK
10
7.7580778740157479
20
-6.7305457086614169
40
0.0196850083495987
50
-25.70623142
51
120.29938546
0
ARC
8
BLACK
10
7.7382149212598428
20
-6.6965531889763774
40
0.0196853963808347
50
-89.99968504
51
-59.70101376
0
ARC
8
BLACK
10
7.7382149212598428
20
-6.8540342125984246
40
0.0196853963807361
50
59.70101376
51
89.99979963
0
ARC
8
BLACK
10
7.6756597637795272
20
-6.6965531496062987
40
0.0196853963808346
50
-120.29898624
51
-90.00031496
0
ARC
8
BLACK
10
7.6756598425196847
20
-6.8540342519685034
40
0.0196854598117699
50
90.00036495
51
120.29893626
0
ARC
8
BLACK
10
7.6557967322834646
20
-6.820041692913386
40
0.0196849659810517
50
-205.70645790
51
-59.70030001
0
ARC
8
BLACK
10
7.6203090157480311
20
-6.802961377952756
40
0.0196992372439743
50
-25.69678984
51
-0.00958094
0
ARC
8
BLACK
10
7.6557968110236221
20
-6.7305456692913381
40
0.0196850168881368
50
-300.29939305
51
-154.29367293
0
ARC
8
BLACK
10
7.6203236614173226
20
-6.747622637795275
40
0.0196845867907916
50
-0.00025622
51
25.70651241
0
LINE
8
BLACK
6
CONTINUOUS
10
7.7738664960629915
20
-5.9602211811023622
11
7.7738664960629915
21
-6.0155630708661416
0
LINE
8
BLACK
6
CONTINUOUS
10
7.7382150393700782
20
-6.046947244094488
11
7.6756597637795272
21
-6.046947244094488
0
LINE
8
BLACK
6
CONTINUOUS
10
7.6756597637795272
20
-5.9288370472440945
11
7.7382150787401569
21
-5.9288370472440945
0
LINE
8
BLACK
6
CONTINUOUS
10
7.6400083070866138
20
-6.0155630708661416
11
7.6400083070866138
21
-5.9602211811023622
0
ARC
8
BLACK
10
7.7935511023622048
20
-6.0155631102362204
40
0.0196846447697649
50
-180.00021771
51
-154.29352610
0
ARC
8
BLACK
10
7.7580779527559054
20
-6.0326400787401573
40
0.019685025426707
50
-120.29940065
51
25.70642273
0
ARC
8
BLACK
10
7.7935511023622048
20
-5.9602211023622047
40
0.0196846447697061
50
-205.70647390
51
-179.99989688
0
ARC
8
BLACK
10
7.7580779133858266
20
-5.9431441338582678
40
0.0196850083495987
50
-25.70623142
51
120.29938546
0
ARC
8
BLACK
10
7.7382149606299206
20
-5.9091516141732283
40
0.0196853963808347
50
-89.99968504
51
-59.70101376
0
ARC
8
BLACK
10
7.7382149606299206
20
-6.0666326377952755
40
0.0196853963807361
50
59.70101376
51
89.99979963
0
ARC
8
BLACK
10
7.6756598031496059
20
-5.9091515748031496
40
0.0196853963808346
50
-120.29898624
51
-90.00031496
0
ARC
8
BLACK
10
7.6756598818897634
20
-6.0666326771653543
40
0.0196854598117699
50
90.00036495
51
120.29893626
0
ARC
8
BLACK
10
7.6557967716535433
20
-6.032640118110236
40
0.0196849659810517
50
-205.70645790
51
-59.70030001
0
ARC
8
BLACK
10
7.6203090551181099
20
-6.015559803149606
40
0.0196992372439743
50
-25.69678984
51
-0.00958094
0
ARC
8
BLACK
10
7.6557968503937008
20
-5.943144094488189
40
0.0196850168881368
50
-300.29939305
51
-154.29367293
0
ARC
8
BLACK
10
7.6203237007874014
20
-5.960221062992126
40
0.0196845867907916
50
-0.00025622
51
25.70651241
0
LINE
8
BLACK
6
CONTINUOUS
10
7.7738663779527561
20
-6.3539221259842522
11
7.7738663779527561
21
-6.4092640157480316
0
LINE
8
BLACK
6
CONTINUOUS
10
7.7382149212598428
20
-6.440648188976378
11
7.6756596456692909
21
-6.440648188976378
0
LINE
8
BLACK
6
CONTINUOUS
10
7.6756596456692909
20
-6.3225379921259846
11
7.7382149606299206
21
-6.3225379921259846
0
LINE
8
BLACK
6
CONTINUOUS
10
7.6400081889763776
20
-6.4092640157480316
11
7.6400081889763776
21
-6.3539221259842522
0
ARC
8
BLACK
10
7.7935509842519686
20
-6.4092640551181104
40
0.0196846447697649
50
-180.00021771
51
-154.29352610
0
ARC
8
BLACK
10
7.7580778346456691
20
-6.4263410236220473
40
0.019685025426707
50
-120.29940065
51
25.70642273
0
ARC
8
BLACK
10
7.7935509842519686
20
-6.3539220472440947
40
0.0196846447697061
50
-205.70647390
51
-179.99989688
0
ARC
8
BLACK
10
7.7580777952755904
20
-6.3368450787401569
40
0.0196850083495987
50
-25.70623142
51
120.29938546
0
ARC
8
BLACK
10
7.7382148425196853
20
-6.3028525590551183
40
0.0196853963808347
50
-89.99968504
51
-59.70101376
0
ARC
8
BLACK
10
7.7382148425196853
20
-6.4603335826771655
40
0.0196853963807361
50
59.70101376
51
89.99979963
0
ARC
8
BLACK
10
7.6756596850393697
20
-6.3028525196850396
40
0.0196853963808346
50
-120.29898624
51
-90.00031496
0
ARC
8
BLACK
10
7.6756597637795272
20
-6.4603336220472443
40
0.0196854598117699
50
90.00036495
51
120.29893626
0
ARC
8
BLACK
10
7.6557966535433071
20
-6.426341062992126
40
0.0196849659810517
50
-205.70645790
51
-59.70030001
0
ARC
8
BLACK
10
7.6203089370078736
20
-6.409260748031496
40
0.0196992372439743
50
-25.69678984
51
-0.00958094
0
ARC
8
BLACK
10
7.6557967322834646
20
-6.336845039370079
40
0.0196850168881368
50
-300.29939305
51
-154.29367293
0
ARC
8
BLACK
10
7.6203235826771651
20
-6.353922007874016
40
0.0196845867907916
50
-0.00025622
51
25.70651241
0
LINE
8
BLACK
6
CONTINUOUS
10
3.3061549606299212
20
-5.6312449999999998
11
3.3750525984251967
21
-5.7001426377952757
0
LINE
8
BLACK
6
CONTINUOUS
10
3.3750525984251967
20
-5.6312449999999998
11
3.3061549606299212
21
-5.7001426377952757
0
LINE
8
BLACK
6
CONTINUOUS
10
3.3975512992125982
20
-4.8868822834645664
11
3.4664489370078742
21
-4.9557799212598423
0
LINE
8
BLACK
6
CONTINUOUS
10
3.4664489370078742
20
-4.8868822834645664
11
3.3975512992125982
21
-4.9557799212598423
0
LINE
8
BLACK
6
CONTINUOUS
10
3.4889475590551182
20
-4.1425195669291339
11
3.5578451968503937
21
-4.2114172047244089
0
LINE
8
BLACK
6
CONTINUOUS
10
3.5578451968503937
20
-4.1425195669291339
11
3.4889475590551182
21
-4.2114172047244089
0
LINE
8
BLACK
6
CONTINUOUS
10
3.7031733858267715
20
-5.6799927165354331
11
3.7720710236220469
21
-5.7488903543307082
0
LINE
8
BLACK
6
CONTINUOUS
10
3.7720710236220469
20
-5.6799927165354331
11
3.7031733858267715
21
-5.7488903543307082
0
LINE
8
BLACK
6
CONTINUOUS
10
3.794569724409449
20
-4.9356299999999997
11
3.8634673622047244
21
-5.0045276377952757
0
LINE
8
BLACK
6
CONTINUOUS
10
3.8634673622047244
20
-4.9356299999999997
11
3.794569724409449
21
-5.0045276377952757
0
LINE
8
BLACK
6
CONTINUOUS
10
3.8859659842519685
20
-4.1912672834645672
11
3.954863622047244
21
-4.2601649212598423
0
LINE
8
BLACK
6
CONTINUOUS
10
3.954863622047244
20
-4.1912672834645672
11
3.8859659842519685
21
-4.2601649212598423
0
LINE
8
BLACK
6
CONTINUOUS
10
4.0978980708661412
20
-5.3367596850393699
11
4.1667957086614171
21
-5.4056573228346458
0
LINE
8
BLACK
6
CONTINUOUS
10
4.1667957086614171
20
-5.3367596850393699
11
4.0978980708661412
21
-5.4056573228346458
0
LINE
8
BLACK
6
CONTINUOUS
10
4.1892942913385829
20
-4.5923970078740153
11
4.2581919291338579
21
-4.6612946456692912
0
LINE
8
BLACK
6
CONTINUOUS
10
4.2581919291338579
20
-4.5923970078740153
11
4.1892942913385829
21
-4.6612946456692912
0
LINE
8
BLACK
6
CONTINUOUS
10
4.2806906299212599
20
-3.848034251968504
11
4.349588267716535
21
-3.9169318897637795
0
LINE
8
BLACK
6
CONTINUOUS
10
4.349588267716535
20
-3.848034251968504
11
4.2806906299212599
21
-3.9169318897637795
0
LINE
8
BLACK
6
CONTINUOUS
10
4.4949164960629924
20
-5.3855074015748032
11
4.5638141338582674
21
-5.4544050393700783
0
LINE
8
BLACK
6
CONTINUOUS
10
4.5638141338582674
20
-5.3855074015748032
11
4.4949164960629924
21
-5.4544050393700783
0
LINE
8
BLACK
6
CONTINUOUS
10
4.5863127165354332
20
-4.6411447244094486
11
4.6552103543307082
21
-4.7100423622047245
0
LINE
8
BLACK
6
CONTINUOUS
10
4.6552103543307082
20
-4.6411447244094486
11
4.5863127165354332
21
-4.7100423622047245
0
LINE
8
BLACK
6
CONTINUOUS
10
4.6777090551181102
20
-3.8967819685039369
11
4.7466066929133861
21
-3.9656796062992123
0
LINE
8
BLACK
6
CONTINUOUS
10
4.7466066929133861
20
-3.8967819685039369
11
4.6777090551181102
21
-3.9656796062992123
0
LINE
8
BLACK
6
CONTINUOUS
10
4.8650513385826768
20
-5.2425420078740155
11
4.9339489763779527
21
-5.3114396456692914
0
LINE
8
BLACK
6
CONTINUOUS
10
4.9339489763779527
20
-5.2425420078740155
11
4.8650513385826768
21
-5.3114396456692914
0
LINE
8
BLACK
6
CONTINUOUS
10
4.9564475590551176
20
-4.4981793307086617
11
5.0253451968503935
21
-4.5670769685039367
0
LINE
8
BLACK
6
CONTINUOUS
10
5.0253451968503935
20
-4.4981793307086617
11
4.9564475590551176
21
-4.5670769685039367
0
LINE
8
BLACK
6
CONTINUOUS
10
5.0478437795275592
20
-3.7538165354330708
11
5.1167414173228343
21
-3.8227141732283463
0
LINE
8
BLACK
6
CONTINUOUS
10
5.1167414173228343
20
-3.7538165354330708
11
5.0478437795275592
21
-3.8227141732283463
0
LINE
8
BLACK
6
CONTINUOUS
10
5.1997984645669293
20
-6.43270842519685
11
5.2686961023622043
21
-6.501606062992126
0
LINE
8
BLACK
6
CONTINUOUS
10
5.2686961023622043
20
-6.43270842519685
11
5.1997984645669293
21
-6.501606062992126
0
LINE
8
BLACK
6
CONTINUOUS
10
5.2620697637795271
20
-5.2912897244094488
11
5.330967401574803
21
-5.3601873622047247
0
LINE
8
BLACK
6
CONTINUOUS
10
5.330967401574803
20
-5.2912897244094488
11
5.2620697637795271
21
-5.3601873622047247
0
LINE
8
BLACK
6
CONTINUOUS
10
5.3534659842519687
20
-4.5469270472440941
11
5.4223636220472438
21
-4.61582468503937
0
LINE
8
BLACK
6
CONTINUOUS
10
5.4223636220472438
20
-4.5469270472440941
11
5.3534659842519687
21
-4.61582468503937
0
LINE
8
BLACK
6
CONTINUOUS
10
5.4448622047244095
20
-3.8025642519685037
11
5.5137598425196845
21
-3.8714618897637796
0
LINE
8
BLACK
6
CONTINUOUS
10
5.5137598425196845
20
-3.8025642519685037
11
5.4448622047244095
21
-3.8714618897637796
0
LINE
8
BLACK
6
CONTINUOUS
10
5.5866234251968505
20
-5.5195521653543302
11
5.6555210629921255
21
-5.5884498031496062
0
LINE
8
BLACK
6
CONTINUOUS
10
5.6555210629921255
20
-5.5195521653543302
11
5.5866234251968505
21
-5.5884498031496062
0
LINE
8
BLACK
6
CONTINUOUS
10
5.5968168897637796
20
-6.4814561417322833
11
5.6657145275590546
21
-6.5503537795275593
0
LINE
8
BLACK
6
CONTINUOUS
10
5.6657145275590546
20
-6.4814561417322833
11
5.5968168897637796
21
-6.5503537795275593
0
LINE
8
BLACK
6
CONTINUOUS
10
5.67801968503937
20
-4.775189409448819
11
5.746917322834646
21
-4.844087047244094
0
LINE
8
BLACK
6
CONTINUOUS
10
5.746917322834646
20
-4.775189409448819
11
5.67801968503937
21
-4.844087047244094
0
LINE
8
BLACK
6
CONTINUOUS
10
5.7694159842519683
20
-4.0308266929133856
11
5.8383136220472442
21
-4.0997243307086615
0
LINE
8
BLACK
6
CONTINUOUS
10
5.8383136220472442
20
-4.0308266929133856
11
5.7694159842519683
21
-4.0997243307086615
0
LINE
8
BLACK
6
CONTINUOUS
10
5.9836418503937008
20
-5.5682998818897635
11
6.0525394881889758
21
-5.6371975196850395
0
LINE
8
BLACK
6
CONTINUOUS
10
6.0525394881889758
20
-5.5682998818897635
11
5.9836418503937008
21
-5.6371975196850395
0
LINE
8
BLACK
6
CONTINUOUS
10
6.0586856299212597
20
-6.6029243307086611
11
6.1275832677165356
21
-6.6718219685039371
0
LINE
8
BLACK
6
CONTINUOUS
10
6.1275832677165356
20
-6.6029243307086611
11
6.0586856299212597
21
-6.6718219685039371
0
LINE
8
BLACK
6
CONTINUOUS
10
6.0750381102362203
20
-4.8239371259842523
11
6.1439357480314962
21
-4.8928347637795273
0
LINE
8
BLACK
6
CONTINUOUS
10
6.1439357480314962
20
-4.8239371259842523
11
6.0750381102362203
21
-4.8928347637795273
0
LINE
8
BLACK
6
CONTINUOUS
10
6.1664344094488186
20
-4.0795744094488189
11
6.2353320472440945
21
-4.1484720472440948
0
LINE
8
BLACK
6
CONTINUOUS
10
6.2353320472440945
20
-4.0795744094488189
11
6.1664344094488186
21
-4.1484720472440948
0
LINE
8
BLACK
6
CONTINUOUS
10
6.3195909055118111
20
-5.7037553937007877
11
6.3884885433070862
21
-5.7726530314960627
0
LINE
8
BLACK
6
CONTINUOUS
10
6.3884885433070862
20
-5.7037553937007877
11
6.3195909055118111
21
-5.7726530314960627
0
LINE
8
BLACK
6
CONTINUOUS
10
6.4109872834645669
20
-4.9593926771653543
11
6.4798849212598419
21
-5.0282903149606302
0
LINE
8
BLACK
6
CONTINUOUS
10
6.4798849212598419
20
-4.9593926771653543
11
6.4109872834645669
21
-5.0282903149606302
0
LINE
8
BLACK
6
CONTINUOUS
10
6.4295591732283466
20
-6.7527669291338581
11
6.4984568110236216
21
-6.821664566929134
0
LINE
8
BLACK
6
CONTINUOUS
10
6.4984568110236216
20
-6.7527669291338581
11
6.4295591732283466
21
-6.821664566929134
0
LINE
8
BLACK
6
CONTINUOUS
10
6.502383464566929
20
-4.2150299606299209
11
6.5712811023622049
21
-4.2839275984251968
0
LINE
8
BLACK
6
CONTINUOUS
10
6.5712811023622049
20
-4.2150299606299209
11
6.502383464566929
21
-4.2839275984251968
0
LINE
8
BLACK
6
CONTINUOUS
10
6.7166093307086614
20
-5.7525031102362201
11
6.7855069685039364
21
-5.821400748031496
0
LINE
8
BLACK
6
CONTINUOUS
10
6.7855069685039364
20
-5.7525031102362201
11
6.7166093307086614
21
-5.821400748031496
0
LINE
8
BLACK
6
CONTINUOUS
10
6.8080057086614172
20
-5.0081403937007876
11
6.8769033464566931
21
-5.0770380314960626
0
LINE
8
BLACK
6
CONTINUOUS
10
6.8769033464566931
20
-5.0081403937007876
11
6.8080057086614172
21
-5.0770380314960626
0
LINE
8
BLACK
6
CONTINUOUS
10
6.8462348818897638
20
-6.9841522047244089
11
6.9151325196850388
21
-7.0530498425196848
0
LINE
8
BLACK
6
CONTINUOUS
10
6.9151325196850388
20
-6.9841522047244089
11
6.8462348818897638
21
-7.0530498425196848
0
LINE
8
BLACK
6
CONTINUOUS
10
6.8994018897637792
20
-4.2637776771653542
11
6.9682995275590551
21
-4.3326753149606301
0
LINE
8
BLACK
6
CONTINUOUS
10
6.9682995275590551
20
-4.2637776771653542
11
6.8994018897637792
21
-4.3326753149606301
0
LINE
8
BLACK
6
CONTINUOUS
10
7.1656890551181105
20
-7.224878188976378
11
7.2345866929133855
21
-7.293775826771653
0
LINE
8
BLACK
6
CONTINUOUS
10
7.2345866929133855
20
-7.224878188976378
11
7.1656890551181105
21
-7.293775826771653
0
LINE
8
BLACK
6
CONTINUOUS
10
8.1800691732283468
20
-7.2268404724409443
11
8.2489668110236227
21
-7.2957381102362202
0
LINE
8
BLACK
6
CONTINUOUS
10
8.2489668110236227
20
-7.2268404724409443
11
8.1800691732283468
21
-7.2957381102362202
0
LINE
8
BLACK
6
CONTINUOUS
10
8.4455751181102361
20
-4.2637777165354329
11
8.514472755905512
21
-4.3326753543307088
0
LINE
8
BLACK
6
CONTINUOUS
10
8.514472755905512
20
-4.2637777165354329
11
8.4455751181102361
21
-4.3326753543307088
0
LINE
8
BLACK
6
CONTINUOUS
10
8.4995233464566926
20
-6.9861144881889761
11
8.5684209842519685
21
-7.055012125984252
0
LINE
8
BLACK
6
CONTINUOUS
10
8.5684209842519685
20
-6.9861144881889761
11
8.4995233464566926
21
-7.055012125984252
0
LINE
8
BLACK
6
CONTINUOUS
10
8.5369713779527565
20
-5.0081404330708663
11
8.6058690157480306
21
-5.0770380708661413
0
LINE
8
BLACK
6
CONTINUOUS
10
8.6058690157480306
20
-5.0081404330708663
11
8.5369713779527565
21
-5.0770380708661413
0
LINE
8
BLACK
6
CONTINUOUS
10
8.6283676771653539
20
-5.7525031496062988
11
8.6972653149606298
21
-5.8214007874015747
0
LINE
8
BLACK
6
CONTINUOUS
10
8.6972653149606298
20
-5.7525031496062988
11
8.6283676771653539
21
-5.8214007874015747
0
LINE
8
BLACK
6
CONTINUOUS
10
8.8425935433070872
20
-4.2150299999999996
11
8.9114911811023614
21
-4.2839276377952755
0
LINE
8
BLACK
6
CONTINUOUS
10
8.9114911811023614
20
-4.2150299999999996
11
8.8425935433070872
21
-4.2839276377952755
0
LINE
8
BLACK
6
CONTINUOUS
10
8.9162098425196845
20
-6.7547410629921254
11
8.9851074803149604
21
-6.8236387007874013
0
LINE
8
BLACK
6
CONTINUOUS
10
8.9851074803149604
20
-6.7547410629921254
11
8.9162098425196845
21
-6.8236387007874013
0
LINE
8
BLACK
6
CONTINUOUS
10
8.9339898031496059
20
-4.959392716535433
11
9.0028874409448818
21
-5.0282903543307089
0
LINE
8
BLACK
6
CONTINUOUS
10
9.0028874409448818
20
-4.959392716535433
11
8.9339898031496059
21
-5.0282903543307089
0
LINE
8
BLACK
6
CONTINUOUS
10
9.0253861023622051
20
-5.7037554330708664
11
9.094283740157481
21
-5.7726530708661414
0
LINE
8
BLACK
6
CONTINUOUS
10
9.094283740157481
20
-5.7037554330708664
11
9.0253861023622051
21
-5.7726530708661414
0
LINE
8
BLACK
6
CONTINUOUS
10
9.1785426771653533
20
-4.0795744094488189
11
9.2474403149606292
21
-4.1484720472440948
0
LINE
8
BLACK
6
CONTINUOUS
10
9.2474403149606292
20
-4.0795744094488189
11
9.1785426771653533
21
-4.1484720472440948
0
LINE
8
BLACK
6
CONTINUOUS
10
9.269938897637795
20
-4.8239371259842523
11
9.3388365354330709
21
-4.8928347637795273
0
LINE
8
BLACK
6
CONTINUOUS
10
9.3388365354330709
20
-4.8239371259842523
11
9.269938897637795
21
-4.8928347637795273
0
LINE
8
BLACK
6
CONTINUOUS
10
9.2870833858267723
20
-6.6048984645669293
11
9.3559810236220464
21
-6.6737961023622043
0
LINE
8
BLACK
6
CONTINUOUS
10
9.3559810236220464
20
-6.6048984645669293
11
9.2870833858267723
21
-6.6737961023622043
0
LINE
8
BLACK
6
CONTINUOUS
10
9.3613351968503942
20
-5.5682998818897635
11
9.4302328346456683
21
-5.6371975196850395
0
LINE
8
BLACK
6
CONTINUOUS
10
9.4302328346456683
20
-5.5682998818897635
11
9.3613351968503942
21
-5.6371975196850395
0
LINE
8
BLACK
6
CONTINUOUS
10
9.5755611023622045
20
-4.0308266929133856
11
9.6444587401574804
21
-4.0997243307086615
0
LINE
8
BLACK
6
CONTINUOUS
10
9.6444587401574804
20
-4.0308266929133856
11
9.5755611023622045
21
-4.0997243307086615
0
LINE
8
BLACK
6
CONTINUOUS
10
9.6669573228346461
20
-4.775189409448819
11
9.7358549606299203
21
-4.844087047244094
0
LINE
8
BLACK
6
CONTINUOUS
10
9.7358549606299203
20
-4.775189409448819
11
9.6669573228346461
21
-4.844087047244094
0
LINE
8
BLACK
6
CONTINUOUS
10
9.7481602755905516
20
-6.4814561417322833
11
9.8170579133858258
21
-6.5503537795275593
0
LINE
8
BLACK
6
CONTINUOUS
10
9.8170579133858258
20
-6.4814561417322833
11
9.7481602755905516
21
-6.5503537795275593
0
LINE
8
BLACK
6
CONTINUOUS
10
9.7583536220472435
20
-5.5195521653543302
11
9.8272512598425195
21
-5.5884498031496062
0
LINE
8
BLACK
6
CONTINUOUS
10
9.8272512598425195
20
-5.5195521653543302
11
9.7583536220472435
21
-5.5884498031496062
0
LINE
8
BLACK
6
CONTINUOUS
10
9.9001148818897633
20
-3.8025642519685037
11
9.9690125196850392
21
-3.8714618897637796
0
LINE
8
BLACK
6
CONTINUOUS
10
9.9690125196850392
20
-3.8025642519685037
11
9.9001148818897633
21
-3.8714618897637796
0
LINE
8
BLACK
6
CONTINUOUS
10
9.9915110629921262
20
-4.5469270078740154
11
10.0604087007874021
21
-4.6158246456692913
0
LINE
8
BLACK
6
CONTINUOUS
10
10.0604087007874021
20
-4.5469270078740154
11
9.9915110629921262
21
-4.6158246456692913
0
LINE
8
BLACK
6
CONTINUOUS
10
10.0829072047244086
20
-5.2912898818897638
11
10.1518048425196845
21
-5.3601875196850388
0
LINE
8
BLACK
6
CONTINUOUS
10
10.1518048425196845
20
-5.2912898818897638
11
10.0829072047244086
21
-5.3601875196850388
0
LINE
8
BLACK
6
CONTINUOUS
10
10.145178700787401
20
-6.43270842519685
11
10.2140763385826769
21
-6.501606062992126
0
LINE
8
BLACK
6
CONTINUOUS
10
10.2140763385826769
20
-6.43270842519685
11
10.145178700787401
21
-6.501606062992126
0
LINE
8
BLACK
6
CONTINUOUS
10
10.2971333070866145
20
-3.7538165354330708
11
10.3660309448818904
21
-3.8227141732283463
0
LINE
8
BLACK
6
CONTINUOUS
10
10.3660309448818904
20
-3.7538165354330708
11
10.2971333070866145
21
-3.8227141732283463
0
LINE
8
BLACK
6
CONTINUOUS
10
10.3885294881889756
20
-4.498179291338583
11
10.4574271259842515
21
-4.567076929133858
0
LINE
8
BLACK
6
CONTINUOUS
10
10.4574271259842515
20
-4.498179291338583
11
10.3885294881889756
21
-4.567076929133858
0
LINE
8
BLACK
6
CONTINUOUS
10
10.4799256299212598
20
-5.2425421653543305
11
10.5488232677165357
21
-5.3114398031496064
0
LINE
8
BLACK
6
CONTINUOUS
10
10.5488232677165357
20
-5.2425421653543305
11
10.4799256299212598
21
-5.3114398031496064
0
LINE
8
BLACK
6
CONTINUOUS
10
10.6672681102362201
20
-3.8967819685039369
11
10.736165748031496
21
-3.9656796062992123
0
LINE
8
BLACK
6
CONTINUOUS
10
10.736165748031496
20
-3.8967819685039369
11
10.6672681102362201
21
-3.9656796062992123
0
LINE
8
BLACK
6
CONTINUOUS
10
10.7586644094488193
20
-4.6411446850393698
11
10.8275620472440934
21
-4.7100423228346457
0
LINE
8
BLACK
6
CONTINUOUS
10
10.8275620472440934
20
-4.6411446850393698
11
10.7586644094488193
21
-4.7100423228346457
0
LINE
8
BLACK
6
CONTINUOUS
10
10.8500606692913379
20
-5.3855074803149607
11
10.9189583070866139
21
-5.4544051181102358
0
LINE
8
BLACK
6
CONTINUOUS
10
10.9189583070866139
20
-5.3855074803149607
11
10.8500606692913379
21
-5.4544051181102358
0
LINE
8
BLACK
6
CONTINUOUS
10
11.0642865354330713
20
-3.848034251968504
11
11.1331841732283454
21
-3.9169318897637795
0
LINE
8
BLACK
6
CONTINUOUS
10
11.1331841732283454
20
-3.848034251968504
11
11.0642865354330713
21
-3.9169318897637795
0
LINE
8
BLACK
6
CONTINUOUS
10
11.1556828346456687
20
-4.5923969685039365
11
11.2245804724409446
21
-4.6612946062992124
0
LINE
8
BLACK
6
CONTINUOUS
10
11.2245804724409446
20
-4.5923969685039365
11
11.1556828346456687
21
-4.6612946062992124
0
LINE
8
BLACK
6
CONTINUOUS
10
11.2470790944881891
20
-5.3367597637795274
11
11.315976732283465
21
-5.4056574015748033
0
LINE
8
BLACK
6
CONTINUOUS
10
11.315976732283465
20
-5.3367597637795274
11
11.2470790944881891
21
-5.4056574015748033
0
LINE
8
BLACK
6
CONTINUOUS
10
11.4590111811023618
20
-4.1912672834645672
11
11.5279088188976377
21
-4.2601649212598423
0
LINE
8
BLACK
6
CONTINUOUS
10
11.5279088188976377
20
-4.1912672834645672
11
11.4590111811023618
21
-4.2601649212598423
0
LINE
8
BLACK
6
CONTINUOUS
10
11.5504074015748035
20
-4.9356299999999997
11
11.6193050393700776
21
-5.0045276377952757
0
LINE
8
BLACK
6
CONTINUOUS
10
11.6193050393700776
20
-4.9356299999999997
11
11.5504074015748035
21
-5.0045276377952757
0
LINE
8
BLACK
6
CONTINUOUS
10
11.6418036220472434
20
-5.6799927559055119
11
11.7107012598425193
21
-5.7488903937007869
0
LINE
8
BLACK
6
CONTINUOUS
10
11.7107012598425193
20
-5.6799927559055119
11
11.6418036220472434
21
-5.7488903937007869
0
LINE
8
BLACK
6
CONTINUOUS
10
11.856029606299213
20
-4.1425195669291339
11
11.9249272440944871
21
-4.2114172047244089
0
LINE
8
BLACK
6
CONTINUOUS
10
11.9249272440944871
20
-4.1425195669291339
11
11.856029606299213
21
-4.2114172047244089
0
LINE
8
BLACK
6
CONTINUOUS
10
11.9474258267716529
20
-4.8868822834645664
11
12.0163234645669288
21
-4.9557799212598423
0
LINE
8
BLACK
6
CONTINUOUS
10
12.0163234645669288
20
-4.8868822834645664
11
11.9474258267716529
21
-4.9557799212598423
0
LINE
8
BLACK
6
CONTINUOUS
10
12.0388220472440945
20
-5.6312450393700786
11
12.1077196850393705
21
-5.7001426771653545
0
LINE
8
BLACK
6
CONTINUOUS
10
12.1077196850393705
20
-5.6312450393700786
11
12.0388220472440945
21
-5.7001426771653545
0
CIRCLE
8
BLACK
10
3.5391129921259843
20
-5.690067677165354
40
0.0785
0
CIRCLE
8
BLACK
10
3.6305093307086613
20
-4.9457049606299215
40
0.0785
0
CIRCLE
8
BLACK
10
3.7219055905511809
20
-4.2013422440944881
40
0.0785
0
CIRCLE
8
BLACK
10
4.3308561023622048
20
-5.3955823622047241
40
0.0785
0
CIRCLE
8
BLACK
10
4.4222523228346455
20
-4.6512196850393703
40
0.0785
0
CIRCLE
8
BLACK
10
4.5136486614173226
20
-3.9068569291338582
40
0.0785
0
CIRCLE
8
BLACK
10
5.0980093700787403
20
-5.3013646850393696
40
0.0785
0
CIRCLE
8
BLACK
10
5.1894055905511811
20
-4.5570020078740159
40
0.0785
0
CIRCLE
8
BLACK
10
5.2808018110236219
20
-3.812639212598425
40
0.0785
0
CIRCLE
8
BLACK
10
5.4327564960629919
20
-6.4915311023622042
40
0.0785
0
CIRCLE
8
BLACK
10
5.8195814566929132
20
-5.5783748425196853
40
0.0785
0
CIRCLE
8
BLACK
10
5.9109777165354327
20
-4.8340120866141731
40
0.0785
0
CIRCLE
8
BLACK
10
6.002374015748031
20
-4.0896493700787397
40
0.0785
0
CIRCLE
8
BLACK
10
6.2785712204724407
20
-6.7122944488188976
40
0.0785
0
CIRCLE
8
BLACK
10
6.5525489370078738
20
-5.7625780708661418
40
0.0785
0
CIRCLE
8
BLACK
10
6.6439453149606296
20
-5.0182153543307084
40
0.0785
0
CIRCLE
8
BLACK
10
6.7353414960629916
20
-4.2738526377952759
40
0.0785
0
CIRCLE
8
BLACK
10
7.0404107874015747
20
-7.138964015748031
40
0.0785
0
CIRCLE
8
BLACK
10
8.3742450787401577
20
-7.1409262992125981
40
0.0785
0
CIRCLE
8
BLACK
10
8.6785331496062987
20
-4.2738526771653547
40
0.0785
0
CIRCLE
8
BLACK
10
8.7699294094488192
20
-5.0182153937007872
40
0.0785
0
CIRCLE
8
BLACK
10
8.8613257086614166
20
-5.7625781102362206
40
0.0785
0
CIRCLE
8
BLACK
10
9.1360954330708655
20
-6.7142685826771649
40
0.0785
0
CIRCLE
8
BLACK
10
9.4115007086614177
20
-4.0896493700787397
40
0.0785
0
CIRCLE
8
BLACK
10
9.5028969291338576
20
-4.8340120866141731
40
0.0785
0
CIRCLE
8
BLACK
10
9.5942932283464568
20
-5.5783748425196853
40
0.0785
0
CIRCLE
8
BLACK
10
9.9811183070866143
20
-6.4915311023622042
40
0.0785
0
CIRCLE
8
BLACK
10
10.1330729133858259
20
-3.812639212598425
40
0.0785
0
CIRCLE
8
BLACK
10
10.2244690944881889
20
-4.5570019685039371
40
0.0785
0
CIRCLE
8
BLACK
10
10.315865236220473
20
-5.3013648425196847
40
0.0785
0
CIRCLE
8
BLACK
10
10.9002261417322828
20
-3.9068569291338582
40
0.0785
0
CIRCLE
8
BLACK
10
10.9916224409448819
20
-4.6512196456692916
40
0.0785
0
CIRCLE
8
BLACK
10
11.0830187007874006
20
-5.3955824409448816
40
0.0785
0
CIRCLE
8
BLACK
10
11.6919692125984245
20
-4.2013422440944881
40
0.0785
0
CIRCLE
8
BLACK
10
11.7833654330708661
20
-4.9457049606299215
40
0.0785
0
CIRCLE
8
BLACK
10
11.874761653543306
20
-5.6900677165354328
40
0.0785
0
LINE
8
BLACK
6
CONTINUOUS
10
3.2358563779527558
20
-7.7905796062992128
11
3.2358563779527558
21
-7.711839448818897
0
LINE
8
BLACK
6
CONTINUOUS
10
3.2358563779527558
20
-7.711839448818897
11
3.2546040157480314
21
-7.711839448818897
0
LINE
8
BLACK
6
CONTINUOUS
10
3.2546040157480314
20
-7.711839448818897
11
3.2658526377952755
21
-7.7155889763779522
0
LINE
8
BLACK
6
CONTINUOUS
10
3.2658526377952755
20
-7.7155889763779522
11
3.2733516929133857
21
-7.7230880314960624
0
LINE
8
BLACK
6
CONTINUOUS
10
3.2733516929133857
20
-7.7230880314960624
11
3.2771012204724408
21
-7.7305870866141735
0
LINE
8
BLACK
6
CONTINUOUS
10
3.2771012204724408
20
-7.7305870866141735
11
3.2808507480314959
21
-7.7455851968503939
0
LINE
8
BLACK
6
CONTINUOUS
10
3.2808507480314959
20
-7.7455851968503939
11
3.2808507480314959
21
-7.756833818897638
0
LINE
8
BLACK
6
CONTINUOUS
10
3.2808507480314959
20
-7.756833818897638
11
3.2771012204724408
21
-7.7718319291338585
0
LINE
8
BLACK
6
CONTINUOUS
10
3.2771012204724408
20
-7.7718319291338585
11
3.2733516929133857
21
-7.7793309842519687
0
LINE
8
BLACK
6
CONTINUOUS
10
3.2733516929133857
20
-7.7793309842519687
11
3.2658526377952755
21
-7.7868300787401576
0
LINE
8
BLACK
6
CONTINUOUS
10
3.2658526377952755
20
-7.7868300787401576
11
3.2546040157480314
21
-7.7905796062992128
0
LINE
8
BLACK
6
CONTINUOUS
10
3.2546040157480314
20
-7.7905796062992128
11
3.2358563779527558
21
-7.7905796062992128
0
LINE
8
BLACK
6
CONTINUOUS
10
3.3145965354330706
20
-7.7905796062992128
11
3.3145965354330706
21
-7.7380861417322837
0
LINE
8
BLACK
6
CONTINUOUS
10
3.3145965354330706
20
-7.7530842913385829
11
3.3183460629921258
21
-7.7455851968503939
0
LINE
8
BLACK
6
CONTINUOUS
10
3.3183460629921258
20
-7.7455851968503939
11
3.3220955905511809
21
-7.7418356692913388
0
LINE
8
BLACK
6
CONTINUOUS
10
3.3220955905511809
20
-7.7418356692913388
11
3.3295946456692911
21
-7.7380861417322837
0
LINE
8
BLACK
6
CONTINUOUS
10
3.3295946456692911
20
-7.7380861417322837
11
3.3370937401574801
21
-7.7380861417322837
0
LINE
8
BLACK
6
CONTINUOUS
10
3.3633404330708663
20
-7.7905796062992128
11
3.3633404330708663
21
-7.7380861417322837
0
LINE
8
BLACK
6
CONTINUOUS
10
3.3633404330708663
20
-7.711839448818897
11
3.3595909055118112
21
-7.7155889763779522
0
LINE
8
BLACK
6
CONTINUOUS
10
3.3595909055118112
20
-7.7155889763779522
11
3.3633404330708663
21
-7.7193385039370073
0
LINE
8
BLACK
6
CONTINUOUS
10
3.3633404330708663
20
-7.7193385039370073
11
3.3670899606299214
21
-7.7155889763779522
0
LINE
8
BLACK
6
CONTINUOUS
10
3.3670899606299214
20
-7.7155889763779522
11
3.3633404330708663
21
-7.711839448818897
0
LINE
8
BLACK
6
CONTINUOUS
10
3.3633404330708663
20
-7.711839448818897
11
3.3633404330708663
21
-7.7193385039370073
0
LINE
8
BLACK
6
CONTINUOUS
10
3.4120843307086615
20
-7.7905796062992128
11
3.4045852755905512
21
-7.7868300787401576
0
LINE
8
BLACK
6
CONTINUOUS
10
3.4045852755905512
20
-7.7868300787401576
11
3.4008357480314961
21
-7.7793309842519687
0
LINE
8
BLACK
6
CONTINUOUS
10
3.4008357480314961
20
-7.7793309842519687
11
3.4008357480314961
21
-7.711839448818897
0
LINE
8
BLACK
6
CONTINUOUS
10
3.4533291732283464
20
-7.7905796062992128
11
3.4458301181102362
21
-7.7868300787401576
0
LINE
8
BLACK
6
CONTINUOUS
10
3.4458301181102362
20
-7.7868300787401576
11
3.4420805905511811
21
-7.7793309842519687
0
LINE
8
BLACK
6
CONTINUOUS
10
3.4420805905511811
20
-7.7793309842519687
11
3.4420805905511811
21
-7.711839448818897
0
LINE
8
BLACK
6
CONTINUOUS
10
3.5433179527559053
20
-7.7905796062992128
11
3.5433179527559053
21
-7.711839448818897
0
LINE
8
BLACK
6
CONTINUOUS
10
3.5433179527559053
20
-7.711839448818897
11
3.5695646850393699
21
-7.7680824015748033
0
LINE
8
BLACK
6
CONTINUOUS
10
3.5695646850393699
20
-7.7680824015748033
11
3.5958113779527556
21
-7.711839448818897
0
LINE
8
BLACK
6
CONTINUOUS
10
3.5958113779527556
20
-7.711839448818897
11
3.5958113779527556
21
-7.7905796062992128
0
LINE
8
BLACK
6
CONTINUOUS
10
3.6670524803149607
20
-7.7905796062992128
11
3.6670524803149607
21
-7.7493347637795278
0
LINE
8
BLACK
6
CONTINUOUS
10
3.6670524803149607
20
-7.7493347637795278
11
3.6633029527559056
21
-7.7418356692913388
0
LINE
8
BLACK
6
CONTINUOUS
10
3.6633029527559056
20
-7.7418356692913388
11
3.6558038976377953
21
-7.7380861417322837
0
LINE
8
BLACK
6
CONTINUOUS
10
3.6558038976377953
20
-7.7380861417322837
11
3.6408057480314961
21
-7.7380861417322837
0
LINE
8
BLACK
6
CONTINUOUS
10
3.6408057480314961
20
-7.7380861417322837
11
3.6333066929133859
21
-7.7418356692913388
0
LINE
8
BLACK
6
CONTINUOUS
10
3.6670524803149607
20
-7.7868300787401576
11
3.6595534251968505
21
-7.7905796062992128
0
LINE
8
BLACK
6
CONTINUOUS
10
3.6595534251968505
20
-7.7905796062992128
11
3.6408057480314961
21
-7.7905796062992128
0
LINE
8
BLACK
6
CONTINUOUS
10
3.6408057480314961
20
-7.7905796062992128
11
3.6333066929133859
21
-7.7868300787401576
0
LINE
8
BLACK
6
CONTINUOUS
10
3.6333066929133859
20
-7.7868300787401576
11
3.6295571653543308
21
-7.7793309842519687
0
LINE
8
BLACK
6
CONTINUOUS
10
3.6295571653543308
20
-7.7793309842519687
11
3.6295571653543308
21
-7.7718319291338585
0
LINE
8
BLACK
6
CONTINUOUS
10
3.6295571653543308
20
-7.7718319291338585
11
3.6333066929133859
21
-7.7643328740157482
0
LINE
8
BLACK
6
CONTINUOUS
10
3.6333066929133859
20
-7.7643328740157482
11
3.6408057480314961
21
-7.7605833464566931
0
LINE
8
BLACK
6
CONTINUOUS
10
3.6408057480314961
20
-7.7605833464566931
11
3.6595534251968505
21
-7.7605833464566931
0
LINE
8
BLACK
6
CONTINUOUS
10
3.6595534251968505
20
-7.7605833464566931
11
3.6670524803149607
21
-7.756833818897638
0
LINE
8
BLACK
6
CONTINUOUS
10
3.7045477952755905
20
-7.7380861417322837
11
3.7045477952755905
21
-7.8168262992125985
0
LINE
8
BLACK
6
CONTINUOUS
10
3.7045477952755905
20
-7.7418356692913388
11
3.7120468503937007
21
-7.7380861417322837
0
LINE
8
BLACK
6
CONTINUOUS
10
3.7120468503937007
20
-7.7380861417322837
11
3.7270449999999999
21
-7.7380861417322837
0
LINE
8
BLACK
6
CONTINUOUS
10
3.7270449999999999
20
-7.7380861417322837
11
3.7345440551181102
21
-7.7418356692913388
0
LINE
8
BLACK
6
CONTINUOUS
10
3.7345440551181102
20
-7.7418356692913388
11
3.7382935826771653
21
-7.7455851968503939
0
LINE
8
BLACK
6
CONTINUOUS
10
3.7382935826771653
20
-7.7455851968503939
11
3.7420431102362204
21
-7.7530842913385829
0
LINE
8
BLACK
6
CONTINUOUS
10
3.7420431102362204
20
-7.7530842913385829
11
3.7420431102362204
21
-7.7755814566929136
0
LINE
8
BLACK
6
CONTINUOUS
10
3.7420431102362204
20
-7.7755814566929136
11
3.7382935826771653
21
-7.7830805118110238
0
LINE
8
BLACK
6
CONTINUOUS
10
3.7382935826771653
20
-7.7830805118110238
11
3.7345440551181102
21
-7.7868300787401576
0
LINE
8
BLACK
6
CONTINUOUS
10
3.7345440551181102
20
-7.7868300787401576
11
3.7270449999999999
21
-7.7905796062992128
0
LINE
8
BLACK
6
CONTINUOUS
10
3.7270449999999999
20
-7.7905796062992128
11
3.7120468503937007
21
-7.7905796062992128
0
LINE
8
BLACK
6
CONTINUOUS
10
3.7120468503937007
20
-7.7905796062992128
11
3.7045477952755905
21
-7.7868300787401576
0
LINE
8
BLACK
6
CONTINUOUS
10
3.7757888976377951
20
-7.7830805118110238
11
3.7795384251968502
21
-7.7868300787401576
0
LINE
8
BLACK
6
CONTINUOUS
10
3.7795384251968502
20
-7.7868300787401576
11
3.7757888976377951
21
-7.7905796062992128
0
LINE
8
BLACK
6
CONTINUOUS
10
3.7757888976377951
20
-7.7905796062992128
11
3.77203937007874
21
-7.7868300787401576
0
LINE
8
BLACK
6
CONTINUOUS
10
3.77203937007874
20
-7.7868300787401576
11
3.7757888976377951
21
-7.7830805118110238
0
LINE
8
BLACK
6
CONTINUOUS
10
3.7757888976377951
20
-7.7830805118110238
11
3.7757888976377951
21
-7.7905796062992128
0
LINE
8
BLACK
6
CONTINUOUS
10
3.7757888976377951
20
-7.7418356692913388
11
3.7795384251968502
21
-7.7455851968503939
0
LINE
8
BLACK
6
CONTINUOUS
10
3.7795384251968502
20
-7.7455851968503939
11
3.7757888976377951
21
-7.7493347637795278
0
LINE
8
BLACK
6
CONTINUOUS
10
3.7757888976377951
20
-7.7493347637795278
11
3.77203937007874
21
-7.7455851968503939
0
LINE
8
BLACK
6
CONTINUOUS
10
3.77203937007874
20
-7.7455851968503939
11
3.7757888976377951
21
-7.7418356692913388
0
LINE
8
BLACK
6
CONTINUOUS
10
3.7757888976377951
20
-7.7418356692913388
11
3.7757888976377951
21
-7.7493347637795278
0
LINE
8
BLACK
6
CONTINUOUS
10
3.0642907086614173
20
-7.885467874015748
11
3.1331883464566928
21
-7.954365511811023
0
LINE
8
BLACK
6
CONTINUOUS
10
3.1331883464566928
20
-7.885467874015748
11
3.0642907086614173
21
-7.954365511811023
0
LINE
8
BLACK
6
CONTINUOUS
10
3.2771012204724408
20
-7.9559339370078739
11
3.2321068503937007
21
-7.9559339370078739
0
LINE
8
BLACK
6
CONTINUOUS
10
3.2546040157480314
20
-7.9559339370078739
11
3.2546040157480314
21
-7.8771937795275591
0
LINE
8
BLACK
6
CONTINUOUS
10
3.2546040157480314
20
-7.8771937795275591
11
3.2471049606299212
21
-7.8884423622047244
0
LINE
8
BLACK
6
CONTINUOUS
10
3.2471049606299212
20
-7.8884423622047244
11
3.2396059055118109
21
-7.8959414173228346
0
LINE
8
BLACK
6
CONTINUOUS
10
3.2396059055118109
20
-7.8959414173228346
11
3.2321068503937007
21
-7.8996909448818897
0
LINE
8
BLACK
6
CONTINUOUS
10
3.3108470078740155
20
-7.9484348425196849
11
3.3145965354330706
21
-7.9521844094488188
0
LINE
8
BLACK
6
CONTINUOUS
10
3.3145965354330706
20
-7.9521844094488188
11
3.3108470078740155
21
-7.9559339370078739
0
LINE
8
BLACK
6
CONTINUOUS
10
3.3108470078740155
20
-7.9559339370078739
11
3.3070974803149604
21
-7.9521844094488188
0
LINE
8
BLACK
6
CONTINUOUS
10
3.3070974803149604
20
-7.9521844094488188
11
3.3108470078740155
21
-7.9484348425196849
0
LINE
8
BLACK
6
CONTINUOUS
10
3.3108470078740155
20
-7.9484348425196849
11
3.3108470078740155
21
-7.9559339370078739
0
LINE
8
BLACK
6
CONTINUOUS
10
3.3408432677165352
20
-7.8771937795275591
11
3.3933366929133859
21
-7.8771937795275591
0
LINE
8
BLACK
6
CONTINUOUS
10
3.3933366929133859
20
-7.8771937795275591
11
3.3595909055118112
21
-7.9559339370078739
0
LINE
8
BLACK
6
CONTINUOUS
10
3.4608282677165354
20
-7.8771937795275591
11
3.4233329527559055
21
-7.8771937795275591
0
LINE
8
BLACK
6
CONTINUOUS
10
3.4233329527559055
20
-7.8771937795275591
11
3.4195834251968504
21
-7.9146890944881889
0
LINE
8
BLACK
6
CONTINUOUS
10
3.4195834251968504
20
-7.9146890944881889
11
3.4233329527559055
21
-7.9109395275590551
0
LINE
8
BLACK
6
CONTINUOUS
10
3.4233329527559055
20
-7.9109395275590551
11
3.4308320078740158
21
-7.9071899999999999
0
LINE
8
BLACK
6
CONTINUOUS
10
3.4308320078740158
20
-7.9071899999999999
11
3.4495796850393701
21
-7.9071899999999999
0
LINE
8
BLACK
6
CONTINUOUS
10
3.4495796850393701
20
-7.9071899999999999
11
3.4570787401574803
21
-7.9109395275590551
0
LINE
8
BLACK
6
CONTINUOUS
10
3.4570787401574803
20
-7.9109395275590551
11
3.4608282677165354
21
-7.9146890944881889
0
LINE
8
BLACK
6
CONTINUOUS
10
3.4608282677165354
20
-7.9146890944881889
11
3.4645777952755905
21
-7.9221881496062991
0
LINE
8
BLACK
6
CONTINUOUS
10
3.4645777952755905
20
-7.9221881496062991
11
3.4645777952755905
21
-7.9409357874015747
0
LINE
8
BLACK
6
CONTINUOUS
10
3.4645777952755905
20
-7.9409357874015747
11
3.4608282677165354
21
-7.9484348425196849
0
LINE
8
BLACK
6
CONTINUOUS
10
3.4608282677165354
20
-7.9484348425196849
11
3.4570787401574803
21
-7.9521844094488188
0
LINE
8
BLACK
6
CONTINUOUS
10
3.4570787401574803
20
-7.9521844094488188
11
3.4495796850393701
21
-7.9559339370078739
0
LINE
8
BLACK
6
CONTINUOUS
10
3.4495796850393701
20
-7.9559339370078739
11
3.4308320078740158
21
-7.9559339370078739
0
LINE
8
BLACK
6
CONTINUOUS
10
3.4308320078740158
20
-7.9559339370078739
11
3.4233329527559055
21
-7.9521844094488188
0
LINE
8
BLACK
6
CONTINUOUS
10
3.4233329527559055
20
-7.9521844094488188
11
3.4195834251968504
21
-7.9484348425196849
0
LINE
8
BLACK
6
CONTINUOUS
10
3.5133216929133857
20
-7.8771937795275591
11
3.5208207874015747
21
-7.8771937795275591
0
LINE
8
BLACK
6
CONTINUOUS
10
3.5208207874015747
20
-7.8771937795275591
11
3.5283198425196849
21
-7.8809433070866142
0
LINE
8
BLACK
6
CONTINUOUS
10
3.5283198425196849
20
-7.8809433070866142
11
3.53206937007874
21
-7.8846928346456693
0
LINE
8
BLACK
6
CONTINUOUS
10
3.53206937007874
20
-7.8846928346456693
11
3.5358188976377951
21
-7.8921918897637795
0
LINE
8
BLACK
6
CONTINUOUS
10
3.5358188976377951
20
-7.8921918897637795
11
3.5395684251968502
21
-7.9071899999999999
0
LINE
8
BLACK
6
CONTINUOUS
10
3.5395684251968502
20
-7.9071899999999999
11
3.5395684251968502
21
-7.9259376771653542
0
LINE
8
BLACK
6
CONTINUOUS
10
3.5395684251968502
20
-7.9259376771653542
11
3.5358188976377951
21
-7.9409357874015747
0
LINE
8
BLACK
6
CONTINUOUS
10
3.5358188976377951
20
-7.9409357874015747
11
3.53206937007874
21
-7.9484348425196849
0
LINE
8
BLACK
6
CONTINUOUS
10
3.53206937007874
20
-7.9484348425196849
11
3.5283198425196849
21
-7.9521844094488188
0
LINE
8
BLACK
6
CONTINUOUS
10
3.5283198425196849
20
-7.9521844094488188
11
3.5208207874015747
21
-7.9559339370078739
0
LINE
8
BLACK
6
CONTINUOUS
10
3.5208207874015747
20
-7.9559339370078739
11
3.5133216929133857
21
-7.9559339370078739
0
LINE
8
BLACK
6
CONTINUOUS
10
3.5133216929133857
20
-7.9559339370078739
11
3.5058226377952755
21
-7.9521844094488188
0
LINE
8
BLACK
6
CONTINUOUS
10
3.5058226377952755
20
-7.9521844094488188
11
3.5020731102362204
21
-7.9484348425196849
0
LINE
8
BLACK
6
CONTINUOUS
10
3.5020731102362204
20
-7.9484348425196849
11
3.4983235826771653
21
-7.9409357874015747
0
LINE
8
BLACK
6
CONTINUOUS
10
3.4983235826771653
20
-7.9409357874015747
11
3.4945740551181101
21
-7.9259376771653542
0
LINE
8
BLACK
6
CONTINUOUS
10
3.4945740551181101
20
-7.9259376771653542
11
3.4945740551181101
21
-7.9071899999999999
0
LINE
8
BLACK
6
CONTINUOUS
10
3.4945740551181101
20
-7.9071899999999999
11
3.4983235826771653
21
-7.8921918897637795
0
LINE
8
BLACK
6
CONTINUOUS
10
3.4983235826771653
20
-7.8921918897637795
11
3.5020731102362204
21
-7.8846928346456693
0
LINE
8
BLACK
6
CONTINUOUS
10
3.5020731102362204
20
-7.8846928346456693
11
3.5058226377952755
21
-7.8809433070866142
0
LINE
8
BLACK
6
CONTINUOUS
10
3.5058226377952755
20
-7.8809433070866142
11
3.5133216929133857
21
-7.8771937795275591
0
LINE
8
BLACK
6
CONTINUOUS
10
3.573314212598425
20
-7.9559339370078739
11
3.573314212598425
21
-7.9034404724409448
0
LINE
8
BLACK
6
CONTINUOUS
10
3.573314212598425
20
-7.9109395275590551
11
3.5770637401574801
21
-7.9071899999999999
0
LINE
8
BLACK
6
CONTINUOUS
10
3.5770637401574801
20
-7.9071899999999999
11
3.5845627952755903
21
-7.9034404724409448
0
LINE
8
BLACK
6
CONTINUOUS
10
3.5845627952755903
20
-7.9034404724409448
11
3.5958114173228344
21
-7.9034404724409448
0
LINE
8
BLACK
6
CONTINUOUS
10
3.5958114173228344
20
-7.9034404724409448
11
3.6033104724409446
21
-7.9071899999999999
0
LINE
8
BLACK
6
CONTINUOUS
10
3.6033104724409446
20
-7.9071899999999999
11
3.6070599999999997
21
-7.9146890944881889
0
LINE
8
BLACK
6
CONTINUOUS
10
3.6070599999999997
20
-7.9146890944881889
11
3.6070599999999997
21
-7.9559339370078739
0
LINE
8
BLACK
6
CONTINUOUS
10
3.6070599999999997
20
-7.9146890944881889
11
3.6108095275590548
21
-7.9071899999999999
0
LINE
8
BLACK
6
CONTINUOUS
10
3.6108095275590548
20
-7.9071899999999999
11
3.6183085826771655
21
-7.9034404724409448
0
LINE
8
BLACK
6
CONTINUOUS
10
3.6183085826771655
20
-7.9034404724409448
11
3.6295571653543308
21
-7.9034404724409448
0
LINE
8
BLACK
6
CONTINUOUS
10
3.6295571653543308
20
-7.9034404724409448
11
3.6370562598425198
21
-7.9071899999999999
0
LINE
8
BLACK
6
CONTINUOUS
10
3.6370562598425198
20
-7.9071899999999999
11
3.6408057874015749
21
-7.9146890944881889
0
LINE
8
BLACK
6
CONTINUOUS
10
3.6408057874015749
20
-7.9146890944881889
11
3.6408057874015749
21
-7.9559339370078739
0
LINE
8
BLACK
6
CONTINUOUS
10
3.6783011023622048
20
-7.9559339370078739
11
3.6783011023622048
21
-7.9034404724409448
0
LINE
8
BLACK
6
CONTINUOUS
10
3.6783011023622048
20
-7.9109395275590551
11
3.6820506299212599
21
-7.9071899999999999
0
LINE
8
BLACK
6
CONTINUOUS
10
3.6820506299212599
20
-7.9071899999999999
11
3.6895496850393701
21
-7.9034404724409448
0
LINE
8
BLACK
6
CONTINUOUS
10
3.6895496850393701
20
-7.9034404724409448
11
3.7007983070866142
21
-7.9034404724409448
0
LINE
8
BLACK
6
CONTINUOUS
10
3.7007983070866142
20
-7.9034404724409448
11
3.7082973622047244
21
-7.9071899999999999
0
LINE
8
BLACK
6
CONTINUOUS
10
3.7082973622047244
20
-7.9071899999999999
11
3.7120468897637795
21
-7.9146890944881889
0
LINE
8
BLACK
6
CONTINUOUS
10
3.7120468897637795
20
-7.9146890944881889
11
3.7120468897637795
21
-7.9559339370078739
0
LINE
8
BLACK
6
CONTINUOUS
10
3.7120468897637795
20
-7.9146890944881889
11
3.7157964173228346
21
-7.9071899999999999
0
LINE
8
BLACK
6
CONTINUOUS
10
3.7157964173228346
20
-7.9071899999999999
11
3.7232954724409448
21
-7.9034404724409448
0
LINE
8
BLACK
6
CONTINUOUS
10
3.7232954724409448
20
-7.9034404724409448
11
3.7345440551181102
21
-7.9034404724409448
0
LINE
8
BLACK
6
CONTINUOUS
10
3.7345440551181102
20
-7.9034404724409448
11
3.7420431496062991
21
-7.9071899999999999
0
LINE
8
BLACK
6
CONTINUOUS
10
3.7420431496062991
20
-7.9071899999999999
11
3.7457926771653542
21
-7.9146890944881889
0
LINE
8
BLACK
6
CONTINUOUS
10
3.7457926771653542
20
-7.9146890944881889
11
3.7457926771653542
21
-7.9559339370078739
0
LINE
8
BLACK
6
CONTINUOUS
10
3.8995234645669292
20
-7.8734442519685039
11
3.832031929133858
21
-7.9746815748031494
0
LINE
8
BLACK
6
CONTINUOUS
10
4.0007608267716535
20
-7.8771937795275591
11
4.0082599212598424
21
-7.8771937795275591
0
LINE
8
BLACK
6
CONTINUOUS
10
4.0082599212598424
20
-7.8771937795275591
11
4.0157589763779526
21
-7.8809433070866142
0
LINE
8
BLACK
6
CONTINUOUS
10
4.0157589763779526
20
-7.8809433070866142
11
4.0195085039370078
21
-7.8846928346456693
0
LINE
8
BLACK
6
CONTINUOUS
10
4.0195085039370078
20
-7.8846928346456693
11
4.0232580314960629
21
-7.8921918897637795
0
LINE
8
BLACK
6
CONTINUOUS
10
4.0232580314960629
20
-7.8921918897637795
11
4.027007559055118
21
-7.9071899999999999
0
LINE
8
BLACK
6
CONTINUOUS
10
4.027007559055118
20
-7.9071899999999999
11
4.027007559055118
21
-7.9259376771653542
0
LINE
8
BLACK
6
CONTINUOUS
10
4.027007559055118
20
-7.9259376771653542
11
4.0232580314960629
21
-7.9409357874015747
0
LINE
8
BLACK
6
CONTINUOUS
10
4.0232580314960629
20
-7.9409357874015747
11
4.0195085039370078
21
-7.9484348425196849
0
LINE
8
BLACK
6
CONTINUOUS
10
4.0195085039370078
20
-7.9484348425196849
11
4.0157589763779526
21
-7.9521844094488188
0
LINE
8
BLACK
6
CONTINUOUS
10
4.0157589763779526
20
-7.9521844094488188
11
4.0082599212598424
21
-7.9559339370078739
0
LINE
8
BLACK
6
CONTINUOUS
10
4.0082599212598424
20
-7.9559339370078739
11
4.0007608267716535
21
-7.9559339370078739
0
LINE
8
BLACK
6
CONTINUOUS
10
4.0007608267716535
20
-7.9559339370078739
11
3.9932617716535432
21
-7.9521844094488188
0
LINE
8
BLACK
6
CONTINUOUS
10
3.9932617716535432
20
-7.9521844094488188
11
3.9895122440944881
21
-7.9484348425196849
0
LINE
8
BLACK
6
CONTINUOUS
10
3.9895122440944881
20
-7.9484348425196849
11
3.985762716535433
21
-7.9409357874015747
0
LINE
8
BLACK
6
CONTINUOUS
10
3.985762716535433
20
-7.9409357874015747
11
3.9820131889763779
21
-7.9259376771653542
0
LINE
8
BLACK
6
CONTINUOUS
10
3.9820131889763779
20
-7.9259376771653542
11
3.9820131889763779
21
-7.9071899999999999
0
LINE
8
BLACK
6
CONTINUOUS
10
3.9820131889763779
20
-7.9071899999999999
11
3.985762716535433
21
-7.8921918897637795
0
LINE
8
BLACK
6
CONTINUOUS
10
3.985762716535433
20
-7.8921918897637795
11
3.9895122440944881
21
-7.8846928346456693
0
LINE
8
BLACK
6
CONTINUOUS
10
3.9895122440944881
20
-7.8846928346456693
11
3.9932617716535432
21
-7.8809433070866142
0
LINE
8
BLACK
6
CONTINUOUS
10
3.9932617716535432
20
-7.8809433070866142
11
4.0007608267716535
21
-7.8771937795275591
0
LINE
8
BLACK
6
CONTINUOUS
10
4.0607533464566927
20
-7.9484348425196849
11
4.0645028740157478
21
-7.9521844094488188
0
LINE
8
BLACK
6
CONTINUOUS
10
4.0645028740157478
20
-7.9521844094488188
11
4.0607533464566927
21
-7.9559339370078739
0
LINE
8
BLACK
6
CONTINUOUS
10
4.0607533464566927
20
-7.9559339370078739
11
4.0570038188976376
21
-7.9521844094488188
0
LINE
8
BLACK
6
CONTINUOUS
10
4.0570038188976376
20
-7.9521844094488188
11
4.0607533464566927
21
-7.9484348425196849
0
LINE
8
BLACK
6
CONTINUOUS
10
4.0607533464566927
20
-7.9484348425196849
11
4.0607533464566927
21
-7.9559339370078739
0
LINE
8
BLACK
6
CONTINUOUS
10
4.113246771653543
20
-7.8771937795275591
11
4.120745866141732
21
-7.8771937795275591
0
LINE
8
BLACK
6
CONTINUOUS
10
4.120745866141732
20
-7.8771937795275591
11
4.1282449212598422
21
-7.8809433070866142
0
LINE
8
BLACK
6
CONTINUOUS
10
4.1282449212598422
20
-7.8809433070866142
11
4.1319944488188973
21
-7.8846928346456693
0
LINE
8
BLACK
6
CONTINUOUS
10
4.1319944488188973
20
-7.8846928346456693
11
4.1357439763779524
21
-7.8921918897637795
0
LINE
8
BLACK
6
CONTINUOUS
10
4.1357439763779524
20
-7.8921918897637795
11
4.1394935039370075
21
-7.9071899999999999
0
LINE
8
BLACK
6
CONTINUOUS
10
4.1394935039370075
20
-7.9071899999999999
11
4.1394935039370075
21
-7.9259376771653542
0
LINE
8
BLACK
6
CONTINUOUS
10
4.1394935039370075
20
-7.9259376771653542
11
4.1357439763779524
21
-7.9409357874015747
0
LINE
8
BLACK
6
CONTINUOUS
10
4.1357439763779524
20
-7.9409357874015747
11
4.1319944488188973
21
-7.9484348425196849
0
LINE
8
BLACK
6
CONTINUOUS
10
4.1319944488188973
20
-7.9484348425196849
11
4.1282449212598422
21
-7.9521844094488188
0
LINE
8
BLACK
6
CONTINUOUS
10
4.1282449212598422
20
-7.9521844094488188
11
4.120745866141732
21
-7.9559339370078739
0
LINE
8
BLACK
6
CONTINUOUS
10
4.120745866141732
20
-7.9559339370078739
11
4.113246771653543
21
-7.9559339370078739
0
LINE
8
BLACK
6
CONTINUOUS
10
4.113246771653543
20
-7.9559339370078739
11
4.1057477165354328
21
-7.9521844094488188
0
LINE
8
BLACK
6
CONTINUOUS
10
4.1057477165354328
20
-7.9521844094488188
11
4.1019981889763777
21
-7.9484348425196849
0
LINE
8
BLACK
6
CONTINUOUS
10
4.1019981889763777
20
-7.9484348425196849
11
4.0982486614173226
21
-7.9409357874015747
0
LINE
8
BLACK
6
CONTINUOUS
10
4.0982486614173226
20
-7.9409357874015747
11
4.0944991338582675
21
-7.9259376771653542
0
LINE
8
BLACK
6
CONTINUOUS
10
4.0944991338582675
20
-7.9259376771653542
11
4.0944991338582675
21
-7.9071899999999999
0
LINE
8
BLACK
6
CONTINUOUS
10
4.0944991338582675
20
-7.9071899999999999
11
4.0982486614173226
21
-7.8921918897637795
0
LINE
8
BLACK
6
CONTINUOUS
10
4.0982486614173226
20
-7.8921918897637795
11
4.1019981889763777
21
-7.8846928346456693
0
LINE
8
BLACK
6
CONTINUOUS
10
4.1019981889763777
20
-7.8846928346456693
11
4.1057477165354328
21
-7.8809433070866142
0
LINE
8
BLACK
6
CONTINUOUS
10
4.1057477165354328
20
-7.8809433070866142
11
4.113246771653543
21
-7.8771937795275591
0
LINE
8
BLACK
6
CONTINUOUS
10
4.206985078740157
20
-7.8771937795275591
11
4.1919869291338578
21
-7.8771937795275591
0
LINE
8
BLACK
6
CONTINUOUS
10
4.1919869291338578
20
-7.8771937795275591
11
4.1844878740157476
21
-7.8809433070866142
0
LINE
8
BLACK
6
CONTINUOUS
10
4.1844878740157476
20
-7.8809433070866142
11
4.1807383464566925
21
-7.8846928346456693
0
LINE
8
BLACK
6
CONTINUOUS
10
4.1807383464566925
20
-7.8846928346456693
11
4.1732392913385823
21
-7.8959414173228346
0
LINE
8
BLACK
6
CONTINUOUS
10
4.1732392913385823
20
-7.8959414173228346
11
4.1694897637795272
21
-7.9109395275590551
0
LINE
8
BLACK
6
CONTINUOUS
10
4.1694897637795272
20
-7.9109395275590551
11
4.1694897637795272
21
-7.9409357874015747
0
LINE
8
BLACK
6
CONTINUOUS
10
4.1694897637795272
20
-7.9409357874015747
11
4.1732392913385823
21
-7.9484348425196849
0
LINE
8
BLACK
6
CONTINUOUS
10
4.1732392913385823
20
-7.9484348425196849
11
4.1769888188976374
21
-7.9521844094488188
0
LINE
8
BLACK
6
CONTINUOUS
10
4.1769888188976374
20
-7.9521844094488188
11
4.1844878740157476
21
-7.9559339370078739
0
LINE
8
BLACK
6
CONTINUOUS
10
4.1844878740157476
20
-7.9559339370078739
11
4.1994860236220468
21
-7.9559339370078739
0
LINE
8
BLACK
6
CONTINUOUS
10
4.1994860236220468
20
-7.9559339370078739
11
4.206985078740157
21
-7.9521844094488188
0
LINE
8
BLACK
6
CONTINUOUS
10
4.206985078740157
20
-7.9521844094488188
11
4.2107346062992121
21
-7.9484348425196849
0
LINE
8
BLACK
6
CONTINUOUS
10
4.2107346062992121
20
-7.9484348425196849
11
4.2144841338582673
21
-7.9409357874015747
0
LINE
8
BLACK
6
CONTINUOUS
10
4.2144841338582673
20
-7.9409357874015747
11
4.2144841338582673
21
-7.9221881496062991
0
LINE
8
BLACK
6
CONTINUOUS
10
4.2144841338582673
20
-7.9221881496062991
11
4.2107346062992121
21
-7.9146890944881889
0
LINE
8
BLACK
6
CONTINUOUS
10
4.2107346062992121
20
-7.9146890944881889
11
4.206985078740157
21
-7.9109395275590551
0
LINE
8
BLACK
6
CONTINUOUS
10
4.206985078740157
20
-7.9109395275590551
11
4.1994860236220468
21
-7.9071899999999999
0
LINE
8
BLACK
6
CONTINUOUS
10
4.1994860236220468
20
-7.9071899999999999
11
4.1844878740157476
21
-7.9071899999999999
0
LINE
8
BLACK
6
CONTINUOUS
10
4.1844878740157476
20
-7.9071899999999999
11
4.1769888188976374
21
-7.9109395275590551
0
LINE
8
BLACK
6
CONTINUOUS
10
4.1769888188976374
20
-7.9109395275590551
11
4.1732392913385823
21
-7.9146890944881889
0
LINE
8
BLACK
6
CONTINUOUS
10
4.1732392913385823
20
-7.9146890944881889
11
4.1694897637795272
21
-7.9221881496062991
0
LINE
8
BLACK
6
CONTINUOUS
10
4.2594785039370082
20
-7.9109395275590551
11
4.2519794488188971
21
-7.9071899999999999
0
LINE
8
BLACK
6
CONTINUOUS
10
4.2519794488188971
20
-7.9071899999999999
11
4.248229921259842
21
-7.9034404724409448
0
LINE
8
BLACK
6
CONTINUOUS
10
4.248229921259842
20
-7.9034404724409448
11
4.2444803937007869
21
-7.8959414173228346
0
LINE
8
BLACK
6
CONTINUOUS
10
4.2444803937007869
20
-7.8959414173228346
11
4.2444803937007869
21
-7.8921918897637795
0
LINE
8
BLACK
6
CONTINUOUS
10
4.2444803937007869
20
-7.8921918897637795
11
4.248229921259842
21
-7.8846928346456693
0
LINE
8
BLACK
6
CONTINUOUS
10
4.248229921259842
20
-7.8846928346456693
11
4.2519794488188971
21
-7.8809433070866142
0
LINE
8
BLACK
6
CONTINUOUS
10
4.2519794488188971
20
-7.8809433070866142
11
4.2594785039370082
21
-7.8771937795275591
0
LINE
8
BLACK
6
CONTINUOUS
10
4.2594785039370082
20
-7.8771937795275591
11
4.2744766535433074
21
-7.8771937795275591
0
LINE
8
BLACK
6
CONTINUOUS
10
4.2744766535433074
20
-7.8771937795275591
11
4.2819757086614176
21
-7.8809433070866142
0
LINE
8
BLACK
6
CONTINUOUS
10
4.2819757086614176
20
-7.8809433070866142
11
4.2857252362204727
21
-7.8846928346456693
0
LINE
8
BLACK
6
CONTINUOUS
10
4.2857252362204727
20
-7.8846928346456693
11
4.2894747637795279
21
-7.8921918897637795
0
LINE
8
BLACK
6
CONTINUOUS
10
4.2894747637795279
20
-7.8921918897637795
11
4.2894747637795279
21
-7.8959414173228346
0
LINE
8
BLACK
6
CONTINUOUS
10
4.2894747637795279
20
-7.8959414173228346
11
4.2857252362204727
21
-7.9034404724409448
0
LINE
8
BLACK
6
CONTINUOUS
10
4.2857252362204727
20
-7.9034404724409448
11
4.2819757086614176
21
-7.9071899999999999
0
LINE
8
BLACK
6
CONTINUOUS
10
4.2819757086614176
20
-7.9071899999999999
11
4.2744766535433074
21
-7.9109395275590551
0
LINE
8
BLACK
6
CONTINUOUS
10
4.2744766535433074
20
-7.9109395275590551
11
4.2594785039370082
21
-7.9109395275590551
0
LINE
8
BLACK
6
CONTINUOUS
10
4.2594785039370082
20
-7.9109395275590551
11
4.2519794488188971
21
-7.9146890944881889
0
LINE
8
BLACK
6
CONTINUOUS
10
4.2519794488188971
20
-7.9146890944881889
11
4.248229921259842
21
-7.918438622047244
0
LINE
8
BLACK
6
CONTINUOUS
10
4.248229921259842
20
-7.918438622047244
11
4.2444803937007869
21
-7.9259376771653542
0
LINE
8
BLACK
6
CONTINUOUS
10
4.2444803937007869
20
-7.9259376771653542
11
4.2444803937007869
21
-7.9409357874015747
0
LINE
8
BLACK
6
CONTINUOUS
10
4.2444803937007869
20
-7.9409357874015747
11
4.248229921259842
21
-7.9484348425196849
0
LINE
8
BLACK
6
CONTINUOUS
10
4.248229921259842
20
-7.9484348425196849
11
4.2519794488188971
21
-7.9521844094488188
0
LINE
8
BLACK
6
CONTINUOUS
10
4.2519794488188971
20
-7.9521844094488188
11
4.2594785039370082
21
-7.9559339370078739
0
LINE
8
BLACK
6
CONTINUOUS
10
4.2594785039370082
20
-7.9559339370078739
11
4.2744766535433074
21
-7.9559339370078739
0
LINE
8
BLACK
6
CONTINUOUS
10
4.2744766535433074
20
-7.9559339370078739
11
4.2819757086614176
21
-7.9521844094488188
0
LINE
8
BLACK
6
CONTINUOUS
10
4.2819757086614176
20
-7.9521844094488188
11
4.2857252362204727
21
-7.9484348425196849
0
LINE
8
BLACK
6
CONTINUOUS
10
4.2857252362204727
20
-7.9484348425196849
11
4.2894747637795279
21
-7.9409357874015747
0
LINE
8
BLACK
6
CONTINUOUS
10
4.2894747637795279
20
-7.9409357874015747
11
4.2894747637795279
21
-7.9259376771653542
0
LINE
8
BLACK
6
CONTINUOUS
10
4.2894747637795279
20
-7.9259376771653542
11
4.2857252362204727
21
-7.918438622047244
0
LINE
8
BLACK
6
CONTINUOUS
10
4.2857252362204727
20
-7.918438622047244
11
4.2819757086614176
21
-7.9146890944881889
0
LINE
8
BLACK
6
CONTINUOUS
10
4.2819757086614176
20
-7.9146890944881889
11
4.2744766535433074
21
-7.9109395275590551
0
LINE
8
BLACK
6
CONTINUOUS
10
4.3269700787401577
20
-7.9559339370078739
11
4.3419681889763782
21
-7.9559339370078739
0
LINE
8
BLACK
6
CONTINUOUS
10
4.3419681889763782
20
-7.9559339370078739
11
4.3494672834645671
21
-7.9521844094488188
0
LINE
8
BLACK
6
CONTINUOUS
10
4.3494672834645671
20
-7.9521844094488188
11
4.3532168110236222
21
-7.9484348425196849
0
LINE
8
BLACK
6
CONTINUOUS
10
4.3532168110236222
20
-7.9484348425196849
11
4.3607158661417325
21
-7.9371862598425196
0
LINE
8
BLACK
6
CONTINUOUS
10
4.3607158661417325
20
-7.9371862598425196
11
4.3644653937007876
21
-7.9221881496062991
0
LINE
8
BLACK
6
CONTINUOUS
10
4.3644653937007876
20
-7.9221881496062991
11
4.3644653937007876
21
-7.8921918897637795
0
LINE
8
BLACK
6
CONTINUOUS
10
4.3644653937007876
20
-7.8921918897637795
11
4.3607158661417325
21
-7.8846928346456693
0
LINE
8
BLACK
6
CONTINUOUS
10
4.3607158661417325
20
-7.8846928346456693
11
4.3569663385826773
21
-7.8809433070866142
0
LINE
8
BLACK
6
CONTINUOUS
10
4.3569663385826773
20
-7.8809433070866142
11
4.3494672834645671
21
-7.8771937795275591
0
LINE
8
BLACK
6
CONTINUOUS
10
4.3494672834645671
20
-7.8771937795275591
11
4.3344691338582679
21
-7.8771937795275591
0
LINE
8
BLACK
6
CONTINUOUS
10
4.3344691338582679
20
-7.8771937795275591
11
4.3269700787401577
21
-7.8809433070866142
0
LINE
8
BLACK
6
CONTINUOUS
10
4.3269700787401577
20
-7.8809433070866142
11
4.3232205511811026
21
-7.8846928346456693
0
LINE
8
BLACK
6
CONTINUOUS
10
4.3232205511811026
20
-7.8846928346456693
11
4.3194710236220475
21
-7.8921918897637795
0
LINE
8
BLACK
6
CONTINUOUS
10
4.3194710236220475
20
-7.8921918897637795
11
4.3194710236220475
21
-7.9109395275590551
0
LINE
8
BLACK
6
CONTINUOUS
10
4.3194710236220475
20
-7.9109395275590551
11
4.3232205511811026
21
-7.918438622047244
0
LINE
8
BLACK
6
CONTINUOUS
10
4.3232205511811026
20
-7.918438622047244
11
4.3269700787401577
21
-7.9221881496062991
0
LINE
8
BLACK
6
CONTINUOUS
10
4.3269700787401577
20
-7.9221881496062991
11
4.3344691338582679
21
-7.9259376771653542
0
LINE
8
BLACK
6
CONTINUOUS
10
4.3344691338582679
20
-7.9259376771653542
11
4.3494672834645671
21
-7.9259376771653542
0
LINE
8
BLACK
6
CONTINUOUS
10
4.3494672834645671
20
-7.9259376771653542
11
4.3569663385826773
21
-7.9221881496062991
0
LINE
8
BLACK
6
CONTINUOUS
10
4.3569663385826773
20
-7.9221881496062991
11
4.3607158661417325
21
-7.918438622047244
0
LINE
8
BLACK
6
CONTINUOUS
10
4.3607158661417325
20
-7.918438622047244
11
4.3644653937007876
21
-7.9109395275590551
0
LINE
8
BLACK
6
CONTINUOUS
10
4.3944616535433072
20
-7.8771937795275591
11
4.3944616535433072
21
-7.8921918897637795
0
LINE
8
BLACK
6
CONTINUOUS
10
4.4244579133858268
20
-7.8771937795275591
11
4.4244579133858268
21
-7.8921918897637795
0
LINE
8
BLACK
6
CONTINUOUS
10
4.5406934251968503
20
-7.9859301574803148
11
4.5369438582677164
21
-7.9821806299212597
0
LINE
8
BLACK
6
CONTINUOUS
10
4.5369438582677164
20
-7.9821806299212597
11
4.5294448031496062
21
-7.9709320472440943
0
LINE
8
BLACK
6
CONTINUOUS
10
4.5294448031496062
20
-7.9709320472440943
11
4.5256952755905511
21
-7.9634329921259841
0
LINE
8
BLACK
6
CONTINUOUS
10
4.5256952755905511
20
-7.9634329921259841
11
4.521945748031496
21
-7.9521844094488188
0
LINE
8
BLACK
6
CONTINUOUS
10
4.521945748031496
20
-7.9521844094488188
11
4.5181962204724408
21
-7.9334367322834645
0
LINE
8
BLACK
6
CONTINUOUS
10
4.5181962204724408
20
-7.9334367322834645
11
4.5181962204724408
21
-7.918438622047244
0
LINE
8
BLACK
6
CONTINUOUS
10
4.5181962204724408
20
-7.918438622047244
11
4.521945748031496
21
-7.8996909448818897
0
LINE
8
BLACK
6
CONTINUOUS
10
4.521945748031496
20
-7.8996909448818897
11
4.5256952755905511
21
-7.8884423622047244
0
LINE
8
BLACK
6
CONTINUOUS
10
4.5256952755905511
20
-7.8884423622047244
11
4.5294448031496062
21
-7.8809433070866142
0
LINE
8
BLACK
6
CONTINUOUS
10
4.5294448031496062
20
-7.8809433070866142
11
4.5369438582677164
21
-7.8696946850393701
0
LINE
8
BLACK
6
CONTINUOUS
10
4.5369438582677164
20
-7.8696946850393701
11
4.5406934251968503
21
-7.865945157480315
0
LINE
8
BLACK
6
CONTINUOUS
10
4.5631905905511809
20
-7.8771937795275591
11
4.6156840157480312
21
-7.8771937795275591
0
LINE
8
BLACK
6
CONTINUOUS
10
4.6156840157480312
20
-7.8771937795275591
11
4.5819382283464565
21
-7.9559339370078739
0
LINE
8
BLACK
6
CONTINUOUS
10
4.6419307480314957
20
-7.8846928346456693
11
4.6456802755905509
21
-7.8809433070866142
0
LINE
8
BLACK
6
CONTINUOUS
10
4.6456802755905509
20
-7.8809433070866142
11
4.6531793307086611
21
-7.8771937795275591
0
LINE
8
BLACK
6
CONTINUOUS
10
4.6531793307086611
20
-7.8771937795275591
11
4.6719270078740154
21
-7.8771937795275591
0
LINE
8
BLACK
6
CONTINUOUS
10
4.6719270078740154
20
-7.8771937795275591
11
4.6794260629921256
21
-7.8809433070866142
0
LINE
8
BLACK
6
CONTINUOUS
10
4.6794260629921256
20
-7.8809433070866142
11
4.6831755905511807
21
-7.8846928346456693
0
LINE
8
BLACK
6
CONTINUOUS
10
4.6831755905511807
20
-7.8846928346456693
11
4.6869251181102358
21
-7.8921918897637795
0
LINE
8
BLACK
6
CONTINUOUS
10
4.6869251181102358
20
-7.8921918897637795
11
4.6869251181102358
21
-7.8996909448818897
0
LINE
8
BLACK
6
CONTINUOUS
10
4.6869251181102358
20
-7.8996909448818897
11
4.6831755905511807
21
-7.9109395275590551
0
LINE
8
BLACK
6
CONTINUOUS
10
4.6831755905511807
20
-7.9109395275590551
11
4.6381812204724406
21
-7.9559339370078739
0
LINE
8
BLACK
6
CONTINUOUS
10
4.6381812204724406
20
-7.9559339370078739
11
4.6869251181102358
21
-7.9559339370078739
0
LINE
8
BLACK
6
CONTINUOUS
10
4.7806634251968507
20
-7.9559339370078739
11
4.7806634251968507
21
-7.8771937795275591
0
LINE
8
BLACK
6
CONTINUOUS
10
4.8144092125984255
20
-7.9559339370078739
11
4.8144092125984255
21
-7.9146890944881889
0
LINE
8
BLACK
6
CONTINUOUS
10
4.8144092125984255
20
-7.9146890944881889
11
4.8106596850393704
21
-7.9071899999999999
0
LINE
8
BLACK
6
CONTINUOUS
10
4.8106596850393704
20
-7.9071899999999999
11
4.8031606299212601
21
-7.9034404724409448
0
LINE
8
BLACK
6
CONTINUOUS
10
4.8031606299212601
20
-7.9034404724409448
11
4.7919120078740161
21
-7.9034404724409448
0
LINE
8
BLACK
6
CONTINUOUS
10
4.7919120078740161
20
-7.9034404724409448
11
4.7844129527559058
21
-7.9071899999999999
0
LINE
8
BLACK
6
CONTINUOUS
10
4.7844129527559058
20
-7.9071899999999999
11
4.7806634251968507
21
-7.9109395275590551
0
LINE
8
BLACK
6
CONTINUOUS
10
4.8631531102362207
20
-7.9559339370078739
11
4.8556540551181104
21
-7.9521844094488188
0
LINE
8
BLACK
6
CONTINUOUS
10
4.8556540551181104
20
-7.9521844094488188
11
4.8519045275590553
21
-7.9484348425196849
0
LINE
8
BLACK
6
CONTINUOUS
10
4.8519045275590553
20
-7.9484348425196849
11
4.8481550000000002
21
-7.9409357874015747
0
LINE
8
BLACK
6
CONTINUOUS
10
4.8481550000000002
20
-7.9409357874015747
11
4.8481550000000002
21
-7.918438622047244
0
LINE
8
BLACK
6
CONTINUOUS
10
4.8481550000000002
20
-7.918438622047244
11
4.8519045275590553
21
-7.9109395275590551
0
LINE
8
BLACK
6
CONTINUOUS
10
4.8519045275590553
20
-7.9109395275590551
11
4.8556540551181104
21
-7.9071899999999999
0
LINE
8
BLACK
6
CONTINUOUS
10
4.8556540551181104
20
-7.9071899999999999
11
4.8631531102362207
21
-7.9034404724409448
0
LINE
8
BLACK
6
CONTINUOUS
10
4.8631531102362207
20
-7.9034404724409448
11
4.8744017322834647
21
-7.9034404724409448
0
LINE
8
BLACK
6
CONTINUOUS
10
4.8744017322834647
20
-7.9034404724409448
11
4.881900787401575
21
-7.9071899999999999
0
LINE
8
BLACK
6
CONTINUOUS
10
4.881900787401575
20
-7.9071899999999999
11
4.8856503149606301
21
-7.9109395275590551
0
LINE
8
BLACK
6
CONTINUOUS
10
4.8856503149606301
20
-7.9109395275590551
11
4.8893998425196852
21
-7.918438622047244
0
LINE
8
BLACK
6
CONTINUOUS
10
4.8893998425196852
20
-7.918438622047244
11
4.8893998425196852
21
-7.9409357874015747
0
LINE
8
BLACK
6
CONTINUOUS
10
4.8893998425196852
20
-7.9409357874015747
11
4.8856503149606301
21
-7.9484348425196849
0
LINE
8
BLACK
6
CONTINUOUS
10
4.8856503149606301
20
-7.9484348425196849
11
4.881900787401575
21
-7.9521844094488188
0
LINE
8
BLACK
6
CONTINUOUS
10
4.881900787401575
20
-7.9521844094488188
11
4.8744017322834647
21
-7.9559339370078739
0
LINE
8
BLACK
6
CONTINUOUS
10
4.8744017322834647
20
-7.9559339370078739
11
4.8631531102362207
21
-7.9559339370078739
0
LINE
8
BLACK
6
CONTINUOUS
10
4.9343942125984253
20
-7.9559339370078739
11
4.926895157480315
21
-7.9521844094488188
0
LINE
8
BLACK
6
CONTINUOUS
10
4.926895157480315
20
-7.9521844094488188
11
4.9231456299212599
21
-7.9446853149606298
0
LINE
8
BLACK
6
CONTINUOUS
10
4.9231456299212599
20
-7.9446853149606298
11
4.9231456299212599
21
-7.8771937795275591
0
LINE
8
BLACK
6
CONTINUOUS
10
4.9943867322834645
20
-7.9521844094488188
11
4.9868876771653543
21
-7.9559339370078739
0
LINE
8
BLACK
6
CONTINUOUS
10
4.9868876771653543
20
-7.9559339370078739
11
4.9718895275590551
21
-7.9559339370078739
0
LINE
8
BLACK
6
CONTINUOUS
10
4.9718895275590551
20
-7.9559339370078739
11
4.9643904724409449
21
-7.9521844094488188
0
LINE
8
BLACK
6
CONTINUOUS
10
4.9643904724409449
20
-7.9521844094488188
11
4.9606409448818898
21
-7.9446853149606298
0
LINE
8
BLACK
6
CONTINUOUS
10
4.9606409448818898
20
-7.9446853149606298
11
4.9606409448818898
21
-7.9146890944881889
0
LINE
8
BLACK
6
CONTINUOUS
10
4.9606409448818898
20
-7.9146890944881889
11
4.9643904724409449
21
-7.9071899999999999
0
LINE
8
BLACK
6
CONTINUOUS
10
4.9643904724409449
20
-7.9071899999999999
11
4.9718895275590551
21
-7.9034404724409448
0
LINE
8
BLACK
6
CONTINUOUS
10
4.9718895275590551
20
-7.9034404724409448
11
4.9868876771653543
21
-7.9034404724409448
0
LINE
8
BLACK
6
CONTINUOUS
10
4.9868876771653543
20
-7.9034404724409448
11
4.9943867322834645
21
-7.9071899999999999
0
LINE
8
BLACK
6
CONTINUOUS
10
4.9943867322834645
20
-7.9071899999999999
11
4.9981362598425196
21
-7.9146890944881889
0
LINE
8
BLACK
6
CONTINUOUS
10
4.9981362598425196
20
-7.9146890944881889
11
4.9981362598425196
21
-7.9221881496062991
0
LINE
8
BLACK
6
CONTINUOUS
10
4.9981362598425196
20
-7.9221881496062991
11
4.9606409448818898
21
-7.9296872047244094
0
LINE
8
BLACK
6
CONTINUOUS
10
5.0281325196850393
20
-7.9521844094488188
11
5.0356315748031495
21
-7.9559339370078739
0
LINE
8
BLACK
6
CONTINUOUS
10
5.0356315748031495
20
-7.9559339370078739
11
5.0506296850393699
21
-7.9559339370078739
0
LINE
8
BLACK
6
CONTINUOUS
10
5.0506296850393699
20
-7.9559339370078739
11
5.0581287795275589
21
-7.9521844094488188
0
LINE
8
BLACK
6
CONTINUOUS
10
5.0581287795275589
20
-7.9521844094488188
11
5.061878307086614
21
-7.9446853149606298
0
LINE
8
BLACK
6
CONTINUOUS
10
5.061878307086614
20
-7.9446853149606298
11
5.061878307086614
21
-7.9409357874015747
0
LINE
8
BLACK
6
CONTINUOUS
10
5.061878307086614
20
-7.9409357874015747
11
5.0581287795275589
21
-7.9334367322834645
0
LINE
8
BLACK
6
CONTINUOUS
10
5.0581287795275589
20
-7.9334367322834645
11
5.0506296850393699
21
-7.9296872047244094
0
LINE
8
BLACK
6
CONTINUOUS
10
5.0506296850393699
20
-7.9296872047244094
11
5.0393811023622046
21
-7.9296872047244094
0
LINE
8
BLACK
6
CONTINUOUS
10
5.0393811023622046
20
-7.9296872047244094
11
5.0318820472440944
21
-7.9259376771653542
0
LINE
8
BLACK
6
CONTINUOUS
10
5.0318820472440944
20
-7.9259376771653542
11
5.0281325196850393
21
-7.918438622047244
0
LINE
8
BLACK
6
CONTINUOUS
10
5.0281325196850393
20
-7.918438622047244
11
5.0281325196850393
21
-7.9146890944881889
0
LINE
8
BLACK
6
CONTINUOUS
10
5.0281325196850393
20
-7.9146890944881889
11
5.0318820472440944
21
-7.9071899999999999
0
LINE
8
BLACK
6
CONTINUOUS
10
5.0318820472440944
20
-7.9071899999999999
11
5.0393811023622046
21
-7.9034404724409448
0
LINE
8
BLACK
6
CONTINUOUS
10
5.0393811023622046
20
-7.9034404724409448
11
5.0506296850393699
21
-7.9034404724409448
0
LINE
8
BLACK
6
CONTINUOUS
10
5.0506296850393699
20
-7.9034404724409448
11
5.0581287795275589
21
-7.9071899999999999
0
LINE
8
BLACK
6
CONTINUOUS
10
5.0881250393700785
20
-7.9859301574803148
11
5.0918745669291336
21
-7.9821806299212597
0
LINE
8
BLACK
6
CONTINUOUS
10
5.0918745669291336
20
-7.9821806299212597
11
5.0993736220472439
21
-7.9709320472440943
0
LINE
8
BLACK
6
CONTINUOUS
10
5.0993736220472439
20
-7.9709320472440943
11
5.103123149606299
21
-7.9634329921259841
0
LINE
8
BLACK
6
CONTINUOUS
10
5.103123149606299
20
-7.9634329921259841
11
5.1068726771653541
21
-7.9521844094488188
0
LINE
8
BLACK
6
CONTINUOUS
10
5.1068726771653541
20
-7.9521844094488188
11
5.1106222047244092
21
-7.9334367322834645
0
LINE
8
BLACK
6
CONTINUOUS
10
5.1106222047244092
20
-7.9334367322834645
11
5.1106222047244092
21
-7.918438622047244
0
LINE
8
BLACK
6
CONTINUOUS
10
5.1106222047244092
20
-7.918438622047244
11
5.1068726771653541
21
-7.8996909448818897
0
LINE
8
BLACK
6
CONTINUOUS
10
5.1068726771653541
20
-7.8996909448818897
11
5.103123149606299
21
-7.8884423622047244
0
LINE
8
BLACK
6
CONTINUOUS
10
5.103123149606299
20
-7.8884423622047244
11
5.0993736220472439
21
-7.8809433070866142
0
LINE
8
BLACK
6
CONTINUOUS
10
5.0993736220472439
20
-7.8809433070866142
11
5.0918745669291336
21
-7.8696946850393701
0
LINE
8
BLACK
6
CONTINUOUS
10
5.0918745669291336
20
-7.8696946850393701
11
5.0881250393700785
21
-7.865945157480315
0
LINE
8
BLACK
6
CONTINUOUS
10
5.2306072440944877
20
-7.9859301574803148
11
5.2268576771653539
21
-7.9821806299212597
0
LINE
8
BLACK
6
CONTINUOUS
10
5.2268576771653539
20
-7.9821806299212597
11
5.2193586220472437
21
-7.9709320472440943
0
LINE
8
BLACK
6
CONTINUOUS
10
5.2193586220472437
20
-7.9709320472440943
11
5.2156090944881885
21
-7.9634329921259841
0
LINE
8
BLACK
6
CONTINUOUS
10
5.2156090944881885
20
-7.9634329921259841
11
5.2118595669291334
21
-7.9521844094488188
0
LINE
8
BLACK
6
CONTINUOUS
10
5.2118595669291334
20
-7.9521844094488188
11
5.2081100393700783
21
-7.9334367322834645
0
LINE
8
BLACK
6
CONTINUOUS
10
5.2081100393700783
20
-7.9334367322834645
11
5.2081100393700783
21
-7.918438622047244
0
LINE
8
BLACK
6
CONTINUOUS
10
5.2081100393700783
20
-7.918438622047244
11
5.2118595669291334
21
-7.8996909448818897
0
LINE
8
BLACK
6
CONTINUOUS
10
5.2118595669291334
20
-7.8996909448818897
11
5.2156090944881885
21
-7.8884423622047244
0
LINE
8
BLACK
6
CONTINUOUS
10
5.2156090944881885
20
-7.8884423622047244
11
5.2193586220472437
21
-7.8809433070866142
0
LINE
8
BLACK
6
CONTINUOUS
10
5.2193586220472437
20
-7.8809433070866142
11
5.2268576771653539
21
-7.8696946850393701
0
LINE
8
BLACK
6
CONTINUOUS
10
5.2268576771653539
20
-7.8696946850393701
11
5.2306072440944877
21
-7.865945157480315
0
LINE
8
BLACK
6
CONTINUOUS
10
5.2606034645669286
20
-7.9034404724409448
11
5.2606034645669286
21
-7.9559339370078739
0
LINE
8
BLACK
6
CONTINUOUS
10
5.2606034645669286
20
-7.9109395275590551
11
5.2643529921259837
21
-7.9071899999999999
0
LINE
8
BLACK
6
CONTINUOUS
10
5.2643529921259837
20
-7.9071899999999999
11
5.271852047244094
21
-7.9034404724409448
0
LINE
8
BLACK
6
CONTINUOUS
10
5.271852047244094
20
-7.9034404724409448
11
5.283100669291338
21
-7.9034404724409448
0
LINE
8
BLACK
6
CONTINUOUS
10
5.283100669291338
20
-7.9034404724409448
11
5.2905997244094483
21
-7.9071899999999999
0
LINE
8
BLACK
6
CONTINUOUS
10
5.2905997244094483
20
-7.9071899999999999
11
5.2943492519685043
21
-7.9146890944881889
0
LINE
8
BLACK
6
CONTINUOUS
10
5.2943492519685043
20
-7.9146890944881889
11
5.2943492519685043
21
-7.9559339370078739
0
LINE
8
BLACK
6
CONTINUOUS
10
5.3430931496062994
20
-7.9559339370078739
11
5.3355940944881892
21
-7.9521844094488188
0
LINE
8
BLACK
6
CONTINUOUS
10
5.3355940944881892
20
-7.9521844094488188
11
5.3318445669291341
21
-7.9484348425196849
0
LINE
8
BLACK
6
CONTINUOUS
10
5.3318445669291341
20
-7.9484348425196849
11
5.328095039370079
21
-7.9409357874015747
0
LINE
8
BLACK
6
CONTINUOUS
10
5.328095039370079
20
-7.9409357874015747
11
5.328095039370079
21
-7.918438622047244
0
LINE
8
BLACK
6
CONTINUOUS
10
5.328095039370079
20
-7.918438622047244
11
5.3318445669291341
21
-7.9109395275590551
0
LINE
8
BLACK
6
CONTINUOUS
10
5.3318445669291341
20
-7.9109395275590551
11
5.3355940944881892
21
-7.9071899999999999
0
LINE
8
BLACK
6
CONTINUOUS
10
5.3355940944881892
20
-7.9071899999999999
11
5.3430931496062994
21
-7.9034404724409448
0
LINE
8
BLACK
6
CONTINUOUS
10
5.3430931496062994
20
-7.9034404724409448
11
5.3543417716535435
21
-7.9034404724409448
0
LINE
8
BLACK
6
CONTINUOUS
10
5.3543417716535435
20
-7.9034404724409448
11
5.3618408267716537
21
-7.9071899999999999
0
LINE
8
BLACK
6
CONTINUOUS
10
5.3618408267716537
20
-7.9071899999999999
11
5.3655903543307089
21
-7.9109395275590551
0
LINE
8
BLACK
6
CONTINUOUS
10
5.3655903543307089
20
-7.9109395275590551
11
5.369339881889764
21
-7.918438622047244
0
LINE
8
BLACK
6
CONTINUOUS
10
5.369339881889764
20
-7.918438622047244
11
5.369339881889764
21
-7.9409357874015747
0
LINE
8
BLACK
6
CONTINUOUS
10
5.369339881889764
20
-7.9409357874015747
11
5.3655903543307089
21
-7.9484348425196849
0
LINE
8
BLACK
6
CONTINUOUS
10
5.3655903543307089
20
-7.9484348425196849
11
5.3618408267716537
21
-7.9521844094488188
0
LINE
8
BLACK
6
CONTINUOUS
10
5.3618408267716537
20
-7.9521844094488188
11
5.3543417716535435
21
-7.9559339370078739
0
LINE
8
BLACK
6
CONTINUOUS
10
5.3543417716535435
20
-7.9559339370078739
11
5.3430931496062994
21
-7.9559339370078739
0
LINE
8
BLACK
6
CONTINUOUS
10
5.3918370866141734
20
-7.9034404724409448
11
5.4218333070866143
21
-7.9034404724409448
0
LINE
8
BLACK
6
CONTINUOUS
10
5.4030856692913387
20
-7.8771937795275591
11
5.4030856692913387
21
-7.9446853149606298
0
LINE
8
BLACK
6
CONTINUOUS
10
5.4030856692913387
20
-7.9446853149606298
11
5.4068351968503938
21
-7.9521844094488188
0
LINE
8
BLACK
6
CONTINUOUS
10
5.4068351968503938
20
-7.9521844094488188
11
5.414334251968504
21
-7.9559339370078739
0
LINE
8
BLACK
6
CONTINUOUS
10
5.414334251968504
20
-7.9559339370078739
11
5.4218333070866143
21
-7.9559339370078739
0
LINE
8
BLACK
6
CONTINUOUS
10
5.5080725590551181
20
-7.9034404724409448
11
5.5080725590551181
21
-7.9821806299212597
0
LINE
8
BLACK
6
CONTINUOUS
10
5.5080725590551181
20
-7.9071899999999999
11
5.5155716141732283
21
-7.9034404724409448
0
LINE
8
BLACK
6
CONTINUOUS
10
5.5155716141732283
20
-7.9034404724409448
11
5.5305697637795275
21
-7.9034404724409448
0
LINE
8
BLACK
6
CONTINUOUS
10
5.5305697637795275
20
-7.9034404724409448
11
5.5380688188976377
21
-7.9071899999999999
0
LINE
8
BLACK
6
CONTINUOUS
10
5.5380688188976377
20
-7.9071899999999999
11
5.5418183464566928
21
-7.9109395275590551
0
LINE
8
BLACK
6
CONTINUOUS
10
5.5418183464566928
20
-7.9109395275590551
11
5.5455678740157479
21
-7.918438622047244
0
LINE
8
BLACK
6
CONTINUOUS
10
5.5455678740157479
20
-7.918438622047244
11
5.5455678740157479
21
-7.9409357874015747
0
LINE
8
BLACK
6
CONTINUOUS
10
5.5455678740157479
20
-7.9409357874015747
11
5.5418183464566928
21
-7.9484348425196849
0
LINE
8
BLACK
6
CONTINUOUS
10
5.5418183464566928
20
-7.9484348425196849
11
5.5380688188976377
21
-7.9521844094488188
0
LINE
8
BLACK
6
CONTINUOUS
10
5.5380688188976377
20
-7.9521844094488188
11
5.5305697637795275
21
-7.9559339370078739
0
LINE
8
BLACK
6
CONTINUOUS
10
5.5305697637795275
20
-7.9559339370078739
11
5.5155716141732283
21
-7.9559339370078739
0
LINE
8
BLACK
6
CONTINUOUS
10
5.5155716141732283
20
-7.9559339370078739
11
5.5080725590551181
21
-7.9521844094488188
0
LINE
8
BLACK
6
CONTINUOUS
10
5.590562244094488
20
-7.9559339370078739
11
5.5830631889763778
21
-7.9521844094488188
0
LINE
8
BLACK
6
CONTINUOUS
10
5.5830631889763778
20
-7.9521844094488188
11
5.5793136614173227
21
-7.9446853149606298
0
LINE
8
BLACK
6
CONTINUOUS
10
5.5793136614173227
20
-7.9446853149606298
11
5.5793136614173227
21
-7.8771937795275591
0
LINE
8
BLACK
6
CONTINUOUS
10
5.6543042913385824
20
-7.9559339370078739
11
5.6543042913385824
21
-7.9146890944881889
0
LINE
8
BLACK
6
CONTINUOUS
10
5.6543042913385824
20
-7.9146890944881889
11
5.6505547637795273
21
-7.9071899999999999
0
LINE
8
BLACK
6
CONTINUOUS
10
5.6505547637795273
20
-7.9071899999999999
11
5.643055708661417
21
-7.9034404724409448
0
LINE
8
BLACK
6
CONTINUOUS
10
5.643055708661417
20
-7.9034404724409448
11
5.6280575590551178
21
-7.9034404724409448
0
LINE
8
BLACK
6
CONTINUOUS
10
5.6280575590551178
20
-7.9034404724409448
11
5.6205585039370076
21
-7.9071899999999999
0
LINE
8
BLACK
6
CONTINUOUS
10
5.6543042913385824
20
-7.9521844094488188
11
5.6468052362204721
21
-7.9559339370078739
0
LINE
8
BLACK
6
CONTINUOUS
10
5.6468052362204721
20
-7.9559339370078739
11
5.6280575590551178
21
-7.9559339370078739
0
LINE
8
BLACK
6
CONTINUOUS
10
5.6280575590551178
20
-7.9559339370078739
11
5.6205585039370076
21
-7.9521844094488188
0
LINE
8
BLACK
6
CONTINUOUS
10
5.6205585039370076
20
-7.9521844094488188
11
5.6168089763779525
21
-7.9446853149606298
0
LINE
8
BLACK
6
CONTINUOUS
10
5.6168089763779525
20
-7.9446853149606298
11
5.6168089763779525
21
-7.9371862598425196
0
LINE
8
BLACK
6
CONTINUOUS
10
5.6168089763779525
20
-7.9371862598425196
11
5.6205585039370076
21
-7.9296872047244094
0
LINE
8
BLACK
6
CONTINUOUS
10
5.6205585039370076
20
-7.9296872047244094
11
5.6280575590551178
21
-7.9259376771653542
0
LINE
8
BLACK
6
CONTINUOUS
10
5.6280575590551178
20
-7.9259376771653542
11
5.6468052362204721
21
-7.9259376771653542
0
LINE
8
BLACK
6
CONTINUOUS
10
5.6468052362204721
20
-7.9259376771653542
11
5.6543042913385824
21
-7.9221881496062991
0
LINE
8
BLACK
6
CONTINUOUS
10
5.6805510236220469
20
-7.9034404724409448
11
5.7105472440944878
21
-7.9034404724409448
0
LINE
8
BLACK
6
CONTINUOUS
10
5.6917996062992122
20
-7.8771937795275591
11
5.6917996062992122
21
-7.9446853149606298
0
LINE
8
BLACK
6
CONTINUOUS
10
5.6917996062992122
20
-7.9446853149606298
11
5.6955491338582673
21
-7.9521844094488188
0
LINE
8
BLACK
6
CONTINUOUS
10
5.6955491338582673
20
-7.9521844094488188
11
5.7030481889763776
21
-7.9559339370078739
0
LINE
8
BLACK
6
CONTINUOUS
10
5.7030481889763776
20
-7.9559339370078739
11
5.7105472440944878
21
-7.9559339370078739
0
LINE
8
BLACK
6
CONTINUOUS
10
5.7667902362204719
20
-7.9521844094488188
11
5.7592911811023617
21
-7.9559339370078739
0
LINE
8
BLACK
6
CONTINUOUS
10
5.7592911811023617
20
-7.9559339370078739
11
5.7442930314960625
21
-7.9559339370078739
0
LINE
8
BLACK
6
CONTINUOUS
10
5.7442930314960625
20
-7.9559339370078739
11
5.7367939763779523
21
-7.9521844094488188
0
LINE
8
BLACK
6
CONTINUOUS
10
5.7367939763779523
20
-7.9521844094488188
11
5.7330444488188972
21
-7.9446853149606298
0
LINE
8
BLACK
6
CONTINUOUS
10
5.7330444488188972
20
-7.9446853149606298
11
5.7330444488188972
21
-7.9146890944881889
0
LINE
8
BLACK
6
CONTINUOUS
10
5.7330444488188972
20
-7.9146890944881889
11
5.7367939763779523
21
-7.9071899999999999
0
LINE
8
BLACK
6
CONTINUOUS
10
5.7367939763779523
20
-7.9071899999999999
11
5.7442930314960625
21
-7.9034404724409448
0
LINE
8
BLACK
6
CONTINUOUS
10
5.7442930314960625
20
-7.9034404724409448
11
5.7592911811023617
21
-7.9034404724409448
0
LINE
8
BLACK
6
CONTINUOUS
10
5.7592911811023617
20
-7.9034404724409448
11
5.7667902362204719
21
-7.9071899999999999
0
LINE
8
BLACK
6
CONTINUOUS
10
5.7667902362204719
20
-7.9071899999999999
11
5.770539763779527
21
-7.9146890944881889
0
LINE
8
BLACK
6
CONTINUOUS
10
5.770539763779527
20
-7.9146890944881889
11
5.770539763779527
21
-7.9221881496062991
0
LINE
8
BLACK
6
CONTINUOUS
10
5.770539763779527
20
-7.9221881496062991
11
5.7330444488188972
21
-7.9296872047244094
0
LINE
8
BLACK
6
CONTINUOUS
10
5.8380313385826774
20
-7.9559339370078739
11
5.8380313385826774
21
-7.8771937795275591
0
LINE
8
BLACK
6
CONTINUOUS
10
5.8380313385826774
20
-7.9521844094488188
11
5.8305322834645672
21
-7.9559339370078739
0
LINE
8
BLACK
6
CONTINUOUS
10
5.8305322834645672
20
-7.9559339370078739
11
5.815534133858268
21
-7.9559339370078739
0
LINE
8
BLACK
6
CONTINUOUS
10
5.815534133858268
20
-7.9559339370078739
11
5.8080350787401578
21
-7.9521844094488188
0
LINE
8
BLACK
6
CONTINUOUS
10
5.8080350787401578
20
-7.9521844094488188
11
5.8042855511811018
21
-7.9484348425196849
0
LINE
8
BLACK
6
CONTINUOUS
10
5.8042855511811018
20
-7.9484348425196849
11
5.8005360236220467
21
-7.9409357874015747
0
LINE
8
BLACK
6
CONTINUOUS
10
5.8005360236220467
20
-7.9409357874015747
11
5.8005360236220467
21
-7.918438622047244
0
LINE
8
BLACK
6
CONTINUOUS
10
5.8005360236220467
20
-7.918438622047244
11
5.8042855511811018
21
-7.9109395275590551
0
LINE
8
BLACK
6
CONTINUOUS
10
5.8042855511811018
20
-7.9109395275590551
11
5.8080350787401578
21
-7.9071899999999999
0
LINE
8
BLACK
6
CONTINUOUS
10
5.8080350787401578
20
-7.9071899999999999
11
5.815534133858268
21
-7.9034404724409448
0
LINE
8
BLACK
6
CONTINUOUS
10
5.815534133858268
20
-7.9034404724409448
11
5.8305322834645672
21
-7.9034404724409448
0
LINE
8
BLACK
6
CONTINUOUS
10
5.8305322834645672
20
-7.9034404724409448
11
5.8380313385826774
21
-7.9071899999999999
0
LINE
8
BLACK
6
CONTINUOUS
10
5.8680275984251971
20
-7.9859301574803148
11
5.8717771259842522
21
-7.9821806299212597
0
LINE
8
BLACK
6
CONTINUOUS
10
5.8717771259842522
20
-7.9821806299212597
11
5.8792761811023624
21
-7.9709320472440943
0
LINE
8
BLACK
6
CONTINUOUS
10
5.8792761811023624
20
-7.9709320472440943
11
5.8830257086614175
21
-7.9634329921259841
0
LINE
8
BLACK
6
CONTINUOUS
10
5.8830257086614175
20
-7.9634329921259841
11
5.8867752362204726
21
-7.9521844094488188
0
LINE
8
BLACK
6
CONTINUOUS
10
5.8867752362204726
20
-7.9521844094488188
11
5.8905247637795277
21
-7.9334367322834645
0
LINE
8
BLACK
6
CONTINUOUS
10
5.8905247637795277
20
-7.9334367322834645
11
5.8905247637795277
21
-7.918438622047244
0
LINE
8
BLACK
6
CONTINUOUS
10
5.8905247637795277
20
-7.918438622047244
11
5.8867752362204726
21
-7.8996909448818897
0
LINE
8
BLACK
6
CONTINUOUS
10
5.8867752362204726
20
-7.8996909448818897
11
5.8830257086614175
21
-7.8884423622047244
0
LINE
8
BLACK
6
CONTINUOUS
10
5.8830257086614175
20
-7.8884423622047244
11
5.8792761811023624
21
-7.8809433070866142
0
LINE
8
BLACK
6
CONTINUOUS
10
5.8792761811023624
20
-7.8809433070866142
11
5.8717771259842522
21
-7.8696946850393701
0
LINE
8
BLACK
6
CONTINUOUS
10
5.8717771259842522
20
-7.8696946850393701
11
5.8680275984251971
21
-7.865945157480315
0
CIRCLE
8
BLACK
10
3.0938182677165353
20
-8.0360584251968508
40
0.0393700787401575
0
LINE
8
BLACK
6
CONTINUOUS
10
3.2283573228346456
20
-7.9933355118110239
11
3.2771012204724408
21
-7.9933355118110239
0
LINE
8
BLACK
6
CONTINUOUS
10
3.2771012204724408
20
-7.9933355118110239
11
3.2508544881889763
21
-8.0233317322834647
0
LINE
8
BLACK
6
CONTINUOUS
10
3.2508544881889763
20
-8.0233317322834647
11
3.2621031102362203
21
-8.0233317322834647
0
LINE
8
BLACK
6
CONTINUOUS
10
3.2621031102362203
20
-8.0233317322834647
11
3.2696021653543306
21
-8.0270812598425199
0
LINE
8
BLACK
6
CONTINUOUS
10
3.2696021653543306
20
-8.0270812598425199
11
3.2733516929133857
21
-8.0308308267716537
0
LINE
8
BLACK
6
CONTINUOUS
10
3.2733516929133857
20
-8.0308308267716537
11
3.2771012204724408
21
-8.0383298818897639
0
LINE
8
BLACK
6
CONTINUOUS
10
3.2771012204724408
20
-8.0383298818897639
11
3.2771012204724408
21
-8.0570775196850395
0
LINE
8
BLACK
6
CONTINUOUS
10
3.2771012204724408
20
-8.0570775196850395
11
3.2733516929133857
21
-8.0645765748031497
0
LINE
8
BLACK
6
CONTINUOUS
10
3.2733516929133857
20
-8.0645765748031497
11
3.2696021653543306
21
-8.0683261417322836
0
LINE
8
BLACK
6
CONTINUOUS
10
3.2696021653543306
20
-8.0683261417322836
11
3.2621031102362203
21
-8.0720756692913387
0
LINE
8
BLACK
6
CONTINUOUS
10
3.2621031102362203
20
-8.0720756692913387
11
3.2396059055118109
21
-8.0720756692913387
0
LINE
8
BLACK
6
CONTINUOUS
10
3.2396059055118109
20
-8.0720756692913387
11
3.2321068503937007
21
-8.0683261417322836
0
LINE
8
BLACK
6
CONTINUOUS
10
3.2321068503937007
20
-8.0683261417322836
11
3.2283573228346456
21
-8.0645765748031497
0
LINE
8
BLACK
6
CONTINUOUS
10
3.3108470078740155
20
-8.0645765748031497
11
3.3145965354330706
21
-8.0683261417322836
0
LINE
8
BLACK
6
CONTINUOUS
10
3.3145965354330706
20
-8.0683261417322836
11
3.3108470078740155
21
-8.0720756692913387
0
LINE
8
BLACK
6
CONTINUOUS
10
3.3108470078740155
20
-8.0720756692913387
11
3.3070974803149604
21
-8.0683261417322836
0
LINE
8
BLACK
6
CONTINUOUS
10
3.3070974803149604
20
-8.0683261417322836
11
3.3108470078740155
21
-8.0645765748031497
0
LINE
8
BLACK
6
CONTINUOUS
10
3.3108470078740155
20
-8.0645765748031497
11
3.3108470078740155
21
-8.0720756692913387
0
LINE
8
BLACK
6
CONTINUOUS
10
3.3520918503937005
20
-8.0720756692913387
11
3.3670899606299214
21
-8.0720756692913387
0
LINE
8
BLACK
6
CONTINUOUS
10
3.3670899606299214
20
-8.0720756692913387
11
3.3745890551181104
21
-8.0683261417322836
0
LINE
8
BLACK
6
CONTINUOUS
10
3.3745890551181104
20
-8.0683261417322836
11
3.3783385826771655
21
-8.0645765748031497
0
LINE
8
BLACK
6
CONTINUOUS
10
3.3783385826771655
20
-8.0645765748031497
11
3.3858376377952757
21
-8.0533279921259844
0
LINE
8
BLACK
6
CONTINUOUS
10
3.3858376377952757
20
-8.0533279921259844
11
3.3895871653543308
21
-8.0383298818897639
0
LINE
8
BLACK
6
CONTINUOUS
10
3.3895871653543308
20
-8.0383298818897639
11
3.3895871653543308
21
-8.0083336220472443
0
LINE
8
BLACK
6
CONTINUOUS
10
3.3895871653543308
20
-8.0083336220472443
11
3.3858376377952757
21
-8.0008345669291341
0
LINE
8
BLACK
6
CONTINUOUS
10
3.3858376377952757
20
-8.0008345669291341
11
3.3820881102362206
21
-7.997085039370079
0
LINE
8
BLACK
6
CONTINUOUS
10
3.3820881102362206
20
-7.997085039370079
11
3.3745890551181104
21
-7.9933355118110239
0
LINE
8
BLACK
6
CONTINUOUS
10
3.3745890551181104
20
-7.9933355118110239
11
3.3595909055118112
21
-7.9933355118110239
0
LINE
8
BLACK
6
CONTINUOUS
10
3.3595909055118112
20
-7.9933355118110239
11
3.3520918503937005
21
-7.997085039370079
0
LINE
8
BLACK
6
CONTINUOUS
10
3.3520918503937005
20
-7.997085039370079
11
3.3483423228346454
21
-8.0008345669291341
0
LINE
8
BLACK
6
CONTINUOUS
10
3.3483423228346454
20
-8.0008345669291341
11
3.3445927952755903
21
-8.0083336220472443
0
LINE
8
BLACK
6
CONTINUOUS
10
3.3445927952755903
20
-8.0083336220472443
11
3.3445927952755903
21
-8.0270812598425199
0
LINE
8
BLACK
6
CONTINUOUS
10
3.3445927952755903
20
-8.0270812598425199
11
3.3483423228346454
21
-8.0345803543307088
0
LINE
8
BLACK
6
CONTINUOUS
10
3.3483423228346454
20
-8.0345803543307088
11
3.3520918503937005
21
-8.0383298818897639
0
LINE
8
BLACK
6
CONTINUOUS
10
3.3520918503937005
20
-8.0383298818897639
11
3.3595909055118112
21
-8.042079409448819
0
LINE
8
BLACK
6
CONTINUOUS
10
3.3595909055118112
20
-8.042079409448819
11
3.3745890551181104
21
-8.042079409448819
0
LINE
8
BLACK
6
CONTINUOUS
10
3.3745890551181104
20
-8.042079409448819
11
3.3820881102362206
21
-8.0383298818897639
0
LINE
8
BLACK
6
CONTINUOUS
10
3.3820881102362206
20
-8.0383298818897639
11
3.3858376377952757
21
-8.0345803543307088
0
LINE
8
BLACK
6
CONTINUOUS
10
3.3858376377952757
20
-8.0345803543307088
11
3.3895871653543308
21
-8.0270812598425199
0
LINE
8
BLACK
6
CONTINUOUS
10
3.4345815354330709
20
-8.0270812598425199
11
3.4270824803149607
21
-8.0233317322834647
0
LINE
8
BLACK
6
CONTINUOUS
10
3.4270824803149607
20
-8.0233317322834647
11
3.4233329527559055
21
-8.0195822047244096
0
LINE
8
BLACK
6
CONTINUOUS
10
3.4233329527559055
20
-8.0195822047244096
11
3.4195834251968504
21
-8.0120831496062994
0
LINE
8
BLACK
6
CONTINUOUS
10
3.4195834251968504
20
-8.0120831496062994
11
3.4195834251968504
21
-8.0083336220472443
0
LINE
8
BLACK
6
CONTINUOUS
10
3.4195834251968504
20
-8.0083336220472443
11
3.4233329527559055
21
-8.0008345669291341
0
LINE
8
BLACK
6
CONTINUOUS
10
3.4233329527559055
20
-8.0008345669291341
11
3.4270824803149607
21
-7.997085039370079
0
LINE
8
BLACK
6
CONTINUOUS
10
3.4270824803149607
20
-7.997085039370079
11
3.4345815354330709
21
-7.9933355118110239
0
LINE
8
BLACK
6
CONTINUOUS
10
3.4345815354330709
20
-7.9933355118110239
11
3.4495796850393701
21
-7.9933355118110239
0
LINE
8
BLACK
6
CONTINUOUS
10
3.4495796850393701
20
-7.9933355118110239
11
3.4570787401574803
21
-7.997085039370079
0
LINE
8
BLACK
6
CONTINUOUS
10
3.4570787401574803
20
-7.997085039370079
11
3.4608282677165354
21
-8.0008345669291341
0
LINE
8
BLACK
6
CONTINUOUS
10
3.4608282677165354
20
-8.0008345669291341
11
3.4645777952755905
21
-8.0083336220472443
0
LINE
8
BLACK
6
CONTINUOUS
10
3.4645777952755905
20
-8.0083336220472443
11
3.4645777952755905
21
-8.0120831496062994
0
LINE
8
BLACK
6
CONTINUOUS
10
3.4645777952755905
20
-8.0120831496062994
11
3.4608282677165354
21
-8.0195822047244096
0
LINE
8
BLACK
6
CONTINUOUS
10
3.4608282677165354
20
-8.0195822047244096
11
3.4570787401574803
21
-8.0233317322834647
0
LINE
8
BLACK
6
CONTINUOUS
10
3.4570787401574803
20
-8.0233317322834647
11
3.4495796850393701
21
-8.0270812598425199
0
LINE
8
BLACK
6
CONTINUOUS
10
3.4495796850393701
20
-8.0270812598425199
11
3.4345815354330709
21
-8.0270812598425199
0
LINE
8
BLACK
6
CONTINUOUS
10
3.4345815354330709
20
-8.0270812598425199
11
3.4270824803149607
21
-8.0308308267716537
0
LINE
8
BLACK
6
CONTINUOUS
10
3.4270824803149607
20
-8.0308308267716537
11
3.4233329527559055
21
-8.0345803543307088
0
LINE
8
BLACK
6
CONTINUOUS
10
3.4233329527559055
20
-8.0345803543307088
11
3.4195834251968504
21
-8.042079409448819
0
LINE
8
BLACK
6
CONTINUOUS
10
3.4195834251968504
20
-8.042079409448819
11
3.4195834251968504
21
-8.0570775196850395
0
LINE
8
BLACK
6
CONTINUOUS
10
3.4195834251968504
20
-8.0570775196850395
11
3.4233329527559055
21
-8.0645765748031497
0
LINE
8
BLACK
6
CONTINUOUS
10
3.4233329527559055
20
-8.0645765748031497
11
3.4270824803149607
21
-8.0683261417322836
0
LINE
8
BLACK
6
CONTINUOUS
10
3.4270824803149607
20
-8.0683261417322836
11
3.4345815354330709
21
-8.0720756692913387
0
LINE
8
BLACK
6
CONTINUOUS
10
3.4345815354330709
20
-8.0720756692913387
11
3.4495796850393701
21
-8.0720756692913387
0
LINE
8
BLACK
6
CONTINUOUS
10
3.4495796850393701
20
-8.0720756692913387
11
3.4570787401574803
21
-8.0683261417322836
0
LINE
8
BLACK
6
CONTINUOUS
10
3.4570787401574803
20
-8.0683261417322836
11
3.4608282677165354
21
-8.0645765748031497
0
LINE
8
BLACK
6
CONTINUOUS
10
3.4608282677165354
20
-8.0645765748031497
11
3.4645777952755905
21
-8.0570775196850395
0
LINE
8
BLACK
6
CONTINUOUS
10
3.4645777952755905
20
-8.0570775196850395
11
3.4645777952755905
21
-8.042079409448819
0
LINE
8
BLACK
6
CONTINUOUS
10
3.4645777952755905
20
-8.042079409448819
11
3.4608282677165354
21
-8.0345803543307088
0
LINE
8
BLACK
6
CONTINUOUS
10
3.4608282677165354
20
-8.0345803543307088
11
3.4570787401574803
21
-8.0308308267716537
0
LINE
8
BLACK
6
CONTINUOUS
10
3.4570787401574803
20
-8.0308308267716537
11
3.4495796850393701
21
-8.0270812598425199
0
LINE
8
BLACK
6
CONTINUOUS
10
3.5095721653543306
20
-8.0270812598425199
11
3.5020731102362204
21
-8.0233317322834647
0
LINE
8
BLACK
6
CONTINUOUS
10
3.5020731102362204
20
-8.0233317322834647
11
3.4983235826771653
21
-8.0195822047244096
0
LINE
8
BLACK
6
CONTINUOUS
10
3.4983235826771653
20
-8.0195822047244096
11
3.4945740551181101
21
-8.0120831496062994
0
LINE
8
BLACK
6
CONTINUOUS
10
3.4945740551181101
20
-8.0120831496062994
11
3.4945740551181101
21
-8.0083336220472443
0
LINE
8
BLACK
6
CONTINUOUS
10
3.4945740551181101
20
-8.0083336220472443
11
3.4983235826771653
21
-8.0008345669291341
0
LINE
8
BLACK
6
CONTINUOUS
10
3.4983235826771653
20
-8.0008345669291341
11
3.5020731102362204
21
-7.997085039370079
0
LINE
8
BLACK
6
CONTINUOUS
10
3.5020731102362204
20
-7.997085039370079
11
3.5095721653543306
21
-7.9933355118110239
0
LINE
8
BLACK
6
CONTINUOUS
10
3.5095721653543306
20
-7.9933355118110239
11
3.5245703149606298
21
-7.9933355118110239
0
LINE
8
BLACK
6
CONTINUOUS
10
3.5245703149606298
20
-7.9933355118110239
11
3.53206937007874
21
-7.997085039370079
0
LINE
8
BLACK
6
CONTINUOUS
10
3.53206937007874
20
-7.997085039370079
11
3.5358188976377951
21
-8.0008345669291341
0
LINE
8
BLACK
6
CONTINUOUS
10
3.5358188976377951
20
-8.0008345669291341
11
3.5395684251968502
21
-8.0083336220472443
0
LINE
8
BLACK
6
CONTINUOUS
10
3.5395684251968502
20
-8.0083336220472443
11
3.5395684251968502
21
-8.0120831496062994
0
LINE
8
BLACK
6
CONTINUOUS
10
3.5395684251968502
20
-8.0120831496062994
11
3.5358188976377951
21
-8.0195822047244096
0
LINE
8
BLACK
6
CONTINUOUS
10
3.5358188976377951
20
-8.0195822047244096
11
3.53206937007874
21
-8.0233317322834647
0
LINE
8
BLACK
6
CONTINUOUS
10
3.53206937007874
20
-8.0233317322834647
11
3.5245703149606298
21
-8.0270812598425199
0
LINE
8
BLACK
6
CONTINUOUS
10
3.5245703149606298
20
-8.0270812598425199
11
3.5095721653543306
21
-8.0270812598425199
0
LINE
8
BLACK
6
CONTINUOUS
10
3.5095721653543306
20
-8.0270812598425199
11
3.5020731102362204
21
-8.0308308267716537
0
LINE
8
BLACK
6
CONTINUOUS
10
3.5020731102362204
20
-8.0308308267716537
11
3.4983235826771653
21
-8.0345803543307088
0
LINE
8
BLACK
6
CONTINUOUS
10
3.4983235826771653
20
-8.0345803543307088
11
3.4945740551181101
21
-8.042079409448819
0
LINE
8
BLACK
6
CONTINUOUS
10
3.4945740551181101
20
-8.042079409448819
11
3.4945740551181101
21
-8.0570775196850395
0
LINE
8
BLACK
6
CONTINUOUS
10
3.4945740551181101
20
-8.0570775196850395
11
3.4983235826771653
21
-8.0645765748031497
0
LINE
8
BLACK
6
CONTINUOUS
10
3.4983235826771653
20
-8.0645765748031497
11
3.5020731102362204
21
-8.0683261417322836
0
LINE
8
BLACK
6
CONTINUOUS
10
3.5020731102362204
20
-8.0683261417322836
11
3.5095721653543306
21
-8.0720756692913387
0
LINE
8
BLACK
6
CONTINUOUS
10
3.5095721653543306
20
-8.0720756692913387
11
3.5245703149606298
21
-8.0720756692913387
0
LINE
8
BLACK
6
CONTINUOUS
10
3.5245703149606298
20
-8.0720756692913387
11
3.53206937007874
21
-8.0683261417322836
0
LINE
8
BLACK
6
CONTINUOUS
10
3.53206937007874
20
-8.0683261417322836
11
3.5358188976377951
21
-8.0645765748031497
0
LINE
8
BLACK
6
CONTINUOUS
10
3.5358188976377951
20
-8.0645765748031497
11
3.5395684251968502
21
-8.0570775196850395
0
LINE
8
BLACK
6
CONTINUOUS
10
3.5395684251968502
20
-8.0570775196850395
11
3.5395684251968502
21
-8.042079409448819
0
LINE
8
BLACK
6
CONTINUOUS
10
3.5395684251968502
20
-8.042079409448819
11
3.5358188976377951
21
-8.0345803543307088
0
LINE
8
BLACK
6
CONTINUOUS
10
3.5358188976377951
20
-8.0345803543307088
11
3.53206937007874
21
-8.0308308267716537
0
LINE
8
BLACK
6
CONTINUOUS
10
3.53206937007874
20
-8.0308308267716537
11
3.5245703149606298
21
-8.0270812598425199
0
LINE
8
BLACK
6
CONTINUOUS
10
3.573314212598425
20
-8.0720756692913387
11
3.573314212598425
21
-8.0195822047244096
0
LINE
8
BLACK
6
CONTINUOUS
10
3.573314212598425
20
-8.0270812598425199
11
3.5770637401574801
21
-8.0233317322834647
0
LINE
8
BLACK
6
CONTINUOUS
10
3.5770637401574801
20
-8.0233317322834647
11
3.5845627952755903
21
-8.0195822047244096
0
LINE
8
BLACK
6
CONTINUOUS
10
3.5845627952755903
20
-8.0195822047244096
11
3.5958114173228344
21
-8.0195822047244096
0
LINE
8
BLACK
6
CONTINUOUS
10
3.5958114173228344
20
-8.0195822047244096
11
3.6033104724409446
21
-8.0233317322834647
0
LINE
8
BLACK
6
CONTINUOUS
10
3.6033104724409446
20
-8.0233317322834647
11
3.6070599999999997
21
-8.0308308267716537
0
LINE
8
BLACK
6
CONTINUOUS
10
3.6070599999999997
20
-8.0308308267716537
11
3.6070599999999997
21
-8.0720756692913387
0
LINE
8
BLACK
6
CONTINUOUS
10
3.6070599999999997
20
-8.0308308267716537
11
3.6108095275590548
21
-8.0233317322834647
0
LINE
8
BLACK
6
CONTINUOUS
10
3.6108095275590548
20
-8.0233317322834647
11
3.6183085826771655
21
-8.0195822047244096
0
LINE
8
BLACK
6
CONTINUOUS
10
3.6183085826771655
20
-8.0195822047244096
11
3.6295571653543308
21
-8.0195822047244096
0
LINE
8
BLACK
6
CONTINUOUS
10
3.6295571653543308
20
-8.0195822047244096
11
3.6370562598425198
21
-8.0233317322834647
0
LINE
8
BLACK
6
CONTINUOUS
10
3.6370562598425198
20
-8.0233317322834647
11
3.6408057874015749
21
-8.0308308267716537
0
LINE
8
BLACK
6
CONTINUOUS
10
3.6408057874015749
20
-8.0308308267716537
11
3.6408057874015749
21
-8.0720756692913387
0
LINE
8
BLACK
6
CONTINUOUS
10
3.6783011023622048
20
-8.0720756692913387
11
3.6783011023622048
21
-8.0195822047244096
0
LINE
8
BLACK
6
CONTINUOUS
10
3.6783011023622048
20
-8.0270812598425199
11
3.6820506299212599
21
-8.0233317322834647
0
LINE
8
BLACK
6
CONTINUOUS
10
3.6820506299212599
20
-8.0233317322834647
11
3.6895496850393701
21
-8.0195822047244096
0
LINE
8
BLACK
6
CONTINUOUS
10
3.6895496850393701
20
-8.0195822047244096
11
3.7007983070866142
21
-8.0195822047244096
0
LINE
8
BLACK
6
CONTINUOUS
10
3.7007983070866142
20
-8.0195822047244096
11
3.7082973622047244
21
-8.0233317322834647
0
LINE
8
BLACK
6
CONTINUOUS
10
3.7082973622047244
20
-8.0233317322834647
11
3.7120468897637795
21
-8.0308308267716537
0
LINE
8
BLACK
6
CONTINUOUS
10
3.7120468897637795
20
-8.0308308267716537
11
3.7120468897637795
21
-8.0720756692913387
0
LINE
8
BLACK
6
CONTINUOUS
10
3.7120468897637795
20
-8.0308308267716537
11
3.7157964173228346
21
-8.0233317322834647
0
LINE
8
BLACK
6
CONTINUOUS
10
3.7157964173228346
20
-8.0233317322834647
11
3.7232954724409448
21
-8.0195822047244096
0
LINE
8
BLACK
6
CONTINUOUS
10
3.7232954724409448
20
-8.0195822047244096
11
3.7345440551181102
21
-8.0195822047244096
0
LINE
8
BLACK
6
CONTINUOUS
10
3.7345440551181102
20
-8.0195822047244096
11
3.7420431496062991
21
-8.0233317322834647
0
LINE
8
BLACK
6
CONTINUOUS
10
3.7420431496062991
20
-8.0233317322834647
11
3.7457926771653542
21
-8.0308308267716537
0
LINE
8
BLACK
6
CONTINUOUS
10
3.7457926771653542
20
-8.0308308267716537
11
3.7457926771653542
21
-8.0720756692913387
0
LINE
8
BLACK
6
CONTINUOUS
10
3.8995234645669292
20
-7.9895859842519688
11
3.832031929133858
21
-8.0908233070866142
0
LINE
8
BLACK
6
CONTINUOUS
10
4.0007608267716535
20
-7.9933355118110239
11
4.0082599212598424
21
-7.9933355118110239
0
LINE
8
BLACK
6
CONTINUOUS
10
4.0082599212598424
20
-7.9933355118110239
11
4.0157589763779526
21
-7.997085039370079
0
LINE
8
BLACK
6
CONTINUOUS
10
4.0157589763779526
20
-7.997085039370079
11
4.0195085039370078
21
-8.0008345669291341
0
LINE
8
BLACK
6
CONTINUOUS
10
4.0195085039370078
20
-8.0008345669291341
11
4.0232580314960629
21
-8.0083336220472443
0
LINE
8
BLACK
6
CONTINUOUS
10
4.0232580314960629
20
-8.0083336220472443
11
4.027007559055118
21
-8.0233317322834647
0
LINE
8
BLACK
6
CONTINUOUS
10
4.027007559055118
20
-8.0233317322834647
11
4.027007559055118
21
-8.042079409448819
0
LINE
8
BLACK
6
CONTINUOUS
10
4.027007559055118
20
-8.042079409448819
11
4.0232580314960629
21
-8.0570775196850395
0
LINE
8
BLACK
6
CONTINUOUS
10
4.0232580314960629
20
-8.0570775196850395
11
4.0195085039370078
21
-8.0645765748031497
0
LINE
8
BLACK
6
CONTINUOUS
10
4.0195085039370078
20
-8.0645765748031497
11
4.0157589763779526
21
-8.0683261417322836
0
LINE
8
BLACK
6
CONTINUOUS
10
4.0157589763779526
20
-8.0683261417322836
11
4.0082599212598424
21
-8.0720756692913387
0
LINE
8
BLACK
6
CONTINUOUS
10
4.0082599212598424
20
-8.0720756692913387
11
4.0007608267716535
21
-8.0720756692913387
0
LINE
8
BLACK
6
CONTINUOUS
10
4.0007608267716535
20
-8.0720756692913387
11
3.9932617716535432
21
-8.0683261417322836
0
LINE
8
BLACK
6
CONTINUOUS
10
3.9932617716535432
20
-8.0683261417322836
11
3.9895122440944881
21
-8.0645765748031497
0
LINE
8
BLACK
6
CONTINUOUS
10
3.9895122440944881
20
-8.0645765748031497
11
3.985762716535433
21
-8.0570775196850395
0
LINE
8
BLACK
6
CONTINUOUS
10
3.985762716535433
20
-8.0570775196850395
11
3.9820131889763779
21
-8.042079409448819
0
LINE
8
BLACK
6
CONTINUOUS
10
3.9820131889763779
20
-8.042079409448819
11
3.9820131889763779
21
-8.0233317322834647
0
LINE
8
BLACK
6
CONTINUOUS
10
3.9820131889763779
20
-8.0233317322834647
11
3.985762716535433
21
-8.0083336220472443
0
LINE
8
BLACK
6
CONTINUOUS
10
3.985762716535433
20
-8.0083336220472443
11
3.9895122440944881
21
-8.0008345669291341
0
LINE
8
BLACK
6
CONTINUOUS
10
3.9895122440944881
20
-8.0008345669291341
11
3.9932617716535432
21
-7.997085039370079
0
LINE
8
BLACK
6
CONTINUOUS
10
3.9932617716535432
20
-7.997085039370079
11
4.0007608267716535
21
-7.9933355118110239
0
LINE
8
BLACK
6
CONTINUOUS
10
4.0607533464566927
20
-8.0645765748031497
11
4.0645028740157478
21
-8.0683261417322836
0
LINE
8
BLACK
6
CONTINUOUS
10
4.0645028740157478
20
-8.0683261417322836
11
4.0607533464566927
21
-8.0720756692913387
0
LINE
8
BLACK
6
CONTINUOUS
10
4.0607533464566927
20
-8.0720756692913387
11
4.0570038188976376
21
-8.0683261417322836
0
LINE
8
BLACK
6
CONTINUOUS
10
4.0570038188976376
20
-8.0683261417322836
11
4.0607533464566927
21
-8.0645765748031497
0
LINE
8
BLACK
6
CONTINUOUS
10
4.0607533464566927
20
-8.0645765748031497
11
4.0607533464566927
21
-8.0720756692913387
0
LINE
8
BLACK
6
CONTINUOUS
10
4.1394935039370075
20
-8.0720756692913387
11
4.0944991338582675
21
-8.0720756692913387
0
LINE
8
BLACK
6
CONTINUOUS
10
4.1169962992125981
20
-8.0720756692913387
11
4.1169962992125981
21
-7.9933355118110239
0
LINE
8
BLACK
6
CONTINUOUS
10
4.1169962992125981
20
-7.9933355118110239
11
4.1094972440944879
21
-8.0045840944881892
0
LINE
8
BLACK
6
CONTINUOUS
10
4.1094972440944879
20
-8.0045840944881892
11
4.1019981889763777
21
-8.0120831496062994
0
LINE
8
BLACK
6
CONTINUOUS
10
4.1019981889763777
20
-8.0120831496062994
11
4.0944991338582675
21
-8.0158326771653545
0
LINE
8
BLACK
6
CONTINUOUS
10
4.2107346062992121
20
-7.9933355118110239
11
4.1732392913385823
21
-7.9933355118110239
0
LINE
8
BLACK
6
CONTINUOUS
10
4.1732392913385823
20
-7.9933355118110239
11
4.1694897637795272
21
-8.0308308267716537
0
LINE
8
BLACK
6
CONTINUOUS
10
4.1694897637795272
20
-8.0308308267716537
11
4.1732392913385823
21
-8.0270812598425199
0
LINE
8
BLACK
6
CONTINUOUS
10
4.1732392913385823
20
-8.0270812598425199
11
4.1807383464566925
21
-8.0233317322834647
0
LINE
8
BLACK
6
CONTINUOUS
10
4.1807383464566925
20
-8.0233317322834647
11
4.1994860236220468
21
-8.0233317322834647
0
LINE
8
BLACK
6
CONTINUOUS
10
4.1994860236220468
20
-8.0233317322834647
11
4.206985078740157
21
-8.0270812598425199
0
LINE
8
BLACK
6
CONTINUOUS
10
4.206985078740157
20
-8.0270812598425199
11
4.2107346062992121
21
-8.0308308267716537
0
LINE
8
BLACK
6
CONTINUOUS
10
4.2107346062992121
20
-8.0308308267716537
11
4.2144841338582673
21
-8.0383298818897639
0
LINE
8
BLACK
6
CONTINUOUS
10
4.2144841338582673
20
-8.0383298818897639
11
4.2144841338582673
21
-8.0570775196850395
0
LINE
8
BLACK
6
CONTINUOUS
10
4.2144841338582673
20
-8.0570775196850395
11
4.2107346062992121
21
-8.0645765748031497
0
LINE
8
BLACK
6
CONTINUOUS
10
4.2107346062992121
20
-8.0645765748031497
11
4.206985078740157
21
-8.0683261417322836
0
LINE
8
BLACK
6
CONTINUOUS
10
4.206985078740157
20
-8.0683261417322836
11
4.1994860236220468
21
-8.0720756692913387
0
LINE
8
BLACK
6
CONTINUOUS
10
4.1994860236220468
20
-8.0720756692913387
11
4.1807383464566925
21
-8.0720756692913387
0
LINE
8
BLACK
6
CONTINUOUS
10
4.1807383464566925
20
-8.0720756692913387
11
4.1732392913385823
21
-8.0683261417322836
0
LINE
8
BLACK
6
CONTINUOUS
10
4.1732392913385823
20
-8.0683261417322836
11
4.1694897637795272
21
-8.0645765748031497
0
LINE
8
BLACK
6
CONTINUOUS
10
4.2407308661417318
20
-7.9933355118110239
11
4.293224291338583
21
-7.9933355118110239
0
LINE
8
BLACK
6
CONTINUOUS
10
4.293224291338583
20
-7.9933355118110239
11
4.2594785039370082
21
-8.0720756692913387
0
LINE
8
BLACK
6
CONTINUOUS
10
4.338218661417323
20
-7.9933355118110239
11
4.345717755905512
21
-7.9933355118110239
0
LINE
8
BLACK
6
CONTINUOUS
10
4.345717755905512
20
-7.9933355118110239
11
4.3532168110236222
21
-7.997085039370079
0
LINE
8
BLACK
6
CONTINUOUS
10
4.3532168110236222
20
-7.997085039370079
11
4.3569663385826773
21
-8.0008345669291341
0
LINE
8
BLACK
6
CONTINUOUS
10
4.3569663385826773
20
-8.0008345669291341
11
4.3607158661417325
21
-8.0083336220472443
0
LINE
8
BLACK
6
CONTINUOUS
10
4.3607158661417325
20
-8.0083336220472443
11
4.3644653937007876
21
-8.0233317322834647
0
LINE
8
BLACK
6
CONTINUOUS
10
4.3644653937007876
20
-8.0233317322834647
11
4.3644653937007876
21
-8.042079409448819
0
LINE
8
BLACK
6
CONTINUOUS
10
4.3644653937007876
20
-8.042079409448819
11
4.3607158661417325
21
-8.0570775196850395
0
LINE
8
BLACK
6
CONTINUOUS
10
4.3607158661417325
20
-8.0570775196850395
11
4.3569663385826773
21
-8.0645765748031497
0
LINE
8
BLACK
6
CONTINUOUS
10
4.3569663385826773
20
-8.0645765748031497
11
4.3532168110236222
21
-8.0683261417322836
0
LINE
8
BLACK
6
CONTINUOUS
10
4.3532168110236222
20
-8.0683261417322836
11
4.345717755905512
21
-8.0720756692913387
0
LINE
8
BLACK
6
CONTINUOUS
10
4.345717755905512
20
-8.0720756692913387
11
4.338218661417323
21
-8.0720756692913387
0
LINE
8
BLACK
6
CONTINUOUS
10
4.338218661417323
20
-8.0720756692913387
11
4.3307196062992128
21
-8.0683261417322836
0
LINE
8
BLACK
6
CONTINUOUS
10
4.3307196062992128
20
-8.0683261417322836
11
4.3269700787401577
21
-8.0645765748031497
0
LINE
8
BLACK
6
CONTINUOUS
10
4.3269700787401577
20
-8.0645765748031497
11
4.3232205511811026
21
-8.0570775196850395
0
LINE
8
BLACK
6
CONTINUOUS
10
4.3232205511811026
20
-8.0570775196850395
11
4.3194710236220475
21
-8.042079409448819
0
LINE
8
BLACK
6
CONTINUOUS
10
4.3194710236220475
20
-8.042079409448819
11
4.3194710236220475
21
-8.0233317322834647
0
LINE
8
BLACK
6
CONTINUOUS
10
4.3194710236220475
20
-8.0233317322834647
11
4.3232205511811026
21
-8.0083336220472443
0
LINE
8
BLACK
6
CONTINUOUS
10
4.3232205511811026
20
-8.0083336220472443
11
4.3269700787401577
21
-8.0008345669291341
0
LINE
8
BLACK
6
CONTINUOUS
10
4.3269700787401577
20
-8.0008345669291341
11
4.3307196062992128
21
-7.997085039370079
0
LINE
8
BLACK
6
CONTINUOUS
10
4.3307196062992128
20
-7.997085039370079
11
4.338218661417323
21
-7.9933355118110239
0
LINE
8
BLACK
6
CONTINUOUS
10
4.3944616535433072
20
-7.9933355118110239
11
4.3944616535433072
21
-8.0083336220472443
0
LINE
8
BLACK
6
CONTINUOUS
10
4.4244579133858268
20
-7.9933355118110239
11
4.4244579133858268
21
-8.0083336220472443
0
LINE
8
BLACK
6
CONTINUOUS
10
4.5406934251968503
20
-8.1020718897637796
11
4.5369438582677164
21
-8.0983223622047245
0
LINE
8
BLACK
6
CONTINUOUS
10
4.5369438582677164
20
-8.0983223622047245
11
4.5294448031496062
21
-8.0870737795275591
0
LINE
8
BLACK
6
CONTINUOUS
10
4.5294448031496062
20
-8.0870737795275591
11
4.5256952755905511
21
-8.0795747244094489
0
LINE
8
BLACK
6
CONTINUOUS
10
4.5256952755905511
20
-8.0795747244094489
11
4.521945748031496
21
-8.0683261417322836
0
LINE
8
BLACK
6
CONTINUOUS
10
4.521945748031496
20
-8.0683261417322836
11
4.5181962204724408
21
-8.0495784645669293
0
LINE
8
BLACK
6
CONTINUOUS
10
4.5181962204724408
20
-8.0495784645669293
11
4.5181962204724408
21
-8.0345803543307088
0
LINE
8
BLACK
6
CONTINUOUS
10
4.5181962204724408
20
-8.0345803543307088
11
4.521945748031496
21
-8.0158326771653545
0
LINE
8
BLACK
6
CONTINUOUS
10
4.521945748031496
20
-8.0158326771653545
11
4.5256952755905511
21
-8.0045840944881892
0
LINE
8
BLACK
6
CONTINUOUS
10
4.5256952755905511
20
-8.0045840944881892
11
4.5294448031496062
21
-7.997085039370079
0
LINE
8
BLACK
6
CONTINUOUS
10
4.5294448031496062
20
-7.997085039370079
11
4.5369438582677164
21
-7.9858364173228349
0
LINE
8
BLACK
6
CONTINUOUS
10
4.5369438582677164
20
-7.9858364173228349
11
4.5406934251968503
21
-7.9820868897637798
0
LINE
8
BLACK
6
CONTINUOUS
10
4.5631905905511809
20
-7.9933355118110239
11
4.6119344881889761
21
-7.9933355118110239
0
LINE
8
BLACK
6
CONTINUOUS
10
4.6119344881889761
20
-7.9933355118110239
11
4.5856877559055116
21
-8.0233317322834647
0
LINE
8
BLACK
6
CONTINUOUS
10
4.5856877559055116
20
-8.0233317322834647
11
4.5969363779527557
21
-8.0233317322834647
0
LINE
8
BLACK
6
CONTINUOUS
10
4.5969363779527557
20
-8.0233317322834647
11
4.6044354330708659
21
-8.0270812598425199
0
LINE
8
BLACK
6
CONTINUOUS
10
4.6044354330708659
20
-8.0270812598425199
11
4.608184960629921
21
-8.0308308267716537
0
LINE
8
BLACK
6
CONTINUOUS
10
4.608184960629921
20
-8.0308308267716537
11
4.6119344881889761
21
-8.0383298818897639
0
LINE
8
BLACK
6
CONTINUOUS
10
4.6119344881889761
20
-8.0383298818897639
11
4.6119344881889761
21
-8.0570775196850395
0
LINE
8
BLACK
6
CONTINUOUS
10
4.6119344881889761
20
-8.0570775196850395
11
4.608184960629921
21
-8.0645765748031497
0
LINE
8
BLACK
6
CONTINUOUS
10
4.608184960629921
20
-8.0645765748031497
11
4.6044354330708659
21
-8.0683261417322836
0
LINE
8
BLACK
6
CONTINUOUS
10
4.6044354330708659
20
-8.0683261417322836
11
4.5969363779527557
21
-8.0720756692913387
0
LINE
8
BLACK
6
CONTINUOUS
10
4.5969363779527557
20
-8.0720756692913387
11
4.5744391732283463
21
-8.0720756692913387
0
LINE
8
BLACK
6
CONTINUOUS
10
4.5744391732283463
20
-8.0720756692913387
11
4.566940118110236
21
-8.0683261417322836
0
LINE
8
BLACK
6
CONTINUOUS
10
4.566940118110236
20
-8.0683261417322836
11
4.5631905905511809
21
-8.0645765748031497
0
LINE
8
BLACK
6
CONTINUOUS
10
4.6794260629921256
20
-7.9933355118110239
11
4.6644279133858264
21
-7.9933355118110239
0
LINE
8
BLACK
6
CONTINUOUS
10
4.6644279133858264
20
-7.9933355118110239
11
4.6569288582677162
21
-7.997085039370079
0
LINE
8
BLACK
6
CONTINUOUS
10
4.6569288582677162
20
-7.997085039370079
11
4.6531793307086611
21
-8.0008345669291341
0
LINE
8
BLACK
6
CONTINUOUS
10
4.6531793307086611
20
-8.0008345669291341
11
4.6456802755905509
21
-8.0120831496062994
0
LINE
8
BLACK
6
CONTINUOUS
10
4.6456802755905509
20
-8.0120831496062994
11
4.6419307480314957
21
-8.0270812598425199
0
LINE
8
BLACK
6
CONTINUOUS
10
4.6419307480314957
20
-8.0270812598425199
11
4.6419307480314957
21
-8.0570775196850395
0
LINE
8
BLACK
6
CONTINUOUS
10
4.6419307480314957
20
-8.0570775196850395
11
4.6456802755905509
21
-8.0645765748031497
0
LINE
8
BLACK
6
CONTINUOUS
10
4.6456802755905509
20
-8.0645765748031497
11
4.649429803149606
21
-8.0683261417322836
0
LINE
8
BLACK
6
CONTINUOUS
10
4.649429803149606
20
-8.0683261417322836
11
4.6569288582677162
21
-8.0720756692913387
0
LINE
8
BLACK
6
CONTINUOUS
10
4.6569288582677162
20
-8.0720756692913387
11
4.6719270078740154
21
-8.0720756692913387
0
LINE
8
BLACK
6
CONTINUOUS
10
4.6719270078740154
20
-8.0720756692913387
11
4.6794260629921256
21
-8.0683261417322836
0
LINE
8
BLACK
6
CONTINUOUS
10
4.6794260629921256
20
-8.0683261417322836
11
4.6831755905511807
21
-8.0645765748031497
0
LINE
8
BLACK
6
CONTINUOUS
10
4.6831755905511807
20
-8.0645765748031497
11
4.6869251181102358
21
-8.0570775196850395
0
LINE
8
BLACK
6
CONTINUOUS
10
4.6869251181102358
20
-8.0570775196850395
11
4.6869251181102358
21
-8.0383298818897639
0
LINE
8
BLACK
6
CONTINUOUS
10
4.6869251181102358
20
-8.0383298818897639
11
4.6831755905511807
21
-8.0308308267716537
0
LINE
8
BLACK
6
CONTINUOUS
10
4.6831755905511807
20
-8.0308308267716537
11
4.6794260629921256
21
-8.0270812598425199
0
LINE
8
BLACK
6
CONTINUOUS
10
4.6794260629921256
20
-8.0270812598425199
11
4.6719270078740154
21
-8.0233317322834647
0
LINE
8
BLACK
6
CONTINUOUS
10
4.6719270078740154
20
-8.0233317322834647
11
4.6569288582677162
21
-8.0233317322834647
0
LINE
8
BLACK
6
CONTINUOUS
10
4.6569288582677162
20
-8.0233317322834647
11
4.649429803149606
21
-8.0270812598425199
0
LINE
8
BLACK
6
CONTINUOUS
10
4.649429803149606
20
-8.0270812598425199
11
4.6456802755905509
21
-8.0308308267716537
0
LINE
8
BLACK
6
CONTINUOUS
10
4.6456802755905509
20
-8.0308308267716537
11
4.6419307480314957
21
-8.0383298818897639
0
LINE
8
BLACK
6
CONTINUOUS
10
4.7806634251968507
20
-8.0720756692913387
11
4.7806634251968507
21
-7.9933355118110239
0
LINE
8
BLACK
6
CONTINUOUS
10
4.8144092125984255
20
-8.0720756692913387
11
4.8144092125984255
21
-8.0308308267716537
0
LINE
8
BLACK
6
CONTINUOUS
10
4.8144092125984255
20
-8.0308308267716537
11
4.8106596850393704
21
-8.0233317322834647
0
LINE
8
BLACK
6
CONTINUOUS
10
4.8106596850393704
20
-8.0233317322834647
11
4.8031606299212601
21
-8.0195822047244096
0
LINE
8
BLACK
6
CONTINUOUS
10
4.8031606299212601
20
-8.0195822047244096
11
4.7919120078740161
21
-8.0195822047244096
0
LINE
8
BLACK
6
CONTINUOUS
10
4.7919120078740161
20
-8.0195822047244096
11
4.7844129527559058
21
-8.0233317322834647
0
LINE
8
BLACK
6
CONTINUOUS
10
4.7844129527559058
20
-8.0233317322834647
11
4.7806634251968507
21
-8.0270812598425199
0
LINE
8
BLACK
6
CONTINUOUS
10
4.8631531102362207
20
-8.0720756692913387
11
4.8556540551181104
21
-8.0683261417322836
0
LINE
8
BLACK
6
CONTINUOUS
10
4.8556540551181104
20
-8.0683261417322836
11
4.8519045275590553
21
-8.0645765748031497
0
LINE
8
BLACK
6
CONTINUOUS
10
4.8519045275590553
20
-8.0645765748031497
11
4.8481550000000002
21
-8.0570775196850395
0
LINE
8
BLACK
6
CONTINUOUS
10
4.8481550000000002
20
-8.0570775196850395
11
4.8481550000000002
21
-8.0345803543307088
0
LINE
8
BLACK
6
CONTINUOUS
10
4.8481550000000002
20
-8.0345803543307088
11
4.8519045275590553
21
-8.0270812598425199
0
LINE
8
BLACK
6
CONTINUOUS
10
4.8519045275590553
20
-8.0270812598425199
11
4.8556540551181104
21
-8.0233317322834647
0
LINE
8
BLACK
6
CONTINUOUS
10
4.8556540551181104
20
-8.0233317322834647
11
4.8631531102362207
21
-8.0195822047244096
0
LINE
8
BLACK
6
CONTINUOUS
10
4.8631531102362207
20
-8.0195822047244096
11
4.8744017322834647
21
-8.0195822047244096
0
LINE
8
BLACK
6
CONTINUOUS
10
4.8744017322834647
20
-8.0195822047244096
11
4.881900787401575
21
-8.0233317322834647
0
LINE
8
BLACK
6
CONTINUOUS
10
4.881900787401575
20
-8.0233317322834647
11
4.8856503149606301
21
-8.0270812598425199
0
LINE
8
BLACK
6
CONTINUOUS
10
4.8856503149606301
20
-8.0270812598425199
11
4.8893998425196852
21
-8.0345803543307088
0
LINE
8
BLACK
6
CONTINUOUS
10
4.8893998425196852
20
-8.0345803543307088
11
4.8893998425196852
21
-8.0570775196850395
0
LINE
8
BLACK
6
CONTINUOUS
10
4.8893998425196852
20
-8.0570775196850395
11
4.8856503149606301
21
-8.0645765748031497
0
LINE
8
BLACK
6
CONTINUOUS
10
4.8856503149606301
20
-8.0645765748031497
11
4.881900787401575
21
-8.0683261417322836
0
LINE
8
BLACK
6
CONTINUOUS
10
4.881900787401575
20
-8.0683261417322836
11
4.8744017322834647
21
-8.0720756692913387
0
LINE
8
BLACK
6
CONTINUOUS
10
4.8744017322834647
20
-8.0720756692913387
11
4.8631531102362207
21
-8.0720756692913387
0
LINE
8
BLACK
6
CONTINUOUS
10
4.9343942125984253
20
-8.0720756692913387
11
4.926895157480315
21
-8.0683261417322836
0
LINE
8
BLACK
6
CONTINUOUS
10
4.926895157480315
20
-8.0683261417322836
11
4.9231456299212599
21
-8.0608270472440946
0
LINE
8
BLACK
6
CONTINUOUS
10
4.9231456299212599
20
-8.0608270472440946
11
4.9231456299212599
21
-7.9933355118110239
0
LINE
8
BLACK
6
CONTINUOUS
10
4.9943867322834645
20
-8.0683261417322836
11
4.9868876771653543
21
-8.0720756692913387
0
LINE
8
BLACK
6
CONTINUOUS
10
4.9868876771653543
20
-8.0720756692913387
11
4.9718895275590551
21
-8.0720756692913387
0
LINE
8
BLACK
6
CONTINUOUS
10
4.9718895275590551
20
-8.0720756692913387
11
4.9643904724409449
21
-8.0683261417322836
0
LINE
8
BLACK
6
CONTINUOUS
10
4.9643904724409449
20
-8.0683261417322836
11
4.9606409448818898
21
-8.0608270472440946
0
LINE
8
BLACK
6
CONTINUOUS
10
4.9606409448818898
20
-8.0608270472440946
11
4.9606409448818898
21
-8.0308308267716537
0
LINE
8
BLACK
6
CONTINUOUS
10
4.9606409448818898
20
-8.0308308267716537
11
4.9643904724409449
21
-8.0233317322834647
0
LINE
8
BLACK
6
CONTINUOUS
10
4.9643904724409449
20
-8.0233317322834647
11
4.9718895275590551
21
-8.0195822047244096
0
LINE
8
BLACK
6
CONTINUOUS
10
4.9718895275590551
20
-8.0195822047244096
11
4.9868876771653543
21
-8.0195822047244096
0
LINE
8
BLACK
6
CONTINUOUS
10
4.9868876771653543
20
-8.0195822047244096
11
4.9943867322834645
21
-8.0233317322834647
0
LINE
8
BLACK
6
CONTINUOUS
10
4.9943867322834645
20
-8.0233317322834647
11
4.9981362598425196
21
-8.0308308267716537
0
LINE
8
BLACK
6
CONTINUOUS
10
4.9981362598425196
20
-8.0308308267716537
11
4.9981362598425196
21
-8.0383298818897639
0
LINE
8
BLACK
6
CONTINUOUS
10
4.9981362598425196
20
-8.0383298818897639
11
4.9606409448818898
21
-8.0458289370078742
0
LINE
8
BLACK
6
CONTINUOUS
10
5.0281325196850393
20
-8.0683261417322836
11
5.0356315748031495
21
-8.0720756692913387
0
LINE
8
BLACK
6
CONTINUOUS
10
5.0356315748031495
20
-8.0720756692913387
11
5.0506296850393699
21
-8.0720756692913387
0
LINE
8
BLACK
6
CONTINUOUS
10
5.0506296850393699
20
-8.0720756692913387
11
5.0581287795275589
21
-8.0683261417322836
0
LINE
8
BLACK
6
CONTINUOUS
10
5.0581287795275589
20
-8.0683261417322836
11
5.061878307086614
21
-8.0608270472440946
0
LINE
8
BLACK
6
CONTINUOUS
10
5.061878307086614
20
-8.0608270472440946
11
5.061878307086614
21
-8.0570775196850395
0
LINE
8
BLACK
6
CONTINUOUS
10
5.061878307086614
20
-8.0570775196850395
11
5.0581287795275589
21
-8.0495784645669293
0
LINE
8
BLACK
6
CONTINUOUS
10
5.0581287795275589
20
-8.0495784645669293
11
5.0506296850393699
21
-8.0458289370078742
0
LINE
8
BLACK
6
CONTINUOUS
10
5.0506296850393699
20
-8.0458289370078742
11
5.0393811023622046
21
-8.0458289370078742
0
LINE
8
BLACK
6
CONTINUOUS
10
5.0393811023622046
20
-8.0458289370078742
11
5.0318820472440944
21
-8.042079409448819
0
LINE
8
BLACK
6
CONTINUOUS
10
5.0318820472440944
20
-8.042079409448819
11
5.0281325196850393
21
-8.0345803543307088
0
LINE
8
BLACK
6
CONTINUOUS
10
5.0281325196850393
20
-8.0345803543307088
11
5.0281325196850393
21
-8.0308308267716537
0
LINE
8
BLACK
6
CONTINUOUS
10
5.0281325196850393
20
-8.0308308267716537
11
5.0318820472440944
21
-8.0233317322834647
0
LINE
8
BLACK
6
CONTINUOUS
10
5.0318820472440944
20
-8.0233317322834647
11
5.0393811023622046
21
-8.0195822047244096
0
LINE
8
BLACK
6
CONTINUOUS
10
5.0393811023622046
20
-8.0195822047244096
11
5.0506296850393699
21
-8.0195822047244096
0
LINE
8
BLACK
6
CONTINUOUS
10
5.0506296850393699
20
-8.0195822047244096
11
5.0581287795275589
21
-8.0233317322834647
0
LINE
8
BLACK
6
CONTINUOUS
10
5.0881250393700785
20
-8.1020718897637796
11
5.0918745669291336
21
-8.0983223622047245
0
LINE
8
BLACK
6
CONTINUOUS
10
5.0918745669291336
20
-8.0983223622047245
11
5.0993736220472439
21
-8.0870737795275591
0
LINE
8
BLACK
6
CONTINUOUS
10
5.0993736220472439
20
-8.0870737795275591
11
5.103123149606299
21
-8.0795747244094489
0
LINE
8
BLACK
6
CONTINUOUS
10
5.103123149606299
20
-8.0795747244094489
11
5.1068726771653541
21
-8.0683261417322836
0
LINE
8
BLACK
6
CONTINUOUS
10
5.1068726771653541
20
-8.0683261417322836
11
5.1106222047244092
21
-8.0495784645669293
0
LINE
8
BLACK
6
CONTINUOUS
10
5.1106222047244092
20
-8.0495784645669293
11
5.1106222047244092
21
-8.0345803543307088
0
LINE
8
BLACK
6
CONTINUOUS
10
5.1106222047244092
20
-8.0345803543307088
11
5.1068726771653541
21
-8.0158326771653545
0
LINE
8
BLACK
6
CONTINUOUS
10
5.1068726771653541
20
-8.0158326771653545
11
5.103123149606299
21
-8.0045840944881892
0
LINE
8
BLACK
6
CONTINUOUS
10
5.103123149606299
20
-8.0045840944881892
11
5.0993736220472439
21
-7.997085039370079
0
LINE
8
BLACK
6
CONTINUOUS
10
5.0993736220472439
20
-7.997085039370079
11
5.0918745669291336
21
-7.9858364173228349
0
LINE
8
BLACK
6
CONTINUOUS
10
5.0918745669291336
20
-7.9858364173228349
11
5.0881250393700785
21
-7.9820868897637798
0
LINE
8
BLACK
6
CONTINUOUS
10
5.2306072440944877
20
-8.1020718897637796
11
5.2268576771653539
21
-8.0983223622047245
0
LINE
8
BLACK
6
CONTINUOUS
10
5.2268576771653539
20
-8.0983223622047245
11
5.2193586220472437
21
-8.0870737795275591
0
LINE
8
BLACK
6
CONTINUOUS
10
5.2193586220472437
20
-8.0870737795275591
11
5.2156090944881885
21
-8.0795747244094489
0
LINE
8
BLACK
6
CONTINUOUS
10
5.2156090944881885
20
-8.0795747244094489
11
5.2118595669291334
21
-8.0683261417322836
0
LINE
8
BLACK
6
CONTINUOUS
10
5.2118595669291334
20
-8.0683261417322836
11
5.2081100393700783
21
-8.0495784645669293
0
LINE
8
BLACK
6
CONTINUOUS
10
5.2081100393700783
20
-8.0495784645669293
11
5.2081100393700783
21
-8.0345803543307088
0
LINE
8
BLACK
6
CONTINUOUS
10
5.2081100393700783
20
-8.0345803543307088
11
5.2118595669291334
21
-8.0158326771653545
0
LINE
8
BLACK
6
CONTINUOUS
10
5.2118595669291334
20
-8.0158326771653545
11
5.2156090944881885
21
-8.0045840944881892
0
LINE
8
BLACK
6
CONTINUOUS
10
5.2156090944881885
20
-8.0045840944881892
11
5.2193586220472437
21
-7.997085039370079
0
LINE
8
BLACK
6
CONTINUOUS
10
5.2193586220472437
20
-7.997085039370079
11
5.2268576771653539
21
-7.9858364173228349
0
LINE
8
BLACK
6
CONTINUOUS
10
5.2268576771653539
20
-7.9858364173228349
11
5.2306072440944877
21
-7.9820868897637798
0
LINE
8
BLACK
6
CONTINUOUS
10
5.2606034645669286
20
-8.0195822047244096
11
5.2606034645669286
21
-8.0720756692913387
0
LINE
8
BLACK
6
CONTINUOUS
10
5.2606034645669286
20
-8.0270812598425199
11
5.2643529921259837
21
-8.0233317322834647
0
LINE
8
BLACK
6
CONTINUOUS
10
5.2643529921259837
20
-8.0233317322834647
11
5.271852047244094
21
-8.0195822047244096
0
LINE
8
BLACK
6
CONTINUOUS
10
5.271852047244094
20
-8.0195822047244096
11
5.283100669291338
21
-8.0195822047244096
0
LINE
8
BLACK
6
CONTINUOUS
10
5.283100669291338
20
-8.0195822047244096
11
5.2905997244094483
21
-8.0233317322834647
0
LINE
8
BLACK
6
CONTINUOUS
10
5.2905997244094483
20
-8.0233317322834647
11
5.2943492519685043
21
-8.0308308267716537
0
LINE
8
BLACK
6
CONTINUOUS
10
5.2943492519685043
20
-8.0308308267716537
11
5.2943492519685043
21
-8.0720756692913387
0
LINE
8
BLACK
6
CONTINUOUS
10
5.3430931496062994
20
-8.0720756692913387
11
5.3355940944881892
21
-8.0683261417322836
0
LINE
8
BLACK
6
CONTINUOUS
10
5.3355940944881892
20
-8.0683261417322836
11
5.3318445669291341
21
-8.0645765748031497
0
LINE
8
BLACK
6
CONTINUOUS
10
5.3318445669291341
20
-8.0645765748031497
11
5.328095039370079
21
-8.0570775196850395
0
LINE
8
BLACK
6
CONTINUOUS
10
5.328095039370079
20
-8.0570775196850395
11
5.328095039370079
21
-8.0345803543307088
0
LINE
8
BLACK
6
CONTINUOUS
10
5.328095039370079
20
-8.0345803543307088
11
5.3318445669291341
21
-8.0270812598425199
0
LINE
8
BLACK
6
CONTINUOUS
10
5.3318445669291341
20
-8.0270812598425199
11
5.3355940944881892
21
-8.0233317322834647
0
LINE
8
BLACK
6
CONTINUOUS
10
5.3355940944881892
20
-8.0233317322834647
11
5.3430931496062994
21
-8.0195822047244096
0
LINE
8
BLACK
6
CONTINUOUS
10
5.3430931496062994
20
-8.0195822047244096
11
5.3543417716535435
21
-8.0195822047244096
0
LINE
8
BLACK
6
CONTINUOUS
10
5.3543417716535435
20
-8.0195822047244096
11
5.3618408267716537
21
-8.0233317322834647
0
LINE
8
BLACK
6
CONTINUOUS
10
5.3618408267716537
20
-8.0233317322834647
11
5.3655903543307089
21
-8.0270812598425199
0
LINE
8
BLACK
6
CONTINUOUS
10
5.3655903543307089
20
-8.0270812598425199
11
5.369339881889764
21
-8.0345803543307088
0
LINE
8
BLACK
6
CONTINUOUS
10
5.369339881889764
20
-8.0345803543307088
11
5.369339881889764
21
-8.0570775196850395
0
LINE
8
BLACK
6
CONTINUOUS
10
5.369339881889764
20
-8.0570775196850395
11
5.3655903543307089
21
-8.0645765748031497
0
LINE
8
BLACK
6
CONTINUOUS
10
5.3655903543307089
20
-8.0645765748031497
11
5.3618408267716537
21
-8.0683261417322836
0
LINE
8
BLACK
6
CONTINUOUS
10
5.3618408267716537
20
-8.0683261417322836
11
5.3543417716535435
21
-8.0720756692913387
0
LINE
8
BLACK
6
CONTINUOUS
10
5.3543417716535435
20
-8.0720756692913387
11
5.3430931496062994
21
-8.0720756692913387
0
LINE
8
BLACK
6
CONTINUOUS
10
5.3918370866141734
20
-8.0195822047244096
11
5.4218333070866143
21
-8.0195822047244096
0
LINE
8
BLACK
6
CONTINUOUS
10
5.4030856692913387
20
-7.9933355118110239
11
5.4030856692913387
21
-8.0608270472440946
0
LINE
8
BLACK
6
CONTINUOUS
10
5.4030856692913387
20
-8.0608270472440946
11
5.4068351968503938
21
-8.0683261417322836
0
LINE
8
BLACK
6
CONTINUOUS
10
5.4068351968503938
20
-8.0683261417322836
11
5.414334251968504
21
-8.0720756692913387
0
LINE
8
BLACK
6
CONTINUOUS
10
5.414334251968504
20
-8.0720756692913387
11
5.4218333070866143
21
-8.0720756692913387
0
LINE
8
BLACK
6
CONTINUOUS
10
5.5080725590551181
20
-8.0195822047244096
11
5.5080725590551181
21
-8.0983223622047245
0
LINE
8
BLACK
6
CONTINUOUS
10
5.5080725590551181
20
-8.0233317322834647
11
5.5155716141732283
21
-8.0195822047244096
0
LINE
8
BLACK
6
CONTINUOUS
10
5.5155716141732283
20
-8.0195822047244096
11
5.5305697637795275
21
-8.0195822047244096
0
LINE
8
BLACK
6
CONTINUOUS
10
5.5305697637795275
20
-8.0195822047244096
11
5.5380688188976377
21
-8.0233317322834647
0
LINE
8
BLACK
6
CONTINUOUS
10
5.5380688188976377
20
-8.0233317322834647
11
5.5418183464566928
21
-8.0270812598425199
0
LINE
8
BLACK
6
CONTINUOUS
10
5.5418183464566928
20
-8.0270812598425199
11
5.5455678740157479
21
-8.0345803543307088
0
LINE
8
BLACK
6
CONTINUOUS
10
5.5455678740157479
20
-8.0345803543307088
11
5.5455678740157479
21
-8.0570775196850395
0
LINE
8
BLACK
6
CONTINUOUS
10
5.5455678740157479
20
-8.0570775196850395
11
5.5418183464566928
21
-8.0645765748031497
0
LINE
8
BLACK
6
CONTINUOUS
10
5.5418183464566928
20
-8.0645765748031497
11
5.5380688188976377
21
-8.0683261417322836
0
LINE
8
BLACK
6
CONTINUOUS
10
5.5380688188976377
20
-8.0683261417322836
11
5.5305697637795275
21
-8.0720756692913387
0
LINE
8
BLACK
6
CONTINUOUS
10
5.5305697637795275
20
-8.0720756692913387
11
5.5155716141732283
21
-8.0720756692913387
0
LINE
8
BLACK
6
CONTINUOUS
10
5.5155716141732283
20
-8.0720756692913387
11
5.5080725590551181
21
-8.0683261417322836
0
LINE
8
BLACK
6
CONTINUOUS
10
5.590562244094488
20
-8.0720756692913387
11
5.5830631889763778
21
-8.0683261417322836
0
LINE
8
BLACK
6
CONTINUOUS
10
5.5830631889763778
20
-8.0683261417322836
11
5.5793136614173227
21
-8.0608270472440946
0
LINE
8
BLACK
6
CONTINUOUS
10
5.5793136614173227
20
-8.0608270472440946
11
5.5793136614173227
21
-7.9933355118110239
0
LINE
8
BLACK
6
CONTINUOUS
10
5.6543042913385824
20
-8.0720756692913387
11
5.6543042913385824
21
-8.0308308267716537
0
LINE
8
BLACK
6
CONTINUOUS
10
5.6543042913385824
20
-8.0308308267716537
11
5.6505547637795273
21
-8.0233317322834647
0
LINE
8
BLACK
6
CONTINUOUS
10
5.6505547637795273
20
-8.0233317322834647
11
5.643055708661417
21
-8.0195822047244096
0
LINE
8
BLACK
6
CONTINUOUS
10
5.643055708661417
20
-8.0195822047244096
11
5.6280575590551178
21
-8.0195822047244096
0
LINE
8
BLACK
6
CONTINUOUS
10
5.6280575590551178
20
-8.0195822047244096
11
5.6205585039370076
21
-8.0233317322834647
0
LINE
8
BLACK
6
CONTINUOUS
10
5.6543042913385824
20
-8.0683261417322836
11
5.6468052362204721
21
-8.0720756692913387
0
LINE
8
BLACK
6
CONTINUOUS
10
5.6468052362204721
20
-8.0720756692913387
11
5.6280575590551178
21
-8.0720756692913387
0
LINE
8
BLACK
6
CONTINUOUS
10
5.6280575590551178
20
-8.0720756692913387
11
5.6205585039370076
21
-8.0683261417322836
0
LINE
8
BLACK
6
CONTINUOUS
10
5.6205585039370076
20
-8.0683261417322836
11
5.6168089763779525
21
-8.0608270472440946
0
LINE
8
BLACK
6
CONTINUOUS
10
5.6168089763779525
20
-8.0608270472440946
11
5.6168089763779525
21
-8.0533279921259844
0
LINE
8
BLACK
6
CONTINUOUS
10
5.6168089763779525
20
-8.0533279921259844
11
5.6205585039370076
21
-8.0458289370078742
0
LINE
8
BLACK
6
CONTINUOUS
10
5.6205585039370076
20
-8.0458289370078742
11
5.6280575590551178
21
-8.042079409448819
0
LINE
8
BLACK
6
CONTINUOUS
10
5.6280575590551178
20
-8.042079409448819
11
5.6468052362204721
21
-8.042079409448819
0
LINE
8
BLACK
6
CONTINUOUS
10
5.6468052362204721
20
-8.042079409448819
11
5.6543042913385824
21
-8.0383298818897639
0
LINE
8
BLACK
6
CONTINUOUS
10
5.6805510236220469
20
-8.0195822047244096
11
5.7105472440944878
21
-8.0195822047244096
0
LINE
8
BLACK
6
CONTINUOUS
10
5.6917996062992122
20
-7.9933355118110239
11
5.6917996062992122
21
-8.0608270472440946
0
LINE
8
BLACK
6
CONTINUOUS
10
5.6917996062992122
20
-8.0608270472440946
11
5.6955491338582673
21
-8.0683261417322836
0
LINE
8
BLACK
6
CONTINUOUS
10
5.6955491338582673
20
-8.0683261417322836
11
5.7030481889763776
21
-8.0720756692913387
0
LINE
8
BLACK
6
CONTINUOUS
10
5.7030481889763776
20
-8.0720756692913387
11
5.7105472440944878
21
-8.0720756692913387
0
LINE
8
BLACK
6
CONTINUOUS
10
5.7667902362204719
20
-8.0683261417322836
11
5.7592911811023617
21
-8.0720756692913387
0
LINE
8
BLACK
6
CONTINUOUS
10
5.7592911811023617
20
-8.0720756692913387
11
5.7442930314960625
21
-8.0720756692913387
0
LINE
8
BLACK
6
CONTINUOUS
10
5.7442930314960625
20
-8.0720756692913387
11
5.7367939763779523
21
-8.0683261417322836
0
LINE
8
BLACK
6
CONTINUOUS
10
5.7367939763779523
20
-8.0683261417322836
11
5.7330444488188972
21
-8.0608270472440946
0
LINE
8
BLACK
6
CONTINUOUS
10
5.7330444488188972
20
-8.0608270472440946
11
5.7330444488188972
21
-8.0308308267716537
0
LINE
8
BLACK
6
CONTINUOUS
10
5.7330444488188972
20
-8.0308308267716537
11
5.7367939763779523
21
-8.0233317322834647
0
LINE
8
BLACK
6
CONTINUOUS
10
5.7367939763779523
20
-8.0233317322834647
11
5.7442930314960625
21
-8.0195822047244096
0
LINE
8
BLACK
6
CONTINUOUS
10
5.7442930314960625
20
-8.0195822047244096
11
5.7592911811023617
21
-8.0195822047244096
0
LINE
8
BLACK
6
CONTINUOUS
10
5.7592911811023617
20
-8.0195822047244096
11
5.7667902362204719
21
-8.0233317322834647
0
LINE
8
BLACK
6
CONTINUOUS
10
5.7667902362204719
20
-8.0233317322834647
11
5.770539763779527
21
-8.0308308267716537
0
LINE
8
BLACK
6
CONTINUOUS
10
5.770539763779527
20
-8.0308308267716537
11
5.770539763779527
21
-8.0383298818897639
0
LINE
8
BLACK
6
CONTINUOUS
10
5.770539763779527
20
-8.0383298818897639
11
5.7330444488188972
21
-8.0458289370078742
0
LINE
8
BLACK
6
CONTINUOUS
10
5.8380313385826774
20
-8.0720756692913387
11
5.8380313385826774
21
-7.9933355118110239
0
LINE
8
BLACK
6
CONTINUOUS
10
5.8380313385826774
20
-8.0683261417322836
11
5.8305322834645672
21
-8.0720756692913387
0
LINE
8
BLACK
6
CONTINUOUS
10
5.8305322834645672
20
-8.0720756692913387
11
5.815534133858268
21
-8.0720756692913387
0
LINE
8
BLACK
6
CONTINUOUS
10
5.815534133858268
20
-8.0720756692913387
11
5.8080350787401578
21
-8.0683261417322836
0
LINE
8
BLACK
6
CONTINUOUS
10
5.8080350787401578
20
-8.0683261417322836
11
5.8042855511811018
21
-8.0645765748031497
0
LINE
8
BLACK
6
CONTINUOUS
10
5.8042855511811018
20
-8.0645765748031497
11
5.8005360236220467
21
-8.0570775196850395
0
LINE
8
BLACK
6
CONTINUOUS
10
5.8005360236220467
20
-8.0570775196850395
11
5.8005360236220467
21
-8.0345803543307088
0
LINE
8
BLACK
6
CONTINUOUS
10
5.8005360236220467
20
-8.0345803543307088
11
5.8042855511811018
21
-8.0270812598425199
0
LINE
8
BLACK
6
CONTINUOUS
10
5.8042855511811018
20
-8.0270812598425199
11
5.8080350787401578
21
-8.0233317322834647
0
LINE
8
BLACK
6
CONTINUOUS
10
5.8080350787401578
20
-8.0233317322834647
11
5.815534133858268
21
-8.0195822047244096
0
LINE
8
BLACK
6
CONTINUOUS
10
5.815534133858268
20
-8.0195822047244096
11
5.8305322834645672
21
-8.0195822047244096
0
LINE
8
BLACK
6
CONTINUOUS
10
5.8305322834645672
20
-8.0195822047244096
11
5.8380313385826774
21
-8.0233317322834647
0
LINE
8
BLACK
6
CONTINUOUS
10
5.8680275984251971
20
-8.1020718897637796
11
5.8717771259842522
21
-8.0983223622047245
0
LINE
8
BLACK
6
CONTINUOUS
10
5.8717771259842522
20
-8.0983223622047245
11
5.8792761811023624
21
-8.0870737795275591
0
LINE
8
BLACK
6
CONTINUOUS
10
5.8792761811023624
20
-8.0870737795275591
11
5.8830257086614175
21
-8.0795747244094489
0
LINE
8
BLACK
6
CONTINUOUS
10
5.8830257086614175
20
-8.0795747244094489
11
5.8867752362204726
21
-8.0683261417322836
0
LINE
8
BLACK
6
CONTINUOUS
10
5.8867752362204726
20
-8.0683261417322836
11
5.8905247637795277
21
-8.0495784645669293
0
LINE
8
BLACK
6
CONTINUOUS
10
5.8905247637795277
20
-8.0495784645669293
11
5.8905247637795277
21
-8.0345803543307088
0
LINE
8
BLACK
6
CONTINUOUS
10
5.8905247637795277
20
-8.0345803543307088
11
5.8867752362204726
21
-8.0158326771653545
0
LINE
8
BLACK
6
CONTINUOUS
10
5.8867752362204726
20
-8.0158326771653545
11
5.8830257086614175
21
-8.0045840944881892
0
LINE
8
BLACK
6
CONTINUOUS
10
5.8830257086614175
20
-8.0045840944881892
11
5.8792761811023624
21
-7.997085039370079
0
LINE
8
BLACK
6
CONTINUOUS
10
5.8792761811023624
20
-7.997085039370079
11
5.8717771259842522
21
-7.9858364173228349
0
LINE
8
BLACK
6
CONTINUOUS
10
5.8717771259842522
20
-7.9858364173228349
11
5.8680275984251971
21
-7.9820868897637798
  0
ENDSEC
  0
EOF
