M48
; DRILL file {KiCad 7.0.10-7.0.10~ubuntu22.04.1} date Fr 12 Jan 2024 22:57:10 CET
; FORMAT={-:-/ absolute / inch / decimal}
; #@! TF.CreationDate,2024-01-12T22:57:10+01:00
; #@! TF.GenerationSoftware,Kicad,Pcbnew,7.0.10-7.0.10~ubuntu22.04.1
; #@! TF.FileFunction,Plated,1,2,PTH
FMAT,2
INCH
; #@! TA.AperFunction,Plated,PTH,ComponentDrill
T1C0.0118
; #@! TA.AperFunction,Plated,PTH,ViaDrill
T2C0.0157
; #@! TA.AperFunction,Plated,PTH,ComponentDrill
T3C0.0394
; #@! TA.AperFunction,Plated,PTH,ComponentDrill
T4C0.0512
; #@! TA.AperFunction,Plated,PTH,ComponentDrill
T5C0.1181
%
G90
G05
T1
X7.6178Y-5.5578
X7.6178Y-5.7429
X7.6374Y-5.5578
X7.6374Y-5.7429
X7.6571Y-5.5382
X7.6571Y-5.5578
X7.6571Y-5.7429
X7.6571Y-5.7626
T2
X3.4597Y-3.9671
X4.0748Y-5.1275
X4.0933Y-4.9612
X4.1621Y-4.4005
X4.1816Y-4.2422
X4.2067Y-4.0291
X4.7766Y-5.5985
X4.7895Y-5.4612
X4.8588Y-4.8807
X4.8779Y-4.7085
X4.9509Y-4.1304
X4.972Y-3.9585
X5.5683Y-5.7413
X5.5847Y-5.1067
X5.5993Y-4.9875
X5.6742Y-4.3938
X5.6828Y-5.8902
X5.697Y-4.2081
X5.9371Y-5.1872
X6.3164Y-5.3175
X6.3337Y-5.1768
X6.3641Y-5.9302
X6.4095Y-4.5594
X6.4229Y-4.4341
X6.5201Y-6.1299
X6.6871Y-5.4059
X7.1935Y-4.8928
X7.2029Y-4.8007
X7.2139Y-4.7109
X7.2183Y-4.2185
X7.2269Y-4.6212
X7.2394Y-4.5196
X7.4409Y-6.1142
X7.4414Y-6.0743
X7.4838Y-7.3836
X7.4839Y-4.601
X7.4995Y-4.8434
X7.5084Y-5.9031
X7.543Y-5.8569
X7.5984Y-4.1732
X7.6863Y-5.3895
X7.7276Y-5.3895
X7.7949Y-5.8845
X7.9523Y-7.3797
X7.9681Y-6.0717
X7.9764Y-6.1102
X8.1763Y-4.6147
X8.1859Y-4.7087
X8.1959Y-4.8066
X8.2023Y-5.2135
X8.2023Y-5.0127
X8.2042Y-5.1131
X8.2042Y-4.9068
X8.5263Y-4.7315
X8.573Y-5.1601
X8.5984Y-5.3672
X9.1489Y-4.3137
X9.1664Y-4.4563
X9.2345Y-5.0271
X9.2574Y-5.1968
X9.3288Y-5.8108
X9.3507Y-5.941
X9.8735Y-4.0442
X9.8958Y-4.2101
X9.96Y-4.7813
X9.9777Y-4.9259
X10.0506Y-5.5357
X10.0635Y-5.673
X10.2806Y-4.9684
X10.6373Y-4.1111
X10.6587Y-4.2691
X10.7299Y-4.8653
X10.7496Y-5.0255
X11.0931Y-5.0309
X11.4098Y-4.2324
X11.4268Y-4.3711
X11.4985Y-4.9712
X11.5127Y-5.1023
T3
X7.4069Y-4.0139
X7.4069Y-4.1139
X7.4069Y-4.2139
X7.4069Y-4.3139
X7.4069Y-4.4139
X7.4069Y-4.5139
X7.4069Y-4.6139
X7.4069Y-4.7139
X7.4069Y-4.8139
X7.4069Y-4.9139
X7.4069Y-5.0139
X7.4069Y-5.1139
X7.4069Y-5.2139
X7.5069Y-5.2139
X7.6069Y-5.2139
X7.6079Y-7.5833
X7.6569Y-4.3139
X7.7069Y-5.2139
X7.7569Y-4.3139
X7.8048Y-7.5833
X7.8069Y-5.2139
X7.9069Y-5.1139
X7.9069Y-5.2139
X8.0069Y-4.0139
X8.0069Y-4.1139
X8.0069Y-4.2139
X8.0069Y-4.3139
X8.0069Y-4.4139
X8.0069Y-4.5139
X8.0069Y-4.6139
X8.0069Y-4.7139
X8.0069Y-4.8139
X8.0069Y-4.9139
X8.0069Y-5.0139
X8.0069Y-5.1139
X8.0069Y-5.2139
T4
X7.5685Y-7.4849
X7.8441Y-7.4849
T5
X3.4024Y-5.5725
X3.4938Y-4.8282
X3.5852Y-4.0838
X3.6627Y-5.5037
X3.7541Y-4.7594
X3.8455Y-4.015
X4.1942Y-5.278
X4.2856Y-4.5337
X4.377Y-3.7893
X4.4545Y-5.2093
X4.5459Y-4.4649
X4.6373Y-3.7205
X4.9613Y-5.1838
X5.0527Y-4.4395
X5.1441Y-3.6951
X5.2216Y-5.115
X5.2961Y-6.374
X5.313Y-4.3707
X5.4044Y-3.6263
X5.5564Y-6.3052
X5.6829Y-5.4608
X5.7743Y-4.7165
X5.8657Y-3.9721
X5.9432Y-5.3921
X6.0346Y-4.6477
X6.126Y-3.9033
X6.177Y-6.5634
X6.4159Y-5.645
X6.4462Y-6.5643
X6.5073Y-4.9007
X6.5986Y-4.1563
X6.6762Y-5.5763
X6.7676Y-4.8319
X6.859Y-4.0875
X6.9808Y-6.9688
X7.2406Y-7.0394
X8.1943Y-7.1513
X8.3337Y-6.921
X8.5175Y-4.1929
X8.6089Y-4.9372
X8.7003Y-5.6816
X8.7534Y-4.0632
X8.8448Y-4.8075
X8.9362Y-5.5519
X8.9596Y-6.6777
X9.1539Y-6.4914
X9.2504Y-4.0087
X9.3418Y-4.753
X9.4332Y-5.4974
X9.4864Y-3.879
X9.5778Y-4.6233
X9.6692Y-5.3677
X9.82Y-6.4106
X9.972Y-3.7317
X10.056Y-6.2808
X10.0634Y-4.476
X10.1548Y-5.2204
X10.208Y-3.6019
X10.2993Y-4.3463
X10.3907Y-5.0907
X10.7392Y-3.8259
X10.8306Y-4.5702
X10.9219Y-5.3146
X10.9751Y-3.6962
X11.0665Y-4.4405
X11.1579Y-5.1849
X11.5309Y-4.1204
X11.6223Y-4.8647
X11.7137Y-5.6091
X11.7668Y-3.9906
X11.8582Y-4.735
X11.9496Y-5.4794
M30
