M48
; DRILL file {KiCad 7.0.10-7.0.10~ubuntu22.04.1} date Fr 12 Jan 2024 22:57:10 CET
; FORMAT={-:-/ absolute / inch / decimal}
; #@! TF.CreationDate,2024-01-12T22:57:10+01:00
; #@! TF.GenerationSoftware,Kicad,Pcbnew,7.0.10-7.0.10~ubuntu22.04.1
; #@! TF.FileFunction,NonPlated,1,2,NPTH
FMAT,2
INCH
; #@! TA.AperFunction,NonPlated,NPTH,ComponentDrill
T1C0.0689
; #@! TA.AperFunction,NonPlated,NPTH,ComponentDrill
T2C0.1570
%
G90
G05
T1
X3.3406Y-5.6657
X3.432Y-4.9213
X3.5234Y-4.177
X3.7376Y-5.7144
X3.829Y-4.9701
X3.9204Y-4.2257
X4.1323Y-5.3712
X4.2237Y-4.6268
X4.3151Y-3.8825
X4.5294Y-5.42
X4.6208Y-4.6756
X4.7122Y-3.9312
X4.8995Y-5.277
X4.9909Y-4.5326
X5.0823Y-3.7883
X5.2342Y-6.4672
X5.2965Y-5.3257
X5.3879Y-4.5814
X5.4793Y-3.837
X5.6211Y-5.554
X5.6313Y-6.5159
X5.7125Y-4.8096
X5.8039Y-4.0653
X6.0181Y-5.6027
X6.0931Y-6.6374
X6.1095Y-4.8584
X6.2009Y-4.114
X6.354Y-5.7382
X6.4454Y-4.9938
X6.464Y-6.7872
X6.5368Y-4.2495
X6.7511Y-5.787
X6.8425Y-5.0426
X6.8807Y-7.0186
X6.9339Y-4.2982
X7.2001Y-7.2593
X8.2145Y-7.2613
X8.48Y-4.2982
X8.534Y-7.0206
X8.5714Y-5.0426
X8.6628Y-5.787
X8.877Y-4.2495
X8.9507Y-6.7892
X8.9684Y-4.9938
X9.0598Y-5.7382
X9.213Y-4.114
X9.3044Y-4.8584
X9.3215Y-6.6393
X9.3958Y-5.6027
X9.61Y-4.0653
X9.7014Y-4.8096
X9.7826Y-6.5159
X9.7928Y-5.554
X9.9346Y-3.837
X10.026Y-4.5814
X10.1174Y-5.3257
X10.1796Y-6.4672
X10.3316Y-3.7883
X10.423Y-4.5326
X10.5144Y-5.277
X10.7017Y-3.9312
X10.7931Y-4.6756
X10.8845Y-5.42
X11.0987Y-3.8825
X11.1901Y-4.6268
X11.2815Y-5.3712
X11.4935Y-4.2257
X11.5849Y-4.9701
X11.6763Y-5.7144
X11.8905Y-4.177
X11.9819Y-4.9213
X12.0733Y-5.6657
T2
X3.5391Y-5.6901
X3.6305Y-4.9457
X3.7219Y-4.2013
X4.3309Y-5.3956
X4.4223Y-4.6512
X4.5136Y-3.9069
X5.098Y-5.3014
X5.1894Y-4.557
X5.2808Y-3.8126
X5.4328Y-6.4915
X5.8196Y-5.5784
X5.911Y-4.834
X6.0024Y-4.0896
X6.2786Y-6.7123
X6.5525Y-5.7626
X6.6439Y-5.0182
X6.7353Y-4.2739
X7.0404Y-7.139
X8.3742Y-7.1409
X8.6785Y-4.2739
X8.7699Y-5.0182
X8.8613Y-5.7626
X9.1361Y-6.7143
X9.4115Y-4.0896
X9.5029Y-4.834
X9.5943Y-5.5784
X9.9811Y-6.4915
X10.1331Y-3.8126
X10.2245Y-4.557
X10.3159Y-5.3014
X10.9002Y-3.9069
X10.9916Y-4.6512
X11.083Y-5.3956
X11.692Y-4.2013
X11.7834Y-4.9457
X11.8748Y-5.6901
M30
