%TF.GenerationSoftware,KiCad,Pcbnew,7.0.10-7.0.10~ubuntu22.04.1*%
%TF.CreationDate,2024-01-12T22:57:13+01:00*%
%TF.ProjectId,fatboy,66617462-6f79-42e6-9b69-6361645f7063,rev?*%
%TF.SameCoordinates,Original*%
%TF.FileFunction,Soldermask,Bot*%
%TF.FilePolarity,Negative*%
%FSLAX46Y46*%
G04 Gerber Fmt 4.6, Leading zero omitted, Abs format (unit mm)*
G04 Created by KiCad (PCBNEW 7.0.10-7.0.10~ubuntu22.04.1) date 2024-01-12 22:57:13*
%MOMM*%
%LPD*%
G01*
G04 APERTURE LIST*
G04 Aperture macros list*
%AMRoundRect*
0 Rectangle with rounded corners*
0 $1 Rounding radius*
0 $2 $3 $4 $5 $6 $7 $8 $9 X,Y pos of 4 corners*
0 Add a 4 corners polygon primitive as box body*
4,1,4,$2,$3,$4,$5,$6,$7,$8,$9,$2,$3,0*
0 Add four circle primitives for the rounded corners*
1,1,$1+$1,$2,$3*
1,1,$1+$1,$4,$5*
1,1,$1+$1,$6,$7*
1,1,$1+$1,$8,$9*
0 Add four rect primitives between the rounded corners*
20,1,$1+$1,$2,$3,$4,$5,0*
20,1,$1+$1,$4,$5,$6,$7,0*
20,1,$1+$1,$6,$7,$8,$9,0*
20,1,$1+$1,$8,$9,$2,$3,0*%
%AMRotRect*
0 Rectangle, with rotation*
0 The origin of the aperture is its center*
0 $1 length*
0 $2 width*
0 $3 Rotation angle, in degrees counterclockwise*
0 Add horizontal line*
21,1,$1,$2,0,0,$3*%
%AMFreePoly0*
4,1,18,-0.410000,0.593000,-0.403758,0.624380,-0.385983,0.650983,-0.359380,0.668758,-0.328000,0.675000,0.328000,0.675000,0.359380,0.668758,0.385983,0.650983,0.403758,0.624380,0.410000,0.593000,0.410000,-0.593000,0.403758,-0.624380,0.385983,-0.650983,0.359380,-0.668758,0.328000,-0.675000,0.000000,-0.675000,-0.410000,-0.265000,-0.410000,0.593000,-0.410000,0.593000,$1*%
G04 Aperture macros list end*
%ADD10C,1.750000*%
%ADD11C,3.987800*%
%ADD12C,3.300000*%
%ADD13RoundRect,0.250000X0.895490X1.117462X-1.139229X0.867630X-0.895490X-1.117462X1.139229X-0.867630X0*%
%ADD14RoundRect,0.250000X1.139229X0.867630X-0.895490X1.117462X-1.139229X-0.867630X0.895490X-1.117462X0*%
%ADD15RotRect,0.900000X1.200000X97.000000*%
%ADD16RoundRect,0.082000X0.593000X-0.328000X0.593000X0.328000X-0.593000X0.328000X-0.593000X-0.328000X0*%
%ADD17FreePoly0,90.000000*%
%ADD18RotRect,0.900000X1.200000X83.000000*%
%ADD19RotRect,0.900000X1.200000X68.000000*%
%ADD20RoundRect,0.250000X0.216786X1.415496X-1.420416X0.181775X-0.216786X-1.415496X1.420416X-0.181775X0*%
%ADD21RotRect,0.900000X1.200000X53.000000*%
%ADD22RoundRect,0.150000X0.275000X-0.150000X0.275000X0.150000X-0.275000X0.150000X-0.275000X-0.150000X0*%
%ADD23RoundRect,0.175000X0.225000X-0.175000X0.225000X0.175000X-0.225000X0.175000X-0.225000X-0.175000X0*%
%ADD24RoundRect,0.250000X1.324970X0.543212X-0.575757X1.311156X-1.324970X-0.543212X0.575757X-1.311156X0*%
%ADD25RoundRect,0.250000X0.575757X1.311156X-1.324970X0.543212X-0.575757X-1.311156X1.324970X-0.543212X0*%
%ADD26RotRect,0.900000X1.200000X127.000000*%
%ADD27C,2.100000*%
%ADD28RotRect,0.900000X1.200000X112.000000*%
%ADD29RoundRect,0.250000X1.420416X0.181775X-0.216786X1.415496X-1.420416X-0.181775X0.216786X-1.415496X0*%
%ADD30RoundRect,0.450000X1.300000X0.450000X-1.300000X0.450000X-1.300000X-0.450000X1.300000X-0.450000X0*%
%ADD31C,1.800000*%
%ADD32RoundRect,0.450000X0.450000X0.450000X-0.450000X0.450000X-0.450000X-0.450000X0.450000X-0.450000X0*%
%ADD33RoundRect,0.450000X0.450000X-1.300000X0.450000X1.300000X-0.450000X1.300000X-0.450000X-1.300000X0*%
%ADD34RoundRect,0.450000X-1.300000X-0.450000X1.300000X-0.450000X1.300000X0.450000X-1.300000X0.450000X0*%
G04 APERTURE END LIST*
D10*
%TO.C,MX18*%
X264743649Y-115128754D03*
D11*
X259701515Y-115747850D03*
D10*
X254659381Y-116366946D03*
D12*
X255610366Y-113691105D03*
D13*
X252086827Y-114123741D03*
X265127025Y-109963531D03*
D12*
X261603486Y-110396167D03*
%TD*%
D10*
%TO.C,MX8*%
X262422186Y-96221940D03*
D11*
X257380052Y-96841036D03*
D10*
X252337918Y-97460132D03*
D12*
X253288903Y-94784291D03*
D13*
X249765364Y-95216927D03*
X262805562Y-91056717D03*
D12*
X259282023Y-91489353D03*
%TD*%
D10*
%TO.C,MX5*%
X176119808Y-109174953D03*
D11*
X171077674Y-108555857D03*
D10*
X166035540Y-107936761D03*
D12*
X167605621Y-105570468D03*
D14*
X164082082Y-105137831D03*
X177741376Y-104255907D03*
D12*
X174217837Y-103823271D03*
%TD*%
D10*
%TO.C,MX24*%
X152859503Y-142309817D03*
D11*
X147817369Y-141690721D03*
D10*
X142775235Y-141071625D03*
D12*
X144345316Y-138705332D03*
D14*
X140821777Y-138272695D03*
X154481071Y-137390771D03*
D12*
X150957532Y-136958135D03*
%TD*%
D15*
%TO.C,D9*%
X284737248Y-104728024D03*
X284335080Y-101452622D03*
%TD*%
D16*
%TO.C,LED3*%
X193031209Y-171342461D03*
X193031209Y-172842461D03*
X198481209Y-171342461D03*
D17*
X198481209Y-172842461D03*
%TD*%
D18*
%TO.C,D15*%
X175064813Y-134697625D03*
X175466981Y-131422223D03*
%TD*%
D10*
%TO.C,MX21*%
X94935604Y-145146815D03*
D11*
X89893470Y-144527719D03*
D10*
X84851336Y-143908623D03*
D12*
X86421417Y-141542330D03*
D14*
X82897878Y-141109693D03*
X96557172Y-140227769D03*
D12*
X93033633Y-139795133D03*
%TD*%
D18*
%TO.C,D12*%
X118633815Y-125375936D03*
X119035983Y-122100534D03*
%TD*%
D10*
%TO.C,MX27*%
X248737182Y-141071625D03*
D11*
X243695048Y-141690721D03*
D10*
X238652914Y-142309817D03*
D12*
X239603899Y-139633976D03*
D13*
X236080360Y-140066612D03*
X249120558Y-135906402D03*
D12*
X245597019Y-136339038D03*
%TD*%
D15*
%TO.C,D19*%
X287058713Y-123634836D03*
X286656545Y-120359434D03*
%TD*%
D18*
%TO.C,D21*%
X96202074Y-151762674D03*
X96604242Y-148487272D03*
%TD*%
D19*
%TO.C,D32*%
X163696807Y-179113493D03*
X164933009Y-176053787D03*
%TD*%
D10*
%TO.C,MX34*%
X216762893Y-178322308D03*
D11*
X212705825Y-181379528D03*
D10*
X208648757Y-184436748D03*
D12*
X208134414Y-181643909D03*
D20*
X205299257Y-183780352D03*
X214512295Y-173657406D03*
D12*
X211677139Y-175793849D03*
%TD*%
D10*
%TO.C,MX15*%
X173798345Y-128081766D03*
D11*
X168756211Y-127462670D03*
D10*
X163714077Y-126843574D03*
D12*
X165284158Y-124477281D03*
D14*
X161760619Y-124044644D03*
X175419913Y-123162720D03*
D12*
X171896374Y-122730084D03*
%TD*%
D18*
%TO.C,D14*%
X156447438Y-130018864D03*
X156849606Y-126743462D03*
%TD*%
D10*
%TO.C,MX12*%
X117367343Y-118760076D03*
D11*
X112325209Y-118140980D03*
D10*
X107283075Y-117521884D03*
D12*
X108853156Y-115155591D03*
D14*
X105329617Y-114722954D03*
X118988911Y-113841030D03*
D12*
X115465372Y-113408394D03*
%TD*%
D10*
%TO.C,MX17*%
X246415716Y-122164811D03*
D11*
X241373582Y-122783907D03*
D10*
X236331448Y-123403003D03*
D12*
X237282433Y-120727162D03*
D13*
X233758894Y-121159798D03*
X246799092Y-116999588D03*
D12*
X243275553Y-117432224D03*
%TD*%
D21*
%TO.C,D33*%
X180672367Y-190749642D03*
X182658357Y-188114144D03*
%TD*%
D10*
%TO.C,MX25*%
X171476877Y-146988579D03*
D11*
X166434743Y-146369483D03*
D10*
X161392609Y-145750387D03*
D12*
X162962690Y-143384094D03*
D14*
X159439151Y-142951457D03*
X173098445Y-142069533D03*
D12*
X169574906Y-141636897D03*
%TD*%
D22*
%TO.C,J1*%
X197616161Y-145319264D03*
X197616161Y-144119264D03*
X197616161Y-142919264D03*
X197616161Y-141719264D03*
D23*
X193841161Y-146469264D03*
X193841161Y-140569264D03*
%TD*%
D10*
%TO.C,MX9*%
X281907878Y-98615070D03*
D11*
X276865744Y-99234166D03*
D10*
X271823610Y-99853262D03*
D12*
X272774595Y-97177421D03*
D13*
X269251056Y-97610057D03*
X282291254Y-93449847D03*
D12*
X278767715Y-93882483D03*
%TD*%
D10*
%TO.C,MX30*%
X306661080Y-143908624D03*
D11*
X301618946Y-144527720D03*
D10*
X296576812Y-145146816D03*
D12*
X297527797Y-142470975D03*
D13*
X294004258Y-142903611D03*
X307044456Y-138743401D03*
D12*
X303520917Y-139176037D03*
%TD*%
D10*
%TO.C,MX14*%
X155180968Y-123403003D03*
D11*
X150138834Y-122783907D03*
D10*
X145096700Y-122164811D03*
D12*
X146666781Y-119798518D03*
D14*
X143143242Y-119365881D03*
X156802536Y-118483957D03*
D12*
X153278997Y-118051321D03*
%TD*%
D10*
%TO.C,MX29*%
X286550809Y-136428698D03*
D11*
X281508675Y-137047794D03*
D10*
X276466541Y-137666890D03*
D12*
X277417526Y-134991049D03*
D13*
X273893987Y-135423685D03*
X286934185Y-131263475D03*
D12*
X283410646Y-131696111D03*
%TD*%
D10*
%TO.C,MX20*%
X304339616Y-125001810D03*
D11*
X299297482Y-125620906D03*
D10*
X294255348Y-126240002D03*
D12*
X295206333Y-123564161D03*
D13*
X291682794Y-123996797D03*
X304722992Y-119836587D03*
D12*
X301199453Y-120269223D03*
%TD*%
D10*
%TO.C,MX11*%
X97257071Y-126240002D03*
D11*
X92214937Y-125620906D03*
D10*
X87172803Y-125001810D03*
D12*
X88742884Y-122635517D03*
D14*
X85219345Y-122202880D03*
X98878639Y-121320956D03*
D12*
X95355100Y-120888320D03*
%TD*%
D15*
%TO.C,D36*%
X261391907Y-170378748D03*
X260989739Y-167103346D03*
%TD*%
D18*
%TO.C,D13*%
X138119507Y-122982804D03*
X138521675Y-119707402D03*
%TD*%
D15*
%TO.C,D29*%
X289380180Y-142541649D03*
X288978012Y-139266247D03*
%TD*%
D10*
%TO.C,MX19*%
X284229344Y-117521883D03*
D11*
X279187210Y-118140979D03*
D10*
X274145076Y-118760075D03*
D12*
X275096061Y-116084234D03*
D13*
X271572522Y-116516870D03*
X284612720Y-112356660D03*
D12*
X281089181Y-112789296D03*
%TD*%
D18*
%TO.C,D31*%
X144300618Y-172119843D03*
X144702786Y-168844441D03*
%TD*%
D10*
%TO.C,MX2*%
X119688810Y-99853262D03*
D11*
X114646676Y-99234166D03*
D10*
X109604542Y-98615070D03*
D12*
X111174623Y-96248777D03*
D14*
X107651084Y-95816140D03*
X121310378Y-94934216D03*
D12*
X117786839Y-94501580D03*
%TD*%
D15*
%TO.C,D20*%
X307168987Y-131114763D03*
X306766819Y-127839361D03*
%TD*%
D10*
%TO.C,MX31*%
X143034149Y-165503986D03*
D11*
X137992015Y-164884890D03*
D10*
X132949881Y-164265794D03*
D12*
X134519962Y-161899501D03*
D14*
X130996423Y-161466864D03*
X144655717Y-160584940D03*
D12*
X141132178Y-160152304D03*
%TD*%
D15*
%TO.C,D10*%
X304847521Y-112207950D03*
X304445353Y-108932548D03*
%TD*%
%TO.C,D18*%
X267573022Y-121241703D03*
X267170854Y-117966301D03*
%TD*%
D10*
%TO.C,MX32*%
X164185803Y-172395280D03*
D11*
X159475709Y-170492279D03*
D10*
X154765615Y-168589278D03*
D12*
X156894639Y-166709981D03*
D24*
X153603137Y-165380127D03*
X167025260Y-168063539D03*
D12*
X163733757Y-166733686D03*
%TD*%
D10*
%TO.C,MX35*%
X236766918Y-168639421D03*
D11*
X232056824Y-170542422D03*
D10*
X227346730Y-172445423D03*
D12*
X227572753Y-169614626D03*
D25*
X224281250Y-170944480D03*
X235800372Y-163550974D03*
D12*
X232508869Y-164880827D03*
%TD*%
D26*
%TO.C,D34*%
X222269677Y-182201592D03*
X220283687Y-179566094D03*
%TD*%
D10*
%TO.C,MX26*%
X230119807Y-145750388D03*
D11*
X225077673Y-146369484D03*
D10*
X220035539Y-146988580D03*
D12*
X220986524Y-144312739D03*
D13*
X217462985Y-144745375D03*
X230503183Y-140585165D03*
D12*
X226979644Y-141017801D03*
%TD*%
D18*
%TO.C,D1*%
X100845006Y-113949050D03*
X101247174Y-110673648D03*
%TD*%
D15*
%TO.C,D17*%
X249245086Y-128277762D03*
X248842918Y-125002360D03*
%TD*%
D10*
%TO.C,MX16*%
X227798341Y-126843575D03*
D11*
X222756207Y-127462671D03*
D10*
X217714073Y-128081767D03*
D12*
X218665058Y-125405926D03*
D13*
X215141519Y-125838562D03*
X228181717Y-121678352D03*
D12*
X224658178Y-122110988D03*
%TD*%
D18*
%TO.C,D23*%
X135798041Y-141889615D03*
X136200209Y-138614213D03*
%TD*%
D10*
%TO.C,MX3*%
X139174500Y-97460132D03*
D11*
X134132366Y-96841036D03*
D10*
X129090232Y-96221940D03*
D12*
X130660313Y-93855647D03*
D14*
X127136774Y-93423010D03*
X140796068Y-92541086D03*
D12*
X137272529Y-92108450D03*
%TD*%
D18*
%TO.C,D24*%
X154125973Y-148925677D03*
X154528141Y-145650275D03*
%TD*%
D10*
%TO.C,MX23*%
X134531572Y-135273759D03*
D11*
X129489438Y-134654663D03*
D10*
X124447304Y-134035567D03*
D12*
X126017385Y-131669274D03*
D14*
X122493846Y-131236637D03*
X136153140Y-130354713D03*
D12*
X132629601Y-129922077D03*
%TD*%
D10*
%TO.C,MX28*%
X267065111Y-134035571D03*
D11*
X262022977Y-134654667D03*
D10*
X256980843Y-135273763D03*
D12*
X257931828Y-132597922D03*
D13*
X254408289Y-133030558D03*
X267448487Y-128870348D03*
D12*
X263924948Y-129302984D03*
%TD*%
D15*
%TO.C,D6*%
X228306248Y-114049712D03*
X227904080Y-110774310D03*
%TD*%
D10*
%TO.C,MX36*%
X258562539Y-164265794D03*
D11*
X253520405Y-164884890D03*
D10*
X248478271Y-165503986D03*
D12*
X249429256Y-162828145D03*
D13*
X245905717Y-163260781D03*
X258945915Y-159100571D03*
D12*
X255422376Y-159533207D03*
%TD*%
D10*
%TO.C,MX6*%
X225476876Y-107936762D03*
D11*
X220434742Y-108555858D03*
D10*
X215392608Y-109174954D03*
D12*
X216343593Y-106499113D03*
D13*
X212820054Y-106931749D03*
X225860252Y-102771539D03*
D12*
X222336713Y-103204175D03*
%TD*%
D27*
%TO.C,SW1*%
X192241162Y-190115864D03*
X199241162Y-190115864D03*
%TD*%
D28*
%TO.C,D35*%
X241082031Y-173811788D03*
X239845829Y-170752082D03*
%TD*%
D10*
%TO.C,MX10*%
X302018152Y-106094997D03*
D11*
X296976018Y-106714093D03*
D10*
X291933884Y-107333189D03*
D12*
X292884869Y-104657348D03*
D13*
X289361330Y-105089984D03*
X302401528Y-100929774D03*
D12*
X298877989Y-101362410D03*
%TD*%
D18*
%TO.C,D2*%
X120955281Y-106469117D03*
X121357449Y-103193715D03*
%TD*%
D10*
%TO.C,MX33*%
X182883502Y-184386906D03*
D11*
X178826434Y-181329686D03*
D10*
X174769366Y-178272466D03*
D12*
X177312243Y-177008237D03*
D29*
X174477087Y-174871793D03*
X186747345Y-180937671D03*
D12*
X183912189Y-178801228D03*
%TD*%
D15*
%TO.C,D28*%
X269894486Y-140148522D03*
X269492318Y-136873120D03*
%TD*%
D10*
%TO.C,MX4*%
X157502434Y-104496190D03*
D11*
X152460300Y-103877094D03*
D10*
X147418166Y-103257998D03*
D12*
X148988247Y-100891705D03*
D14*
X145464708Y-100459068D03*
X159124002Y-99577144D03*
D12*
X155600463Y-99144508D03*
%TD*%
D15*
%TO.C,D26*%
X232949181Y-151863337D03*
X232547013Y-148587935D03*
%TD*%
%TO.C,D30*%
X309490452Y-150021575D03*
X309088284Y-146746173D03*
%TD*%
D10*
%TO.C,MX1*%
X99578536Y-107333189D03*
D11*
X94536402Y-106714093D03*
D10*
X89494268Y-106094997D03*
D12*
X91064349Y-103728704D03*
D14*
X87540810Y-103296067D03*
X101200104Y-102414143D03*
D12*
X97676565Y-101981507D03*
%TD*%
D30*
%TO.C,U1*%
X204676209Y-104492671D03*
D31*
X203376209Y-104492671D03*
D30*
X204676209Y-107032671D03*
D31*
X203376209Y-107032671D03*
D30*
X204676209Y-109572671D03*
D32*
X203376209Y-109572671D03*
D30*
X204676209Y-112112671D03*
D32*
X203376209Y-112112671D03*
D30*
X204676209Y-114652671D03*
D31*
X203376209Y-114652671D03*
D30*
X204676209Y-117192671D03*
D31*
X203376209Y-117192671D03*
D30*
X204676209Y-119732671D03*
D31*
X203376209Y-119732671D03*
D30*
X204676209Y-122272671D03*
D31*
X203376209Y-122272671D03*
D30*
X204676209Y-124812671D03*
D31*
X203376209Y-124812671D03*
D30*
X204676209Y-127352671D03*
D31*
X203376209Y-127352671D03*
D30*
X204676209Y-129892671D03*
D31*
X203376209Y-129892671D03*
D30*
X204676209Y-132432671D03*
D31*
X203376209Y-132432671D03*
X188136209Y-104492671D03*
D30*
X186836209Y-104492671D03*
D32*
X188136209Y-107032671D03*
D30*
X186836209Y-107032671D03*
D31*
X188136209Y-109572671D03*
D30*
X186836209Y-109572671D03*
D31*
X188136209Y-112112671D03*
D30*
X186836209Y-112112671D03*
D31*
X188136209Y-114652671D03*
D30*
X186836209Y-114652671D03*
D31*
X188136209Y-117192671D03*
D30*
X186836209Y-117192671D03*
D31*
X188136209Y-119732671D03*
D30*
X186836209Y-119732671D03*
D31*
X188136209Y-122272671D03*
D30*
X186836209Y-122272671D03*
D31*
X188136209Y-124812671D03*
D30*
X186836209Y-124812671D03*
D31*
X188136209Y-127352671D03*
D30*
X186836209Y-127352671D03*
D31*
X188136209Y-129892671D03*
D30*
X186836209Y-129892671D03*
D31*
X188136209Y-132432671D03*
D30*
X186836209Y-132432671D03*
D33*
X200836209Y-133732671D03*
D31*
X200836209Y-132432671D03*
D33*
X198296209Y-133732671D03*
D31*
X198296209Y-132432671D03*
D33*
X195756209Y-133732671D03*
D31*
X195756209Y-132432671D03*
D33*
X193216209Y-133732671D03*
D31*
X193216209Y-132432671D03*
D33*
X190676209Y-133732671D03*
D31*
X190676209Y-132432671D03*
X188136209Y-101952671D03*
D34*
X186836209Y-101952671D03*
D30*
X204676209Y-101952671D03*
D31*
X203376209Y-101952671D03*
X197026209Y-109572671D03*
X194486209Y-109572671D03*
X200836209Y-129892671D03*
%TD*%
D18*
%TO.C,D22*%
X116304720Y-144344882D03*
X116706888Y-141069480D03*
%TD*%
D15*
%TO.C,D8*%
X265251557Y-102334890D03*
X264849389Y-99059488D03*
%TD*%
%TO.C,D7*%
X246923620Y-109370953D03*
X246521452Y-106095551D03*
%TD*%
D10*
%TO.C,MX13*%
X136853036Y-116366947D03*
D11*
X131810902Y-115747851D03*
D10*
X126768768Y-115128755D03*
D12*
X128338849Y-112762462D03*
D14*
X124815310Y-112329825D03*
X138474604Y-111447901D03*
D12*
X134951065Y-111015265D03*
%TD*%
D10*
%TO.C,MX7*%
X244094252Y-103257998D03*
D11*
X239052118Y-103877094D03*
D10*
X234009984Y-104496190D03*
D12*
X234960969Y-101820349D03*
D13*
X231437430Y-102252985D03*
X244477628Y-98092775D03*
D12*
X240954089Y-98525411D03*
%TD*%
D10*
%TO.C,MX22*%
X115045879Y-137666888D03*
D11*
X110003745Y-137047792D03*
D10*
X104961611Y-136428696D03*
D12*
X106531692Y-134062403D03*
D14*
X103008153Y-133629766D03*
X116667447Y-132747842D03*
D12*
X113143908Y-132315206D03*
%TD*%
D18*
%TO.C,D25*%
X172743344Y-153604441D03*
X173145512Y-150329039D03*
%TD*%
D16*
%TO.C,LED1*%
X193031210Y-151342461D03*
X193031210Y-152842461D03*
X198481210Y-151342461D03*
D17*
X198481210Y-152842461D03*
%TD*%
D18*
%TO.C,D3*%
X140440972Y-104075991D03*
X140843140Y-100800589D03*
%TD*%
%TO.C,D5*%
X177386279Y-115790811D03*
X177788447Y-112515409D03*
%TD*%
D15*
%TO.C,D16*%
X230627715Y-132956524D03*
X230225547Y-129681122D03*
%TD*%
D18*
%TO.C,D11*%
X98523544Y-132855862D03*
X98925712Y-129580460D03*
%TD*%
D15*
%TO.C,D27*%
X251566552Y-147184576D03*
X251164384Y-143909174D03*
%TD*%
D18*
%TO.C,D4*%
X158768906Y-111112051D03*
X159171074Y-107836649D03*
%TD*%
D16*
%TO.C,LED2*%
X193031207Y-161342465D03*
X193031207Y-162842465D03*
X198481207Y-161342465D03*
D17*
X198481207Y-162842465D03*
%TD*%
M02*
