%TF.GenerationSoftware,KiCad,Pcbnew,7.0.10-7.0.10~ubuntu22.04.1*%
%TF.CreationDate,2024-01-12T22:57:13+01:00*%
%TF.ProjectId,fatboy,66617462-6f79-42e6-9b69-6361645f7063,rev?*%
%TF.SameCoordinates,Original*%
%TF.FileFunction,Legend,Bot*%
%TF.FilePolarity,Positive*%
%FSLAX46Y46*%
G04 Gerber Fmt 4.6, Leading zero omitted, Abs format (unit mm)*
G04 Created by KiCad (PCBNEW 7.0.10-7.0.10~ubuntu22.04.1) date 2024-01-12 22:57:13*
%MOMM*%
%LPD*%
G01*
G04 APERTURE LIST*
%ADD10C,0.150000*%
%ADD11C,0.120000*%
G04 APERTURE END LIST*
D10*
X195129819Y-114830951D02*
X195844104Y-114830951D01*
X195844104Y-114830951D02*
X195986961Y-114783332D01*
X195986961Y-114783332D02*
X196082200Y-114688094D01*
X196082200Y-114688094D02*
X196129819Y-114545237D01*
X196129819Y-114545237D02*
X196129819Y-114449999D01*
X196129819Y-115783332D02*
X196129819Y-115307142D01*
X196129819Y-115307142D02*
X195129819Y-115307142D01*
X196034580Y-116688094D02*
X196082200Y-116640475D01*
X196082200Y-116640475D02*
X196129819Y-116497618D01*
X196129819Y-116497618D02*
X196129819Y-116402380D01*
X196129819Y-116402380D02*
X196082200Y-116259523D01*
X196082200Y-116259523D02*
X195986961Y-116164285D01*
X195986961Y-116164285D02*
X195891723Y-116116666D01*
X195891723Y-116116666D02*
X195701247Y-116069047D01*
X195701247Y-116069047D02*
X195558390Y-116069047D01*
X195558390Y-116069047D02*
X195367914Y-116116666D01*
X195367914Y-116116666D02*
X195272676Y-116164285D01*
X195272676Y-116164285D02*
X195177438Y-116259523D01*
X195177438Y-116259523D02*
X195129819Y-116402380D01*
X195129819Y-116402380D02*
X195129819Y-116497618D01*
X195129819Y-116497618D02*
X195177438Y-116640475D01*
X195177438Y-116640475D02*
X195225057Y-116688094D01*
X195129819Y-117402380D02*
X195844104Y-117402380D01*
X195844104Y-117402380D02*
X195986961Y-117354761D01*
X195986961Y-117354761D02*
X196082200Y-117259523D01*
X196082200Y-117259523D02*
X196129819Y-117116666D01*
X196129819Y-117116666D02*
X196129819Y-117021428D01*
X196129819Y-118354761D02*
X196129819Y-117878571D01*
X196129819Y-117878571D02*
X195129819Y-117878571D01*
X196034580Y-119259523D02*
X196082200Y-119211904D01*
X196082200Y-119211904D02*
X196129819Y-119069047D01*
X196129819Y-119069047D02*
X196129819Y-118973809D01*
X196129819Y-118973809D02*
X196082200Y-118830952D01*
X196082200Y-118830952D02*
X195986961Y-118735714D01*
X195986961Y-118735714D02*
X195891723Y-118688095D01*
X195891723Y-118688095D02*
X195701247Y-118640476D01*
X195701247Y-118640476D02*
X195558390Y-118640476D01*
X195558390Y-118640476D02*
X195367914Y-118688095D01*
X195367914Y-118688095D02*
X195272676Y-118735714D01*
X195272676Y-118735714D02*
X195177438Y-118830952D01*
X195177438Y-118830952D02*
X195129819Y-118973809D01*
X195129819Y-118973809D02*
X195129819Y-119069047D01*
X195129819Y-119069047D02*
X195177438Y-119211904D01*
X195177438Y-119211904D02*
X195225057Y-119259523D01*
X195129819Y-119973809D02*
X195844104Y-119973809D01*
X195844104Y-119973809D02*
X195986961Y-119926190D01*
X195986961Y-119926190D02*
X196082200Y-119830952D01*
X196082200Y-119830952D02*
X196129819Y-119688095D01*
X196129819Y-119688095D02*
X196129819Y-119592857D01*
X196129819Y-120926190D02*
X196129819Y-120450000D01*
X196129819Y-120450000D02*
X195129819Y-120450000D01*
X196034580Y-121830952D02*
X196082200Y-121783333D01*
X196082200Y-121783333D02*
X196129819Y-121640476D01*
X196129819Y-121640476D02*
X196129819Y-121545238D01*
X196129819Y-121545238D02*
X196082200Y-121402381D01*
X196082200Y-121402381D02*
X195986961Y-121307143D01*
X195986961Y-121307143D02*
X195891723Y-121259524D01*
X195891723Y-121259524D02*
X195701247Y-121211905D01*
X195701247Y-121211905D02*
X195558390Y-121211905D01*
X195558390Y-121211905D02*
X195367914Y-121259524D01*
X195367914Y-121259524D02*
X195272676Y-121307143D01*
X195272676Y-121307143D02*
X195177438Y-121402381D01*
X195177438Y-121402381D02*
X195129819Y-121545238D01*
X195129819Y-121545238D02*
X195129819Y-121640476D01*
X195129819Y-121640476D02*
X195177438Y-121783333D01*
X195177438Y-121783333D02*
X195225057Y-121830952D01*
X195129819Y-122545238D02*
X195844104Y-122545238D01*
X195844104Y-122545238D02*
X195986961Y-122497619D01*
X195986961Y-122497619D02*
X196082200Y-122402381D01*
X196082200Y-122402381D02*
X196129819Y-122259524D01*
X196129819Y-122259524D02*
X196129819Y-122164286D01*
X196129819Y-123497619D02*
X196129819Y-123021429D01*
X196129819Y-123021429D02*
X195129819Y-123021429D01*
X196034580Y-124402381D02*
X196082200Y-124354762D01*
X196082200Y-124354762D02*
X196129819Y-124211905D01*
X196129819Y-124211905D02*
X196129819Y-124116667D01*
X196129819Y-124116667D02*
X196082200Y-123973810D01*
X196082200Y-123973810D02*
X195986961Y-123878572D01*
X195986961Y-123878572D02*
X195891723Y-123830953D01*
X195891723Y-123830953D02*
X195701247Y-123783334D01*
X195701247Y-123783334D02*
X195558390Y-123783334D01*
X195558390Y-123783334D02*
X195367914Y-123830953D01*
X195367914Y-123830953D02*
X195272676Y-123878572D01*
X195272676Y-123878572D02*
X195177438Y-123973810D01*
X195177438Y-123973810D02*
X195129819Y-124116667D01*
X195129819Y-124116667D02*
X195129819Y-124211905D01*
X195129819Y-124211905D02*
X195177438Y-124354762D01*
X195177438Y-124354762D02*
X195225057Y-124402381D01*
X198375256Y-102865823D02*
X197994304Y-102865823D01*
X198232399Y-102532490D02*
X198232399Y-103389632D01*
X198232399Y-103389632D02*
X198184780Y-103484871D01*
X198184780Y-103484871D02*
X198089542Y-103532490D01*
X198089542Y-103532490D02*
X197994304Y-103532490D01*
X197518113Y-103532490D02*
X197613351Y-103484871D01*
X197613351Y-103484871D02*
X197660970Y-103437251D01*
X197660970Y-103437251D02*
X197708589Y-103342013D01*
X197708589Y-103342013D02*
X197708589Y-103056299D01*
X197708589Y-103056299D02*
X197660970Y-102961061D01*
X197660970Y-102961061D02*
X197613351Y-102913442D01*
X197613351Y-102913442D02*
X197518113Y-102865823D01*
X197518113Y-102865823D02*
X197375256Y-102865823D01*
X197375256Y-102865823D02*
X197280018Y-102913442D01*
X197280018Y-102913442D02*
X197232399Y-102961061D01*
X197232399Y-102961061D02*
X197184780Y-103056299D01*
X197184780Y-103056299D02*
X197184780Y-103342013D01*
X197184780Y-103342013D02*
X197232399Y-103437251D01*
X197232399Y-103437251D02*
X197280018Y-103484871D01*
X197280018Y-103484871D02*
X197375256Y-103532490D01*
X197375256Y-103532490D02*
X197518113Y-103532490D01*
X196756208Y-102865823D02*
X196756208Y-103865823D01*
X196756208Y-102913442D02*
X196660970Y-102865823D01*
X196660970Y-102865823D02*
X196470494Y-102865823D01*
X196470494Y-102865823D02*
X196375256Y-102913442D01*
X196375256Y-102913442D02*
X196327637Y-102961061D01*
X196327637Y-102961061D02*
X196280018Y-103056299D01*
X196280018Y-103056299D02*
X196280018Y-103342013D01*
X196280018Y-103342013D02*
X196327637Y-103437251D01*
X196327637Y-103437251D02*
X196375256Y-103484871D01*
X196375256Y-103484871D02*
X196470494Y-103532490D01*
X196470494Y-103532490D02*
X196660970Y-103532490D01*
X196660970Y-103532490D02*
X196756208Y-103484871D01*
X195899065Y-103484871D02*
X195803827Y-103532490D01*
X195803827Y-103532490D02*
X195613351Y-103532490D01*
X195613351Y-103532490D02*
X195518113Y-103484871D01*
X195518113Y-103484871D02*
X195470494Y-103389632D01*
X195470494Y-103389632D02*
X195470494Y-103342013D01*
X195470494Y-103342013D02*
X195518113Y-103246775D01*
X195518113Y-103246775D02*
X195613351Y-103199156D01*
X195613351Y-103199156D02*
X195756208Y-103199156D01*
X195756208Y-103199156D02*
X195851446Y-103151537D01*
X195851446Y-103151537D02*
X195899065Y-103056299D01*
X195899065Y-103056299D02*
X195899065Y-103008680D01*
X195899065Y-103008680D02*
X195851446Y-102913442D01*
X195851446Y-102913442D02*
X195756208Y-102865823D01*
X195756208Y-102865823D02*
X195613351Y-102865823D01*
X195613351Y-102865823D02*
X195518113Y-102913442D01*
X195041922Y-103532490D02*
X195041922Y-102865823D01*
X195041922Y-102532490D02*
X195089541Y-102580109D01*
X195089541Y-102580109D02*
X195041922Y-102627728D01*
X195041922Y-102627728D02*
X194994303Y-102580109D01*
X194994303Y-102580109D02*
X195041922Y-102532490D01*
X195041922Y-102532490D02*
X195041922Y-102627728D01*
X194137161Y-103532490D02*
X194137161Y-102532490D01*
X194137161Y-103484871D02*
X194232399Y-103532490D01*
X194232399Y-103532490D02*
X194422875Y-103532490D01*
X194422875Y-103532490D02*
X194518113Y-103484871D01*
X194518113Y-103484871D02*
X194565732Y-103437251D01*
X194565732Y-103437251D02*
X194613351Y-103342013D01*
X194613351Y-103342013D02*
X194613351Y-103056299D01*
X194613351Y-103056299D02*
X194565732Y-102961061D01*
X194565732Y-102961061D02*
X194518113Y-102913442D01*
X194518113Y-102913442D02*
X194422875Y-102865823D01*
X194422875Y-102865823D02*
X194232399Y-102865823D01*
X194232399Y-102865823D02*
X194137161Y-102913442D01*
X193280018Y-103484871D02*
X193375256Y-103532490D01*
X193375256Y-103532490D02*
X193565732Y-103532490D01*
X193565732Y-103532490D02*
X193660970Y-103484871D01*
X193660970Y-103484871D02*
X193708589Y-103389632D01*
X193708589Y-103389632D02*
X193708589Y-103008680D01*
X193708589Y-103008680D02*
X193660970Y-102913442D01*
X193660970Y-102913442D02*
X193565732Y-102865823D01*
X193565732Y-102865823D02*
X193375256Y-102865823D01*
X193375256Y-102865823D02*
X193280018Y-102913442D01*
X193280018Y-102913442D02*
X193232399Y-103008680D01*
X193232399Y-103008680D02*
X193232399Y-103103918D01*
X193232399Y-103103918D02*
X193708589Y-103199156D01*
X201490494Y-105049990D02*
X202061922Y-105049990D01*
X201776208Y-105049990D02*
X201776208Y-104049990D01*
X201776208Y-104049990D02*
X201871446Y-104192847D01*
X201871446Y-104192847D02*
X201966684Y-104288085D01*
X201966684Y-104288085D02*
X202061922Y-104335704D01*
X197018113Y-101132490D02*
X197018113Y-101942013D01*
X197018113Y-101942013D02*
X196970494Y-102037251D01*
X196970494Y-102037251D02*
X196922875Y-102084871D01*
X196922875Y-102084871D02*
X196827637Y-102132490D01*
X196827637Y-102132490D02*
X196637161Y-102132490D01*
X196637161Y-102132490D02*
X196541923Y-102084871D01*
X196541923Y-102084871D02*
X196494304Y-102037251D01*
X196494304Y-102037251D02*
X196446685Y-101942013D01*
X196446685Y-101942013D02*
X196446685Y-101132490D01*
X196018113Y-102084871D02*
X195875256Y-102132490D01*
X195875256Y-102132490D02*
X195637161Y-102132490D01*
X195637161Y-102132490D02*
X195541923Y-102084871D01*
X195541923Y-102084871D02*
X195494304Y-102037251D01*
X195494304Y-102037251D02*
X195446685Y-101942013D01*
X195446685Y-101942013D02*
X195446685Y-101846775D01*
X195446685Y-101846775D02*
X195494304Y-101751537D01*
X195494304Y-101751537D02*
X195541923Y-101703918D01*
X195541923Y-101703918D02*
X195637161Y-101656299D01*
X195637161Y-101656299D02*
X195827637Y-101608680D01*
X195827637Y-101608680D02*
X195922875Y-101561061D01*
X195922875Y-101561061D02*
X195970494Y-101513442D01*
X195970494Y-101513442D02*
X196018113Y-101418204D01*
X196018113Y-101418204D02*
X196018113Y-101322966D01*
X196018113Y-101322966D02*
X195970494Y-101227728D01*
X195970494Y-101227728D02*
X195922875Y-101180109D01*
X195922875Y-101180109D02*
X195827637Y-101132490D01*
X195827637Y-101132490D02*
X195589542Y-101132490D01*
X195589542Y-101132490D02*
X195446685Y-101180109D01*
X194684780Y-101608680D02*
X194541923Y-101656299D01*
X194541923Y-101656299D02*
X194494304Y-101703918D01*
X194494304Y-101703918D02*
X194446685Y-101799156D01*
X194446685Y-101799156D02*
X194446685Y-101942013D01*
X194446685Y-101942013D02*
X194494304Y-102037251D01*
X194494304Y-102037251D02*
X194541923Y-102084871D01*
X194541923Y-102084871D02*
X194637161Y-102132490D01*
X194637161Y-102132490D02*
X195018113Y-102132490D01*
X195018113Y-102132490D02*
X195018113Y-101132490D01*
X195018113Y-101132490D02*
X194684780Y-101132490D01*
X194684780Y-101132490D02*
X194589542Y-101180109D01*
X194589542Y-101180109D02*
X194541923Y-101227728D01*
X194541923Y-101227728D02*
X194494304Y-101322966D01*
X194494304Y-101322966D02*
X194494304Y-101418204D01*
X194494304Y-101418204D02*
X194541923Y-101513442D01*
X194541923Y-101513442D02*
X194589542Y-101561061D01*
X194589542Y-101561061D02*
X194684780Y-101608680D01*
X194684780Y-101608680D02*
X195018113Y-101608680D01*
%TO.C,MX18*%
X264082790Y-111512114D02*
X264140069Y-111978611D01*
X263707432Y-108455072D02*
X263735462Y-108683358D01*
X263704730Y-112535819D02*
X259173932Y-113092131D01*
X262168986Y-108643970D02*
X263707432Y-108455072D01*
X254824144Y-109545803D02*
X260680167Y-108826774D01*
X253527614Y-115397427D02*
X253556863Y-115635638D01*
X253180286Y-112568671D02*
X253082791Y-111774634D01*
X263704730Y-112535819D02*
G75*
G03*
X264140068Y-111978611I-60936J496274D01*
G01*
X259173932Y-113092132D02*
G75*
G03*
X257120952Y-115198023I285452J-2331925D01*
G01*
X254824144Y-109545803D02*
G75*
G03*
X253082791Y-111774634I243744J-1985096D01*
G01*
%TO.C,MX8*%
X261761327Y-92605300D02*
X261818606Y-93071797D01*
X261385969Y-89548258D02*
X261413999Y-89776544D01*
X261383267Y-93629005D02*
X256852469Y-94185317D01*
X259847523Y-89737156D02*
X261385969Y-89548258D01*
X252502681Y-90638989D02*
X258358704Y-89919960D01*
X251206151Y-96490613D02*
X251235400Y-96728824D01*
X250858823Y-93661857D02*
X250761328Y-92867820D01*
X261383267Y-93629005D02*
G75*
G03*
X261818605Y-93071797I-60936J496274D01*
G01*
X256852469Y-94185318D02*
G75*
G03*
X254799489Y-96291209I285452J-2331925D01*
G01*
X252502681Y-90638989D02*
G75*
G03*
X250761328Y-92867820I243744J-1985096D01*
G01*
%TO.C,MX5*%
X176353524Y-105505867D02*
X176296245Y-105972364D01*
X176728881Y-102448825D02*
X176700851Y-102677111D01*
X175739037Y-106407702D02*
X171208239Y-105851390D01*
X175190435Y-102259928D02*
X176728881Y-102448825D01*
X167845593Y-101358094D02*
X173701615Y-102077124D01*
X165171939Y-106722241D02*
X165142690Y-106960453D01*
X165519267Y-103893485D02*
X165616762Y-103099448D01*
X175739037Y-106407702D02*
G75*
G03*
X176296245Y-105972364I60934J496274D01*
G01*
X171208239Y-105851391D02*
G75*
G03*
X168706780Y-107398068I-287171J-2331714D01*
G01*
X167845593Y-101358094D02*
G75*
G03*
X165616762Y-103099448I-243735J-1985097D01*
G01*
%TO.C,MX24*%
X153093219Y-138640731D02*
X153035940Y-139107228D01*
X153468576Y-135583689D02*
X153440546Y-135811975D01*
X152478732Y-139542566D02*
X147947934Y-138986254D01*
X151930130Y-135394792D02*
X153468576Y-135583689D01*
X144585288Y-134492958D02*
X150441310Y-135211988D01*
X141911634Y-139857105D02*
X141882385Y-140095317D01*
X142258962Y-137028349D02*
X142356457Y-136234312D01*
X152478732Y-139542566D02*
G75*
G03*
X153035940Y-139107228I60934J496274D01*
G01*
X147947934Y-138986255D02*
G75*
G03*
X145446475Y-140532932I-287171J-2331714D01*
G01*
X144585288Y-134492958D02*
G75*
G03*
X142356457Y-136234312I-243735J-1985097D01*
G01*
D11*
%TO.C,D9*%
X283817824Y-105445421D02*
X283342533Y-101574491D01*
X285802916Y-105201682D02*
X283817824Y-105445421D01*
X285802916Y-105201682D02*
X285327626Y-101330753D01*
X284627566Y-103834733D02*
X284578818Y-103437714D01*
X284578818Y-103437714D02*
X284902715Y-102793439D01*
X285124719Y-103370686D02*
X284032918Y-103504742D01*
X284108678Y-102890934D02*
X284578818Y-103437714D01*
X284902715Y-102793439D02*
X284108678Y-102890934D01*
X284444762Y-102345913D02*
X284505697Y-102842186D01*
%TO.C,LED3*%
X199556209Y-173592461D02*
X198656209Y-173592461D01*
X199556209Y-172592461D02*
X199556209Y-173592461D01*
%TO.C,D15*%
X173999145Y-135171283D02*
X174474435Y-131300354D01*
X175984237Y-135415022D02*
X173999145Y-135171283D01*
X175984237Y-135415022D02*
X176459528Y-131544092D01*
X175174495Y-133804334D02*
X175223243Y-133407315D01*
X175223243Y-133407315D02*
X175693383Y-132860535D01*
X175769143Y-133474343D02*
X174677342Y-133340287D01*
X174899346Y-132763040D02*
X175223243Y-133407315D01*
X175693383Y-132860535D02*
X174899346Y-132763040D01*
X175357299Y-132315514D02*
X175296364Y-132811787D01*
D10*
%TO.C,MX21*%
X95169320Y-141477729D02*
X95112041Y-141944226D01*
X95544677Y-138420687D02*
X95516647Y-138648973D01*
X94554833Y-142379564D02*
X90024035Y-141823252D01*
X94006231Y-138231790D02*
X95544677Y-138420687D01*
X86661389Y-137329956D02*
X92517411Y-138048986D01*
X83987735Y-142694103D02*
X83958486Y-142932315D01*
X84335063Y-139865347D02*
X84432558Y-139071310D01*
X94554833Y-142379564D02*
G75*
G03*
X95112041Y-141944226I60934J496274D01*
G01*
X90024035Y-141823253D02*
G75*
G03*
X87522576Y-143369930I-287171J-2331714D01*
G01*
X86661389Y-137329956D02*
G75*
G03*
X84432558Y-139071310I-243735J-1985097D01*
G01*
D11*
%TO.C,D12*%
X117568147Y-125849594D02*
X118043437Y-121978665D01*
X119553239Y-126093333D02*
X117568147Y-125849594D01*
X119553239Y-126093333D02*
X120028530Y-122222403D01*
X118743497Y-124482645D02*
X118792245Y-124085626D01*
X118792245Y-124085626D02*
X119262385Y-123538846D01*
X119338145Y-124152654D02*
X118246344Y-124018598D01*
X118468348Y-123441351D02*
X118792245Y-124085626D01*
X119262385Y-123538846D02*
X118468348Y-123441351D01*
X118926301Y-122993825D02*
X118865366Y-123490098D01*
D10*
%TO.C,MX27*%
X248076323Y-137454985D02*
X248133602Y-137921482D01*
X247700965Y-134397943D02*
X247728995Y-134626229D01*
X247698263Y-138478690D02*
X243167465Y-139035002D01*
X246162519Y-134586841D02*
X247700965Y-134397943D01*
X238817677Y-135488674D02*
X244673700Y-134769645D01*
X237521147Y-141340298D02*
X237550396Y-141578509D01*
X237173819Y-138511542D02*
X237076324Y-137717505D01*
X247698263Y-138478690D02*
G75*
G03*
X248133601Y-137921482I-60936J496274D01*
G01*
X243167465Y-139035003D02*
G75*
G03*
X241114485Y-141140894I285452J-2331925D01*
G01*
X238817677Y-135488674D02*
G75*
G03*
X237076324Y-137717505I243744J-1985096D01*
G01*
D11*
%TO.C,D19*%
X286139289Y-124352233D02*
X285663998Y-120481303D01*
X288124381Y-124108494D02*
X286139289Y-124352233D01*
X288124381Y-124108494D02*
X287649091Y-120237565D01*
X286949031Y-122741545D02*
X286900283Y-122344526D01*
X286900283Y-122344526D02*
X287224180Y-121700251D01*
X287446184Y-122277498D02*
X286354383Y-122411554D01*
X286430143Y-121797746D02*
X286900283Y-122344526D01*
X287224180Y-121700251D02*
X286430143Y-121797746D01*
X286766227Y-121252725D02*
X286827162Y-121748998D01*
%TO.C,D21*%
X95136406Y-152236332D02*
X95611696Y-148365403D01*
X97121498Y-152480071D02*
X95136406Y-152236332D01*
X97121498Y-152480071D02*
X97596789Y-148609141D01*
X96311756Y-150869383D02*
X96360504Y-150472364D01*
X96360504Y-150472364D02*
X96830644Y-149925584D01*
X96906404Y-150539392D02*
X95814603Y-150405336D01*
X96036607Y-149828089D02*
X96360504Y-150472364D01*
X96830644Y-149925584D02*
X96036607Y-149828089D01*
X96494560Y-149380563D02*
X96433625Y-149876836D01*
%TO.C,D32*%
X162544859Y-179295197D02*
X164005825Y-175679180D01*
X164399227Y-180044410D02*
X162544859Y-179295197D01*
X164399227Y-180044410D02*
X165860193Y-176428393D01*
X164033953Y-178279028D02*
X164183796Y-177908154D01*
X164183796Y-177908154D02*
X164779433Y-177501687D01*
X164693747Y-178114188D02*
X163673845Y-177702121D01*
X164037686Y-177202001D02*
X164183796Y-177908154D01*
X164779433Y-177501687D02*
X164037686Y-177202001D01*
X164595863Y-176888252D02*
X164408560Y-177351844D01*
D10*
%TO.C,MX34*%
X214382253Y-175520636D02*
X214665106Y-175895994D01*
X212528662Y-173060838D02*
X212667080Y-173244525D01*
X214566695Y-176596220D02*
X210921065Y-179343399D01*
X211290777Y-173993652D02*
X212528662Y-173060838D01*
X205380875Y-178447083D02*
X210092824Y-174896374D01*
X207183858Y-184163004D02*
X207328294Y-184354676D01*
X205468686Y-181886892D02*
X204987234Y-181247984D01*
X214566695Y-176596220D02*
G75*
G03*
X214665106Y-175895994I-300908J399318D01*
G01*
X210921066Y-179343401D02*
G75*
G03*
X210196078Y-182193646I1413171J-1876780D01*
G01*
X205380875Y-178447084D02*
G75*
G03*
X204987234Y-181247984I1203635J-1597271D01*
G01*
%TO.C,MX15*%
X174032061Y-124412680D02*
X173974782Y-124879177D01*
X174407418Y-121355638D02*
X174379388Y-121583924D01*
X173417574Y-125314515D02*
X168886776Y-124758203D01*
X172868972Y-121166741D02*
X174407418Y-121355638D01*
X165524130Y-120264907D02*
X171380152Y-120983937D01*
X162850476Y-125629054D02*
X162821227Y-125867266D01*
X163197804Y-122800298D02*
X163295299Y-122006261D01*
X173417574Y-125314515D02*
G75*
G03*
X173974782Y-124879177I60934J496274D01*
G01*
X168886776Y-124758204D02*
G75*
G03*
X166385317Y-126304881I-287171J-2331714D01*
G01*
X165524130Y-120264907D02*
G75*
G03*
X163295299Y-122006261I-243735J-1985097D01*
G01*
D11*
%TO.C,D14*%
X155381770Y-130492522D02*
X155857060Y-126621593D01*
X157366862Y-130736261D02*
X155381770Y-130492522D01*
X157366862Y-130736261D02*
X157842153Y-126865331D01*
X156557120Y-129125573D02*
X156605868Y-128728554D01*
X156605868Y-128728554D02*
X157076008Y-128181774D01*
X157151768Y-128795582D02*
X156059967Y-128661526D01*
X156281971Y-128084279D02*
X156605868Y-128728554D01*
X157076008Y-128181774D02*
X156281971Y-128084279D01*
X156739924Y-127636753D02*
X156678989Y-128133026D01*
D10*
%TO.C,MX12*%
X117601059Y-115090990D02*
X117543780Y-115557487D01*
X117976416Y-112033948D02*
X117948386Y-112262234D01*
X116986572Y-115992825D02*
X112455774Y-115436513D01*
X116437970Y-111845051D02*
X117976416Y-112033948D01*
X109093128Y-110943217D02*
X114949150Y-111662247D01*
X106419474Y-116307364D02*
X106390225Y-116545576D01*
X106766802Y-113478608D02*
X106864297Y-112684571D01*
X116986572Y-115992825D02*
G75*
G03*
X117543780Y-115557487I60934J496274D01*
G01*
X112455774Y-115436514D02*
G75*
G03*
X109954315Y-116983191I-287171J-2331714D01*
G01*
X109093128Y-110943217D02*
G75*
G03*
X106864297Y-112684571I-243735J-1985097D01*
G01*
%TO.C,MX17*%
X245754857Y-118548171D02*
X245812136Y-119014668D01*
X245379499Y-115491129D02*
X245407529Y-115719415D01*
X245376797Y-119571876D02*
X240845999Y-120128188D01*
X243841053Y-115680027D02*
X245379499Y-115491129D01*
X236496211Y-116581860D02*
X242352234Y-115862831D01*
X235199681Y-122433484D02*
X235228930Y-122671695D01*
X234852353Y-119604728D02*
X234754858Y-118810691D01*
X245376797Y-119571876D02*
G75*
G03*
X245812135Y-119014668I-60936J496274D01*
G01*
X240845999Y-120128189D02*
G75*
G03*
X238793019Y-122234080I285452J-2331925D01*
G01*
X236496211Y-116581860D02*
G75*
G03*
X234754858Y-118810691I243744J-1985096D01*
G01*
D11*
%TO.C,D33*%
X179512643Y-190627008D02*
X181859721Y-187512329D01*
X181109914Y-191830638D02*
X179512643Y-190627008D01*
X181109914Y-191830638D02*
X183456992Y-188715959D01*
X181214001Y-190030870D02*
X181454727Y-189711415D01*
X181454727Y-189711415D02*
X182135270Y-189472960D01*
X181893976Y-190042414D02*
X181015477Y-189380417D01*
X181496362Y-188991508D02*
X181454727Y-189711415D01*
X182135270Y-189472960D02*
X181496362Y-188991508D01*
X182116723Y-188832916D02*
X181815816Y-189232234D01*
D10*
%TO.C,MX25*%
X171710593Y-143319493D02*
X171653314Y-143785990D01*
X172085950Y-140262451D02*
X172057920Y-140490737D01*
X171096106Y-144221328D02*
X166565308Y-143665016D01*
X170547504Y-140073554D02*
X172085950Y-140262451D01*
X163202662Y-139171720D02*
X169058684Y-139890750D01*
X160529008Y-144535867D02*
X160499759Y-144774079D01*
X160876336Y-141707111D02*
X160973831Y-140913074D01*
X171096106Y-144221328D02*
G75*
G03*
X171653314Y-143785990I60934J496274D01*
G01*
X166565308Y-143665017D02*
G75*
G03*
X164063849Y-145211694I-287171J-2331714D01*
G01*
X163202662Y-139171720D02*
G75*
G03*
X160973831Y-140913074I-243735J-1985097D01*
G01*
D11*
%TO.C,J1*%
X194501161Y-146929264D02*
X197881161Y-146929264D01*
X197881161Y-146929264D02*
X197881161Y-145879264D01*
X198081161Y-145879264D02*
X198081161Y-146929264D01*
X193111161Y-145859264D02*
X193111161Y-145359264D01*
X193111161Y-145359264D02*
X193611161Y-145059264D01*
X193611161Y-145059264D02*
X193611161Y-141979264D01*
X193611161Y-141979264D02*
X193111161Y-141679264D01*
X193111161Y-141679264D02*
X193111161Y-141179264D01*
X194501161Y-140109264D02*
X197881161Y-140109264D01*
X197881161Y-140109264D02*
X197881161Y-141159264D01*
D10*
%TO.C,MX9*%
X281247019Y-94998430D02*
X281304298Y-95464927D01*
X280871661Y-91941388D02*
X280899691Y-92169674D01*
X280868959Y-96022135D02*
X276338161Y-96578447D01*
X279333215Y-92130286D02*
X280871661Y-91941388D01*
X271988373Y-93032119D02*
X277844396Y-92313090D01*
X270691843Y-98883743D02*
X270721092Y-99121954D01*
X270344515Y-96054987D02*
X270247020Y-95260950D01*
X280868959Y-96022135D02*
G75*
G03*
X281304297Y-95464927I-60936J496274D01*
G01*
X276338161Y-96578448D02*
G75*
G03*
X274285181Y-98684339I285452J-2331925D01*
G01*
X271988373Y-93032119D02*
G75*
G03*
X270247020Y-95260950I243744J-1985096D01*
G01*
%TO.C,MX30*%
X306000221Y-140291984D02*
X306057500Y-140758481D01*
X305624863Y-137234942D02*
X305652893Y-137463228D01*
X305622161Y-141315689D02*
X301091363Y-141872001D01*
X304086417Y-137423840D02*
X305624863Y-137234942D01*
X296741575Y-138325673D02*
X302597598Y-137606644D01*
X295445045Y-144177297D02*
X295474294Y-144415508D01*
X295097717Y-141348541D02*
X295000222Y-140554504D01*
X305622161Y-141315689D02*
G75*
G03*
X306057499Y-140758481I-60936J496274D01*
G01*
X301091363Y-141872002D02*
G75*
G03*
X299038383Y-143977893I285452J-2331925D01*
G01*
X296741575Y-138325673D02*
G75*
G03*
X295000222Y-140554504I243744J-1985096D01*
G01*
%TO.C,MX14*%
X155414684Y-119733917D02*
X155357405Y-120200414D01*
X155790041Y-116676875D02*
X155762011Y-116905161D01*
X154800197Y-120635752D02*
X150269399Y-120079440D01*
X154251595Y-116487978D02*
X155790041Y-116676875D01*
X146906753Y-115586144D02*
X152762775Y-116305174D01*
X144233099Y-120950291D02*
X144203850Y-121188503D01*
X144580427Y-118121535D02*
X144677922Y-117327498D01*
X154800197Y-120635752D02*
G75*
G03*
X155357405Y-120200414I60934J496274D01*
G01*
X150269399Y-120079441D02*
G75*
G03*
X147767940Y-121626118I-287171J-2331714D01*
G01*
X146906753Y-115586144D02*
G75*
G03*
X144677922Y-117327498I-243735J-1985097D01*
G01*
%TO.C,MX29*%
X285889950Y-132812058D02*
X285947229Y-133278555D01*
X285514592Y-129755016D02*
X285542622Y-129983302D01*
X285511890Y-133835763D02*
X280981092Y-134392075D01*
X283976146Y-129943914D02*
X285514592Y-129755016D01*
X276631304Y-130845747D02*
X282487327Y-130126718D01*
X275334774Y-136697371D02*
X275364023Y-136935582D01*
X274987446Y-133868615D02*
X274889951Y-133074578D01*
X285511890Y-133835763D02*
G75*
G03*
X285947228Y-133278555I-60936J496274D01*
G01*
X280981092Y-134392076D02*
G75*
G03*
X278928112Y-136497967I285452J-2331925D01*
G01*
X276631304Y-130845747D02*
G75*
G03*
X274889951Y-133074578I243744J-1985096D01*
G01*
%TO.C,MX20*%
X303678757Y-121385170D02*
X303736036Y-121851667D01*
X303303399Y-118328128D02*
X303331429Y-118556414D01*
X303300697Y-122408875D02*
X298769899Y-122965187D01*
X301764953Y-118517026D02*
X303303399Y-118328128D01*
X294420111Y-119418859D02*
X300276134Y-118699830D01*
X293123581Y-125270483D02*
X293152830Y-125508694D01*
X292776253Y-122441727D02*
X292678758Y-121647690D01*
X303300697Y-122408875D02*
G75*
G03*
X303736035Y-121851667I-60936J496274D01*
G01*
X298769899Y-122965188D02*
G75*
G03*
X296716919Y-125071079I285452J-2331925D01*
G01*
X294420111Y-119418859D02*
G75*
G03*
X292678758Y-121647690I243744J-1985096D01*
G01*
%TO.C,MX11*%
X97490787Y-122570916D02*
X97433508Y-123037413D01*
X97866144Y-119513874D02*
X97838114Y-119742160D01*
X96876300Y-123472751D02*
X92345502Y-122916439D01*
X96327698Y-119324977D02*
X97866144Y-119513874D01*
X88982856Y-118423143D02*
X94838878Y-119142173D01*
X86309202Y-123787290D02*
X86279953Y-124025502D01*
X86656530Y-120958534D02*
X86754025Y-120164497D01*
X96876300Y-123472751D02*
G75*
G03*
X97433508Y-123037413I60934J496274D01*
G01*
X92345502Y-122916440D02*
G75*
G03*
X89844043Y-124463117I-287171J-2331714D01*
G01*
X88982856Y-118423143D02*
G75*
G03*
X86754025Y-120164497I-243735J-1985097D01*
G01*
D11*
%TO.C,D36*%
X260472483Y-171096145D02*
X259997192Y-167225215D01*
X262457575Y-170852406D02*
X260472483Y-171096145D01*
X262457575Y-170852406D02*
X261982285Y-166981477D01*
X261282225Y-169485457D02*
X261233477Y-169088438D01*
X261233477Y-169088438D02*
X261557374Y-168444163D01*
X261779378Y-169021410D02*
X260687577Y-169155466D01*
X260763337Y-168541658D02*
X261233477Y-169088438D01*
X261557374Y-168444163D02*
X260763337Y-168541658D01*
X261099421Y-167996637D02*
X261160356Y-168492910D01*
%TO.C,D13*%
X137053839Y-123456462D02*
X137529129Y-119585533D01*
X139038931Y-123700201D02*
X137053839Y-123456462D01*
X139038931Y-123700201D02*
X139514222Y-119829271D01*
X138229189Y-122089513D02*
X138277937Y-121692494D01*
X138277937Y-121692494D02*
X138748077Y-121145714D01*
X138823837Y-121759522D02*
X137732036Y-121625466D01*
X137954040Y-121048219D02*
X138277937Y-121692494D01*
X138748077Y-121145714D02*
X137954040Y-121048219D01*
X138411993Y-120600693D02*
X138351058Y-121096966D01*
%TO.C,D29*%
X288460756Y-143259046D02*
X287985465Y-139388116D01*
X290445848Y-143015307D02*
X288460756Y-143259046D01*
X290445848Y-143015307D02*
X289970558Y-139144378D01*
X289270498Y-141648358D02*
X289221750Y-141251339D01*
X289221750Y-141251339D02*
X289545647Y-140607064D01*
X289767651Y-141184311D02*
X288675850Y-141318367D01*
X288751610Y-140704559D02*
X289221750Y-141251339D01*
X289545647Y-140607064D02*
X288751610Y-140704559D01*
X289087694Y-140159538D02*
X289148629Y-140655811D01*
D10*
%TO.C,MX19*%
X283568485Y-113905243D02*
X283625764Y-114371740D01*
X283193127Y-110848201D02*
X283221157Y-111076487D01*
X283190425Y-114928948D02*
X278659627Y-115485260D01*
X281654681Y-111037099D02*
X283193127Y-110848201D01*
X274309839Y-111938932D02*
X280165862Y-111219903D01*
X273013309Y-117790556D02*
X273042558Y-118028767D01*
X272665981Y-114961800D02*
X272568486Y-114167763D01*
X283190425Y-114928948D02*
G75*
G03*
X283625763Y-114371740I-60936J496274D01*
G01*
X278659627Y-115485261D02*
G75*
G03*
X276606647Y-117591152I285452J-2331925D01*
G01*
X274309839Y-111938932D02*
G75*
G03*
X272568486Y-114167763I243744J-1985096D01*
G01*
D11*
%TO.C,D31*%
X143234950Y-172593501D02*
X143710240Y-168722572D01*
X145220042Y-172837240D02*
X143234950Y-172593501D01*
X145220042Y-172837240D02*
X145695333Y-168966310D01*
X144410300Y-171226552D02*
X144459048Y-170829533D01*
X144459048Y-170829533D02*
X144929188Y-170282753D01*
X145004948Y-170896561D02*
X143913147Y-170762505D01*
X144135151Y-170185258D02*
X144459048Y-170829533D01*
X144929188Y-170282753D02*
X144135151Y-170185258D01*
X144593104Y-169737732D02*
X144532169Y-170234005D01*
D10*
%TO.C,MX2*%
X119922526Y-96184176D02*
X119865247Y-96650673D01*
X120297883Y-93127134D02*
X120269853Y-93355420D01*
X119308039Y-97086011D02*
X114777241Y-96529699D01*
X118759437Y-92938237D02*
X120297883Y-93127134D01*
X111414595Y-92036403D02*
X117270617Y-92755433D01*
X108740941Y-97400550D02*
X108711692Y-97638762D01*
X109088269Y-94571794D02*
X109185764Y-93777757D01*
X119308039Y-97086011D02*
G75*
G03*
X119865247Y-96650673I60934J496274D01*
G01*
X114777241Y-96529700D02*
G75*
G03*
X112275782Y-98076377I-287171J-2331714D01*
G01*
X111414595Y-92036403D02*
G75*
G03*
X109185764Y-93777757I-243735J-1985097D01*
G01*
D11*
%TO.C,D20*%
X306249563Y-131832160D02*
X305774272Y-127961230D01*
X308234655Y-131588421D02*
X306249563Y-131832160D01*
X308234655Y-131588421D02*
X307759365Y-127717492D01*
X307059305Y-130221472D02*
X307010557Y-129824453D01*
X307010557Y-129824453D02*
X307334454Y-129180178D01*
X307556458Y-129757425D02*
X306464657Y-129891481D01*
X306540417Y-129277673D02*
X307010557Y-129824453D01*
X307334454Y-129180178D02*
X306540417Y-129277673D01*
X306876501Y-128732652D02*
X306937436Y-129228925D01*
D10*
%TO.C,MX31*%
X143267865Y-161834900D02*
X143210586Y-162301397D01*
X143643222Y-158777858D02*
X143615192Y-159006144D01*
X142653378Y-162736735D02*
X138122580Y-162180423D01*
X142104776Y-158588961D02*
X143643222Y-158777858D01*
X134759934Y-157687127D02*
X140615956Y-158406157D01*
X132086280Y-163051274D02*
X132057031Y-163289486D01*
X132433608Y-160222518D02*
X132531103Y-159428481D01*
X142653378Y-162736735D02*
G75*
G03*
X143210586Y-162301397I60934J496274D01*
G01*
X138122580Y-162180424D02*
G75*
G03*
X135621121Y-163727101I-287171J-2331714D01*
G01*
X134759934Y-157687127D02*
G75*
G03*
X132531103Y-159428481I-243735J-1985097D01*
G01*
D11*
%TO.C,D10*%
X303928097Y-112925347D02*
X303452806Y-109054417D01*
X305913189Y-112681608D02*
X303928097Y-112925347D01*
X305913189Y-112681608D02*
X305437899Y-108810679D01*
X304737839Y-111314659D02*
X304689091Y-110917640D01*
X304689091Y-110917640D02*
X305012988Y-110273365D01*
X305234992Y-110850612D02*
X304143191Y-110984668D01*
X304218951Y-110370860D02*
X304689091Y-110917640D01*
X305012988Y-110273365D02*
X304218951Y-110370860D01*
X304555035Y-109825839D02*
X304615970Y-110322112D01*
%TO.C,D18*%
X266653598Y-121959100D02*
X266178307Y-118088170D01*
X268638690Y-121715361D02*
X266653598Y-121959100D01*
X268638690Y-121715361D02*
X268163400Y-117844432D01*
X267463340Y-120348412D02*
X267414592Y-119951393D01*
X267414592Y-119951393D02*
X267738489Y-119307118D01*
X267960493Y-119884365D02*
X266868692Y-120018421D01*
X266944452Y-119404613D02*
X267414592Y-119951393D01*
X267738489Y-119307118D02*
X266944452Y-119404613D01*
X267280536Y-118859592D02*
X267341471Y-119355865D01*
D10*
%TO.C,MX32*%
X165361184Y-168911705D02*
X165185119Y-169347482D01*
X166514972Y-166055979D02*
X166428813Y-166269231D01*
X164534224Y-169623770D02*
X160301792Y-167913757D01*
X165077837Y-165475339D02*
X166514972Y-166055979D01*
X158216677Y-162703250D02*
X163687061Y-164913429D01*
X154245782Y-167192626D02*
X154155876Y-167415150D01*
X155313411Y-164550152D02*
X155613096Y-163808405D01*
X164534224Y-169623770D02*
G75*
G03*
X165185118Y-169347482I187302J463593D01*
G01*
X160301791Y-167913759D02*
G75*
G03*
X157485259Y-168760308I-880877J-2177937D01*
G01*
X158216677Y-162703251D02*
G75*
G03*
X155613097Y-163808405I-749211J-1854372D01*
G01*
%TO.C,MX35*%
X235192522Y-165317058D02*
X235368587Y-165752835D01*
X234038733Y-162461332D02*
X234124893Y-162674584D01*
X235092298Y-166403730D02*
X230859867Y-168113743D01*
X232601598Y-163041972D02*
X234038733Y-162461332D01*
X225740438Y-165814061D02*
X231210823Y-163603882D01*
X226002597Y-171801863D02*
X226092503Y-172024387D01*
X224934969Y-169159389D02*
X224635283Y-168417642D01*
X235092298Y-166403729D02*
G75*
G03*
X235368587Y-165752835I-187304J463592D01*
G01*
X230859867Y-168113744D02*
G75*
G03*
X229421885Y-170679229I879272J-2178586D01*
G01*
X225740438Y-165814061D02*
G75*
G03*
X224635283Y-168417642I749218J-1854370D01*
G01*
D11*
%TO.C,D34*%
X221832130Y-183282588D02*
X219485052Y-180167909D01*
X223429401Y-182078958D02*
X221832130Y-183282588D01*
X223429401Y-182078958D02*
X221082323Y-178964279D01*
X221728043Y-181482820D02*
X221487317Y-181163365D01*
X221487317Y-181163365D02*
X221445682Y-180443458D01*
X221926567Y-180832367D02*
X221048068Y-181494364D01*
X220806774Y-180924910D02*
X221487317Y-181163365D01*
X221445682Y-180443458D02*
X220806774Y-180924910D01*
X220825321Y-180284866D02*
X221126228Y-180684184D01*
D10*
%TO.C,MX26*%
X229458948Y-142133748D02*
X229516227Y-142600245D01*
X229083590Y-139076706D02*
X229111620Y-139304992D01*
X229080888Y-143157453D02*
X224550090Y-143713765D01*
X227545144Y-139265604D02*
X229083590Y-139076706D01*
X220200302Y-140167437D02*
X226056325Y-139448408D01*
X218903772Y-146019061D02*
X218933021Y-146257272D01*
X218556444Y-143190305D02*
X218458949Y-142396268D01*
X229080888Y-143157453D02*
G75*
G03*
X229516226Y-142600245I-60936J496274D01*
G01*
X224550090Y-143713766D02*
G75*
G03*
X222497110Y-145819657I285452J-2331925D01*
G01*
X220200302Y-140167437D02*
G75*
G03*
X218458949Y-142396268I243744J-1985096D01*
G01*
D11*
%TO.C,D1*%
X99779338Y-114422708D02*
X100254628Y-110551779D01*
X101764430Y-114666447D02*
X99779338Y-114422708D01*
X101764430Y-114666447D02*
X102239721Y-110795517D01*
X100954688Y-113055759D02*
X101003436Y-112658740D01*
X101003436Y-112658740D02*
X101473576Y-112111960D01*
X101549336Y-112725768D02*
X100457535Y-112591712D01*
X100679539Y-112014465D02*
X101003436Y-112658740D01*
X101473576Y-112111960D02*
X100679539Y-112014465D01*
X101137492Y-111566939D02*
X101076557Y-112063212D01*
%TO.C,D17*%
X248325662Y-128995159D02*
X247850371Y-125124229D01*
X250310754Y-128751420D02*
X248325662Y-128995159D01*
X250310754Y-128751420D02*
X249835464Y-124880491D01*
X249135404Y-127384471D02*
X249086656Y-126987452D01*
X249086656Y-126987452D02*
X249410553Y-126343177D01*
X249632557Y-126920424D02*
X248540756Y-127054480D01*
X248616516Y-126440672D02*
X249086656Y-126987452D01*
X249410553Y-126343177D02*
X248616516Y-126440672D01*
X248952600Y-125895651D02*
X249013535Y-126391924D01*
D10*
%TO.C,MX16*%
X227137482Y-123226935D02*
X227194761Y-123693432D01*
X226762124Y-120169893D02*
X226790154Y-120398179D01*
X226759422Y-124250640D02*
X222228624Y-124806952D01*
X225223678Y-120358791D02*
X226762124Y-120169893D01*
X217878836Y-121260624D02*
X223734859Y-120541595D01*
X216582306Y-127112248D02*
X216611555Y-127350459D01*
X216234978Y-124283492D02*
X216137483Y-123489455D01*
X226759422Y-124250640D02*
G75*
G03*
X227194760Y-123693432I-60936J496274D01*
G01*
X222228624Y-124806953D02*
G75*
G03*
X220175644Y-126912844I285452J-2331925D01*
G01*
X217878836Y-121260624D02*
G75*
G03*
X216137483Y-123489455I243744J-1985096D01*
G01*
D11*
%TO.C,D23*%
X134732373Y-142363273D02*
X135207663Y-138492344D01*
X136717465Y-142607012D02*
X134732373Y-142363273D01*
X136717465Y-142607012D02*
X137192756Y-138736082D01*
X135907723Y-140996324D02*
X135956471Y-140599305D01*
X135956471Y-140599305D02*
X136426611Y-140052525D01*
X136502371Y-140666333D02*
X135410570Y-140532277D01*
X135632574Y-139955030D02*
X135956471Y-140599305D01*
X136426611Y-140052525D02*
X135632574Y-139955030D01*
X136090527Y-139507504D02*
X136029592Y-140003777D01*
D10*
%TO.C,MX3*%
X139408216Y-93791046D02*
X139350937Y-94257543D01*
X139783573Y-90734004D02*
X139755543Y-90962290D01*
X138793729Y-94692881D02*
X134262931Y-94136569D01*
X138245127Y-90545107D02*
X139783573Y-90734004D01*
X130900285Y-89643273D02*
X136756307Y-90362303D01*
X128226631Y-95007420D02*
X128197382Y-95245632D01*
X128573959Y-92178664D02*
X128671454Y-91384627D01*
X138793729Y-94692881D02*
G75*
G03*
X139350937Y-94257543I60934J496274D01*
G01*
X134262931Y-94136570D02*
G75*
G03*
X131761472Y-95683247I-287171J-2331714D01*
G01*
X130900285Y-89643273D02*
G75*
G03*
X128671454Y-91384627I-243735J-1985097D01*
G01*
D11*
%TO.C,D24*%
X153060305Y-149399335D02*
X153535595Y-145528406D01*
X155045397Y-149643074D02*
X153060305Y-149399335D01*
X155045397Y-149643074D02*
X155520688Y-145772144D01*
X154235655Y-148032386D02*
X154284403Y-147635367D01*
X154284403Y-147635367D02*
X154754543Y-147088587D01*
X154830303Y-147702395D02*
X153738502Y-147568339D01*
X153960506Y-146991092D02*
X154284403Y-147635367D01*
X154754543Y-147088587D02*
X153960506Y-146991092D01*
X154418459Y-146543566D02*
X154357524Y-147039839D01*
D10*
%TO.C,MX23*%
X134765288Y-131604673D02*
X134708009Y-132071170D01*
X135140645Y-128547631D02*
X135112615Y-128775917D01*
X134150801Y-132506508D02*
X129620003Y-131950196D01*
X133602199Y-128358734D02*
X135140645Y-128547631D01*
X126257357Y-127456900D02*
X132113379Y-128175930D01*
X123583703Y-132821047D02*
X123554454Y-133059259D01*
X123931031Y-129992291D02*
X124028526Y-129198254D01*
X134150801Y-132506508D02*
G75*
G03*
X134708009Y-132071170I60934J496274D01*
G01*
X129620003Y-131950197D02*
G75*
G03*
X127118544Y-133496874I-287171J-2331714D01*
G01*
X126257357Y-127456900D02*
G75*
G03*
X124028526Y-129198254I-243735J-1985097D01*
G01*
%TO.C,MX28*%
X266404252Y-130418931D02*
X266461531Y-130885428D01*
X266028894Y-127361889D02*
X266056924Y-127590175D01*
X266026192Y-131442636D02*
X261495394Y-131998948D01*
X264490448Y-127550787D02*
X266028894Y-127361889D01*
X257145606Y-128452620D02*
X263001629Y-127733591D01*
X255849076Y-134304244D02*
X255878325Y-134542455D01*
X255501748Y-131475488D02*
X255404253Y-130681451D01*
X266026192Y-131442636D02*
G75*
G03*
X266461530Y-130885428I-60936J496274D01*
G01*
X261495394Y-131998949D02*
G75*
G03*
X259442414Y-134104840I285452J-2331925D01*
G01*
X257145606Y-128452620D02*
G75*
G03*
X255404253Y-130681451I243744J-1985096D01*
G01*
D11*
%TO.C,D6*%
X227386824Y-114767109D02*
X226911533Y-110896179D01*
X229371916Y-114523370D02*
X227386824Y-114767109D01*
X229371916Y-114523370D02*
X228896626Y-110652441D01*
X228196566Y-113156421D02*
X228147818Y-112759402D01*
X228147818Y-112759402D02*
X228471715Y-112115127D01*
X228693719Y-112692374D02*
X227601918Y-112826430D01*
X227677678Y-112212622D02*
X228147818Y-112759402D01*
X228471715Y-112115127D02*
X227677678Y-112212622D01*
X228013762Y-111667601D02*
X228074697Y-112163874D01*
D10*
%TO.C,MX36*%
X257901680Y-160649154D02*
X257958959Y-161115651D01*
X257526322Y-157592112D02*
X257554352Y-157820398D01*
X257523620Y-161672859D02*
X252992822Y-162229171D01*
X255987876Y-157781010D02*
X257526322Y-157592112D01*
X248643034Y-158682843D02*
X254499057Y-157963814D01*
X247346504Y-164534467D02*
X247375753Y-164772678D01*
X246999176Y-161705711D02*
X246901681Y-160911674D01*
X257523620Y-161672859D02*
G75*
G03*
X257958958Y-161115651I-60936J496274D01*
G01*
X252992822Y-162229172D02*
G75*
G03*
X250939842Y-164335063I285452J-2331925D01*
G01*
X248643034Y-158682843D02*
G75*
G03*
X246901681Y-160911674I243744J-1985096D01*
G01*
%TO.C,MX6*%
X224816017Y-104320122D02*
X224873296Y-104786619D01*
X224440659Y-101263080D02*
X224468689Y-101491366D01*
X224437957Y-105343827D02*
X219907159Y-105900139D01*
X222902213Y-101451978D02*
X224440659Y-101263080D01*
X215557371Y-102353811D02*
X221413394Y-101634782D01*
X214260841Y-108205435D02*
X214290090Y-108443646D01*
X213913513Y-105376679D02*
X213816018Y-104582642D01*
X224437957Y-105343827D02*
G75*
G03*
X224873295Y-104786619I-60936J496274D01*
G01*
X219907159Y-105900140D02*
G75*
G03*
X217854179Y-108006031I285452J-2331925D01*
G01*
X215557371Y-102353811D02*
G75*
G03*
X213816018Y-104582642I243744J-1985096D01*
G01*
D11*
%TO.C,SW1*%
X191841162Y-191435864D02*
X191841162Y-195115864D01*
X191841162Y-195115864D02*
X199641162Y-195115864D01*
X193491162Y-190815864D02*
X197991162Y-190815864D01*
X199641162Y-191435864D02*
X199641162Y-195115864D01*
%TO.C,D35*%
X240379611Y-174742705D02*
X238918645Y-171126688D01*
X242233979Y-173993492D02*
X240379611Y-174742705D01*
X242233979Y-173993492D02*
X240773013Y-170377475D01*
X240744885Y-172977323D02*
X240595042Y-172606449D01*
X240595042Y-172606449D02*
X240741152Y-171900296D01*
X241104993Y-172400416D02*
X240085091Y-172812483D01*
X239999405Y-172199982D02*
X240595042Y-172606449D01*
X240741152Y-171900296D02*
X239999405Y-172199982D01*
X240182975Y-171586547D02*
X240370278Y-172050139D01*
D10*
%TO.C,MX10*%
X301357293Y-102478357D02*
X301414572Y-102944854D01*
X300981935Y-99421315D02*
X301009965Y-99649601D01*
X300979233Y-103502062D02*
X296448435Y-104058374D01*
X299443489Y-99610213D02*
X300981935Y-99421315D01*
X292098647Y-100512046D02*
X297954670Y-99793017D01*
X290802117Y-106363670D02*
X290831366Y-106601881D01*
X290454789Y-103534914D02*
X290357294Y-102740877D01*
X300979233Y-103502062D02*
G75*
G03*
X301414571Y-102944854I-60936J496274D01*
G01*
X296448435Y-104058375D02*
G75*
G03*
X294395455Y-106164266I285452J-2331925D01*
G01*
X292098647Y-100512046D02*
G75*
G03*
X290357294Y-102740877I243744J-1985096D01*
G01*
D11*
%TO.C,D2*%
X119889613Y-106942775D02*
X120364903Y-103071846D01*
X121874705Y-107186514D02*
X119889613Y-106942775D01*
X121874705Y-107186514D02*
X122349996Y-103315584D01*
X121064963Y-105575826D02*
X121113711Y-105178807D01*
X121113711Y-105178807D02*
X121583851Y-104632027D01*
X121659611Y-105245835D02*
X120567810Y-105111779D01*
X120789814Y-104534532D02*
X121113711Y-105178807D01*
X121583851Y-104632027D02*
X120789814Y-104534532D01*
X121247767Y-104087006D02*
X121186832Y-104583279D01*
D10*
%TO.C,MX33*%
X184920449Y-181326242D02*
X184637596Y-181701601D01*
X186774039Y-178866445D02*
X186635622Y-179050131D01*
X183937370Y-181800011D02*
X180291740Y-179052831D01*
X185536154Y-177933631D02*
X186774039Y-178866445D01*
X179626251Y-173480200D02*
X184338201Y-177030909D01*
X174628725Y-176788861D02*
X174484290Y-176980533D01*
X176343898Y-174512750D02*
X176825350Y-173873841D01*
X183937370Y-181800011D02*
G75*
G03*
X184637596Y-181701601I300908J399319D01*
G01*
X180291739Y-179052832D02*
G75*
G03*
X177352074Y-179141564I-1414554J-1875738D01*
G01*
X179626251Y-173480200D02*
G75*
G03*
X176825350Y-173873841I-1203629J-1597277D01*
G01*
D11*
%TO.C,D28*%
X268975062Y-140865919D02*
X268499771Y-136994989D01*
X270960154Y-140622180D02*
X268975062Y-140865919D01*
X270960154Y-140622180D02*
X270484864Y-136751251D01*
X269784804Y-139255231D02*
X269736056Y-138858212D01*
X269736056Y-138858212D02*
X270059953Y-138213937D01*
X270281957Y-138791184D02*
X269190156Y-138925240D01*
X269265916Y-138311432D02*
X269736056Y-138858212D01*
X270059953Y-138213937D02*
X269265916Y-138311432D01*
X269602000Y-137766411D02*
X269662935Y-138262684D01*
D10*
%TO.C,MX4*%
X157736150Y-100827104D02*
X157678871Y-101293601D01*
X158111507Y-97770062D02*
X158083477Y-97998348D01*
X157121663Y-101728939D02*
X152590865Y-101172627D01*
X156573061Y-97581165D02*
X158111507Y-97770062D01*
X149228219Y-96679331D02*
X155084241Y-97398361D01*
X146554565Y-102043478D02*
X146525316Y-102281690D01*
X146901893Y-99214722D02*
X146999388Y-98420685D01*
X157121663Y-101728939D02*
G75*
G03*
X157678871Y-101293601I60934J496274D01*
G01*
X152590865Y-101172628D02*
G75*
G03*
X150089406Y-102719305I-287171J-2331714D01*
G01*
X149228219Y-96679331D02*
G75*
G03*
X146999388Y-98420685I-243735J-1985097D01*
G01*
D11*
%TO.C,D26*%
X232029757Y-152580734D02*
X231554466Y-148709804D01*
X234014849Y-152336995D02*
X232029757Y-152580734D01*
X234014849Y-152336995D02*
X233539559Y-148466066D01*
X232839499Y-150970046D02*
X232790751Y-150573027D01*
X232790751Y-150573027D02*
X233114648Y-149928752D01*
X233336652Y-150505999D02*
X232244851Y-150640055D01*
X232320611Y-150026247D02*
X232790751Y-150573027D01*
X233114648Y-149928752D02*
X232320611Y-150026247D01*
X232656695Y-149481226D02*
X232717630Y-149977499D01*
%TO.C,D30*%
X308571028Y-150738972D02*
X308095737Y-146868042D01*
X310556120Y-150495233D02*
X308571028Y-150738972D01*
X310556120Y-150495233D02*
X310080830Y-146624304D01*
X309380770Y-149128284D02*
X309332022Y-148731265D01*
X309332022Y-148731265D02*
X309655919Y-148086990D01*
X309877923Y-148664237D02*
X308786122Y-148798293D01*
X308861882Y-148184485D02*
X309332022Y-148731265D01*
X309655919Y-148086990D02*
X308861882Y-148184485D01*
X309197966Y-147639464D02*
X309258901Y-148135737D01*
D10*
%TO.C,MX1*%
X99812252Y-103664103D02*
X99754973Y-104130600D01*
X100187609Y-100607061D02*
X100159579Y-100835347D01*
X99197765Y-104565938D02*
X94666967Y-104009626D01*
X98649163Y-100418164D02*
X100187609Y-100607061D01*
X91304321Y-99516330D02*
X97160343Y-100235360D01*
X88630667Y-104880477D02*
X88601418Y-105118689D01*
X88977995Y-102051721D02*
X89075490Y-101257684D01*
X99197765Y-104565938D02*
G75*
G03*
X99754973Y-104130600I60934J496274D01*
G01*
X94666967Y-104009627D02*
G75*
G03*
X92165508Y-105556304I-287171J-2331714D01*
G01*
X91304321Y-99516330D02*
G75*
G03*
X89075490Y-101257684I-243735J-1985097D01*
G01*
%TO.C,U1*%
X201976209Y-133902671D02*
X203376209Y-133902671D01*
X199306209Y-104262671D02*
X199306209Y-100482671D01*
X192206209Y-104262671D02*
X199306209Y-104262671D01*
X192206209Y-104262671D02*
X192206209Y-100482671D01*
X188136209Y-133902671D02*
X189536209Y-133902671D01*
X188136209Y-100482671D02*
X203376209Y-100482671D01*
X203376209Y-133902670D02*
G75*
G03*
X204415655Y-133472117I1J1469997D01*
G01*
X204415655Y-100913225D02*
G75*
G03*
X203376209Y-100482671I-1039450J-1039450D01*
G01*
X187096762Y-133472118D02*
G75*
G03*
X188136209Y-133902671I1039447J1039447D01*
G01*
X188136209Y-100482671D02*
G75*
G03*
X187096762Y-100913224I0J-1470000D01*
G01*
D11*
%TO.C,D22*%
X115239052Y-144818540D02*
X115714342Y-140947611D01*
X117224144Y-145062279D02*
X115239052Y-144818540D01*
X117224144Y-145062279D02*
X117699435Y-141191349D01*
X116414402Y-143451591D02*
X116463150Y-143054572D01*
X116463150Y-143054572D02*
X116933290Y-142507792D01*
X117009050Y-143121600D02*
X115917249Y-142987544D01*
X116139253Y-142410297D02*
X116463150Y-143054572D01*
X116933290Y-142507792D02*
X116139253Y-142410297D01*
X116597206Y-141962771D02*
X116536271Y-142459044D01*
%TO.C,D8*%
X264332133Y-103052287D02*
X263856842Y-99181357D01*
X266317225Y-102808548D02*
X264332133Y-103052287D01*
X266317225Y-102808548D02*
X265841935Y-98937619D01*
X265141875Y-101441599D02*
X265093127Y-101044580D01*
X265093127Y-101044580D02*
X265417024Y-100400305D01*
X265639028Y-100977552D02*
X264547227Y-101111608D01*
X264622987Y-100497800D02*
X265093127Y-101044580D01*
X265417024Y-100400305D02*
X264622987Y-100497800D01*
X264959071Y-99952779D02*
X265020006Y-100449052D01*
%TO.C,D7*%
X246004196Y-110088350D02*
X245528905Y-106217420D01*
X247989288Y-109844611D02*
X246004196Y-110088350D01*
X247989288Y-109844611D02*
X247513998Y-105973682D01*
X246813938Y-108477662D02*
X246765190Y-108080643D01*
X246765190Y-108080643D02*
X247089087Y-107436368D01*
X247311091Y-108013615D02*
X246219290Y-108147671D01*
X246295050Y-107533863D02*
X246765190Y-108080643D01*
X247089087Y-107436368D02*
X246295050Y-107533863D01*
X246631134Y-106988842D02*
X246692069Y-107485115D01*
D10*
%TO.C,MX13*%
X137086752Y-112697861D02*
X137029473Y-113164358D01*
X137462109Y-109640819D02*
X137434079Y-109869105D01*
X136472265Y-113599696D02*
X131941467Y-113043384D01*
X135923663Y-109451922D02*
X137462109Y-109640819D01*
X128578821Y-108550088D02*
X134434843Y-109269118D01*
X125905167Y-113914235D02*
X125875918Y-114152447D01*
X126252495Y-111085479D02*
X126349990Y-110291442D01*
X136472265Y-113599696D02*
G75*
G03*
X137029473Y-113164358I60934J496274D01*
G01*
X131941467Y-113043385D02*
G75*
G03*
X129440008Y-114590062I-287171J-2331714D01*
G01*
X128578821Y-108550088D02*
G75*
G03*
X126349990Y-110291442I-243735J-1985097D01*
G01*
%TO.C,MX7*%
X243433393Y-99641358D02*
X243490672Y-100107855D01*
X243058035Y-96584316D02*
X243086065Y-96812602D01*
X243055333Y-100665063D02*
X238524535Y-101221375D01*
X241519589Y-96773214D02*
X243058035Y-96584316D01*
X234174747Y-97675047D02*
X240030770Y-96956018D01*
X232878217Y-103526671D02*
X232907466Y-103764882D01*
X232530889Y-100697915D02*
X232433394Y-99903878D01*
X243055333Y-100665063D02*
G75*
G03*
X243490671Y-100107855I-60936J496274D01*
G01*
X238524535Y-101221376D02*
G75*
G03*
X236471555Y-103327267I285452J-2331925D01*
G01*
X234174747Y-97675047D02*
G75*
G03*
X232433394Y-99903878I243744J-1985096D01*
G01*
%TO.C,MX22*%
X115279595Y-133997802D02*
X115222316Y-134464299D01*
X115654952Y-130940760D02*
X115626922Y-131169046D01*
X114665108Y-134899637D02*
X110134310Y-134343325D01*
X114116506Y-130751863D02*
X115654952Y-130940760D01*
X106771664Y-129850029D02*
X112627686Y-130569059D01*
X104098010Y-135214176D02*
X104068761Y-135452388D01*
X104445338Y-132385420D02*
X104542833Y-131591383D01*
X114665108Y-134899637D02*
G75*
G03*
X115222316Y-134464299I60934J496274D01*
G01*
X110134310Y-134343326D02*
G75*
G03*
X107632851Y-135890003I-287171J-2331714D01*
G01*
X106771664Y-129850029D02*
G75*
G03*
X104542833Y-131591383I-243735J-1985097D01*
G01*
D11*
%TO.C,D25*%
X171677676Y-154078099D02*
X172152966Y-150207170D01*
X173662768Y-154321838D02*
X171677676Y-154078099D01*
X173662768Y-154321838D02*
X174138059Y-150450908D01*
X172853026Y-152711150D02*
X172901774Y-152314131D01*
X172901774Y-152314131D02*
X173371914Y-151767351D01*
X173447674Y-152381159D02*
X172355873Y-152247103D01*
X172577877Y-151669856D02*
X172901774Y-152314131D01*
X173371914Y-151767351D02*
X172577877Y-151669856D01*
X173035830Y-151222330D02*
X172974895Y-151718603D01*
%TO.C,LED1*%
X199556210Y-153592461D02*
X198656210Y-153592461D01*
X199556210Y-152592461D02*
X199556210Y-153592461D01*
%TO.C,D3*%
X139375304Y-104549649D02*
X139850594Y-100678720D01*
X141360396Y-104793388D02*
X139375304Y-104549649D01*
X141360396Y-104793388D02*
X141835687Y-100922458D01*
X140550654Y-103182700D02*
X140599402Y-102785681D01*
X140599402Y-102785681D02*
X141069542Y-102238901D01*
X141145302Y-102852709D02*
X140053501Y-102718653D01*
X140275505Y-102141406D02*
X140599402Y-102785681D01*
X141069542Y-102238901D02*
X140275505Y-102141406D01*
X140733458Y-101693880D02*
X140672523Y-102190153D01*
%TO.C,D5*%
X176320611Y-116264469D02*
X176795901Y-112393540D01*
X178305703Y-116508208D02*
X176320611Y-116264469D01*
X178305703Y-116508208D02*
X178780994Y-112637278D01*
X177495961Y-114897520D02*
X177544709Y-114500501D01*
X177544709Y-114500501D02*
X178014849Y-113953721D01*
X178090609Y-114567529D02*
X176998808Y-114433473D01*
X177220812Y-113856226D02*
X177544709Y-114500501D01*
X178014849Y-113953721D02*
X177220812Y-113856226D01*
X177678765Y-113408700D02*
X177617830Y-113904973D01*
%TO.C,D16*%
X229708291Y-133673921D02*
X229233000Y-129802991D01*
X231693383Y-133430182D02*
X229708291Y-133673921D01*
X231693383Y-133430182D02*
X231218093Y-129559253D01*
X230518033Y-132063233D02*
X230469285Y-131666214D01*
X230469285Y-131666214D02*
X230793182Y-131021939D01*
X231015186Y-131599186D02*
X229923385Y-131733242D01*
X229999145Y-131119434D02*
X230469285Y-131666214D01*
X230793182Y-131021939D02*
X229999145Y-131119434D01*
X230335229Y-130574413D02*
X230396164Y-131070686D01*
%TO.C,D11*%
X97457876Y-133329520D02*
X97933166Y-129458591D01*
X99442968Y-133573259D02*
X97457876Y-133329520D01*
X99442968Y-133573259D02*
X99918259Y-129702329D01*
X98633226Y-131962571D02*
X98681974Y-131565552D01*
X98681974Y-131565552D02*
X99152114Y-131018772D01*
X99227874Y-131632580D02*
X98136073Y-131498524D01*
X98358077Y-130921277D02*
X98681974Y-131565552D01*
X99152114Y-131018772D02*
X98358077Y-130921277D01*
X98816030Y-130473751D02*
X98755095Y-130970024D01*
%TO.C,D27*%
X250647128Y-147901973D02*
X250171837Y-144031043D01*
X252632220Y-147658234D02*
X250647128Y-147901973D01*
X252632220Y-147658234D02*
X252156930Y-143787305D01*
X251456870Y-146291285D02*
X251408122Y-145894266D01*
X251408122Y-145894266D02*
X251732019Y-145249991D01*
X251954023Y-145827238D02*
X250862222Y-145961294D01*
X250937982Y-145347486D02*
X251408122Y-145894266D01*
X251732019Y-145249991D02*
X250937982Y-145347486D01*
X251274066Y-144802465D02*
X251335001Y-145298738D01*
%TO.C,D4*%
X157703238Y-111585709D02*
X158178528Y-107714780D01*
X159688330Y-111829448D02*
X157703238Y-111585709D01*
X159688330Y-111829448D02*
X160163621Y-107958518D01*
X158878588Y-110218760D02*
X158927336Y-109821741D01*
X158927336Y-109821741D02*
X159397476Y-109274961D01*
X159473236Y-109888769D02*
X158381435Y-109754713D01*
X158603439Y-109177466D02*
X158927336Y-109821741D01*
X159397476Y-109274961D02*
X158603439Y-109177466D01*
X159061392Y-108729940D02*
X159000457Y-109226213D01*
%TO.C,LED2*%
X199556207Y-163592465D02*
X198656207Y-163592465D01*
X199556207Y-162592465D02*
X199556207Y-163592465D01*
%TD*%
M02*
