%TF.GenerationSoftware,KiCad,Pcbnew,7.0.10-7.0.10~ubuntu22.04.1*%
%TF.CreationDate,2024-01-12T22:57:13+01:00*%
%TF.ProjectId,fatboy,66617462-6f79-42e6-9b69-6361645f7063,rev?*%
%TF.SameCoordinates,Original*%
%TF.FileFunction,Paste,Bot*%
%TF.FilePolarity,Positive*%
%FSLAX46Y46*%
G04 Gerber Fmt 4.6, Leading zero omitted, Abs format (unit mm)*
G04 Created by KiCad (PCBNEW 7.0.10-7.0.10~ubuntu22.04.1) date 2024-01-12 22:57:13*
%MOMM*%
%LPD*%
G01*
G04 APERTURE LIST*
G04 Aperture macros list*
%AMRoundRect*
0 Rectangle with rounded corners*
0 $1 Rounding radius*
0 $2 $3 $4 $5 $6 $7 $8 $9 X,Y pos of 4 corners*
0 Add a 4 corners polygon primitive as box body*
4,1,4,$2,$3,$4,$5,$6,$7,$8,$9,$2,$3,0*
0 Add four circle primitives for the rounded corners*
1,1,$1+$1,$2,$3*
1,1,$1+$1,$4,$5*
1,1,$1+$1,$6,$7*
1,1,$1+$1,$8,$9*
0 Add four rect primitives between the rounded corners*
20,1,$1+$1,$2,$3,$4,$5,0*
20,1,$1+$1,$4,$5,$6,$7,0*
20,1,$1+$1,$6,$7,$8,$9,0*
20,1,$1+$1,$8,$9,$2,$3,0*%
%AMRotRect*
0 Rectangle, with rotation*
0 The origin of the aperture is its center*
0 $1 length*
0 $2 width*
0 $3 Rotation angle, in degrees counterclockwise*
0 Add horizontal line*
21,1,$1,$2,0,0,$3*%
%AMFreePoly0*
4,1,18,-0.410000,0.593000,-0.403758,0.624380,-0.385983,0.650983,-0.359380,0.668758,-0.328000,0.675000,0.328000,0.675000,0.359380,0.668758,0.385983,0.650983,0.403758,0.624380,0.410000,0.593000,0.410000,-0.593000,0.403758,-0.624380,0.385983,-0.650983,0.359380,-0.668758,0.328000,-0.675000,0.000000,-0.675000,-0.410000,-0.265000,-0.410000,0.593000,-0.410000,0.593000,$1*%
G04 Aperture macros list end*
%ADD10RoundRect,0.250000X0.895490X1.117462X-1.139229X0.867630X-0.895490X-1.117462X1.139229X-0.867630X0*%
%ADD11RoundRect,0.250000X1.139229X0.867630X-0.895490X1.117462X-1.139229X-0.867630X0.895490X-1.117462X0*%
%ADD12RotRect,0.900000X1.200000X97.000000*%
%ADD13RoundRect,0.082000X0.593000X-0.328000X0.593000X0.328000X-0.593000X0.328000X-0.593000X-0.328000X0*%
%ADD14FreePoly0,90.000000*%
%ADD15RotRect,0.900000X1.200000X83.000000*%
%ADD16RotRect,0.900000X1.200000X68.000000*%
%ADD17RoundRect,0.250000X0.216786X1.415496X-1.420416X0.181775X-0.216786X-1.415496X1.420416X-0.181775X0*%
%ADD18RotRect,0.900000X1.200000X53.000000*%
%ADD19RoundRect,0.150000X0.275000X-0.150000X0.275000X0.150000X-0.275000X0.150000X-0.275000X-0.150000X0*%
%ADD20RoundRect,0.175000X0.225000X-0.175000X0.225000X0.175000X-0.225000X0.175000X-0.225000X-0.175000X0*%
%ADD21RoundRect,0.250000X1.324970X0.543212X-0.575757X1.311156X-1.324970X-0.543212X0.575757X-1.311156X0*%
%ADD22RoundRect,0.250000X0.575757X1.311156X-1.324970X0.543212X-0.575757X-1.311156X1.324970X-0.543212X0*%
%ADD23RotRect,0.900000X1.200000X127.000000*%
%ADD24RotRect,0.900000X1.200000X112.000000*%
%ADD25RoundRect,0.250000X1.420416X0.181775X-0.216786X1.415496X-1.420416X-0.181775X0.216786X-1.415496X0*%
G04 APERTURE END LIST*
D10*
%TO.C,MX18*%
X252086827Y-114123741D03*
X265127025Y-109963531D03*
%TD*%
%TO.C,MX8*%
X249765364Y-95216927D03*
X262805562Y-91056717D03*
%TD*%
D11*
%TO.C,MX5*%
X164082082Y-105137831D03*
X177741376Y-104255907D03*
%TD*%
%TO.C,MX24*%
X140821777Y-138272695D03*
X154481071Y-137390771D03*
%TD*%
D12*
%TO.C,D9*%
X284737248Y-104728024D03*
X284335080Y-101452622D03*
%TD*%
D13*
%TO.C,LED3*%
X193031209Y-171342461D03*
X193031209Y-172842461D03*
X198481209Y-171342461D03*
D14*
X198481209Y-172842461D03*
%TD*%
D15*
%TO.C,D15*%
X175064813Y-134697625D03*
X175466981Y-131422223D03*
%TD*%
D11*
%TO.C,MX21*%
X82897878Y-141109693D03*
X96557172Y-140227769D03*
%TD*%
D15*
%TO.C,D12*%
X118633815Y-125375936D03*
X119035983Y-122100534D03*
%TD*%
D10*
%TO.C,MX27*%
X236080360Y-140066612D03*
X249120558Y-135906402D03*
%TD*%
D12*
%TO.C,D19*%
X287058713Y-123634836D03*
X286656545Y-120359434D03*
%TD*%
D15*
%TO.C,D21*%
X96202074Y-151762674D03*
X96604242Y-148487272D03*
%TD*%
D16*
%TO.C,D32*%
X163696807Y-179113493D03*
X164933009Y-176053787D03*
%TD*%
D17*
%TO.C,MX34*%
X205299257Y-183780352D03*
X214512295Y-173657406D03*
%TD*%
D11*
%TO.C,MX15*%
X161760619Y-124044644D03*
X175419913Y-123162720D03*
%TD*%
D15*
%TO.C,D14*%
X156447438Y-130018864D03*
X156849606Y-126743462D03*
%TD*%
D11*
%TO.C,MX12*%
X105329617Y-114722954D03*
X118988911Y-113841030D03*
%TD*%
D10*
%TO.C,MX17*%
X233758894Y-121159798D03*
X246799092Y-116999588D03*
%TD*%
D18*
%TO.C,D33*%
X180672367Y-190749642D03*
X182658357Y-188114144D03*
%TD*%
D11*
%TO.C,MX25*%
X159439151Y-142951457D03*
X173098445Y-142069533D03*
%TD*%
D19*
%TO.C,J1*%
X197616161Y-145319264D03*
X197616161Y-144119264D03*
X197616161Y-142919264D03*
X197616161Y-141719264D03*
D20*
X193841161Y-146469264D03*
X193841161Y-140569264D03*
%TD*%
D10*
%TO.C,MX9*%
X269251056Y-97610057D03*
X282291254Y-93449847D03*
%TD*%
%TO.C,MX30*%
X294004258Y-142903611D03*
X307044456Y-138743401D03*
%TD*%
D11*
%TO.C,MX14*%
X143143242Y-119365881D03*
X156802536Y-118483957D03*
%TD*%
D10*
%TO.C,MX29*%
X273893987Y-135423685D03*
X286934185Y-131263475D03*
%TD*%
%TO.C,MX20*%
X291682794Y-123996797D03*
X304722992Y-119836587D03*
%TD*%
D11*
%TO.C,MX11*%
X85219345Y-122202880D03*
X98878639Y-121320956D03*
%TD*%
D12*
%TO.C,D36*%
X261391907Y-170378748D03*
X260989739Y-167103346D03*
%TD*%
D15*
%TO.C,D13*%
X138119507Y-122982804D03*
X138521675Y-119707402D03*
%TD*%
D12*
%TO.C,D29*%
X289380180Y-142541649D03*
X288978012Y-139266247D03*
%TD*%
D10*
%TO.C,MX19*%
X271572522Y-116516870D03*
X284612720Y-112356660D03*
%TD*%
D15*
%TO.C,D31*%
X144300618Y-172119843D03*
X144702786Y-168844441D03*
%TD*%
D11*
%TO.C,MX2*%
X107651084Y-95816140D03*
X121310378Y-94934216D03*
%TD*%
D12*
%TO.C,D20*%
X307168987Y-131114763D03*
X306766819Y-127839361D03*
%TD*%
D11*
%TO.C,MX31*%
X130996423Y-161466864D03*
X144655717Y-160584940D03*
%TD*%
D12*
%TO.C,D10*%
X304847521Y-112207950D03*
X304445353Y-108932548D03*
%TD*%
%TO.C,D18*%
X267573022Y-121241703D03*
X267170854Y-117966301D03*
%TD*%
D21*
%TO.C,MX32*%
X153603137Y-165380127D03*
X167025260Y-168063539D03*
%TD*%
D22*
%TO.C,MX35*%
X224281250Y-170944480D03*
X235800372Y-163550974D03*
%TD*%
D23*
%TO.C,D34*%
X222269677Y-182201592D03*
X220283687Y-179566094D03*
%TD*%
D10*
%TO.C,MX26*%
X217462985Y-144745375D03*
X230503183Y-140585165D03*
%TD*%
D15*
%TO.C,D1*%
X100845006Y-113949050D03*
X101247174Y-110673648D03*
%TD*%
D12*
%TO.C,D17*%
X249245086Y-128277762D03*
X248842918Y-125002360D03*
%TD*%
D10*
%TO.C,MX16*%
X215141519Y-125838562D03*
X228181717Y-121678352D03*
%TD*%
D15*
%TO.C,D23*%
X135798041Y-141889615D03*
X136200209Y-138614213D03*
%TD*%
D11*
%TO.C,MX3*%
X127136774Y-93423010D03*
X140796068Y-92541086D03*
%TD*%
D15*
%TO.C,D24*%
X154125973Y-148925677D03*
X154528141Y-145650275D03*
%TD*%
D11*
%TO.C,MX23*%
X122493846Y-131236637D03*
X136153140Y-130354713D03*
%TD*%
D10*
%TO.C,MX28*%
X254408289Y-133030558D03*
X267448487Y-128870348D03*
%TD*%
D12*
%TO.C,D6*%
X228306248Y-114049712D03*
X227904080Y-110774310D03*
%TD*%
D10*
%TO.C,MX36*%
X245905717Y-163260781D03*
X258945915Y-159100571D03*
%TD*%
%TO.C,MX6*%
X212820054Y-106931749D03*
X225860252Y-102771539D03*
%TD*%
D24*
%TO.C,D35*%
X241082031Y-173811788D03*
X239845829Y-170752082D03*
%TD*%
D10*
%TO.C,MX10*%
X289361330Y-105089984D03*
X302401528Y-100929774D03*
%TD*%
D15*
%TO.C,D2*%
X120955281Y-106469117D03*
X121357449Y-103193715D03*
%TD*%
D25*
%TO.C,MX33*%
X174477087Y-174871793D03*
X186747345Y-180937671D03*
%TD*%
D12*
%TO.C,D28*%
X269894486Y-140148522D03*
X269492318Y-136873120D03*
%TD*%
D11*
%TO.C,MX4*%
X145464708Y-100459068D03*
X159124002Y-99577144D03*
%TD*%
D12*
%TO.C,D26*%
X232949181Y-151863337D03*
X232547013Y-148587935D03*
%TD*%
%TO.C,D30*%
X309490452Y-150021575D03*
X309088284Y-146746173D03*
%TD*%
D11*
%TO.C,MX1*%
X87540810Y-103296067D03*
X101200104Y-102414143D03*
%TD*%
D15*
%TO.C,D22*%
X116304720Y-144344882D03*
X116706888Y-141069480D03*
%TD*%
D12*
%TO.C,D8*%
X265251557Y-102334890D03*
X264849389Y-99059488D03*
%TD*%
%TO.C,D7*%
X246923620Y-109370953D03*
X246521452Y-106095551D03*
%TD*%
D11*
%TO.C,MX13*%
X124815310Y-112329825D03*
X138474604Y-111447901D03*
%TD*%
D10*
%TO.C,MX7*%
X231437430Y-102252985D03*
X244477628Y-98092775D03*
%TD*%
D11*
%TO.C,MX22*%
X103008153Y-133629766D03*
X116667447Y-132747842D03*
%TD*%
D15*
%TO.C,D25*%
X172743344Y-153604441D03*
X173145512Y-150329039D03*
%TD*%
D13*
%TO.C,LED1*%
X193031210Y-151342461D03*
X193031210Y-152842461D03*
X198481210Y-151342461D03*
D14*
X198481210Y-152842461D03*
%TD*%
D15*
%TO.C,D3*%
X140440972Y-104075991D03*
X140843140Y-100800589D03*
%TD*%
%TO.C,D5*%
X177386279Y-115790811D03*
X177788447Y-112515409D03*
%TD*%
D12*
%TO.C,D16*%
X230627715Y-132956524D03*
X230225547Y-129681122D03*
%TD*%
D15*
%TO.C,D11*%
X98523544Y-132855862D03*
X98925712Y-129580460D03*
%TD*%
D12*
%TO.C,D27*%
X251566552Y-147184576D03*
X251164384Y-143909174D03*
%TD*%
D15*
%TO.C,D4*%
X158768906Y-111112051D03*
X159171074Y-107836649D03*
%TD*%
D13*
%TO.C,LED2*%
X193031207Y-161342465D03*
X193031207Y-162842465D03*
X198481207Y-161342465D03*
D14*
X198481207Y-162842465D03*
%TD*%
M02*
